<svg xmlns="http://www.w3.org/2000/svg" xmlns:xlink="http://www.w3.org/1999/xlink" xmlns:lucid="lucid" width="1245.36" height="904.75"><g transform="translate(0 0)" lucid:page-tab-id="ixJI1xhqisD-"><path d="M0 0h1245.36v904.75H0z" fill="#fff"/><path d="M73.88 250.04c0-2.76 2.24-5 5-5h150c2.76 0 5 2.24 5 5v110c0 2.77-2.24 5-5 5h-150c-2.76 0-5-2.23-5-5z" stroke="#000" stroke-width="2" fill="#666"/><use xlink:href="#a" transform="matrix(1,0,0,1,81.87726098191214,253.04392764857874) translate(27.049999999999997 55.6)"/><use xlink:href="#b" transform="matrix(1,0,0,1,81.87726098191214,253.04392764857874) translate(72.05 55.6)"/><path d="M53.88 47.38c0-2.76 2.24-5 5-5h190c2.76 0 5 2.24 5 5v50c0 2.76-2.24 5-5 5h-190c-2.76 0-5-2.24-5-5z" stroke="#000" stroke-opacity="0" stroke-width="2" fill="#fff" fill-opacity="0"/><use xlink:href="#c" transform="matrix(1,0,0,1,53.877260981912144,42.37726098191213) translate(5.01 33.15)"/><use xlink:href="#d" transform="matrix(1,0,0,1,53.877260981912144,42.37726098191213) translate(77.81000000000002 33.15)"/><use xlink:href="#e" transform="matrix(1,0,0,1,53.877260981912144,42.37726098191213) translate(148.71000000000004 33.15)"/><path d="M73.88 107.38c0-2.76 2.24-5 5-5h150c2.76 0 5 2.24 5 5v110c0 2.76-2.24 5-5 5h-150c-2.76 0-5-2.24-5-5z" stroke="#000" stroke-width="2" fill="#fff"/><use xlink:href="#f" transform="matrix(1,0,0,1,81.87726098191214,110.37726098191212) translate(56.05 44.8)"/><use xlink:href="#g" transform="matrix(1,0,0,1,81.87726098191214,110.37726098191212) translate(49.55 66.4)"/><path d="M432.38 247.38c0-2.76 2.24-5 5-5h150c2.76 0 5 2.24 5 5v110c0 2.76-2.24 5-5 5h-150c-2.76 0-5-2.24-5-5z" stroke="#000" stroke-width="2" fill="#666"/><use xlink:href="#h" transform="matrix(1,0,0,1,440.37726098191206,250.37726098191212) translate(54.025 55.6)"/><path d="M672.38 247.38c0-2.76 2.24-5 5-5h150c2.76 0 5 2.24 5 5v110c0 2.76-2.24 5-5 5h-150c-2.76 0-5-2.24-5-5z" stroke="#000" stroke-width="2" fill="#666"/><use xlink:href="#i" transform="matrix(1,0,0,1,680.3772609819122,250.37726098191212) translate(33.55 55.6)"/><path d="M670.38 302.38h-58.5" stroke="#000" stroke-width="2" fill="none"/><path d="M671.38 303.38h-1.03v-2h1.03z"/><path d="M596.6 302.38l14.28-4.64V307zM432.38 447.38c0-2.76 2.24-5 5-5h150c2.76 0 5 2.24 5 5v110c0 2.76-2.24 5-5 5h-150c-2.76 0-5-2.24-5-5z" stroke="#000" stroke-width="2" fill="#fff"/><use xlink:href="#j" transform="matrix(1,0,0,1,440.37726098191206,450.37726098191206) translate(50.5 44.8)"/><use xlink:href="#k" transform="matrix(1,0,0,1,440.37726098191206,450.37726098191206) translate(41.55 66.4)"/><path d="M432.38 647.38c0-2.76 2.24-5 5-5h150c2.76 0 5 2.24 5 5v110c0 2.76-2.24 5-5 5h-150c-2.76 0-5-2.24-5-5z" stroke="#000" stroke-width="2" fill="#fff"/><use xlink:href="#j" transform="matrix(1,0,0,1,440.37726098191206,650.3772609819122) translate(50.5 44.8)"/><use xlink:href="#l" transform="matrix(1,0,0,1,440.37726098191206,650.3772609819122) translate(34.574999999999996 66.4)"/><path d="M432.38 47.38c0-2.76 2.24-5 5-5h150c2.76 0 5 2.24 5 5v110c0 2.76-2.24 5-5 5h-150c-2.76 0-5-2.24-5-5z" stroke="#000" stroke-width="2" fill="#fff"/><use xlink:href="#j" transform="matrix(1,0,0,1,440.37726098191206,50.37726098191213) translate(50.5 44.8)"/><use xlink:href="#m" transform="matrix(1,0,0,1,440.37726098191206,50.37726098191213) translate(1.5749999999999886 66.4)"/><path d="M513.38 240.38h-2v-27.2h2zm0-48.8h-2V165.2h2z"/><path d="M513.38 241.38h-2v-1.03h2zM523.42 182.05l-1.72 1.02-9.32-15.76-9.32 15.77-1.72-1.02 11.04-18.67z"/><use xlink:href="#n" transform="matrix(1,0,0,1,444.45226098191205,191.5772609819121) translate(0 14.4)"/><path d="M513.38 440.38h-2v-27.2h2zm0-48.8h-2V365.2h2z"/><path d="M513.38 441.38h-2v-1.03h2zM523.42 382.05l-1.72 1.02-9.32-15.76-9.32 15.77-1.72-1.02 11.04-18.67z"/><use xlink:href="#n" transform="matrix(1,0,0,1,444.45226098191205,391.57726098191205) translate(0 14.4)"/><path d="M513.38 640.38h-2v-27.2h2zm0-48.8h-2V565.2h2z"/><path d="M513.38 641.38h-2v-1.03h2zM523.42 582.05l-1.72 1.02-9.32-15.76-9.32 15.77-1.72-1.02 11.04-18.67z"/><use xlink:href="#o" transform="matrix(1,0,0,1,450.92726098191207,591.5772609819121) translate(0 14.4)"/><path d="M373.38 501.38h57v2h-59v-79.92h2zm56.18-377.34h-56.18v256.22h-2V122.04h58.18z"/><path d="M431.38 503.38h-1.03v-2h1.03zM431.38 123.04L412.7 134.1l-1-1.74 15.75-9.32-15.76-9.32 1-1.72z"/><use xlink:href="#j" transform="matrix(1,0,0,1,325.9522609819121,380.25524840329575) translate(24.930000000000007 14.4)"/><use xlink:href="#p" transform="matrix(1,0,0,1,325.9522609819121,380.25524840329575) translate(0.005000000000002558 36)"/><path d="M303.38 701.38h127v2h-129v-49.5h2zm126.18-628H303.38v515.7h-2V71.37h128.18z"/><path d="M431.38 703.38h-1.03v-2h1.03zM431.38 72.38L412.7 83.42l-1-1.72 15.75-9.32-15.76-9.32 1-1.72z"/><use xlink:href="#j" transform="matrix(1,0,0,1,259.9022609819121,589.0663698928032) translate(20.980000000000004 14.4)"/><use xlink:href="#q" transform="matrix(1,0,0,1,259.9022609819121,589.0663698928032) translate(0.005000000000002558 36)"/><use xlink:href="#r" transform="matrix(1,0,0,1,259.9022609819121,589.0663698928032) translate(3.0050000000000026 57.6)"/><path d="M662.38 200.7h25.3v317.36h-25.3zM622.38 279.38h25.3v317.36h-25.3z" stroke="#000" stroke-opacity="0" stroke-width="2" fill="#fff" fill-opacity="0"/><path d="M634.38 503.38h-22.5v-2h20.5v-172h-38v-2h40z"/><path d="M594.4 329.38h-1.02v-2h1.02z"/><path d="M610.88 507l-14.27-4.62 14.28-4.64z" fill="#fff"/><path d="M611.88 508.4l-18.5-6.02 18.5-6zm-12.03-6.02l10.03 3.26v-6.52z"/><path d="M222.38 782.38h560v80h-560z" stroke="#000" stroke-opacity="0" stroke-width="2" fill="#fff" fill-opacity="0"/><use xlink:href="#s" transform="matrix(1,0,0,1,222.37726098191212,782.3772609819122) translate(5.01 19.41)"/><use xlink:href="#t" transform="matrix(1,0,0,1,222.37726098191212,782.3772609819122) translate(72.01 19.41)"/><use xlink:href="#u" transform="matrix(1,0,0,1,222.37726098191212,782.3772609819122) translate(288.01 19.41)"/><use xlink:href="#v" transform="matrix(1,0,0,1,222.37726098191212,782.3772609819122) translate(324.01 19.41)"/><use xlink:href="#w" transform="matrix(1,0,0,1,222.37726098191212,782.3772609819122) translate(376.01 19.41)"/><use xlink:href="#x" transform="matrix(1,0,0,1,222.37726098191212,782.3772609819122) translate(5.01 41.01)"/><use xlink:href="#y" transform="matrix(1,0,0,1,222.37726098191212,782.3772609819122) translate(36.01 41.01)"/><use xlink:href="#z" transform="matrix(1,0,0,1,222.37726098191212,782.3772609819122) translate(72.01 41.01)"/><use xlink:href="#A" transform="matrix(1,0,0,1,222.37726098191212,782.3772609819122) translate(324.01 41.01)"/><use xlink:href="#B" transform="matrix(1,0,0,1,222.37726098191212,782.3772609819122) translate(365.96 41.01)"/><use xlink:href="#C" transform="matrix(1,0,0,1,222.37726098191212,782.3772609819122) translate(449.90999999999997 41.01)"/><path d="M78.45 443.24H43.38v-2h35.07zm168.43 0H229.3v-2h17.58z"/><path d="M43.4 443.24h-1.02v-2h1.02z"/><path d="M262.14 442.24l-14.26 4.63v-9.27z" fill="#fff"/><path d="M265.38 442.24l-18.5 6v-12.02zm-16.5 3.25l10.03-3.26-10.02-3.26z"/><g><use xlink:href="#D" transform="matrix(1,0,0,1,153.87726098191212,431.83559431524526) translate(0 13.866666666666669)"/></g><g><use xlink:href="#E" transform="matrix(1,0,0,1,78.4522609819121,420.6355943152452) translate(0 14.4)"/><use xlink:href="#F" transform="matrix(1,0,0,1,78.4522609819121,420.6355943152452) translate(132.85000000000002 14.4)"/><use xlink:href="#G" transform="matrix(1,0,0,1,78.4522609819121,420.6355943152452) translate(0 36)"/></g><path d="M107.95 388.7H43.38v-2h64.57zm155.6 0H199.8v-2h63.76z"/><path d="M43.4 388.7h-1.02v-2h1.02zM265.38 387.7l-18.67 11.05-1-1.72 15.75-9.32-15.76-9.3 1-1.73z"/><g><use xlink:href="#D" transform="matrix(1,0,0,1,153.87726098191212,377.3105943152453) translate(0 13.866666666666669)"/></g><g><use xlink:href="#H" transform="matrix(1,0,0,1,107.9522609819121,376.91059431524525) translate(0 14.4)"/></g><defs><path fill="#fff" d="M143 4C61 4 22-44 18-125c-5-107 100-154 193-111 17 8 29 25 37 43l-32 9c-13-25-37-40-76-40-61 0-88 39-88 99 0 61 29 100 91 101 35 0 62-11 79-27v-45h-74v-28h105v86C228-13 192 4 143 4" id="I"/><path fill="#fff" d="M185-189c-5-48-123-54-124 2 14 75 158 14 163 119 3 78-121 87-175 55-17-10-28-26-33-46l33-7c5 56 141 63 141-1 0-78-155-14-162-118-5-82 145-84 179-34 5 7 8 16 11 25" id="J"/><path fill="#fff" d="M140-251c81 0 123 46 123 126C263-53 228-8 163 1c7 30 30 48 69 40v23c-55 16-95-15-103-61C56-3 17-48 17-125c0-80 42-126 123-126zm0 227c63 0 89-41 89-101s-29-99-89-99c-61 0-89 39-89 99S79-25 140-24" id="K"/><g id="a"><use transform="matrix(0.05,0,0,0.05,0,0)" xlink:href="#I"/><use transform="matrix(0.05,0,0,0.05,14,0)" xlink:href="#J"/><use transform="matrix(0.05,0,0,0.05,26,0)" xlink:href="#K"/></g><path fill="#fff" d="M212-179c-10-28-35-45-73-45-59 0-87 40-87 99 0 60 29 101 89 101 43 0 62-24 78-52l27 14C228-24 195 4 139 4 59 4 22-46 18-125c-6-104 99-153 187-111 19 9 31 26 39 46" id="L"/><path fill="#fff" d="M24 0v-261h32V0H24" id="M"/><path fill="#fff" d="M141-36C126-15 110 5 73 4 37 3 15-17 15-53c-1-64 63-63 125-63 3-35-9-54-41-54-24 1-41 7-42 31l-33-3c5-37 33-52 76-52 45 0 72 20 72 64v82c-1 20 7 32 28 27v20c-31 9-61-2-59-35zM48-53c0 20 12 33 32 33 41-3 63-29 60-74-43 2-92-5-92 41" id="N"/><path fill="#fff" d="M135-143c-3-34-86-38-87 0 15 53 115 12 119 90S17 21 10-45l28-5c4 36 97 45 98 0-10-56-113-15-118-90-4-57 82-63 122-42 12 7 21 19 24 35" id="O"/><g id="b"><use transform="matrix(0.05,0,0,0.05,0,0)" xlink:href="#L"/><use transform="matrix(0.05,0,0,0.05,12.950000000000001,0)" xlink:href="#M"/><use transform="matrix(0.05,0,0,0.05,16.900000000000002,0)" xlink:href="#N"/><use transform="matrix(0.05,0,0,0.05,26.900000000000002,0)" xlink:href="#O"/><use transform="matrix(0.05,0,0,0.05,35.900000000000006,0)" xlink:href="#O"/></g><path d="M30-248c118-7 216 8 213 122C240-48 200 0 122 0H30v-248zM63-27c89 8 146-16 146-99s-60-101-146-95v194" id="P"/><path d="M24-231v-30h32v30H24zM24 0v-190h32V0H24" id="Q"/><path d="M141-36C126-15 110 5 73 4 37 3 15-17 15-53c-1-64 63-63 125-63 3-35-9-54-41-54-24 1-41 7-42 31l-33-3c5-37 33-52 76-52 45 0 72 20 72 64v82c-1 20 7 32 28 27v20c-31 9-61-2-59-35zM48-53c0 20 12 33 32 33 41-3 63-29 60-74-43 2-92-5-92 41" id="R"/><path d="M177-190C167-65 218 103 67 71c-23-6-38-20-44-43l32-5c15 47 100 32 89-28v-30C133-14 115 1 83 1 29 1 15-40 15-95c0-56 16-97 71-98 29-1 48 16 59 35 1-10 0-23 2-32h30zM94-22c36 0 50-32 50-73 0-42-14-75-50-75-39 0-46 34-46 75s6 73 46 73" id="S"/><path d="M114-163C36-179 61-72 57 0H25l-1-190h30c1 12-1 29 2 39 6-27 23-49 58-41v29" id="T"/><path d="M210-169c-67 3-38 105-44 169h-31v-121c0-29-5-50-35-48C34-165 62-65 56 0H25l-1-190h30c1 10-1 24 2 32 10-44 99-50 107 0 11-21 27-35 58-36 85-2 47 119 55 194h-31v-121c0-29-5-49-35-48" id="U"/><g id="c"><use transform="matrix(0.05,0,0,0.05,0,0)" xlink:href="#P"/><use transform="matrix(0.05,0,0,0.05,12.950000000000001,0)" xlink:href="#Q"/><use transform="matrix(0.05,0,0,0.05,16.900000000000002,0)" xlink:href="#R"/><use transform="matrix(0.05,0,0,0.05,26.900000000000002,0)" xlink:href="#S"/><use transform="matrix(0.05,0,0,0.05,36.900000000000006,0)" xlink:href="#T"/><use transform="matrix(0.05,0,0,0.05,42.85000000000001,0)" xlink:href="#R"/><use transform="matrix(0.05,0,0,0.05,52.85,0)" xlink:href="#U"/><path d="M-.9 1.25h74.6v1.32H-.9z"/></g><path d="M30 0v-248h187v28H63v79h144v27H63v87h162V0H30" id="V"/><path d="M24 0v-261h32V0H24" id="W"/><path d="M100-194c63 0 86 42 84 106H49c0 40 14 67 53 68 26 1 43-12 49-29l28 8c-11 28-37 45-77 45C44 4 14-33 15-96c1-61 26-98 85-98zm52 81c6-60-76-77-97-28-3 7-6 17-6 28h103" id="X"/><path d="M117-194c89-4 53 116 60 194h-32v-121c0-31-8-49-39-48C34-167 62-67 57 0H25l-1-190h30c1 10-1 24 2 32 11-22 29-35 61-36" id="Y"/><path d="M59-47c-2 24 18 29 38 22v24C64 9 27 4 27-40v-127H5v-23h24l9-43h21v43h35v23H59v120" id="Z"/><g id="d"><use transform="matrix(0.05,0,0,0.05,0,0)" xlink:href="#V"/><use transform="matrix(0.05,0,0,0.05,12,0)" xlink:href="#W"/><use transform="matrix(0.05,0,0,0.05,15.949999999999998,0)" xlink:href="#X"/><use transform="matrix(0.05,0,0,0.05,25.950000000000003,0)" xlink:href="#U"/><use transform="matrix(0.05,0,0,0.05,40.9,0)" xlink:href="#X"/><use transform="matrix(0.05,0,0,0.05,50.9,0)" xlink:href="#Y"/><use transform="matrix(0.05,0,0,0.05,60.900000000000006,0)" xlink:href="#Z"/><path d="M-.9 1.25h72.7v1.32H-.9z"/></g><path d="M194 0L95-120 63-95V0H30v-248h33v124l119-124h40L117-140 236 0h-42" id="aa"/><path d="M179-190L93 31C79 59 56 82 12 73V49c39 6 53-20 64-50L1-190h34L92-34l54-156h33" id="ab"/><g id="e"><use transform="matrix(0.05,0,0,0.05,0,0)" xlink:href="#aa"/><use transform="matrix(0.05,0,0,0.05,12,0)" xlink:href="#X"/><use transform="matrix(0.05,0,0,0.05,22,0)" xlink:href="#ab"/><path d="M-.9 1.25h32.8v1.32H-.9z"/></g><path d="M100-194c62-1 85 37 85 99 1 63-27 99-86 99S16-35 15-95c0-66 28-99 85-99zM99-20c44 1 53-31 53-75 0-43-8-75-51-75s-53 32-53 75 10 74 51 75" id="ac"/><path d="M206 0h-36l-40-164L89 0H53L-1-190h32L70-26l43-164h34l41 164 42-164h31" id="ad"/><path d="M33-154v-36h34v36H33zM33 0v-36h34V0H33" id="ae"/><g id="f"><use transform="matrix(0.05,0,0,0.05,0,0)" xlink:href="#ac"/><use transform="matrix(0.05,0,0,0.05,10,0)" xlink:href="#ad"/><use transform="matrix(0.05,0,0,0.05,22.950000000000003,0)" xlink:href="#W"/><use transform="matrix(0.05,0,0,0.05,26.900000000000002,0)" xlink:href="#ae"/></g><path d="M212-179c-10-28-35-45-73-45-59 0-87 40-87 99 0 60 29 101 89 101 43 0 62-24 78-52l27 14C228-24 195 4 139 4 59 4 22-46 18-125c-6-104 99-153 187-111 19 9 31 26 39 46" id="af"/><path d="M135-143c-3-34-86-38-87 0 15 53 115 12 119 90S17 21 10-45l28-5c4 36 97 45 98 0-10-56-113-15-118-90-4-57 82-63 122-42 12 7 21 19 24 35" id="ag"/><g id="g"><use transform="matrix(0.05,0,0,0.05,0,0)" xlink:href="#af"/><use transform="matrix(0.05,0,0,0.05,12.950000000000001,0)" xlink:href="#W"/><use transform="matrix(0.05,0,0,0.05,16.900000000000002,0)" xlink:href="#R"/><use transform="matrix(0.05,0,0,0.05,26.900000000000002,0)" xlink:href="#ag"/><use transform="matrix(0.05,0,0,0.05,35.900000000000006,0)" xlink:href="#ag"/></g><path fill="#fff" d="M33-154v-36h34v36H33zM33 0v-36h34V0H33" id="ah"/><path fill="#fff" d="M24-231v-30h32v30H24zM24 0v-190h32V0H24" id="ai"/><path fill="#fff" d="M59-47c-2 24 18 29 38 22v24C64 9 27 4 27-40v-127H5v-23h24l9-43h21v43h35v23H59v120" id="aj"/><path fill="#fff" d="M100-194c63 0 86 42 84 106H49c0 40 14 67 53 68 26 1 43-12 49-29l28 8c-11 28-37 45-77 45C44 4 14-33 15-96c1-61 26-98 85-98zm52 81c6-60-76-77-97-28-3 7-6 17-6 28h103" id="ak"/><g id="h"><use transform="matrix(0.05,0,0,0.05,0,0)" xlink:href="#ah"/><use transform="matrix(0.05,0,0,0.05,5,0)" xlink:href="#J"/><use transform="matrix(0.05,0,0,0.05,17,0)" xlink:href="#ai"/><use transform="matrix(0.05,0,0,0.05,20.95,0)" xlink:href="#aj"/><use transform="matrix(0.05,0,0,0.05,25.950000000000003,0)" xlink:href="#ak"/></g><path fill="#fff" d="M160-131c35 5 61 23 61 61C221 17 115-2 30 0v-248c76 3 177-17 177 60 0 33-19 50-47 57zm-97-11c50-1 110 9 110-42 0-47-63-36-110-37v79zm0 115c55-2 124 14 124-45 0-56-70-42-124-44v89" id="al"/><path fill="#fff" d="M100-194c62-1 85 37 85 99 1 63-27 99-86 99S16-35 15-95c0-66 28-99 85-99zM99-20c44 1 53-31 53-75 0-43-8-75-51-75s-53 32-53 75 10 74 51 75" id="am"/><path fill="#fff" d="M114-163C36-179 61-72 57 0H25l-1-190h30c1 12-1 29 2 39 6-27 23-49 58-41v29" id="an"/><path fill="#fff" d="M106-169C34-169 62-67 57 0H25v-261h32l-1 103c12-21 28-36 61-36 89 0 53 116 60 194h-32v-121c2-32-8-49-39-48" id="ao"/><g id="i"><use transform="matrix(0.05,0,0,0.05,0,0)" xlink:href="#ah"/><use transform="matrix(0.05,0,0,0.05,5,0)" xlink:href="#al"/><use transform="matrix(0.05,0,0,0.05,17,0)" xlink:href="#am"/><use transform="matrix(0.05,0,0,0.05,27,0)" xlink:href="#an"/><use transform="matrix(0.05,0,0,0.05,32.95,0)" xlink:href="#ak"/><use transform="matrix(0.05,0,0,0.05,42.95,0)" xlink:href="#ao"/><use transform="matrix(0.05,0,0,0.05,52.95,0)" xlink:href="#am"/><use transform="matrix(0.05,0,0,0.05,62.95,0)" xlink:href="#M"/><use transform="matrix(0.05,0,0,0.05,66.9,0)" xlink:href="#ak"/></g><g id="j"><use transform="matrix(0.05,0,0,0.05,0,0)" xlink:href="#ag"/><use transform="matrix(0.05,0,0,0.05,9,0)" xlink:href="#ac"/><use transform="matrix(0.05,0,0,0.05,19,0)" xlink:href="#ag"/><use transform="matrix(0.05,0,0,0.05,28,0)" xlink:href="#R"/><use transform="matrix(0.05,0,0,0.05,38,0)" xlink:href="#ae"/></g><path d="M185-189c-5-48-123-54-124 2 14 75 158 14 163 119 3 78-121 87-175 55-17-10-28-26-33-46l33-7c5 56 141 63 141-1 0-78-155-14-162-118-5-82 145-84 179-34 5 7 8 16 11 25" id="ap"/><path d="M115-194c55 1 70 41 70 98S169 2 115 4C84 4 66-9 55-30l1 105H24l-1-265h31l2 30c10-21 28-34 59-34zm-8 174c40 0 45-34 45-75s-6-73-45-74c-42 0-51 32-51 76 0 43 10 73 51 73" id="aq"/><g id="k"><use transform="matrix(0.05,0,0,0.05,0,0)" xlink:href="#ap"/><use transform="matrix(0.05,0,0,0.05,12,0)" xlink:href="#R"/><use transform="matrix(0.05,0,0,0.05,22,0)" xlink:href="#U"/><use transform="matrix(0.05,0,0,0.05,36.95,0)" xlink:href="#aq"/><use transform="matrix(0.05,0,0,0.05,46.95,0)" xlink:href="#W"/><use transform="matrix(0.05,0,0,0.05,50.900000000000006,0)" xlink:href="#X"/></g><g id="l"><use transform="matrix(0.05,0,0,0.05,0,0)" xlink:href="#ap"/><use transform="matrix(0.05,0,0,0.05,12,0)" xlink:href="#R"/><use transform="matrix(0.05,0,0,0.05,22,0)" xlink:href="#U"/><use transform="matrix(0.05,0,0,0.05,36.95,0)" xlink:href="#aq"/><use transform="matrix(0.05,0,0,0.05,46.95,0)" xlink:href="#W"/><use transform="matrix(0.05,0,0,0.05,50.900000000000006,0)" xlink:href="#Q"/><use transform="matrix(0.05,0,0,0.05,54.85,0)" xlink:href="#Y"/><use transform="matrix(0.05,0,0,0.05,64.85000000000001,0)" xlink:href="#S"/></g><path d="M63-220v92h138v28H63V0H30v-248h175v28H63" id="ar"/><path d="M84 4C-5 8 30-112 23-190h32v120c0 31 7 50 39 49 72-2 45-101 50-169h31l1 190h-30c-1-10 1-25-2-33-11 22-28 36-60 37" id="as"/><path d="M140-251c81 0 123 46 123 126C263-46 219 4 140 4 59 4 17-45 17-125s42-126 123-126zm0 227c63 0 89-41 89-101s-29-99-89-99c-61 0-89 39-89 99S79-25 140-24" id="at"/><path d="M101-234c-31-9-42 10-38 44h38v23H63V0H32v-167H5v-23h27c-7-52 17-82 69-68v24" id="au"/><path d="M33 0v-248h34V0H33" id="av"/><g id="m"><use transform="matrix(0.05,0,0,0.05,0,0)" xlink:href="#ar"/><use transform="matrix(0.05,0,0,0.05,10.950000000000001,0)" xlink:href="#X"/><use transform="matrix(0.05,0,0,0.05,20.950000000000003,0)" xlink:href="#R"/><use transform="matrix(0.05,0,0,0.05,30.950000000000003,0)" xlink:href="#Z"/><use transform="matrix(0.05,0,0,0.05,35.95,0)" xlink:href="#as"/><use transform="matrix(0.05,0,0,0.05,45.95,0)" xlink:href="#T"/><use transform="matrix(0.05,0,0,0.05,51.900000000000006,0)" xlink:href="#X"/><use transform="matrix(0.05,0,0,0.05,61.900000000000006,0)" xlink:href="#at"/><use transform="matrix(0.05,0,0,0.05,75.9,0)" xlink:href="#au"/><use transform="matrix(0.05,0,0,0.05,80.9,0)" xlink:href="#av"/><use transform="matrix(0.05,0,0,0.05,85.9,0)" xlink:href="#Y"/><use transform="matrix(0.05,0,0,0.05,95.9,0)" xlink:href="#Z"/><use transform="matrix(0.05,0,0,0.05,100.9,0)" xlink:href="#X"/><use transform="matrix(0.05,0,0,0.05,110.9,0)" xlink:href="#T"/><use transform="matrix(0.05,0,0,0.05,116.85000000000001,0)" xlink:href="#X"/><use transform="matrix(0.05,0,0,0.05,126.85000000000001,0)" xlink:href="#ag"/><use transform="matrix(0.05,0,0,0.05,135.85000000000002,0)" xlink:href="#Z"/></g><g id="n"><use transform="matrix(0.05,0,0,0.05,0,0)" xlink:href="#ag"/><use transform="matrix(0.05,0,0,0.05,9,0)" xlink:href="#ac"/><use transform="matrix(0.05,0,0,0.05,19,0)" xlink:href="#ag"/><use transform="matrix(0.05,0,0,0.05,28,0)" xlink:href="#R"/><use transform="matrix(0.05,0,0,0.05,38,0)" xlink:href="#ae"/><use transform="matrix(0.05,0,0,0.05,43,0)" xlink:href="#Q"/><use transform="matrix(0.05,0,0,0.05,46.95,0)" xlink:href="#ag"/><use transform="matrix(0.05,0,0,0.05,55.95,0)" xlink:href="#ap"/><use transform="matrix(0.05,0,0,0.05,67.95,0)" xlink:href="#R"/><use transform="matrix(0.05,0,0,0.05,77.95,0)" xlink:href="#U"/><use transform="matrix(0.05,0,0,0.05,92.9,0)" xlink:href="#aq"/><use transform="matrix(0.05,0,0,0.05,102.9,0)" xlink:href="#W"/><use transform="matrix(0.05,0,0,0.05,106.85000000000001,0)" xlink:href="#X"/><use transform="matrix(0.05,0,0,0.05,116.85000000000001,0)" xlink:href="#at"/><use transform="matrix(0.05,0,0,0.05,130.85000000000002,0)" xlink:href="#au"/></g><path d="M106-169C34-169 62-67 57 0H25v-261h32l-1 103c12-21 28-36 61-36 89 0 53 116 60 194h-32v-121c2-32-8-49-39-48" id="aw"/><path d="M233-177c-1 41-23 64-60 70L243 0h-38l-65-103H63V0H30v-248c88 3 205-21 203 71zM63-129c60-2 137 13 137-47 0-61-80-42-137-45v92" id="ax"/><g id="o"><use transform="matrix(0.05,0,0,0.05,0,0)" xlink:href="#ag"/><use transform="matrix(0.05,0,0,0.05,9,0)" xlink:href="#ac"/><use transform="matrix(0.05,0,0,0.05,19,0)" xlink:href="#ag"/><use transform="matrix(0.05,0,0,0.05,28,0)" xlink:href="#R"/><use transform="matrix(0.05,0,0,0.05,38,0)" xlink:href="#ae"/><use transform="matrix(0.05,0,0,0.05,43,0)" xlink:href="#aw"/><use transform="matrix(0.05,0,0,0.05,53,0)" xlink:href="#R"/><use transform="matrix(0.05,0,0,0.05,63,0)" xlink:href="#ag"/><use transform="matrix(0.05,0,0,0.05,72,0)" xlink:href="#ax"/><use transform="matrix(0.05,0,0,0.05,84.95,0)" xlink:href="#X"/><use transform="matrix(0.05,0,0,0.05,94.95,0)" xlink:href="#ag"/><use transform="matrix(0.05,0,0,0.05,103.95,0)" xlink:href="#as"/><use transform="matrix(0.05,0,0,0.05,113.95,0)" xlink:href="#W"/><use transform="matrix(0.05,0,0,0.05,117.9,0)" xlink:href="#Z"/></g><g id="p"><use transform="matrix(0.05,0,0,0.05,0,0)" xlink:href="#Q"/><use transform="matrix(0.05,0,0,0.05,3.95,0)" xlink:href="#ag"/><use transform="matrix(0.05,0,0,0.05,12.949999999999998,0)" xlink:href="#ap"/><use transform="matrix(0.05,0,0,0.05,24.95,0)" xlink:href="#R"/><use transform="matrix(0.05,0,0,0.05,34.95,0)" xlink:href="#U"/><use transform="matrix(0.05,0,0,0.05,49.900000000000006,0)" xlink:href="#aq"/><use transform="matrix(0.05,0,0,0.05,59.900000000000006,0)" xlink:href="#W"/><use transform="matrix(0.05,0,0,0.05,63.85,0)" xlink:href="#X"/><use transform="matrix(0.05,0,0,0.05,73.85000000000001,0)" xlink:href="#at"/><use transform="matrix(0.05,0,0,0.05,87.85000000000001,0)" xlink:href="#au"/></g><g id="q"><use transform="matrix(0.05,0,0,0.05,0,0)" xlink:href="#aw"/><use transform="matrix(0.05,0,0,0.05,10,0)" xlink:href="#R"/><use transform="matrix(0.05,0,0,0.05,20,0)" xlink:href="#ag"/><use transform="matrix(0.05,0,0,0.05,29,0)" xlink:href="#au"/><use transform="matrix(0.05,0,0,0.05,34,0)" xlink:href="#X"/><use transform="matrix(0.05,0,0,0.05,44,0)" xlink:href="#R"/><use transform="matrix(0.05,0,0,0.05,54,0)" xlink:href="#Z"/><use transform="matrix(0.05,0,0,0.05,59,0)" xlink:href="#as"/><use transform="matrix(0.05,0,0,0.05,69,0)" xlink:href="#T"/><use transform="matrix(0.05,0,0,0.05,74.95,0)" xlink:href="#X"/></g><g id="r"><use transform="matrix(0.05,0,0,0.05,0,0)" xlink:href="#at"/><use transform="matrix(0.05,0,0,0.05,14,0)" xlink:href="#au"/><use transform="matrix(0.05,0,0,0.05,19,0)" xlink:href="#av"/><use transform="matrix(0.05,0,0,0.05,24,0)" xlink:href="#Y"/><use transform="matrix(0.05,0,0,0.05,34,0)" xlink:href="#Z"/><use transform="matrix(0.05,0,0,0.05,39,0)" xlink:href="#X"/><use transform="matrix(0.05,0,0,0.05,49,0)" xlink:href="#T"/><use transform="matrix(0.05,0,0,0.05,54.95,0)" xlink:href="#X"/><use transform="matrix(0.05,0,0,0.05,64.95,0)" xlink:href="#ag"/><use transform="matrix(0.05,0,0,0.05,73.95,0)" xlink:href="#Z"/></g><g id="s"><use transform="matrix(0.05,0,0,0.05,0,0)" xlink:href="#ag"/><use transform="matrix(0.05,0,0,0.05,9,0)" xlink:href="#ac"/><use transform="matrix(0.05,0,0,0.05,19,0)" xlink:href="#ag"/><use transform="matrix(0.05,0,0,0.05,28,0)" xlink:href="#R"/><use transform="matrix(0.05,0,0,0.05,38,0)" xlink:href="#ae"/></g><path d="M0 4l72-265h28L28 4H0" id="ay"/><path d="M33 0v-38h34V0H33" id="az"/><path d="M126-127c33 6 58 20 58 59 0 88-139 92-164 29-3-8-5-16-6-25l32-3c6 27 21 44 54 44 32 0 52-15 52-46 0-38-36-46-79-43v-28c39 1 72-4 72-42 0-27-17-43-46-43-28 0-47 15-49 41l-32-3c6-42 35-63 81-64 48-1 79 21 79 65 0 36-21 52-52 59" id="aA"/><g id="t"><use transform="matrix(0.048148148148148155,0,0,0.048148148148148155,0,0)" xlink:href="#aw"/><use transform="matrix(0.048148148148148155,0,0,0.048148148148148155,9.629629629629632,0)" xlink:href="#Z"/><use transform="matrix(0.048148148148148155,0,0,0.048148148148148155,14.444444444444446,0)" xlink:href="#Z"/><use transform="matrix(0.048148148148148155,0,0,0.048148148148148155,19.259259259259263,0)" xlink:href="#aq"/><use transform="matrix(0.048148148148148155,0,0,0.048148148148148155,28.888888888888893,0)" xlink:href="#ae"/><use transform="matrix(0.048148148148148155,0,0,0.048148148148148155,33.70370370370371,0)" xlink:href="#ay"/><use transform="matrix(0.048148148148148155,0,0,0.048148148148148155,38.518518518518526,0)" xlink:href="#ay"/><use transform="matrix(0.048148148148148155,0,0,0.048148148148148155,43.33333333333334,0)" xlink:href="#ad"/><use transform="matrix(0.048148148148148155,0,0,0.048148148148148155,55.803703703703725,0)" xlink:href="#ad"/><use transform="matrix(0.048148148148148155,0,0,0.048148148148148155,68.2740740740741,0)" xlink:href="#ad"/><use transform="matrix(0.048148148148148155,0,0,0.048148148148148155,79.7814814814815,0)" xlink:href="#az"/><use transform="matrix(0.048148148148148155,0,0,0.048148148148148155,84.59629629629632,0)" xlink:href="#ad"/><use transform="matrix(0.048148148148148155,0,0,0.048148148148148155,97.06666666666669,0)" xlink:href="#aA"/><use transform="matrix(0.048148148148148155,0,0,0.048148148148148155,106.69629629629634,0)" xlink:href="#az"/><use transform="matrix(0.048148148148148155,0,0,0.048148148148148155,111.51111111111113,0)" xlink:href="#ac"/><use transform="matrix(0.048148148148148155,0,0,0.048148148148148155,121.14074074074075,0)" xlink:href="#T"/><use transform="matrix(0.048148148148148155,0,0,0.048148148148148155,126.8703703703704,0)" xlink:href="#S"/><use transform="matrix(0.048148148148148155,0,0,0.048148148148148155,136.50000000000003,0)" xlink:href="#ay"/><use transform="matrix(0.048148148148148155,0,0,0.048148148148148155,141.31481481481484,0)" xlink:href="#Y"/><use transform="matrix(0.048148148148148155,0,0,0.048148148148148155,150.94444444444446,0)" xlink:href="#ag"/><use transform="matrix(0.048148148148148155,0,0,0.048148148148148155,159.61111111111111,0)" xlink:href="#ay"/><use transform="matrix(0.048148148148148155,0,0,0.048148148148148155,164.42592592592592,0)" xlink:href="#ag"/><use transform="matrix(0.048148148148148155,0,0,0.048148148148148155,173.09259259259258,0)" xlink:href="#ac"/><use transform="matrix(0.048148148148148155,0,0,0.048148148148148155,182.7222222222222,0)" xlink:href="#ag"/><use transform="matrix(0.048148148148148155,0,0,0.048148148148148155,191.38888888888886,0)" xlink:href="#R"/><use transform="matrix(0.048148148148148155,0,0,0.048148148148148155,201.01851851851845,0)" xlink:href="#ay"/></g><path d="M205 0l-28-72H64L36 0H1l101-248h38L239 0h-34zm-38-99l-47-123c-12 45-31 82-46 123h93" id="aB"/><g id="v"><use transform="matrix(0.048148148148148155,0,0,0.048148148148148155,0,0)" xlink:href="#ap"/><use transform="matrix(0.048148148148148155,0,0,0.048148148148148155,11.555555555555557,0)" xlink:href="#at"/><use transform="matrix(0.048148148148148155,0,0,0.048148148148148155,25.03703703703704,0)" xlink:href="#ap"/><use transform="matrix(0.048148148148148155,0,0,0.048148148148148155,36.592592592592595,0)" xlink:href="#aB"/></g><g id="w"><use transform="matrix(0.048148148148148155,0,0,0.048148148148148155,0,0)" xlink:href="#at"/><use transform="matrix(0.048148148148148155,0,0,0.048148148148148155,13.481481481481483,0)" xlink:href="#Y"/><use transform="matrix(0.048148148148148155,0,0,0.048148148148148155,23.111111111111114,0)" xlink:href="#Z"/><use transform="matrix(0.048148148148148155,0,0,0.048148148148148155,27.92592592592593,0)" xlink:href="#ac"/><use transform="matrix(0.048148148148148155,0,0,0.048148148148148155,37.555555555555564,0)" xlink:href="#W"/><use transform="matrix(0.048148148148148155,0,0,0.048148148148148155,41.35925925925927,0)" xlink:href="#ac"/><use transform="matrix(0.048148148148148155,0,0,0.048148148148148155,50.988888888888894,0)" xlink:href="#S"/><use transform="matrix(0.048148148148148155,0,0,0.048148148148148155,60.61851851851854,0)" xlink:href="#ab"/></g><path d="M141 0L90-78 38 0H4l68-98-65-92h35l48 74 47-74h35l-64 92 68 98h-35" id="aC"/><g id="x"><use transform="matrix(0.05,0,0,0.05,0,0)" xlink:href="#X"/><use transform="matrix(0.05,0,0,0.05,10,0)" xlink:href="#aC"/><use transform="matrix(0.05,0,0,0.05,19,0)" xlink:href="#Z"/><use transform="matrix(0.05,0,0,0.05,24,0)" xlink:href="#ae"/></g><g id="z"><use transform="matrix(0.05,0,0,0.05,0,0)" xlink:href="#aw"/><use transform="matrix(0.05,0,0,0.05,10,0)" xlink:href="#Z"/><use transform="matrix(0.05,0,0,0.05,15,0)" xlink:href="#Z"/><use transform="matrix(0.05,0,0,0.05,20,0)" xlink:href="#aq"/><use transform="matrix(0.05,0,0,0.05,30,0)" xlink:href="#ae"/><use transform="matrix(0.05,0,0,0.05,35,0)" xlink:href="#ay"/><use transform="matrix(0.05,0,0,0.05,40,0)" xlink:href="#ay"/><use transform="matrix(0.05,0,0,0.05,45,0)" xlink:href="#ad"/><use transform="matrix(0.05,0,0,0.05,57.95,0)" xlink:href="#ad"/><use transform="matrix(0.05,0,0,0.05,70.9,0)" xlink:href="#ad"/><use transform="matrix(0.05,0,0,0.05,82.85000000000001,0)" xlink:href="#az"/><use transform="matrix(0.05,0,0,0.05,87.85000000000001,0)" xlink:href="#ad"/><use transform="matrix(0.05,0,0,0.05,100.80000000000001,0)" xlink:href="#aA"/><use transform="matrix(0.05,0,0,0.05,110.80000000000001,0)" xlink:href="#az"/><use transform="matrix(0.05,0,0,0.05,115.80000000000001,0)" xlink:href="#ac"/><use transform="matrix(0.05,0,0,0.05,125.80000000000001,0)" xlink:href="#T"/><use transform="matrix(0.05,0,0,0.05,131.75,0)" xlink:href="#S"/><use transform="matrix(0.05,0,0,0.05,141.75,0)" xlink:href="#ay"/><use transform="matrix(0.05,0,0,0.05,146.75,0)" xlink:href="#Y"/><use transform="matrix(0.05,0,0,0.05,156.75,0)" xlink:href="#ag"/><use transform="matrix(0.05,0,0,0.05,165.75,0)" xlink:href="#ay"/><use transform="matrix(0.05,0,0,0.05,170.75,0)" xlink:href="#ag"/><use transform="matrix(0.05,0,0,0.05,179.75,0)" xlink:href="#ag"/><use transform="matrix(0.05,0,0,0.05,188.75,0)" xlink:href="#Y"/><use transform="matrix(0.05,0,0,0.05,198.75,0)" xlink:href="#ay"/><use transform="matrix(0.05,0,0,0.05,203.75,0)" xlink:href="#X"/><use transform="matrix(0.05,0,0,0.05,213.75,0)" xlink:href="#aC"/><use transform="matrix(0.05,0,0,0.05,222.75,0)" xlink:href="#Z"/><use transform="matrix(0.05,0,0,0.05,227.75,0)" xlink:href="#ay"/></g><path d="M190 0L58-211 59 0H30v-248h39L202-35l-2-213h31V0h-41" id="aD"/><g id="A"><use transform="matrix(0.05,0,0,0.05,0,0)" xlink:href="#ap"/><use transform="matrix(0.05,0,0,0.05,12,0)" xlink:href="#ap"/><use transform="matrix(0.05,0,0,0.05,24,0)" xlink:href="#aD"/></g><g id="B"><use transform="matrix(0.05,0,0,0.05,0,0)" xlink:href="#V"/><use transform="matrix(0.05,0,0,0.05,12,0)" xlink:href="#aC"/><use transform="matrix(0.05,0,0,0.05,21,0)" xlink:href="#Z"/><use transform="matrix(0.05,0,0,0.05,26,0)" xlink:href="#X"/><use transform="matrix(0.05,0,0,0.05,36,0)" xlink:href="#Y"/><use transform="matrix(0.05,0,0,0.05,46,0)" xlink:href="#ag"/><use transform="matrix(0.05,0,0,0.05,55,0)" xlink:href="#Q"/><use transform="matrix(0.05,0,0,0.05,58.95,0)" xlink:href="#ac"/><use transform="matrix(0.05,0,0,0.05,68.95,0)" xlink:href="#Y"/></g><g id="C"><use transform="matrix(0.05,0,0,0.05,0,0)" xlink:href="#at"/><use transform="matrix(0.05,0,0,0.05,14,0)" xlink:href="#Y"/><use transform="matrix(0.05,0,0,0.05,24,0)" xlink:href="#Z"/><use transform="matrix(0.05,0,0,0.05,29,0)" xlink:href="#ac"/><use transform="matrix(0.05,0,0,0.05,39,0)" xlink:href="#W"/><use transform="matrix(0.05,0,0,0.05,42.95,0)" xlink:href="#ac"/><use transform="matrix(0.05,0,0,0.05,52.95,0)" xlink:href="#S"/><use transform="matrix(0.05,0,0,0.05,62.95,0)" xlink:href="#ab"/></g><path d="M85-194c31 0 48 13 60 33l-1-100h32l1 261h-30c-2-10 0-23-3-31C134-8 116 4 85 4 32 4 16-35 15-94c0-66 23-100 70-100zm9 24c-40 0-46 34-46 75 0 40 6 74 45 74 42 0 51-32 51-76 0-42-9-74-50-73" id="aE"/><path d="M115-194c53 0 69 39 70 98 0 66-23 100-70 100C84 3 66-7 56-30L54 0H23l1-261h32v101c10-23 28-34 59-34zm-8 174c40 0 45-34 45-75 0-40-5-75-45-74-42 0-51 32-51 76 0 43 10 73 51 73" id="aF"/><g id="E"><use transform="matrix(0.05,0,0,0.05,0,0)" xlink:href="#T"/><use transform="matrix(0.05,0,0,0.05,5.95,0)" xlink:href="#aE"/><use transform="matrix(0.05,0,0,0.05,15.949999999999998,0)" xlink:href="#au"/><use transform="matrix(0.05,0,0,0.05,20.95,0)" xlink:href="#ag"/><use transform="matrix(0.05,0,0,0.05,29.950000000000003,0)" xlink:href="#ae"/><use transform="matrix(0.05,0,0,0.05,34.95,0)" xlink:href="#ag"/><use transform="matrix(0.05,0,0,0.05,43.95,0)" xlink:href="#as"/><use transform="matrix(0.05,0,0,0.05,53.95,0)" xlink:href="#aF"/><use transform="matrix(0.05,0,0,0.05,63.95,0)" xlink:href="#af"/><use transform="matrix(0.05,0,0,0.05,76.9,0)" xlink:href="#W"/><use transform="matrix(0.05,0,0,0.05,80.85000000000001,0)" xlink:href="#R"/><use transform="matrix(0.05,0,0,0.05,90.85000000000001,0)" xlink:href="#ag"/><use transform="matrix(0.05,0,0,0.05,99.85000000000001,0)" xlink:href="#ag"/><use transform="matrix(0.05,0,0,0.05,108.85000000000001,0)" xlink:href="#at"/><use transform="matrix(0.05,0,0,0.05,122.85000000000001,0)" xlink:href="#au"/></g><use transform="matrix(0.05,0,0,0.05,0,0)" xlink:href="#ay" id="F"/><path d="M30-248c87 1 191-15 191 75 0 78-77 80-158 76V0H30v-248zm33 125c57 0 124 11 124-50 0-59-68-47-124-48v98" id="aG"/><g id="G"><use transform="matrix(0.05,0,0,0.05,0,0)" xlink:href="#T"/><use transform="matrix(0.05,0,0,0.05,5.95,0)" xlink:href="#aE"/><use transform="matrix(0.05,0,0,0.05,15.949999999999998,0)" xlink:href="#au"/><use transform="matrix(0.05,0,0,0.05,20.95,0)" xlink:href="#ag"/><use transform="matrix(0.05,0,0,0.05,29.950000000000003,0)" xlink:href="#ae"/><use transform="matrix(0.05,0,0,0.05,34.95,0)" xlink:href="#ag"/><use transform="matrix(0.05,0,0,0.05,43.95,0)" xlink:href="#as"/><use transform="matrix(0.05,0,0,0.05,53.95,0)" xlink:href="#aF"/><use transform="matrix(0.05,0,0,0.05,63.95,0)" xlink:href="#aG"/><use transform="matrix(0.05,0,0,0.05,75.95,0)" xlink:href="#T"/><use transform="matrix(0.05,0,0,0.05,81.9,0)" xlink:href="#ac"/><use transform="matrix(0.05,0,0,0.05,91.9,0)" xlink:href="#aq"/><use transform="matrix(0.05,0,0,0.05,101.9,0)" xlink:href="#X"/><use transform="matrix(0.05,0,0,0.05,111.9,0)" xlink:href="#T"/><use transform="matrix(0.05,0,0,0.05,117.85000000000001,0)" xlink:href="#Z"/><use transform="matrix(0.05,0,0,0.05,122.85000000000001,0)" xlink:href="#ab"/><use transform="matrix(0.05,0,0,0.05,131.85000000000002,0)" xlink:href="#at"/><use transform="matrix(0.05,0,0,0.05,145.85000000000002,0)" xlink:href="#au"/></g><g id="H"><use transform="matrix(0.05,0,0,0.05,0,0)" xlink:href="#T"/><use transform="matrix(0.05,0,0,0.05,5.95,0)" xlink:href="#aE"/><use transform="matrix(0.05,0,0,0.05,15.949999999999998,0)" xlink:href="#au"/><use transform="matrix(0.05,0,0,0.05,20.95,0)" xlink:href="#ae"/><use transform="matrix(0.05,0,0,0.05,25.950000000000003,0)" xlink:href="#aq"/><use transform="matrix(0.05,0,0,0.05,35.95,0)" xlink:href="#T"/><use transform="matrix(0.05,0,0,0.05,41.900000000000006,0)" xlink:href="#ac"/><use transform="matrix(0.05,0,0,0.05,51.900000000000006,0)" xlink:href="#aq"/><use transform="matrix(0.05,0,0,0.05,61.900000000000006,0)" xlink:href="#X"/><use transform="matrix(0.05,0,0,0.05,71.9,0)" xlink:href="#T"/><use transform="matrix(0.05,0,0,0.05,77.85000000000001,0)" xlink:href="#Z"/><use transform="matrix(0.05,0,0,0.05,82.85000000000001,0)" xlink:href="#ab"/></g></defs></g></svg>