<svg xmlns="http://www.w3.org/2000/svg" xmlns:xlink="http://www.w3.org/1999/xlink" xmlns:lucid="lucid" width="933.72" height="678.35"><g transform="translate(0 0)" lucid:page-tab-id="0vJIb7yuX-Mq"><path d="M0 0h933.72v678.35H0z" fill="#fff"/><path d="M63.27 96.77c0-2.76 2.24-5 5-5h150c2.76 0 5 2.24 5 5v110c0 2.76-2.24 5-5 5h-150c-2.76 0-5-2.24-5-5z" stroke="#000" stroke-width="2" fill="#666"/><use xlink:href="#a" transform="matrix(1,0,0,1,71.27260981912144,99.77260981912141) translate(27.049999999999997 55.6)"/><use xlink:href="#b" transform="matrix(1,0,0,1,71.27260981912144,99.77260981912141) translate(72.05 55.6)"/><path d="M43.27 36.77c0-2.76 2.24-5 5-5h190c2.76 0 5 2.24 5 5v50c0 2.76-2.24 5-5 5h-190c-2.76 0-5-2.24-5-5z" stroke="#000" stroke-opacity="0" stroke-width="2" fill="#fff" fill-opacity="0"/><use xlink:href="#c" transform="matrix(1,0,0,1,43.27260981912144,31.772609819121435) translate(5.01 33.15)"/><use xlink:href="#d" transform="matrix(1,0,0,1,43.27260981912144,31.772609819121435) translate(77.81000000000002 33.15)"/><use xlink:href="#e" transform="matrix(1,0,0,1,43.27260981912144,31.772609819121435) translate(148.71000000000004 33.15)"/><path d="M63.27 293.66c0-2.76 2.24-5 5-5h150c2.76 0 5 2.24 5 5v110c0 2.76-2.24 5-5 5h-150c-2.76 0-5-2.24-5-5z" stroke="#000" stroke-width="2" fill="url(#f)"/><use xlink:href="#g" transform="matrix(1,0,0,1,71.27260981912144,296.659612861232) translate(56.05 44.8)"/><use xlink:href="#h" transform="matrix(1,0,0,1,71.27260981912144,296.659612861232) translate(5.125 66.4)"/><path d="M311.77 436.77c0-2.76 2.24-5 5-5h150c2.76 0 5 2.24 5 5v110c0 2.76-2.24 5-5 5h-150c-2.76 0-5-2.24-5-5z" stroke="#000" stroke-width="2" fill="#666"/><use xlink:href="#i" transform="matrix(1,0,0,1,319.77260981912144,439.77260981912156) translate(33.55 55.6)"/><path d="M311.77 236.77c0-2.76 2.24-5 5-5h150c2.76 0 5 2.24 5 5v110c0 2.76-2.24 5-5 5h-150c-2.76 0-5-2.24-5-5z" stroke="#000" stroke-width="2" fill="url(#j)"/><use xlink:href="#k" transform="matrix(1,0,0,1,319.77260981912144,239.7726098191215) translate(4.150000000000006 55.6)"/><path d="M311.77 36.77c0-2.76 2.24-5 5-5h150c2.76 0 5 2.24 5 5v110c0 2.76-2.24 5-5 5h-150c-2.76 0-5-2.24-5-5z" stroke="#000" stroke-width="2" fill="url(#l)"/><use xlink:href="#m" transform="matrix(1,0,0,1,319.77260981912144,39.77260981912144) translate(25.6 55.6)"/><path d="M392.77 429.77h-2v-27.2h2zm0-48.8h-2V354.6h2z"/><path d="M392.77 430.77h-2v-1.02h2zM402.8 371.44l-1.7 1.02-9.33-15.76-9.32 15.76-1.72-1.02 11.04-18.67z"/><use xlink:href="#n" transform="matrix(1,0,0,1,323.84760981912143,380.9726098191215) translate(0 14.4)"/><path d="M392.77 229.77h-2v-18.23h2zm0-39.83h-2V154.6h2z"/><path d="M392.77 230.77h-2v-1.02h2zM402.8 171.44l-1.7 1.02-9.33-15.76-9.32 15.76-1.72-1.02 11.04-18.67z"/><use xlink:href="#o" transform="matrix(1,0,0,1,287.4226098191215,189.93812706050076) translate(0 14.4)"/><path d="M43.27 571.77h820v74.8h-820z" stroke="#000" stroke-opacity="0" stroke-width="2" fill="#fff" fill-opacity="0"/><use xlink:href="#p" transform="matrix(1,0,0,1,43.27260981912144,571.7726098191214) translate(5.01 30.80625)"/><use xlink:href="#q" transform="matrix(1,0,0,1,43.27260981912144,571.7726098191214) translate(72.01 30.80625)"/><use xlink:href="#r" transform="matrix(1,0,0,1,43.27260981912144,571.7726098191214) translate(468.01 30.80625)"/><use xlink:href="#s" transform="matrix(1,0,0,1,43.27260981912144,571.7726098191214) translate(536.56 30.80625)"/><use xlink:href="#t" transform="matrix(1,0,0,1,43.27260981912144,571.7726098191214) translate(5.01 52.40625)"/><use xlink:href="#u" transform="matrix(1,0,0,1,43.27260981912144,571.7726098191214) translate(72.01 52.40625)"/><use xlink:href="#v" transform="matrix(1,0,0,1,43.27260981912144,571.7726098191214) translate(396.01 52.40625)"/><use xlink:href="#v" transform="matrix(1,0,0,1,43.27260981912144,571.7726098191214) translate(432.01 52.40625)"/><use xlink:href="#r" transform="matrix(1,0,0,1,43.27260981912144,571.7726098191214) translate(468.01 52.40625)"/><use xlink:href="#w" transform="matrix(1,0,0,1,43.27260981912144,571.7726098191214) translate(536.56 52.40625)"/><use xlink:href="#x" transform="matrix(1,0,0,1,43.27260981912144,571.7726098191214) translate(570.56 52.40625)"/><use xlink:href="#y" transform="matrix(1,0,0,1,43.27260981912144,571.7726098191214) translate(683.3599999999999 52.40625)"/><path d="M97.35 249.66H32.77v-2h64.58zm155.6 0H189.2v-2h63.75z"/><path d="M32.8 249.66h-1.03v-2h1.03zM254.77 248.66L236.1 259.7l-1.02-1.72 15.76-9.32-15.76-9.32 1.02-1.72z"/><g><use xlink:href="#z" transform="matrix(1,0,0,1,143.2726098191214,238.25961286123197) translate(0 13.866666666666669)"/></g><g><use xlink:href="#A" transform="matrix(1,0,0,1,97.3476098191214,237.85961286123197) translate(0 14.4)"/></g><defs><path fill="#fff" d="M143 4C61 4 22-44 18-125c-5-107 100-154 193-111 17 8 29 25 37 43l-32 9c-13-25-37-40-76-40-61 0-88 39-88 99 0 61 29 100 91 101 35 0 62-11 79-27v-45h-74v-28h105v86C228-13 192 4 143 4" id="B"/><path fill="#fff" d="M185-189c-5-48-123-54-124 2 14 75 158 14 163 119 3 78-121 87-175 55-17-10-28-26-33-46l33-7c5 56 141 63 141-1 0-78-155-14-162-118-5-82 145-84 179-34 5 7 8 16 11 25" id="C"/><path fill="#fff" d="M140-251c81 0 123 46 123 126C263-53 228-8 163 1c7 30 30 48 69 40v23c-55 16-95-15-103-61C56-3 17-48 17-125c0-80 42-126 123-126zm0 227c63 0 89-41 89-101s-29-99-89-99c-61 0-89 39-89 99S79-25 140-24" id="D"/><g id="a"><use transform="matrix(0.05,0,0,0.05,0,0)" xlink:href="#B"/><use transform="matrix(0.05,0,0,0.05,14,0)" xlink:href="#C"/><use transform="matrix(0.05,0,0,0.05,26,0)" xlink:href="#D"/></g><path fill="#fff" d="M212-179c-10-28-35-45-73-45-59 0-87 40-87 99 0 60 29 101 89 101 43 0 62-24 78-52l27 14C228-24 195 4 139 4 59 4 22-46 18-125c-6-104 99-153 187-111 19 9 31 26 39 46" id="E"/><path fill="#fff" d="M24 0v-261h32V0H24" id="F"/><path fill="#fff" d="M141-36C126-15 110 5 73 4 37 3 15-17 15-53c-1-64 63-63 125-63 3-35-9-54-41-54-24 1-41 7-42 31l-33-3c5-37 33-52 76-52 45 0 72 20 72 64v82c-1 20 7 32 28 27v20c-31 9-61-2-59-35zM48-53c0 20 12 33 32 33 41-3 63-29 60-74-43 2-92-5-92 41" id="G"/><path fill="#fff" d="M135-143c-3-34-86-38-87 0 15 53 115 12 119 90S17 21 10-45l28-5c4 36 97 45 98 0-10-56-113-15-118-90-4-57 82-63 122-42 12 7 21 19 24 35" id="H"/><g id="b"><use transform="matrix(0.05,0,0,0.05,0,0)" xlink:href="#E"/><use transform="matrix(0.05,0,0,0.05,12.950000000000001,0)" xlink:href="#F"/><use transform="matrix(0.05,0,0,0.05,16.900000000000002,0)" xlink:href="#G"/><use transform="matrix(0.05,0,0,0.05,26.900000000000002,0)" xlink:href="#H"/><use transform="matrix(0.05,0,0,0.05,35.900000000000006,0)" xlink:href="#H"/></g><path d="M30-248c118-7 216 8 213 122C240-48 200 0 122 0H30v-248zM63-27c89 8 146-16 146-99s-60-101-146-95v194" id="I"/><path d="M24-231v-30h32v30H24zM24 0v-190h32V0H24" id="J"/><path d="M141-36C126-15 110 5 73 4 37 3 15-17 15-53c-1-64 63-63 125-63 3-35-9-54-41-54-24 1-41 7-42 31l-33-3c5-37 33-52 76-52 45 0 72 20 72 64v82c-1 20 7 32 28 27v20c-31 9-61-2-59-35zM48-53c0 20 12 33 32 33 41-3 63-29 60-74-43 2-92-5-92 41" id="K"/><path d="M177-190C167-65 218 103 67 71c-23-6-38-20-44-43l32-5c15 47 100 32 89-28v-30C133-14 115 1 83 1 29 1 15-40 15-95c0-56 16-97 71-98 29-1 48 16 59 35 1-10 0-23 2-32h30zM94-22c36 0 50-32 50-73 0-42-14-75-50-75-39 0-46 34-46 75s6 73 46 73" id="L"/><path d="M114-163C36-179 61-72 57 0H25l-1-190h30c1 12-1 29 2 39 6-27 23-49 58-41v29" id="M"/><path d="M210-169c-67 3-38 105-44 169h-31v-121c0-29-5-50-35-48C34-165 62-65 56 0H25l-1-190h30c1 10-1 24 2 32 10-44 99-50 107 0 11-21 27-35 58-36 85-2 47 119 55 194h-31v-121c0-29-5-49-35-48" id="N"/><g id="c"><use transform="matrix(0.05,0,0,0.05,0,0)" xlink:href="#I"/><use transform="matrix(0.05,0,0,0.05,12.950000000000001,0)" xlink:href="#J"/><use transform="matrix(0.05,0,0,0.05,16.900000000000002,0)" xlink:href="#K"/><use transform="matrix(0.05,0,0,0.05,26.900000000000002,0)" xlink:href="#L"/><use transform="matrix(0.05,0,0,0.05,36.900000000000006,0)" xlink:href="#M"/><use transform="matrix(0.05,0,0,0.05,42.85000000000001,0)" xlink:href="#K"/><use transform="matrix(0.05,0,0,0.05,52.85,0)" xlink:href="#N"/><path d="M-.9 1.25h74.6v1.32H-.9z"/></g><path d="M30 0v-248h187v28H63v79h144v27H63v87h162V0H30" id="O"/><path d="M24 0v-261h32V0H24" id="P"/><path d="M100-194c63 0 86 42 84 106H49c0 40 14 67 53 68 26 1 43-12 49-29l28 8c-11 28-37 45-77 45C44 4 14-33 15-96c1-61 26-98 85-98zm52 81c6-60-76-77-97-28-3 7-6 17-6 28h103" id="Q"/><path d="M117-194c89-4 53 116 60 194h-32v-121c0-31-8-49-39-48C34-167 62-67 57 0H25l-1-190h30c1 10-1 24 2 32 11-22 29-35 61-36" id="R"/><path d="M59-47c-2 24 18 29 38 22v24C64 9 27 4 27-40v-127H5v-23h24l9-43h21v43h35v23H59v120" id="S"/><g id="d"><use transform="matrix(0.05,0,0,0.05,0,0)" xlink:href="#O"/><use transform="matrix(0.05,0,0,0.05,12,0)" xlink:href="#P"/><use transform="matrix(0.05,0,0,0.05,15.949999999999998,0)" xlink:href="#Q"/><use transform="matrix(0.05,0,0,0.05,25.950000000000003,0)" xlink:href="#N"/><use transform="matrix(0.05,0,0,0.05,40.9,0)" xlink:href="#Q"/><use transform="matrix(0.05,0,0,0.05,50.9,0)" xlink:href="#R"/><use transform="matrix(0.05,0,0,0.05,60.900000000000006,0)" xlink:href="#S"/><path d="M-.9 1.25h72.7v1.32H-.9z"/></g><path d="M194 0L95-120 63-95V0H30v-248h33v124l119-124h40L117-140 236 0h-42" id="T"/><path d="M179-190L93 31C79 59 56 82 12 73V49c39 6 53-20 64-50L1-190h34L92-34l54-156h33" id="U"/><g id="e"><use transform="matrix(0.05,0,0,0.05,0,0)" xlink:href="#T"/><use transform="matrix(0.05,0,0,0.05,12,0)" xlink:href="#Q"/><use transform="matrix(0.05,0,0,0.05,22,0)" xlink:href="#U"/><path d="M-.9 1.25h32.8v1.32H-.9z"/></g><linearGradient gradientUnits="userSpaceOnUse" id="f" x1="63.27" y1="288.66" x2="63.27" y2="408.66"><stop offset="0%" stop-color="#fff"/><stop offset="60.92%" stop-color="#b2b2b2"/><stop offset="100%" stop-color="#666"/></linearGradient><path d="M100-194c62-1 85 37 85 99 1 63-27 99-86 99S16-35 15-95c0-66 28-99 85-99zM99-20c44 1 53-31 53-75 0-43-8-75-51-75s-53 32-53 75 10 74 51 75" id="V"/><path d="M206 0h-36l-40-164L89 0H53L-1-190h32L70-26l43-164h34l41 164 42-164h31" id="W"/><path d="M33-154v-36h34v36H33zM33 0v-36h34V0H33" id="X"/><g id="g"><use transform="matrix(0.05,0,0,0.05,0,0)" xlink:href="#V"/><use transform="matrix(0.05,0,0,0.05,10,0)" xlink:href="#W"/><use transform="matrix(0.05,0,0,0.05,22.950000000000003,0)" xlink:href="#P"/><use transform="matrix(0.05,0,0,0.05,26.900000000000002,0)" xlink:href="#X"/></g><path d="M190 0L58-211 59 0H30v-248h39L202-35l-2-213h31V0h-41" id="Y"/><path d="M85-194c31 0 48 13 60 33l-1-100h32l1 261h-30c-2-10 0-23-3-31C134-8 116 4 85 4 32 4 16-35 15-94c0-66 23-100 70-100zm9 24c-40 0-46 34-46 75 0 40 6 74 45 74 42 0 51-32 51-76 0-42-9-74-50-73" id="Z"/><path d="M33 0v-248h34V0H33" id="aa"/><path d="M108 0H70L1-190h34L89-25l56-165h34" id="ab"/><path d="M84 4C-5 8 30-112 23-190h32v120c0 31 7 50 39 49 72-2 45-101 50-169h31l1 190h-30c-1-10 1-25-2-33-11 22-28 36-60 37" id="ac"/><g id="h"><use transform="matrix(0.05,0,0,0.05,0,0)" xlink:href="#Y"/><use transform="matrix(0.05,0,0,0.05,12.950000000000001,0)" xlink:href="#K"/><use transform="matrix(0.05,0,0,0.05,22.950000000000003,0)" xlink:href="#N"/><use transform="matrix(0.05,0,0,0.05,37.900000000000006,0)" xlink:href="#Q"/><use transform="matrix(0.05,0,0,0.05,47.900000000000006,0)" xlink:href="#Z"/><use transform="matrix(0.05,0,0,0.05,57.900000000000006,0)" xlink:href="#aa"/><use transform="matrix(0.05,0,0,0.05,62.900000000000006,0)" xlink:href="#R"/><use transform="matrix(0.05,0,0,0.05,72.9,0)" xlink:href="#Z"/><use transform="matrix(0.05,0,0,0.05,82.9,0)" xlink:href="#J"/><use transform="matrix(0.05,0,0,0.05,86.85000000000001,0)" xlink:href="#ab"/><use transform="matrix(0.05,0,0,0.05,95.85000000000001,0)" xlink:href="#J"/><use transform="matrix(0.05,0,0,0.05,99.80000000000001,0)" xlink:href="#Z"/><use transform="matrix(0.05,0,0,0.05,109.80000000000001,0)" xlink:href="#ac"/><use transform="matrix(0.05,0,0,0.05,119.80000000000001,0)" xlink:href="#K"/><use transform="matrix(0.05,0,0,0.05,129.8,0)" xlink:href="#P"/></g><path fill="#fff" d="M33-154v-36h34v36H33zM33 0v-36h34V0H33" id="ad"/><path fill="#fff" d="M160-131c35 5 61 23 61 61C221 17 115-2 30 0v-248c76 3 177-17 177 60 0 33-19 50-47 57zm-97-11c50-1 110 9 110-42 0-47-63-36-110-37v79zm0 115c55-2 124 14 124-45 0-56-70-42-124-44v89" id="ae"/><path fill="#fff" d="M100-194c62-1 85 37 85 99 1 63-27 99-86 99S16-35 15-95c0-66 28-99 85-99zM99-20c44 1 53-31 53-75 0-43-8-75-51-75s-53 32-53 75 10 74 51 75" id="af"/><path fill="#fff" d="M114-163C36-179 61-72 57 0H25l-1-190h30c1 12-1 29 2 39 6-27 23-49 58-41v29" id="ag"/><path fill="#fff" d="M100-194c63 0 86 42 84 106H49c0 40 14 67 53 68 26 1 43-12 49-29l28 8c-11 28-37 45-77 45C44 4 14-33 15-96c1-61 26-98 85-98zm52 81c6-60-76-77-97-28-3 7-6 17-6 28h103" id="ah"/><path fill="#fff" d="M106-169C34-169 62-67 57 0H25v-261h32l-1 103c12-21 28-36 61-36 89 0 53 116 60 194h-32v-121c2-32-8-49-39-48" id="ai"/><g id="i"><use transform="matrix(0.05,0,0,0.05,0,0)" xlink:href="#ad"/><use transform="matrix(0.05,0,0,0.05,5,0)" xlink:href="#ae"/><use transform="matrix(0.05,0,0,0.05,17,0)" xlink:href="#af"/><use transform="matrix(0.05,0,0,0.05,27,0)" xlink:href="#ag"/><use transform="matrix(0.05,0,0,0.05,32.95,0)" xlink:href="#ah"/><use transform="matrix(0.05,0,0,0.05,42.95,0)" xlink:href="#ai"/><use transform="matrix(0.05,0,0,0.05,52.95,0)" xlink:href="#af"/><use transform="matrix(0.05,0,0,0.05,62.95,0)" xlink:href="#F"/><use transform="matrix(0.05,0,0,0.05,66.9,0)" xlink:href="#ah"/></g><linearGradient gradientUnits="userSpaceOnUse" id="j" x1="311.77" y1="231.77" x2="311.77" y2="351.77"><stop offset="0%" stop-color="#fff"/><stop offset="60.92%" stop-color="#b2b2b2"/><stop offset="100%" stop-color="#666"/></linearGradient><path d="M106-169C34-169 62-67 57 0H25v-261h32l-1 103c12-21 28-36 61-36 89 0 53 116 60 194h-32v-121c2-32-8-49-39-48" id="aj"/><path d="M212-179c-10-28-35-45-73-45-59 0-87 40-87 99 0 60 29 101 89 101 43 0 62-24 78-52l27 14C228-24 195 4 139 4 59 4 22-46 18-125c-6-104 99-153 187-111 19 9 31 26 39 46" id="ak"/><path d="M135-143c-3-34-86-38-87 0 15 53 115 12 119 90S17 21 10-45l28-5c4 36 97 45 98 0-10-56-113-15-118-90-4-57 82-63 122-42 12 7 21 19 24 35" id="al"/><g id="k"><use transform="matrix(0.05,0,0,0.05,0,0)" xlink:href="#M"/><use transform="matrix(0.05,0,0,0.05,5.95,0)" xlink:href="#Q"/><use transform="matrix(0.05,0,0,0.05,15.949999999999998,0)" xlink:href="#K"/><use transform="matrix(0.05,0,0,0.05,25.950000000000003,0)" xlink:href="#P"/><use transform="matrix(0.05,0,0,0.05,29.899999999999995,0)" xlink:href="#N"/><use transform="matrix(0.05,0,0,0.05,44.85,0)" xlink:href="#X"/><use transform="matrix(0.05,0,0,0.05,49.85,0)" xlink:href="#O"/><use transform="matrix(0.05,0,0,0.05,61.85,0)" xlink:href="#K"/><use transform="matrix(0.05,0,0,0.05,71.85,0)" xlink:href="#M"/><use transform="matrix(0.05,0,0,0.05,77.8,0)" xlink:href="#S"/><use transform="matrix(0.05,0,0,0.05,82.8,0)" xlink:href="#aj"/><use transform="matrix(0.05,0,0,0.05,92.8,0)" xlink:href="#ak"/><use transform="matrix(0.05,0,0,0.05,105.75,0)" xlink:href="#M"/><use transform="matrix(0.05,0,0,0.05,111.7,0)" xlink:href="#ac"/><use transform="matrix(0.05,0,0,0.05,121.7,0)" xlink:href="#al"/><use transform="matrix(0.05,0,0,0.05,130.7,0)" xlink:href="#S"/></g><linearGradient gradientUnits="userSpaceOnUse" id="l" x1="311.77" y1="31.77" x2="311.77" y2="151.77"><stop offset="0%" stop-color="#fff"/><stop offset="60.92%" stop-color="#b2b2b2"/><stop offset="100%" stop-color="#666"/></linearGradient><g id="m"><use transform="matrix(0.05,0,0,0.05,0,0)" xlink:href="#M"/><use transform="matrix(0.05,0,0,0.05,5.95,0)" xlink:href="#Q"/><use transform="matrix(0.05,0,0,0.05,15.949999999999998,0)" xlink:href="#K"/><use transform="matrix(0.05,0,0,0.05,25.950000000000003,0)" xlink:href="#P"/><use transform="matrix(0.05,0,0,0.05,29.899999999999995,0)" xlink:href="#N"/><use transform="matrix(0.05,0,0,0.05,44.85,0)" xlink:href="#X"/><use transform="matrix(0.05,0,0,0.05,49.85,0)" xlink:href="#O"/><use transform="matrix(0.05,0,0,0.05,61.85,0)" xlink:href="#K"/><use transform="matrix(0.05,0,0,0.05,71.85,0)" xlink:href="#M"/><use transform="matrix(0.05,0,0,0.05,77.8,0)" xlink:href="#S"/><use transform="matrix(0.05,0,0,0.05,82.8,0)" xlink:href="#aj"/></g><path d="M185-189c-5-48-123-54-124 2 14 75 158 14 163 119 3 78-121 87-175 55-17-10-28-26-33-46l33-7c5 56 141 63 141-1 0-78-155-14-162-118-5-82 145-84 179-34 5 7 8 16 11 25" id="am"/><path d="M115-194c55 1 70 41 70 98S169 2 115 4C84 4 66-9 55-30l1 105H24l-1-265h31l2 30c10-21 28-34 59-34zm-8 174c40 0 45-34 45-75s-6-73-45-74c-42 0-51 32-51 76 0 43 10 73 51 73" id="an"/><path d="M140-251c81 0 123 46 123 126C263-46 219 4 140 4 59 4 17-45 17-125s42-126 123-126zm0 227c63 0 89-41 89-101s-29-99-89-99c-61 0-89 39-89 99S79-25 140-24" id="ao"/><path d="M101-234c-31-9-42 10-38 44h38v23H63V0H32v-167H5v-23h27c-7-52 17-82 69-68v24" id="ap"/><g id="n"><use transform="matrix(0.05,0,0,0.05,0,0)" xlink:href="#al"/><use transform="matrix(0.05,0,0,0.05,9,0)" xlink:href="#V"/><use transform="matrix(0.05,0,0,0.05,19,0)" xlink:href="#al"/><use transform="matrix(0.05,0,0,0.05,28,0)" xlink:href="#K"/><use transform="matrix(0.05,0,0,0.05,38,0)" xlink:href="#X"/><use transform="matrix(0.05,0,0,0.05,43,0)" xlink:href="#J"/><use transform="matrix(0.05,0,0,0.05,46.95,0)" xlink:href="#al"/><use transform="matrix(0.05,0,0,0.05,55.95,0)" xlink:href="#am"/><use transform="matrix(0.05,0,0,0.05,67.95,0)" xlink:href="#K"/><use transform="matrix(0.05,0,0,0.05,77.95,0)" xlink:href="#N"/><use transform="matrix(0.05,0,0,0.05,92.9,0)" xlink:href="#an"/><use transform="matrix(0.05,0,0,0.05,102.9,0)" xlink:href="#P"/><use transform="matrix(0.05,0,0,0.05,106.85000000000001,0)" xlink:href="#Q"/><use transform="matrix(0.05,0,0,0.05,116.85000000000001,0)" xlink:href="#ao"/><use transform="matrix(0.05,0,0,0.05,130.85000000000002,0)" xlink:href="#ap"/></g><path d="M205 0l-28-72H64L36 0H1l101-248h38L239 0h-34zm-38-99l-47-123c-12 45-31 82-46 123h93" id="aq"/><path d="M96-169c-40 0-48 33-48 73s9 75 48 75c24 0 41-14 43-38l32 2c-6 37-31 61-74 61-59 0-76-41-82-99-10-93 101-131 147-64 4 7 5 14 7 22l-32 3c-4-21-16-35-41-35" id="ar"/><path d="M160-131c35 5 61 23 61 61C221 17 115-2 30 0v-248c76 3 177-17 177 60 0 33-19 50-47 57zm-97-11c50-1 110 9 110-42 0-47-63-36-110-37v79zm0 115c55-2 124 14 124-45 0-56-70-42-124-44v89" id="as"/><g id="o"><use transform="matrix(0.05,0,0,0.05,0,0)" xlink:href="#M"/><use transform="matrix(0.05,0,0,0.05,5.95,0)" xlink:href="#Q"/><use transform="matrix(0.05,0,0,0.05,15.949999999999998,0)" xlink:href="#P"/><use transform="matrix(0.05,0,0,0.05,19.9,0)" xlink:href="#K"/><use transform="matrix(0.05,0,0,0.05,29.899999999999995,0)" xlink:href="#X"/><use transform="matrix(0.05,0,0,0.05,34.9,0)" xlink:href="#aj"/><use transform="matrix(0.05,0,0,0.05,44.9,0)" xlink:href="#K"/><use transform="matrix(0.05,0,0,0.05,54.900000000000006,0)" xlink:href="#al"/><use transform="matrix(0.05,0,0,0.05,63.900000000000006,0)" xlink:href="#aq"/><use transform="matrix(0.05,0,0,0.05,75.9,0)" xlink:href="#al"/><use transform="matrix(0.05,0,0,0.05,84.9,0)" xlink:href="#S"/><use transform="matrix(0.05,0,0,0.05,89.9,0)" xlink:href="#M"/><use transform="matrix(0.05,0,0,0.05,95.85000000000001,0)" xlink:href="#V"/><use transform="matrix(0.05,0,0,0.05,105.85000000000001,0)" xlink:href="#R"/><use transform="matrix(0.05,0,0,0.05,115.85000000000001,0)" xlink:href="#V"/><use transform="matrix(0.05,0,0,0.05,125.85000000000001,0)" xlink:href="#N"/><use transform="matrix(0.05,0,0,0.05,140.8,0)" xlink:href="#J"/><use transform="matrix(0.05,0,0,0.05,144.75,0)" xlink:href="#ar"/><use transform="matrix(0.05,0,0,0.05,153.75,0)" xlink:href="#K"/><use transform="matrix(0.05,0,0,0.05,163.75,0)" xlink:href="#P"/><use transform="matrix(0.05,0,0,0.05,167.7,0)" xlink:href="#as"/><use transform="matrix(0.05,0,0,0.05,179.7,0)" xlink:href="#V"/><use transform="matrix(0.05,0,0,0.05,189.7,0)" xlink:href="#Z"/><use transform="matrix(0.05,0,0,0.05,199.7,0)" xlink:href="#U"/></g><g id="p"><use transform="matrix(0.05,0,0,0.05,0,0)" xlink:href="#M"/><use transform="matrix(0.05,0,0,0.05,5.95,0)" xlink:href="#Q"/><use transform="matrix(0.05,0,0,0.05,15.949999999999998,0)" xlink:href="#K"/><use transform="matrix(0.05,0,0,0.05,25.950000000000003,0)" xlink:href="#P"/><use transform="matrix(0.05,0,0,0.05,29.899999999999995,0)" xlink:href="#N"/><use transform="matrix(0.05,0,0,0.05,44.85,0)" xlink:href="#X"/></g><path d="M0 4l72-265h28L28 4H0" id="at"/><path d="M33 0v-38h34V0H33" id="au"/><path d="M233-177c-1 41-23 64-60 70L243 0h-38l-65-103H63V0H30v-248c88 3 205-21 203 71zM63-129c60-2 137 13 137-47 0-61-80-42-137-45v92" id="av"/><g id="q"><use transform="matrix(0.05,0,0,0.05,0,0)" xlink:href="#aj"/><use transform="matrix(0.05,0,0,0.05,10,0)" xlink:href="#S"/><use transform="matrix(0.05,0,0,0.05,15,0)" xlink:href="#S"/><use transform="matrix(0.05,0,0,0.05,20,0)" xlink:href="#an"/><use transform="matrix(0.05,0,0,0.05,30,0)" xlink:href="#X"/><use transform="matrix(0.05,0,0,0.05,35,0)" xlink:href="#at"/><use transform="matrix(0.05,0,0,0.05,40,0)" xlink:href="#at"/><use transform="matrix(0.05,0,0,0.05,45,0)" xlink:href="#al"/><use transform="matrix(0.05,0,0,0.05,54,0)" xlink:href="#W"/><use transform="matrix(0.05,0,0,0.05,66.95,0)" xlink:href="#Q"/><use transform="matrix(0.05,0,0,0.05,76.95,0)" xlink:href="#Q"/><use transform="matrix(0.05,0,0,0.05,86.95,0)" xlink:href="#S"/><use transform="matrix(0.05,0,0,0.05,91.95,0)" xlink:href="#V"/><use transform="matrix(0.05,0,0,0.05,101.95,0)" xlink:href="#R"/><use transform="matrix(0.05,0,0,0.05,111.95,0)" xlink:href="#S"/><use transform="matrix(0.05,0,0,0.05,116.95,0)" xlink:href="#V"/><use transform="matrix(0.05,0,0,0.05,126.95,0)" xlink:href="#P"/><use transform="matrix(0.05,0,0,0.05,130.9,0)" xlink:href="#V"/><use transform="matrix(0.05,0,0,0.05,140.9,0)" xlink:href="#L"/><use transform="matrix(0.05,0,0,0.05,150.9,0)" xlink:href="#U"/><use transform="matrix(0.05,0,0,0.05,158.55,0)" xlink:href="#au"/><use transform="matrix(0.05,0,0,0.05,163.55,0)" xlink:href="#R"/><use transform="matrix(0.05,0,0,0.05,173.55,0)" xlink:href="#Q"/><use transform="matrix(0.05,0,0,0.05,183.55,0)" xlink:href="#S"/><use transform="matrix(0.05,0,0,0.05,188.55,0)" xlink:href="#at"/><use transform="matrix(0.05,0,0,0.05,193.55,0)" xlink:href="#M"/><use transform="matrix(0.05,0,0,0.05,199.5,0)" xlink:href="#Q"/><use transform="matrix(0.05,0,0,0.05,209.5,0)" xlink:href="#K"/><use transform="matrix(0.05,0,0,0.05,219.5,0)" xlink:href="#P"/><use transform="matrix(0.05,0,0,0.05,223.44999999999996,0)" xlink:href="#N"/><use transform="matrix(0.05,0,0,0.05,238.39999999999998,0)" xlink:href="#O"/><use transform="matrix(0.05,0,0,0.05,250.39999999999998,0)" xlink:href="#K"/><use transform="matrix(0.05,0,0,0.05,260.4,0)" xlink:href="#M"/><use transform="matrix(0.05,0,0,0.05,266.34999999999997,0)" xlink:href="#S"/><use transform="matrix(0.05,0,0,0.05,271.34999999999997,0)" xlink:href="#aj"/><use transform="matrix(0.05,0,0,0.05,281.34999999999997,0)" xlink:href="#av"/><use transform="matrix(0.05,0,0,0.05,294.29999999999995,0)" xlink:href="#Q"/><use transform="matrix(0.05,0,0,0.05,304.29999999999995,0)" xlink:href="#ap"/><use transform="matrix(0.05,0,0,0.05,309.29999999999995,0)" xlink:href="#Q"/><use transform="matrix(0.05,0,0,0.05,319.29999999999995,0)" xlink:href="#M"/><use transform="matrix(0.05,0,0,0.05,325.24999999999994,0)" xlink:href="#Q"/><use transform="matrix(0.05,0,0,0.05,335.24999999999994,0)" xlink:href="#R"/><use transform="matrix(0.05,0,0,0.05,345.24999999999994,0)" xlink:href="#ar"/><use transform="matrix(0.05,0,0,0.05,354.24999999999994,0)" xlink:href="#Q"/><use transform="matrix(0.05,0,0,0.05,364.24999999999994,0)" xlink:href="#at"/></g><path d="M266 0h-40l-56-210L115 0H75L2-248h35L96-30l15-64 43-154h32l59 218 59-218h35" id="aw"/><path d="M127-220V0H93v-220H8v-28h204v28h-85" id="ax"/><g id="r"><use transform="matrix(0.05,0,0,0.05,0,0)" xlink:href="#am"/><use transform="matrix(0.05,0,0,0.05,12,0)" xlink:href="#aw"/><use transform="matrix(0.05,0,0,0.05,28.950000000000003,0)" xlink:href="#O"/><use transform="matrix(0.05,0,0,0.05,40.95,0)" xlink:href="#O"/><use transform="matrix(0.05,0,0,0.05,52.95,0)" xlink:href="#ax"/></g><g id="s"><use transform="matrix(0.05,0,0,0.05,0,0)" xlink:href="#ao"/><use transform="matrix(0.05,0,0,0.05,14,0)" xlink:href="#R"/><use transform="matrix(0.05,0,0,0.05,24,0)" xlink:href="#S"/><use transform="matrix(0.05,0,0,0.05,29,0)" xlink:href="#V"/><use transform="matrix(0.05,0,0,0.05,39,0)" xlink:href="#P"/><use transform="matrix(0.05,0,0,0.05,42.95,0)" xlink:href="#V"/><use transform="matrix(0.05,0,0,0.05,52.95,0)" xlink:href="#L"/><use transform="matrix(0.05,0,0,0.05,62.95,0)" xlink:href="#U"/></g><g id="t"><use transform="matrix(0.05,0,0,0.05,0,0)" xlink:href="#M"/><use transform="matrix(0.05,0,0,0.05,5.95,0)" xlink:href="#Q"/><use transform="matrix(0.05,0,0,0.05,15.949999999999998,0)" xlink:href="#P"/><use transform="matrix(0.05,0,0,0.05,19.9,0)" xlink:href="#K"/><use transform="matrix(0.05,0,0,0.05,29.899999999999995,0)" xlink:href="#X"/></g><path d="M30-248c87 1 191-15 191 75 0 78-77 80-158 76V0H30v-248zm33 125c57 0 124 11 124-50 0-59-68-47-124-48v98" id="ay"/><g id="u"><use transform="matrix(0.05,0,0,0.05,0,0)" xlink:href="#aj"/><use transform="matrix(0.05,0,0,0.05,10,0)" xlink:href="#S"/><use transform="matrix(0.05,0,0,0.05,15,0)" xlink:href="#S"/><use transform="matrix(0.05,0,0,0.05,20,0)" xlink:href="#an"/><use transform="matrix(0.05,0,0,0.05,30,0)" xlink:href="#X"/><use transform="matrix(0.05,0,0,0.05,35,0)" xlink:href="#at"/><use transform="matrix(0.05,0,0,0.05,40,0)" xlink:href="#at"/><use transform="matrix(0.05,0,0,0.05,45,0)" xlink:href="#al"/><use transform="matrix(0.05,0,0,0.05,54,0)" xlink:href="#W"/><use transform="matrix(0.05,0,0,0.05,66.95,0)" xlink:href="#Q"/><use transform="matrix(0.05,0,0,0.05,76.95,0)" xlink:href="#Q"/><use transform="matrix(0.05,0,0,0.05,86.95,0)" xlink:href="#S"/><use transform="matrix(0.05,0,0,0.05,91.95,0)" xlink:href="#V"/><use transform="matrix(0.05,0,0,0.05,101.95,0)" xlink:href="#R"/><use transform="matrix(0.05,0,0,0.05,111.95,0)" xlink:href="#S"/><use transform="matrix(0.05,0,0,0.05,116.95,0)" xlink:href="#V"/><use transform="matrix(0.05,0,0,0.05,126.95,0)" xlink:href="#P"/><use transform="matrix(0.05,0,0,0.05,130.9,0)" xlink:href="#V"/><use transform="matrix(0.05,0,0,0.05,140.9,0)" xlink:href="#L"/><use transform="matrix(0.05,0,0,0.05,150.9,0)" xlink:href="#U"/><use transform="matrix(0.05,0,0,0.05,158.55,0)" xlink:href="#au"/><use transform="matrix(0.05,0,0,0.05,163.55,0)" xlink:href="#R"/><use transform="matrix(0.05,0,0,0.05,173.55,0)" xlink:href="#Q"/><use transform="matrix(0.05,0,0,0.05,183.55,0)" xlink:href="#S"/><use transform="matrix(0.05,0,0,0.05,188.55,0)" xlink:href="#at"/><use transform="matrix(0.05,0,0,0.05,193.55,0)" xlink:href="#M"/><use transform="matrix(0.05,0,0,0.05,199.5,0)" xlink:href="#Q"/><use transform="matrix(0.05,0,0,0.05,209.5,0)" xlink:href="#P"/><use transform="matrix(0.05,0,0,0.05,213.44999999999996,0)" xlink:href="#K"/><use transform="matrix(0.05,0,0,0.05,223.44999999999996,0)" xlink:href="#ay"/><use transform="matrix(0.05,0,0,0.05,235.44999999999996,0)" xlink:href="#aj"/><use transform="matrix(0.05,0,0,0.05,245.44999999999996,0)" xlink:href="#U"/><use transform="matrix(0.05,0,0,0.05,254.44999999999996,0)" xlink:href="#al"/><use transform="matrix(0.05,0,0,0.05,263.45,0)" xlink:href="#J"/><use transform="matrix(0.05,0,0,0.05,267.4,0)" xlink:href="#ar"/><use transform="matrix(0.05,0,0,0.05,276.4,0)" xlink:href="#K"/><use transform="matrix(0.05,0,0,0.05,286.4,0)" xlink:href="#P"/><use transform="matrix(0.05,0,0,0.05,290.34999999999997,0)" xlink:href="#at"/></g><g id="w"><use transform="matrix(0.05,0,0,0.05,0,0)" xlink:href="#ao"/><use transform="matrix(0.05,0,0,0.05,14,0)" xlink:href="#R"/><use transform="matrix(0.05,0,0,0.05,24,0)" xlink:href="#S"/></g><g id="x"><use transform="matrix(0.05,0,0,0.05,0,0)" xlink:href="#av"/><use transform="matrix(0.05,0,0,0.05,12.950000000000001,0)" xlink:href="#Q"/><use transform="matrix(0.05,0,0,0.05,22.950000000000003,0)" xlink:href="#P"/><use transform="matrix(0.05,0,0,0.05,26.900000000000002,0)" xlink:href="#K"/><use transform="matrix(0.05,0,0,0.05,36.900000000000006,0)" xlink:href="#S"/><use transform="matrix(0.05,0,0,0.05,41.900000000000006,0)" xlink:href="#J"/><use transform="matrix(0.05,0,0,0.05,45.85000000000001,0)" xlink:href="#V"/><use transform="matrix(0.05,0,0,0.05,55.85,0)" xlink:href="#R"/><use transform="matrix(0.05,0,0,0.05,65.85000000000001,0)" xlink:href="#al"/><use transform="matrix(0.05,0,0,0.05,74.85000000000001,0)" xlink:href="#aj"/><use transform="matrix(0.05,0,0,0.05,84.85000000000001,0)" xlink:href="#J"/><use transform="matrix(0.05,0,0,0.05,88.80000000000001,0)" xlink:href="#an"/><use transform="matrix(0.05,0,0,0.05,98.80000000000001,0)" xlink:href="#al"/></g><g id="y"><use transform="matrix(0.05,0,0,0.05,0,0)" xlink:href="#ay"/><use transform="matrix(0.05,0,0,0.05,12,0)" xlink:href="#U"/><use transform="matrix(0.05,0,0,0.05,21,0)" xlink:href="#aj"/><use transform="matrix(0.05,0,0,0.05,31,0)" xlink:href="#al"/><use transform="matrix(0.05,0,0,0.05,40,0)" xlink:href="#J"/><use transform="matrix(0.05,0,0,0.05,43.95,0)" xlink:href="#ar"/><use transform="matrix(0.05,0,0,0.05,52.95,0)" xlink:href="#K"/><use transform="matrix(0.05,0,0,0.05,62.95,0)" xlink:href="#P"/></g><g id="A"><use transform="matrix(0.05,0,0,0.05,0,0)" xlink:href="#M"/><use transform="matrix(0.05,0,0,0.05,5.95,0)" xlink:href="#Z"/><use transform="matrix(0.05,0,0,0.05,15.949999999999998,0)" xlink:href="#ap"/><use transform="matrix(0.05,0,0,0.05,20.95,0)" xlink:href="#X"/><use transform="matrix(0.05,0,0,0.05,25.950000000000003,0)" xlink:href="#an"/><use transform="matrix(0.05,0,0,0.05,35.95,0)" xlink:href="#M"/><use transform="matrix(0.05,0,0,0.05,41.900000000000006,0)" xlink:href="#V"/><use transform="matrix(0.05,0,0,0.05,51.900000000000006,0)" xlink:href="#an"/><use transform="matrix(0.05,0,0,0.05,61.900000000000006,0)" xlink:href="#Q"/><use transform="matrix(0.05,0,0,0.05,71.9,0)" xlink:href="#M"/><use transform="matrix(0.05,0,0,0.05,77.85000000000001,0)" xlink:href="#S"/><use transform="matrix(0.05,0,0,0.05,82.85000000000001,0)" xlink:href="#U"/></g></defs></g></svg>