<svg xmlns="http://www.w3.org/2000/svg" xmlns:xlink="http://www.w3.org/1999/xlink" xmlns:lucid="lucid" width="935.57" height="814.55"><g transform="translate(0 0)" lucid:page-tab-id="tSAIiGyiWykX"><path d="M0 0h935.57v814.55H0z" fill="#fff"/><path d="M25 32.28c0-2.76 2.24-5 5-5h150c2.76 0 5 2.24 5 5v110c0 2.76-2.24 5-5 5H30c-2.76 0-5-2.24-5-5z" stroke="#000" stroke-width="2" fill="#666"/><use xlink:href="#a" transform="matrix(1,0,0,1,33,35.27648578811369) translate(50 44.8)"/><use xlink:href="#b" transform="matrix(1,0,0,1,33,35.27648578811369) translate(54.75 66.4)"/><path d="M25 249.6c0-2.75 2.24-5 5-5h150c2.76 0 5 2.25 5 5v110c0 2.77-2.24 5-5 5H30c-2.76 0-5-2.23-5-5z" stroke="#000" stroke-width="2" fill="#666"/><use xlink:href="#a" transform="matrix(1,0,0,1,33,252.60981912144706) translate(50 44.8)"/><use xlink:href="#c" transform="matrix(1,0,0,1,33,252.60981912144706) translate(36.775 66.4)"/><path d="M385 446.94c0-2.76 2.24-5 5-5h150c2.76 0 5 2.24 5 5v110c0 2.76-2.24 5-5 5H390c-2.76 0-5-2.24-5-5z" stroke="#000" stroke-width="2" fill="#666"/><use xlink:href="#a" transform="matrix(1,0,0,1,393,449.9431524547804) translate(50 44.8)"/><use xlink:href="#d" transform="matrix(1,0,0,1,393,449.9431524547804) translate(6.599999999999994 66.4)"/><path d="M745 446.94c0-2.76 2.24-5 5-5h150c2.76 0 5 2.24 5 5v110c0 2.76-2.24 5-5 5H750c-2.76 0-5-2.24-5-5z" stroke="#000" stroke-width="2" fill="#fff"/><use xlink:href="#e" transform="matrix(1,0,0,1,753,449.9431524547804) translate(54.5 44.8)"/><use xlink:href="#f" transform="matrix(1,0,0,1,753,449.9431524547804) translate(32.55 66.4)"/><path d="M106 241.8h-2v-43.46h2zm0-65.06h-2v-27.46h2z"/><path d="M106 149.3h-2v-1.02h2zM116.04 224.94L105 243.6l-11.04-18.66 1.72-1.02 9.32 15.76 9.32-15.76z"/><use xlink:href="#g" transform="matrix(1,0,0,1,35.55,176.7431524547804) translate(0 14.4)"/><use xlink:href="#h" transform="matrix(1,0,0,1,35.55,176.7431524547804) translate(95.95 14.4)"/><path d="M219.53 502.94h-31.7v-2h31.7zm163.47 0h-32.52v-2H383z"/><path d="M384 502.94h-1.03v-2H384zM205.7 492.62l-15.77 9.32 15.76 9.32-1.03 1.72L186 501.94l18.67-11.04z"/><use xlink:href="#i" transform="matrix(1,0,0,1,219.525,491.14315245478036) translate(0 14.4)"/><use xlink:href="#j" transform="matrix(1,0,0,1,219.525,491.14315245478036) translate(34 14.4)"/><use xlink:href="#k" transform="matrix(1,0,0,1,219.525,491.14315245478036) translate(90.95 14.4)"/><path d="M466 439.12h-2v-82.87h2zm0-104.47h-2v-65.37h2z"/><path d="M466 269.3h-2v-1.02h2zM476.04 422.27L465 440.94l-11.04-18.67 1.72-1.02L465 437l9.32-15.75z"/><use xlink:href="#g" transform="matrix(1,0,0,1,395.55,334.65180807172334) translate(0 14.4)"/><use xlink:href="#h" transform="matrix(1,0,0,1,395.55,334.65180807172334) translate(95.95 14.4)"/><path d="M591.05 502.94H547v-2h44.05zm151.13 0h-43.23v-2h43.23z"/><path d="M547.03 502.94H546v-2h1.03zM744 501.94l-18.67 11.04-1.02-1.72 15.77-9.32-15.76-9.32 1.03-1.72z"/><use xlink:href="#e" transform="matrix(1,0,0,1,591.05,469.5431524547804) translate(36.455000000000005 14.4)"/><use xlink:href="#l" transform="matrix(1,0,0,1,591.05,469.5431524547804) translate(0.005000000000002558 36)"/><use xlink:href="#m" transform="matrix(1,0,0,1,591.05,469.5431524547804) translate(43.955000000000005 57.6)"/><path d="M385 152.28c0-2.76 2.24-5 5-5h150c2.76 0 5 2.24 5 5v110c0 2.76-2.24 5-5 5H390c-2.76 0-5-2.24-5-5z" stroke="#000" stroke-width="2" fill="#666"/><use xlink:href="#a" transform="matrix(1,0,0,1,393,155.2764857881137) translate(50 44.8)"/><use xlink:href="#n" transform="matrix(1,0,0,1,393,155.2764857881137) translate(36.05 66.4)"/><path d="M187 304.6h93c2.76 0 5-2.23 5-5V212.3c0-2.76 2.24-5 5-5h75.5" stroke="#000" stroke-width="2" fill="none"/><path d="M187.03 305.6H186v-2h1.03z"/><path d="M380.76 207.28l-14.26 4.63v-9.26z" stroke="#000" stroke-width="2" fill="#fff"/><path d="M187 87.28h93c2.76 0 5 2.24 5 5v110c0 2.76 2.24 5 5 5h75.5" stroke="#000" stroke-width="2" fill="none"/><path d="M187.03 88.28H186v-2h1.03z"/><path d="M380.76 207.28l-14.26 4.63v-9.26z" stroke="#000" stroke-width="2" fill="#fff"/><path d="M385 672.28c0-2.76 2.24-5 5-5h150c2.76 0 5 2.24 5 5v110c0 2.76-2.24 5-5 5H390c-2.76 0-5-2.24-5-5z" stroke="#000" stroke-width="2" fill="#666"/><use xlink:href="#o" transform="matrix(1,0,0,1,393,675.2764857881136) translate(52 44.8)"/><use xlink:href="#p" transform="matrix(1,0,0,1,393,675.2764857881136) translate(38.525 66.4)"/><path d="M345 722.12l.82 2.5 2 1.45 1.26.2h33.1v2h-33.26l-1.9-.3-2.9-2.12-1.12-3.4V667.2h2zm86.17-124.02l-1.12 3.4-2.9 2.14-1.9.3h-76.1l-2.5.82-1.45 2-.2 1.26v37.6h-2v-37.76l.3-1.9 2.13-2.9 3.4-1.12h76.26l1.25-.2 2-1.46.82-2.5v-33.84h2z"/><path d="M431.17 563.97h-2v-1.03h2zM384 727.28l-18.67 11.04-1.02-1.72 15.77-9.32-15.76-9.32 1.03-1.73z"/><use xlink:href="#i" transform="matrix(1,0,0,1,297.025,645.6106598509725) translate(0.005000000000002558 14.4)"/><use xlink:href="#q" transform="matrix(1,0,0,1,297.025,645.6106598509725) translate(34.005 14.4)"/><use xlink:href="#r" transform="matrix(1,0,0,1,297.025,645.6106598509725) translate(73.95500000000001 14.4)"/><path d="M466 664.46h-2v-26.18h2zm0-47.78h-2v-52.74h2z"/><path d="M466 563.97h-2v-1.03h2zM476.04 647.6L465 666.3l-11.04-18.67 1.72-1 9.32 15.75 9.32-15.76z"/><use xlink:href="#i" transform="matrix(1,0,0,1,420.5,616.6841360613378) translate(0.005000000000002558 14.4)"/><use xlink:href="#s" transform="matrix(1,0,0,1,420.5,616.6841360613378) translate(34.005 14.4)"/><use xlink:href="#r" transform="matrix(1,0,0,1,420.5,616.6841360613378) translate(69.005 14.4)"/><path d="M25 446.94c0-2.76 2.24-5 5-5h150c2.76 0 5 2.24 5 5v110c0 2.76-2.24 5-5 5H30c-2.76 0-5-2.24-5-5z" stroke="#000" stroke-width="2" fill="#fff"/><use xlink:href="#t" transform="matrix(1,0,0,1,33,449.9431524547804) translate(44.05 55.6)"/><path d="M606 722.44l-1.1 3.4-2.92 2.13-1.9.3h-52.26v-2h52.1l1.26-.2 2-1.46.82-2.48V637.1h2zm-96.64-130.32l.8 2.5 2 1.45 1.28.2h86.72l3.4 1.12 2.13 2.9.3 1.9v13.3h-2v-13.14l-.2-1.27-1.46-2-2.5-.82h-86.56l-1.9-.3-2.9-2.13-1.12-3.4v-28.5h2z"/><path d="M509.36 563.97h-2v-1.03h2zM565.7 717.96l-15.77 9.32 15.76 9.32-1.03 1.72L546 727.28l18.67-11.05z"/><use xlink:href="#i" transform="matrix(1,0,0,1,530.575,615.4875261278165) translate(0 14.4)"/><use xlink:href="#u" transform="matrix(1,0,0,1,530.575,615.4875261278165) translate(34 14.4)"/><use xlink:href="#k" transform="matrix(1,0,0,1,530.575,615.4875261278165) translate(108.85 14.4)"/><path d="M746.5 55.28c0-2.76 2.24-5 5-5h150c2.76 0 5 2.24 5 5v110c0 2.76-2.24 5-5 5h-150c-2.76 0-5-2.24-5-5z" stroke="#000" stroke-width="2" fill="#fff"/><use xlink:href="#v" transform="matrix(1,0,0,1,754.5,58.27648578811369) translate(50.5 44.8)"/><use xlink:href="#w" transform="matrix(1,0,0,1,754.5,58.27648578811369) translate(8.649999999999991 66.4)"/><path d="M604.88 179.76l-57.54 27.98-.88-1.8 58.4-28.4zm139.42-67.8l-57.67 28.05v-2.2l56.8-27.63z"/><path d="M547.36 207.73l-1.36.66v-2.24l.5-.23zM745.5 110.28l-11.96 18.1-1.67-1.1 10.1-15.3-18.25-1.48.16-2z"/><use xlink:href="#i" transform="matrix(1,0,0,1,604.875,126.37648578811368) translate(4.380000000000003 14.4)"/><use xlink:href="#x" transform="matrix(1,0,0,1,604.875,126.37648578811368) translate(38.38 14.4)"/><use xlink:href="#y" transform="matrix(1,0,0,1,604.875,126.37648578811368) translate(0.005000000000002558 36)"/><use xlink:href="#z" transform="matrix(1,0,0,1,604.875,126.37648578811368) translate(20.955000000000002 36)"/><use xlink:href="#m" transform="matrix(1,0,0,1,604.875,126.37648578811368) translate(30.880000000000003 57.6)"/><path d="M351.78 401.94h-2.62l-2.5.82-1.46 2-.2 1.26v62.78l.82 2.5 2 1.46 1.26.2h33.1v2h-33.26l-1.9-.3-2.9-2.13-1.12-3.4v-63.27l.3-1.9 2.13-2.9 3.4-1.12h2.95zm61.2-1.7l2.9 2.13 1.12 3.4v34.17h-2V406.1l-.8-2.5-2-1.45-1.28-.2h-25.14v-2h25.3z"/><path d="M417 440.94h-2v-1.02h2zM384 473.96L365.33 485l-1.02-1.72 15.77-9.32-15.76-9.32 1.03-1.72z"/><g><use xlink:href="#A" transform="matrix(1,0,0,1,351.78125,390.14315245478036) translate(0 14.4)"/></g><path d="M547.4 502.04l-1.3-1.5 84.92-73.63h3.05zM743.3 332.22l-84.3 73.1h-3.05l86.04-74.6z"/><path d="M547.43 502.03l-1.43 1.24v-2.65l.12-.1zM737.13 350.85l-1.9-.63 5.8-17.37-18 3.28-.37-1.97 21.34-3.88z"/><g><use xlink:href="#B" transform="matrix(1,0,0,1,569.675,405.309819121447) translate(0.0049999999999954525 14.4)"/><use xlink:href="#C" transform="matrix(1,0,0,1,569.675,405.309819121447) translate(35.004999999999995 14.4)"/><use xlink:href="#D" transform="matrix(1,0,0,1,569.675,405.309819121447) translate(91.755 14.4)"/><use xlink:href="#r" transform="matrix(1,0,0,1,569.675,405.309819121447) translate(130.655 14.4)"/></g><path d="M745 275.28c0-2.76 2.24-5 5-5h150c2.76 0 5 2.24 5 5v110c0 2.76-2.24 5-5 5H750c-2.76 0-5-2.24-5-5z" stroke="#000" stroke-width="2" fill="#fff"/><g><use xlink:href="#E" transform="matrix(1,0,0,1,753,278.2764857881137) translate(52.55 44.8)"/><use xlink:href="#F" transform="matrix(1,0,0,1,753,278.2764857881137) translate(42.55 66.4)"/></g><path d="M574.4 310.28h145.3v34.7H574.4z" stroke="#000" stroke-opacity="0" stroke-width="2" fill="#fff" fill-opacity="0"/><g><use xlink:href="#G" transform="matrix(1,0,0,1,574.3928605859004,310.27648578811363) translate(18.95499999999999 19.41)"/></g><path d="M647.72 363.5l-.72 41.8h-2l.72-41.85z"/><path d="M651.38 362.55l-9.27-.16 4.9-14.2z" fill="#fff"/><path d="M652.73 363.58l-12.02-.2 6.34-18.4zm-9.23-2.16l6.52.1-3.1-10.08z"/><path/><path d="M746.5 618.6c0-2.75 2.24-5 5-5h150c2.76 0 5 2.25 5 5v110c0 2.77-2.24 5-5 5h-150c-2.76 0-5-2.23-5-5z" stroke="#000" stroke-width="2" fill="#fff"/><g><use xlink:href="#H" transform="matrix(1,0,0,1,754.5,621.6098191214471) translate(50 44.8)"/><use xlink:href="#I" transform="matrix(1,0,0,1,754.5,621.6098191214471) translate(3.125 66.4)"/></g><path d="M744.77 671.67l-1.3 1.5-64.05-55.1v-2.58h-3l-27.27-23.47h3.07zM576.9 527.23h-3.05l-27.74-23.88 1.3-1.5z"/><path d="M547.43 501.85l-1.3 1.52-.13-.1v-2.65zM745.5 673.6l-21.35-3.8.35-1.97 18.02 3.22-5.86-17.35 1.9-.64z"/><g><use xlink:href="#H" transform="matrix(1,0,0,1,551.0846027379557,527.2253920705652) translate(39.955000000000005 14.4)"/><use xlink:href="#J" transform="matrix(1,0,0,1,551.0846027379557,527.2253920705652) translate(18.03 36)"/><use xlink:href="#K" transform="matrix(1,0,0,1,551.0846027379557,527.2253920705652) translate(0.005000000000002558 57.6)"/><use xlink:href="#k" transform="matrix(1,0,0,1,551.0846027379557,527.2253920705652) translate(83.905 57.6)"/></g><defs><path fill="#fff" d="M177-190C167-65 218 103 67 71c-23-6-38-20-44-43l32-5c15 47 100 32 89-28v-30C133-14 115 1 83 1 29 1 15-40 15-95c0-56 16-97 71-98 29-1 48 16 59 35 1-10 0-23 2-32h30zM94-22c36 0 50-32 50-73 0-42-14-75-50-75-39 0-46 34-46 75s6 73 46 73" id="L"/><path fill="#fff" d="M135-143c-3-34-86-38-87 0 15 53 115 12 119 90S17 21 10-45l28-5c4 36 97 45 98 0-10-56-113-15-118-90-4-57 82-63 122-42 12 7 21 19 24 35" id="M"/><path fill="#fff" d="M145-31C134-9 116 4 85 4 32 4 16-35 15-94c0-59 17-99 70-100 32-1 48 14 60 33 0-11-1-24 2-32h30l-1 268h-32zM93-21c41 0 51-33 51-76s-8-73-50-73c-40 0-46 35-46 75s5 74 45 74" id="N"/><path fill="#fff" d="M115-194c53 0 69 39 70 98 0 66-23 100-70 100C84 3 66-7 56-30L54 0H23l1-261h32v101c10-23 28-34 59-34zm-8 174c40 0 45-34 45-75 0-40-5-75-45-74-42 0-51 32-51 76 0 43 10 73 51 73" id="O"/><path fill="#fff" d="M33-154v-36h34v36H33zM33 0v-36h34V0H33" id="P"/><g id="a"><use transform="matrix(0.05,0,0,0.05,0,0)" xlink:href="#L"/><use transform="matrix(0.05,0,0,0.05,10,0)" xlink:href="#M"/><use transform="matrix(0.05,0,0,0.05,19,0)" xlink:href="#N"/><use transform="matrix(0.05,0,0,0.05,29,0)" xlink:href="#O"/><use transform="matrix(0.05,0,0,0.05,39,0)" xlink:href="#P"/></g><path fill="#fff" d="M266 0h-40l-56-210L115 0H75L2-248h35L96-30l15-64 43-154h32l59 218 59-218h35" id="Q"/><path fill="#fff" d="M100-194c63 0 86 42 84 106H49c0 40 14 67 53 68 26 1 43-12 49-29l28 8c-11 28-37 45-77 45C44 4 14-33 15-96c1-61 26-98 85-98zm52 81c6-60-76-77-97-28-3 7-6 17-6 28h103" id="R"/><path fill="#fff" d="M24 0v-261h32V0H24" id="S"/><g id="b"><use transform="matrix(0.05,0,0,0.05,0,0)" xlink:href="#Q"/><use transform="matrix(0.05,0,0,0.05,16.599999999999998,0)" xlink:href="#R"/><use transform="matrix(0.05,0,0,0.05,26.599999999999994,0)" xlink:href="#S"/><use transform="matrix(0.05,0,0,0.05,30.549999999999997,0)" xlink:href="#S"/></g><path fill="#fff" d="M100-194c62-1 85 37 85 99 1 63-27 99-86 99S16-35 15-95c0-66 28-99 85-99zM99-20c44 1 53-31 53-75 0-43-8-75-51-75s-53 32-53 75 10 74 51 75" id="T"/><path fill="#fff" d="M114-163C36-179 61-72 57 0H25l-1-190h30c1 12-1 29 2 39 6-27 23-49 58-41v29" id="U"/><g id="c"><use transform="matrix(0.05,0,0,0.05,0,0)" xlink:href="#Q"/><use transform="matrix(0.05,0,0,0.05,16.599999999999998,0)" xlink:href="#R"/><use transform="matrix(0.05,0,0,0.05,26.599999999999994,0)" xlink:href="#S"/><use transform="matrix(0.05,0,0,0.05,30.549999999999997,0)" xlink:href="#S"/><use transform="matrix(0.05,0,0,0.05,34.5,0)" xlink:href="#O"/><use transform="matrix(0.05,0,0,0.05,44.5,0)" xlink:href="#T"/><use transform="matrix(0.05,0,0,0.05,54.5,0)" xlink:href="#U"/><use transform="matrix(0.05,0,0,0.05,60.45,0)" xlink:href="#R"/></g><path fill="#fff" d="M160-131c35 5 61 23 61 61C221 17 115-2 30 0v-248c76 3 177-17 177 60 0 33-19 50-47 57zm-97-11c50-1 110 9 110-42 0-47-63-36-110-37v79zm0 115c55-2 124 14 124-45 0-56-70-42-124-44v89" id="V"/><path fill="#fff" d="M106-169C34-169 62-67 57 0H25v-261h32l-1 103c12-21 28-36 61-36 89 0 53 116 60 194h-32v-121c2-32-8-49-39-48" id="W"/><path fill="#fff" d="M33 0v-248h34V0H33" id="X"/><path fill="#fff" d="M117-194c89-4 53 116 60 194h-32v-121c0-31-8-49-39-48C34-167 62-67 57 0H25l-1-190h30c1 10-1 24 2 32 11-22 29-35 61-36" id="Y"/><path fill="#fff" d="M59-47c-2 24 18 29 38 22v24C64 9 27 4 27-40v-127H5v-23h24l9-43h21v43h35v23H59v120" id="Z"/><path fill="#fff" d="M108 0H70L1-190h34L89-25l56-165h34" id="aa"/><path fill="#fff" d="M141-36C126-15 110 5 73 4 37 3 15-17 15-53c-1-64 63-63 125-63 3-35-9-54-41-54-24 1-41 7-42 31l-33-3c5-37 33-52 76-52 45 0 72 20 72 64v82c-1 20 7 32 28 27v20c-31 9-61-2-59-35zM48-53c0 20 12 33 32 33 41-3 63-29 60-74-43 2-92-5-92 41" id="ab"/><g id="d"><use transform="matrix(0.05,0,0,0.05,0,0)" xlink:href="#V"/><use transform="matrix(0.05,0,0,0.05,12,0)" xlink:href="#T"/><use transform="matrix(0.05,0,0,0.05,22,0)" xlink:href="#U"/><use transform="matrix(0.05,0,0,0.05,27.950000000000003,0)" xlink:href="#R"/><use transform="matrix(0.05,0,0,0.05,37.95,0)" xlink:href="#W"/><use transform="matrix(0.05,0,0,0.05,47.95,0)" xlink:href="#T"/><use transform="matrix(0.05,0,0,0.05,57.95,0)" xlink:href="#S"/><use transform="matrix(0.05,0,0,0.05,61.900000000000006,0)" xlink:href="#R"/><use transform="matrix(0.05,0,0,0.05,71.9,0)" xlink:href="#X"/><use transform="matrix(0.05,0,0,0.05,76.9,0)" xlink:href="#Y"/><use transform="matrix(0.05,0,0,0.05,86.9,0)" xlink:href="#Z"/><use transform="matrix(0.05,0,0,0.05,91.9,0)" xlink:href="#R"/><use transform="matrix(0.05,0,0,0.05,101.9,0)" xlink:href="#U"/><use transform="matrix(0.05,0,0,0.05,107.85000000000001,0)" xlink:href="#aa"/><use transform="matrix(0.05,0,0,0.05,116.85000000000001,0)" xlink:href="#ab"/><use transform="matrix(0.05,0,0,0.05,126.85000000000001,0)" xlink:href="#S"/></g><path d="M177-190C167-65 218 103 67 71c-23-6-38-20-44-43l32-5c15 47 100 32 89-28v-30C133-14 115 1 83 1 29 1 15-40 15-95c0-56 16-97 71-98 29-1 48 16 59 35 1-10 0-23 2-32h30zM94-22c36 0 50-32 50-73 0-42-14-75-50-75-39 0-46 34-46 75s6 73 46 73" id="ac"/><path d="M100-194c63 0 86 42 84 106H49c0 40 14 67 53 68 26 1 43-12 49-29l28 8c-11 28-37 45-77 45C44 4 14-33 15-96c1-61 26-98 85-98zm52 81c6-60-76-77-97-28-3 7-6 17-6 28h103" id="ad"/><path d="M100-194c62-1 85 37 85 99 1 63-27 99-86 99S16-35 15-95c0-66 28-99 85-99zM99-20c44 1 53-31 53-75 0-43-8-75-51-75s-53 32-53 75 10 74 51 75" id="ae"/><path d="M33-154v-36h34v36H33zM33 0v-36h34V0H33" id="af"/><g id="e"><use transform="matrix(0.05,0,0,0.05,0,0)" xlink:href="#ac"/><use transform="matrix(0.05,0,0,0.05,10,0)" xlink:href="#ad"/><use transform="matrix(0.05,0,0,0.05,20,0)" xlink:href="#ae"/><use transform="matrix(0.05,0,0,0.05,30,0)" xlink:href="#af"/></g><path d="M143 4C61 4 22-44 18-125c-5-107 100-154 193-111 17 8 29 25 37 43l-32 9c-13-25-37-40-76-40-61 0-88 39-88 99 0 61 29 100 91 101 35 0 62-11 79-27v-45h-74v-28h105v86C228-13 192 4 143 4" id="ag"/><path d="M210-169c-67 3-38 105-44 169h-31v-121c0-29-5-50-35-48C34-165 62-65 56 0H25l-1-190h30c1 10-1 24 2 32 10-44 99-50 107 0 11-21 27-35 58-36 85-2 47 119 55 194h-31v-121c0-29-5-49-35-48" id="ah"/><path d="M59-47c-2 24 18 29 38 22v24C64 9 27 4 27-40v-127H5v-23h24l9-43h21v43h35v23H59v120" id="ai"/><path d="M114-163C36-179 61-72 57 0H25l-1-190h30c1 12-1 29 2 39 6-27 23-49 58-41v29" id="aj"/><path d="M179-190L93 31C79 59 56 82 12 73V49c39 6 53-20 64-50L1-190h34L92-34l54-156h33" id="ak"/><g id="f"><use transform="matrix(0.05,0,0,0.05,0,0)" xlink:href="#ag"/><use transform="matrix(0.05,0,0,0.05,14,0)" xlink:href="#ad"/><use transform="matrix(0.05,0,0,0.05,24,0)" xlink:href="#ae"/><use transform="matrix(0.05,0,0,0.05,34,0)" xlink:href="#ah"/><use transform="matrix(0.05,0,0,0.05,48.95,0)" xlink:href="#ad"/><use transform="matrix(0.05,0,0,0.05,58.95,0)" xlink:href="#ai"/><use transform="matrix(0.05,0,0,0.05,63.95,0)" xlink:href="#aj"/><use transform="matrix(0.05,0,0,0.05,69.9,0)" xlink:href="#ak"/></g><path d="M85-194c31 0 48 13 60 33l-1-100h32l1 261h-30c-2-10 0-23-3-31C134-8 116 4 85 4 32 4 16-35 15-94c0-66 23-100 70-100zm9 24c-40 0-46 34-46 75 0 40 6 74 45 74 42 0 51-32 51-76 0-42-9-74-50-73" id="al"/><path d="M96-169c-40 0-48 33-48 73s9 75 48 75c24 0 41-14 43-38l32 2c-6 37-31 61-74 61-59 0-76-41-82-99-10-93 101-131 147-64 4 7 5 14 7 22l-32 3c-4-21-16-35-41-35" id="am"/><path d="M106-169C34-169 62-67 57 0H25v-261h32l-1 103c12-21 28-36 61-36 89 0 53 116 60 194h-32v-121c2-32-8-49-39-48" id="an"/><path d="M141-36C126-15 110 5 73 4 37 3 15-17 15-53c-1-64 63-63 125-63 3-35-9-54-41-54-24 1-41 7-42 31l-33-3c5-37 33-52 76-52 45 0 72 20 72 64v82c-1 20 7 32 28 27v20c-31 9-61-2-59-35zM48-53c0 20 12 33 32 33 41-3 63-29 60-74-43 2-92-5-92 41" id="ao"/><path d="M135-143c-3-34-86-38-87 0 15 53 115 12 119 90S17 21 10-45l28-5c4 36 97 45 98 0-10-56-113-15-118-90-4-57 82-63 122-42 12 7 21 19 24 35" id="ap"/><path d="M30-248c87 1 191-15 191 75 0 78-77 80-158 76V0H30v-248zm33 125c57 0 124 11 124-50 0-59-68-47-124-48v98" id="aq"/><g id="g"><use transform="matrix(0.05,0,0,0.05,0,0)" xlink:href="#al"/><use transform="matrix(0.05,0,0,0.05,10,0)" xlink:href="#am"/><use transform="matrix(0.05,0,0,0.05,19,0)" xlink:href="#ai"/><use transform="matrix(0.05,0,0,0.05,24,0)" xlink:href="#af"/><use transform="matrix(0.05,0,0,0.05,29,0)" xlink:href="#an"/><use transform="matrix(0.05,0,0,0.05,39,0)" xlink:href="#ao"/><use transform="matrix(0.05,0,0,0.05,49,0)" xlink:href="#ap"/><use transform="matrix(0.05,0,0,0.05,58,0)" xlink:href="#aq"/><use transform="matrix(0.05,0,0,0.05,70,0)" xlink:href="#ao"/><use transform="matrix(0.05,0,0,0.05,80,0)" xlink:href="#aj"/><use transform="matrix(0.05,0,0,0.05,85.95,0)" xlink:href="#ai"/></g><path d="M26 75v-336h71v23H56V52h41v23H26" id="ar"/><path d="M27 0v-27h64v-190l-56 39v-29l58-41h29v221h61V0H27" id="as"/><path d="M33 0v-38h34V0H33" id="at"/><path d="M190 0L58-211 59 0H30v-248h39L202-35l-2-213h31V0h-41" id="au"/><path d="M3 75V52h41v-290H3v-23h71V75H3" id="av"/><g id="h"><use transform="matrix(0.05,0,0,0.05,0,0)" xlink:href="#ar"/><use transform="matrix(0.05,0,0,0.05,5,0)" xlink:href="#as"/><use transform="matrix(0.05,0,0,0.05,15,0)" xlink:href="#at"/><use transform="matrix(0.05,0,0,0.05,20,0)" xlink:href="#at"/><use transform="matrix(0.05,0,0,0.05,25,0)" xlink:href="#au"/><use transform="matrix(0.05,0,0,0.05,37.95,0)" xlink:href="#av"/></g><g id="i"><use transform="matrix(0.05,0,0,0.05,0,0)" xlink:href="#an"/><use transform="matrix(0.05,0,0,0.05,10,0)" xlink:href="#ao"/><use transform="matrix(0.05,0,0,0.05,20,0)" xlink:href="#ap"/></g><path d="M24-231v-30h32v30H24zM24 0v-190h32V0H24" id="aw"/><path d="M117-194c89-4 53 116 60 194h-32v-121c0-31-8-49-39-48C34-167 62-67 57 0H25l-1-190h30c1 10-1 24 2 32 11-22 29-35 61-36" id="ax"/><g id="j"><use transform="matrix(0.05,0,0,0.05,0,0)" xlink:href="#am"/><use transform="matrix(0.05,0,0,0.05,9,0)" xlink:href="#ao"/><use transform="matrix(0.05,0,0,0.05,19,0)" xlink:href="#ap"/><use transform="matrix(0.05,0,0,0.05,28,0)" xlink:href="#aw"/><use transform="matrix(0.05,0,0,0.05,31.950000000000003,0)" xlink:href="#ax"/><use transform="matrix(0.05,0,0,0.05,41.95,0)" xlink:href="#ac"/></g><path d="M101-251c68 0 85 55 85 127S166 4 100 4C33 4 14-52 14-124c0-73 17-127 87-127zm-1 229c47 0 54-49 54-102s-4-102-53-102c-51 0-55 48-55 102 0 53 5 102 54 102" id="ay"/><g id="k"><use transform="matrix(0.05,0,0,0.05,0,0)" xlink:href="#ar"/><use transform="matrix(0.05,0,0,0.05,5,0)" xlink:href="#ay"/><use transform="matrix(0.05,0,0,0.05,15,0)" xlink:href="#at"/><use transform="matrix(0.05,0,0,0.05,20,0)" xlink:href="#at"/><use transform="matrix(0.05,0,0,0.05,25,0)" xlink:href="#as"/><use transform="matrix(0.05,0,0,0.05,35,0)" xlink:href="#av"/></g><g id="l"><use transform="matrix(0.05,0,0,0.05,0,0)" xlink:href="#an"/><use transform="matrix(0.05,0,0,0.05,10,0)" xlink:href="#ao"/><use transform="matrix(0.05,0,0,0.05,20,0)" xlink:href="#ap"/><use transform="matrix(0.05,0,0,0.05,29,0)" xlink:href="#ag"/><use transform="matrix(0.05,0,0,0.05,43,0)" xlink:href="#ad"/><use transform="matrix(0.05,0,0,0.05,53,0)" xlink:href="#ae"/><use transform="matrix(0.05,0,0,0.05,63,0)" xlink:href="#ah"/><use transform="matrix(0.05,0,0,0.05,77.95,0)" xlink:href="#ad"/><use transform="matrix(0.05,0,0,0.05,87.95,0)" xlink:href="#ai"/><use transform="matrix(0.05,0,0,0.05,92.95,0)" xlink:href="#aj"/><use transform="matrix(0.05,0,0,0.05,98.9,0)" xlink:href="#ak"/></g><g id="m"><use transform="matrix(0.05,0,0,0.05,0,0)" xlink:href="#ar"/><use transform="matrix(0.05,0,0,0.05,5,0)" xlink:href="#as"/><use transform="matrix(0.05,0,0,0.05,15,0)" xlink:href="#av"/></g><g id="n"><use transform="matrix(0.05,0,0,0.05,0,0)" xlink:href="#V"/><use transform="matrix(0.05,0,0,0.05,12,0)" xlink:href="#T"/><use transform="matrix(0.05,0,0,0.05,22,0)" xlink:href="#U"/><use transform="matrix(0.05,0,0,0.05,27.950000000000003,0)" xlink:href="#R"/><use transform="matrix(0.05,0,0,0.05,37.95,0)" xlink:href="#W"/><use transform="matrix(0.05,0,0,0.05,47.95,0)" xlink:href="#T"/><use transform="matrix(0.05,0,0,0.05,57.95,0)" xlink:href="#S"/><use transform="matrix(0.05,0,0,0.05,61.900000000000006,0)" xlink:href="#R"/></g><path fill="#fff" d="M84 4C-5 8 30-112 23-190h32v120c0 31 7 50 39 49 72-2 45-101 50-169h31l1 190h-30c-1-10 1-25-2-33-11 22-28 36-60 37" id="az"/><path fill="#fff" d="M85-194c31 0 48 13 60 33l-1-100h32l1 261h-30c-2-10 0-23-3-31C134-8 116 4 85 4 32 4 16-35 15-94c0-66 23-100 70-100zm9 24c-40 0-46 34-46 75 0 40 6 74 45 74 42 0 51-32 51-76 0-42-9-74-50-73" id="aA"/><g id="o"><use transform="matrix(0.05,0,0,0.05,0,0)" xlink:href="#N"/><use transform="matrix(0.05,0,0,0.05,10,0)" xlink:href="#az"/><use transform="matrix(0.05,0,0,0.05,20,0)" xlink:href="#aA"/><use transform="matrix(0.05,0,0,0.05,30,0)" xlink:href="#Z"/><use transform="matrix(0.05,0,0,0.05,35,0)" xlink:href="#P"/></g><path fill="#fff" d="M140-251c81 0 123 46 123 126C263-53 228-8 163 1c7 30 30 48 69 40v23c-55 16-95-15-103-61C56-3 17-48 17-125c0-80 42-126 123-126zm0 227c63 0 89-41 89-101s-29-99-89-99c-61 0-89 39-89 99S79-25 140-24" id="aB"/><path fill="#fff" d="M24-231v-30h32v30H24zM24 0v-190h32V0H24" id="aC"/><path fill="#fff" d="M179-190L93 31C79 59 56 82 12 73V49c39 6 53-20 64-50L1-190h34L92-34l54-156h33" id="aD"/><g id="p"><use transform="matrix(0.05,0,0,0.05,0,0)" xlink:href="#aB"/><use transform="matrix(0.05,0,0,0.05,14,0)" xlink:href="#az"/><use transform="matrix(0.05,0,0,0.05,24,0)" xlink:href="#ab"/><use transform="matrix(0.05,0,0,0.05,34,0)" xlink:href="#Y"/><use transform="matrix(0.05,0,0,0.05,44,0)" xlink:href="#Z"/><use transform="matrix(0.05,0,0,0.05,49,0)" xlink:href="#aC"/><use transform="matrix(0.05,0,0,0.05,52.95,0)" xlink:href="#Z"/><use transform="matrix(0.05,0,0,0.05,57.95,0)" xlink:href="#aD"/></g><g id="q"><use transform="matrix(0.05,0,0,0.05,0,0)" xlink:href="#ap"/><use transform="matrix(0.05,0,0,0.05,9,0)" xlink:href="#ai"/><use transform="matrix(0.05,0,0,0.05,14,0)" xlink:href="#ao"/><use transform="matrix(0.05,0,0,0.05,24,0)" xlink:href="#aj"/><use transform="matrix(0.05,0,0,0.05,29.950000000000003,0)" xlink:href="#ai"/></g><g id="r"><use transform="matrix(0.05,0,0,0.05,0,0)" xlink:href="#ar"/><use transform="matrix(0.05,0,0,0.05,5,0)" xlink:href="#as"/><use transform="matrix(0.05,0,0,0.05,15,0)" xlink:href="#av"/></g><g id="s"><use transform="matrix(0.05,0,0,0.05,0,0)" xlink:href="#ad"/><use transform="matrix(0.05,0,0,0.05,10,0)" xlink:href="#ax"/><use transform="matrix(0.05,0,0,0.05,20,0)" xlink:href="#al"/></g><path d="M212-179c-10-28-35-45-73-45-59 0-87 40-87 99 0 60 29 101 89 101 43 0 62-24 78-52l27 14C228-24 195 4 139 4 59 4 22-46 18-125c-6-104 99-153 187-111 19 9 31 26 39 46" id="aE"/><g id="t"><use transform="matrix(0.05,0,0,0.05,0,0)" xlink:href="#aE"/><use transform="matrix(0.05,0,0,0.05,12.950000000000001,0)" xlink:href="#ao"/><use transform="matrix(0.05,0,0,0.05,22.950000000000003,0)" xlink:href="#ap"/><use transform="matrix(0.05,0,0,0.05,31.950000000000003,0)" xlink:href="#aw"/><use transform="matrix(0.05,0,0,0.05,35.900000000000006,0)" xlink:href="#ax"/><use transform="matrix(0.05,0,0,0.05,45.900000000000006,0)" xlink:href="#ac"/></g><g id="u"><use transform="matrix(0.05,0,0,0.05,0,0)" xlink:href="#al"/><use transform="matrix(0.05,0,0,0.05,10,0)" xlink:href="#aw"/><use transform="matrix(0.05,0,0,0.05,13.949999999999998,0)" xlink:href="#ao"/><use transform="matrix(0.05,0,0,0.05,23.95,0)" xlink:href="#ah"/><use transform="matrix(0.05,0,0,0.05,38.9,0)" xlink:href="#ad"/><use transform="matrix(0.05,0,0,0.05,48.9,0)" xlink:href="#ai"/><use transform="matrix(0.05,0,0,0.05,53.900000000000006,0)" xlink:href="#ad"/><use transform="matrix(0.05,0,0,0.05,63.900000000000006,0)" xlink:href="#aj"/></g><g id="v"><use transform="matrix(0.05,0,0,0.05,0,0)" xlink:href="#ao"/><use transform="matrix(0.05,0,0,0.05,10,0)" xlink:href="#ap"/><use transform="matrix(0.05,0,0,0.05,19,0)" xlink:href="#ac"/><use transform="matrix(0.05,0,0,0.05,29,0)" xlink:href="#ap"/><use transform="matrix(0.05,0,0,0.05,38,0)" xlink:href="#af"/></g><path d="M185-189c-5-48-123-54-124 2 14 75 158 14 163 119 3 78-121 87-175 55-17-10-28-26-33-46l33-7c5 56 141 63 141-1 0-78-155-14-162-118-5-82 145-84 179-34 5 7 8 16 11 25" id="aF"/><path d="M140-251c81 0 123 46 123 126C263-46 219 4 140 4 59 4 17-45 17-125s42-126 123-126zm0 227c63 0 89-41 89-101s-29-99-89-99c-61 0-89 39-89 99S79-25 140-24" id="aG"/><path d="M127-220V0H93v-220H8v-28h204v28h-85" id="aH"/><g id="w"><use transform="matrix(0.05,0,0,0.05,0,0)" xlink:href="#aF"/><use transform="matrix(0.05,0,0,0.05,12,0)" xlink:href="#ai"/><use transform="matrix(0.05,0,0,0.05,17,0)" xlink:href="#ao"/><use transform="matrix(0.05,0,0,0.05,27,0)" xlink:href="#ai"/><use transform="matrix(0.05,0,0,0.05,32,0)" xlink:href="#ad"/><use transform="matrix(0.05,0,0,0.05,42,0)" xlink:href="#aG"/><use transform="matrix(0.05,0,0,0.05,56,0)" xlink:href="#aj"/><use transform="matrix(0.05,0,0,0.05,61.95,0)" xlink:href="#aH"/><use transform="matrix(0.05,0,0,0.05,70.9,0)" xlink:href="#ad"/><use transform="matrix(0.05,0,0,0.05,80.9,0)" xlink:href="#aj"/><use transform="matrix(0.05,0,0,0.05,86.85000000000001,0)" xlink:href="#aj"/><use transform="matrix(0.05,0,0,0.05,92.80000000000001,0)" xlink:href="#aw"/><use transform="matrix(0.05,0,0,0.05,96.75000000000001,0)" xlink:href="#ai"/><use transform="matrix(0.05,0,0,0.05,101.75000000000001,0)" xlink:href="#ae"/><use transform="matrix(0.05,0,0,0.05,111.75,0)" xlink:href="#aj"/><use transform="matrix(0.05,0,0,0.05,117.7,0)" xlink:href="#ak"/></g><g id="x"><use transform="matrix(0.05,0,0,0.05,0,0)" xlink:href="#ap"/><use transform="matrix(0.05,0,0,0.05,9,0)" xlink:href="#ai"/><use transform="matrix(0.05,0,0,0.05,14,0)" xlink:href="#ao"/><use transform="matrix(0.05,0,0,0.05,24,0)" xlink:href="#ai"/><use transform="matrix(0.05,0,0,0.05,29,0)" xlink:href="#ad"/></g><g id="y"><use transform="matrix(0.05,0,0,0.05,0,0)" xlink:href="#ae"/><use transform="matrix(0.05,0,0,0.05,10,0)" xlink:href="#aj"/></g><g id="z"><use transform="matrix(0.05,0,0,0.05,0,0)" xlink:href="#ai"/><use transform="matrix(0.05,0,0,0.05,5,0)" xlink:href="#ad"/><use transform="matrix(0.05,0,0,0.05,15,0)" xlink:href="#aj"/><use transform="matrix(0.05,0,0,0.05,20.95,0)" xlink:href="#aj"/><use transform="matrix(0.05,0,0,0.05,26.899999999999995,0)" xlink:href="#aw"/><use transform="matrix(0.05,0,0,0.05,30.849999999999994,0)" xlink:href="#ai"/><use transform="matrix(0.05,0,0,0.05,35.849999999999994,0)" xlink:href="#ae"/><use transform="matrix(0.05,0,0,0.05,45.849999999999994,0)" xlink:href="#aj"/><use transform="matrix(0.05,0,0,0.05,51.79999999999999,0)" xlink:href="#ak"/></g><path d="M141 0L90-78 38 0H4l68-98-65-92h35l48 74 47-74h35l-64 92 68 98h-35" id="aI"/><g id="A"><use transform="matrix(0.05,0,0,0.05,0,0)" xlink:href="#ax"/><use transform="matrix(0.05,0,0,0.05,10,0)" xlink:href="#ad"/><use transform="matrix(0.05,0,0,0.05,20,0)" xlink:href="#aI"/><use transform="matrix(0.05,0,0,0.05,29,0)" xlink:href="#ai"/></g><g id="B"><use transform="matrix(0.05,0,0,0.05,0,0)" xlink:href="#an"/><use transform="matrix(0.05,0,0,0.05,10,0)" xlink:href="#ao"/><use transform="matrix(0.05,0,0,0.05,20,0)" xlink:href="#al"/></g><path d="M24 0v-261h32V0H24" id="aJ"/><g id="C"><use transform="matrix(0.05,0,0,0.05,0,0)" xlink:href="#al"/><use transform="matrix(0.05,0,0,0.05,10,0)" xlink:href="#aj"/><use transform="matrix(0.05,0,0,0.05,15.949999999999998,0)" xlink:href="#aw"/><use transform="matrix(0.05,0,0,0.05,19.9,0)" xlink:href="#aJ"/><use transform="matrix(0.05,0,0,0.05,23.849999999999998,0)" xlink:href="#aJ"/><use transform="matrix(0.05,0,0,0.05,27.799999999999997,0)" xlink:href="#aw"/><use transform="matrix(0.05,0,0,0.05,31.749999999999996,0)" xlink:href="#ax"/><use transform="matrix(0.05,0,0,0.05,41.75,0)" xlink:href="#ac"/></g><g id="D"><use transform="matrix(0.05,0,0,0.05,0,0)" xlink:href="#ai"/><use transform="matrix(0.05,0,0,0.05,5,0)" xlink:href="#aw"/><use transform="matrix(0.05,0,0,0.05,8.95,0)" xlink:href="#ah"/><use transform="matrix(0.05,0,0,0.05,23.9,0)" xlink:href="#ad"/></g><g id="E"><use transform="matrix(0.05,0,0,0.05,0,0)" xlink:href="#ai"/><use transform="matrix(0.05,0,0,0.05,5,0)" xlink:href="#aw"/><use transform="matrix(0.05,0,0,0.05,8.95,0)" xlink:href="#ah"/><use transform="matrix(0.05,0,0,0.05,23.9,0)" xlink:href="#ad"/><use transform="matrix(0.05,0,0,0.05,33.9,0)" xlink:href="#af"/></g><path d="M33 0v-248h34V0H33" id="aK"/><path d="M108 0H70L1-190h34L89-25l56-165h34" id="aL"/><g id="F"><use transform="matrix(0.05,0,0,0.05,0,0)" xlink:href="#aK"/><use transform="matrix(0.05,0,0,0.05,5,0)" xlink:href="#ax"/><use transform="matrix(0.05,0,0,0.05,15,0)" xlink:href="#ai"/><use transform="matrix(0.05,0,0,0.05,20,0)" xlink:href="#ad"/><use transform="matrix(0.05,0,0,0.05,30,0)" xlink:href="#aj"/><use transform="matrix(0.05,0,0,0.05,35.95,0)" xlink:href="#aL"/><use transform="matrix(0.05,0,0,0.05,44.95,0)" xlink:href="#ao"/><use transform="matrix(0.05,0,0,0.05,54.95,0)" xlink:href="#aJ"/></g><g id="G"><use transform="matrix(0.05,0,0,0.05,0,0)" xlink:href="#ai"/><use transform="matrix(0.05,0,0,0.05,5,0)" xlink:href="#aw"/><use transform="matrix(0.05,0,0,0.05,8.95,0)" xlink:href="#ah"/><use transform="matrix(0.05,0,0,0.05,23.9,0)" xlink:href="#ad"/><use transform="matrix(0.05,0,0,0.05,33.9,0)" xlink:href="#af"/><use transform="matrix(0.05,0,0,0.05,38.9,0)" xlink:href="#an"/><use transform="matrix(0.05,0,0,0.05,48.9,0)" xlink:href="#ao"/><use transform="matrix(0.05,0,0,0.05,58.900000000000006,0)" xlink:href="#ap"/><use transform="matrix(0.05,0,0,0.05,67.9,0)" xlink:href="#aH"/><use transform="matrix(0.05,0,0,0.05,78.2,0)" xlink:href="#aw"/><use transform="matrix(0.05,0,0,0.05,82.15,0)" xlink:href="#ah"/><use transform="matrix(0.05,0,0,0.05,97.10000000000001,0)" xlink:href="#ad"/></g><g id="H"><use transform="matrix(0.05,0,0,0.05,0,0)" xlink:href="#ac"/><use transform="matrix(0.05,0,0,0.05,10,0)" xlink:href="#ad"/><use transform="matrix(0.05,0,0,0.05,20,0)" xlink:href="#ae"/><use transform="matrix(0.05,0,0,0.05,30,0)" xlink:href="#aI"/><use transform="matrix(0.05,0,0,0.05,39,0)" xlink:href="#af"/></g><path d="M137 0h-34L2-248h35l83 218 83-218h36" id="aM"/><g id="I"><use transform="matrix(0.05,0,0,0.05,0,0)" xlink:href="#aM"/><use transform="matrix(0.05,0,0,0.05,11,0)" xlink:href="#ad"/><use transform="matrix(0.05,0,0,0.05,21,0)" xlink:href="#aj"/><use transform="matrix(0.05,0,0,0.05,26.950000000000003,0)" xlink:href="#ai"/><use transform="matrix(0.05,0,0,0.05,31.950000000000003,0)" xlink:href="#aw"/><use transform="matrix(0.05,0,0,0.05,35.9,0)" xlink:href="#am"/><use transform="matrix(0.05,0,0,0.05,44.9,0)" xlink:href="#ao"/><use transform="matrix(0.05,0,0,0.05,54.900000000000006,0)" xlink:href="#aJ"/><use transform="matrix(0.05,0,0,0.05,58.85,0)" xlink:href="#ag"/><use transform="matrix(0.05,0,0,0.05,72.85,0)" xlink:href="#ad"/><use transform="matrix(0.05,0,0,0.05,82.85,0)" xlink:href="#ae"/><use transform="matrix(0.05,0,0,0.05,92.85,0)" xlink:href="#ah"/><use transform="matrix(0.05,0,0,0.05,107.80000000000001,0)" xlink:href="#ad"/><use transform="matrix(0.05,0,0,0.05,117.80000000000001,0)" xlink:href="#ai"/><use transform="matrix(0.05,0,0,0.05,122.80000000000001,0)" xlink:href="#aj"/><use transform="matrix(0.05,0,0,0.05,128.75,0)" xlink:href="#ak"/></g><g id="J"><use transform="matrix(0.05,0,0,0.05,0,0)" xlink:href="#an"/><use transform="matrix(0.05,0,0,0.05,10,0)" xlink:href="#ao"/><use transform="matrix(0.05,0,0,0.05,20,0)" xlink:href="#ap"/><use transform="matrix(0.05,0,0,0.05,29,0)" xlink:href="#aM"/><use transform="matrix(0.05,0,0,0.05,40,0)" xlink:href="#ad"/><use transform="matrix(0.05,0,0,0.05,50,0)" xlink:href="#aj"/><use transform="matrix(0.05,0,0,0.05,55.95,0)" xlink:href="#ai"/><use transform="matrix(0.05,0,0,0.05,60.95,0)" xlink:href="#aw"/><use transform="matrix(0.05,0,0,0.05,64.9,0)" xlink:href="#am"/><use transform="matrix(0.05,0,0,0.05,73.9,0)" xlink:href="#ao"/><use transform="matrix(0.05,0,0,0.05,83.9,0)" xlink:href="#aJ"/></g><g id="K"><use transform="matrix(0.05,0,0,0.05,0,0)" xlink:href="#ag"/><use transform="matrix(0.05,0,0,0.05,14,0)" xlink:href="#ad"/><use transform="matrix(0.05,0,0,0.05,24,0)" xlink:href="#ae"/><use transform="matrix(0.05,0,0,0.05,34,0)" xlink:href="#ah"/><use transform="matrix(0.05,0,0,0.05,48.95,0)" xlink:href="#ad"/><use transform="matrix(0.05,0,0,0.05,58.95,0)" xlink:href="#ai"/><use transform="matrix(0.05,0,0,0.05,63.95,0)" xlink:href="#aj"/><use transform="matrix(0.05,0,0,0.05,69.9,0)" xlink:href="#ak"/></g></defs></g></svg>