<svg xmlns="http://www.w3.org/2000/svg" xmlns:xlink="http://www.w3.org/1999/xlink" xmlns:lucid="lucid" width="1201.79" height="873.1"><g transform="translate(0 0)" lucid:page-tab-id=".5IIFpT8PoVq"><path d="M0 0h1201.8v873.1H0z" fill="#fff"/><path d="M700.9 526.04c0-2.76 2.23-5 5-5h150c2.76 0 5 2.24 5 5v110c0 2.76-2.24 5-5 5h-150c-2.77 0-5-2.24-5-5z" stroke="#000" stroke-width="2" fill="#666"/><use xlink:href="#a" transform="matrix(1,0,0,1,708.8945686900959,529.0383832619619) translate(4.099999999999994 55.6)"/><path d="M781.9 518.22h-2V497.1h2zm0-42.72h-2v-15.46h2z"/><path d="M781.9 460.06h-2v-1.02h2zM780.9 516.1l9.3-15.75 1.74 1.02-11.05 18.67-11.05-18.67 1.72-1.02z"/><use xlink:href="#b" transform="matrix(1,0,0,1,711.4445686900958,475.5030241459399) translate(0 14.4)"/><use xlink:href="#c" transform="matrix(1,0,0,1,711.4445686900958,475.5030241459399) translate(95.95 14.4)"/><path d="M700.9 343.04c0-2.76 2.23-5 5-5h150c2.76 0 5 2.24 5 5v110c0 2.76-2.24 5-5 5h-150c-2.77 0-5-2.24-5-5z" stroke="#000" stroke-width="2" fill="#666"/><use xlink:href="#d" transform="matrix(1,0,0,1,708.8945686900959,346.03838326196194) translate(33.55 55.6)"/><path d="M60.9 465.9c0-2.77 2.23-5 5-5h150c2.76 0 5 2.23 5 5v110c0 2.76-2.24 5-5 5h-150c-2.77 0-5-2.24-5-5z" stroke="#000" stroke-width="2" fill="#b2b2b2"/><use xlink:href="#e" transform="matrix(1,0,0,1,68.89456869009584,468.89456869009587) translate(51 44.8)"/><use xlink:href="#f" transform="matrix(1,0,0,1,68.89456869009584,468.89456869009587) translate(38.525 66.4)"/><path d="M60.9 85.9c0-2.77 2.23-5 5-5h150c2.76 0 5 2.23 5 5v110c0 2.76-2.24 5-5 5h-150c-2.77 0-5-2.24-5-5z" stroke="#000" stroke-width="2" fill="#fff"/><use xlink:href="#g" transform="matrix(1,0,0,1,68.89456869009584,88.89456869009584) translate(56.05 44.8)"/><use xlink:href="#h" transform="matrix(1,0,0,1,68.89456869009584,88.89456869009584) translate(49.55 66.4)"/><path d="M60.9 225.9c0-2.77 2.23-5 5-5h150c2.76 0 5 2.23 5 5v110c0 2.76-2.24 5-5 5h-150c-2.77 0-5-2.24-5-5z" stroke="#000" stroke-width="2" fill="#666"/><use xlink:href="#i" transform="matrix(1,0,0,1,68.89456869009584,228.89456869009587) translate(27.049999999999997 55.6)"/><use xlink:href="#j" transform="matrix(1,0,0,1,68.89456869009584,228.89456869009587) translate(72.05 55.6)"/><path d="M40.9 45.9c0-2.77 2.23-5 5-5h190c2.76 0 5 2.23 5 5v27c0 2.76-2.24 5-5 5h-190c-2.77 0-5-2.24-5-5z" stroke="#000" stroke-opacity="0" stroke-width="2" fill="#fff" fill-opacity="0"/><use xlink:href="#k" transform="matrix(1,0,0,1,40.89456869009584,40.894568690095845) translate(7.01 21.3375)"/><use xlink:href="#l" transform="matrix(1,0,0,1,40.89456869009584,40.894568690095845) translate(79.81000000000002 21.3375)"/><use xlink:href="#m" transform="matrix(1,0,0,1,40.89456869009584,40.894568690095845) translate(150.71000000000004 21.3375)"/><path d="M76.97 422.77H41.9v-2h35.07zm168.42 0H227.8v-2h17.57z"/><path d="M41.92 422.77H40.9v-2h1.02z"/><path d="M260.66 421.77l-14.27 4.63v-9.27z" fill="#fff"/><path d="M263.9 421.77l-18.5 6v-12zm-16.5 3.26l10.02-3.26-10.03-3.26z"/><use xlink:href="#n" transform="matrix(1,0,0,1,152.39456869009587,411.36956869009384) translate(0 13.866666666666669)"/><use xlink:href="#o" transform="matrix(1,0,0,1,76.96956869009585,400.1695686900938) translate(0 14.4)"/><use xlink:href="#p" transform="matrix(1,0,0,1,76.96956869009585,400.1695686900938) translate(132.85000000000002 14.4)"/><use xlink:href="#q" transform="matrix(1,0,0,1,76.96956869009585,400.1695686900938) translate(0 36)"/><path d="M106.47 368.24H41.9v-2h64.57zm155.6 0h-63.75v-2h63.76z"/><path d="M41.92 368.24H40.9v-2h1.02zM263.9 367.24L245.2 378.3l-1-1.74 15.75-9.32-15.76-9.32 1.02-1.72z"/><use xlink:href="#n" transform="matrix(1,0,0,1,152.39456869009587,356.844568690094) translate(0 13.866666666666669)"/><use xlink:href="#r" transform="matrix(1,0,0,1,106.46956869009585,356.44456869009394) translate(0 14.4)"/><path d="M280.9 194.47c0-2.76 2.23-5 5-5h150c2.76 0 5 2.24 5 5v110c0 2.76-2.24 5-5 5h-150c-2.77 0-5-2.24-5-5z" stroke="#000" stroke-width="2" fill="#b2b2b2"/><use xlink:href="#s" transform="matrix(1,0,0,1,288.89456869009587,197.46647597602887) translate(36.05 44.8)"/><use xlink:href="#t" transform="matrix(1,0,0,1,288.89456869009587,197.46647597602887) translate(31.575000000000003 66.4)"/><path d="M280.9 343.04c0-2.76 2.23-5 5-5h150c2.76 0 5 2.24 5 5v110c0 2.76-2.24 5-5 5h-150c-2.77 0-5-2.24-5-5z" stroke="#000" stroke-width="2" fill="#b2b2b2"/><use xlink:href="#u" transform="matrix(1,0,0,1,288.89456869009587,346.03838326196194) translate(36.05 34)"/><use xlink:href="#v" transform="matrix(1,0,0,1,288.89456869009587,346.03838326196194) translate(41.025 55.6)"/><use xlink:href="#w" transform="matrix(1,0,0,1,288.89456869009587,346.03838326196194) translate(17.099999999999994 77.2)"/><path d="M280.9 494.47c0-2.76 2.23-5 5-5h150c2.76 0 5 2.24 5 5v110c0 2.76-2.24 5-5 5h-150c-2.77 0-5-2.24-5-5z" stroke="#000" stroke-width="2" fill="#b2b2b2"/><use xlink:href="#u" transform="matrix(1,0,0,1,288.89456869009587,497.46647597602896) translate(36.05 44.8)"/><use xlink:href="#x" transform="matrix(1,0,0,1,288.89456869009587,497.46647597602896) translate(46.5 66.4)"/><path d="M280.9 45.9c0-2.77 2.23-5 5-5h150c2.76 0 5 2.23 5 5v110c0 2.76-2.24 5-5 5h-150c-2.77 0-5-2.24-5-5z" stroke="#000" stroke-width="2" fill="#b2b2b2"/><use xlink:href="#u" transform="matrix(1,0,0,1,288.89456869009587,48.89456869009584) translate(36.05 44.8)"/><use xlink:href="#y" transform="matrix(1,0,0,1,288.89456869009587,48.89456869009584) translate(38.525 66.4)"/><path d="M280.9 645.9c0-2.77 2.23-5 5-5h150c2.76 0 5 2.23 5 5v110c0 2.76-2.24 5-5 5h-150c-2.77 0-5-2.24-5-5z" stroke="#000" stroke-width="2" fill="#b2b2b2"/><use xlink:href="#u" transform="matrix(1,0,0,1,288.89456869009587,648.8945686900959) translate(36.05 44.8)"/><use xlink:href="#z" transform="matrix(1,0,0,1,288.89456869009587,648.8945686900959) translate(12.174999999999997 66.4)"/><use xlink:href="#A" transform="matrix(1,0,0,1,288.89456869009587,648.8945686900959) translate(71.875 66.4)"/><path d="M700 396.63l-1.52 1.3-136.73-157.47h2.65zM545.63 218.86H543L442.33 102.92l1.5-1.3z"/><path d="M699.9 399.56l-1.43-1.64 1.42-1.24zM462.47 107.75l-.63 1.9-17.37-5.8 3.3 18.02-1.97.36-3.9-21.34z"/><use xlink:href="#B" transform="matrix(1,0,0,1,504.2224984251716,218.86026257300566) translate(0.005000000000002558 14.4)"/><use xlink:href="#C" transform="matrix(1,0,0,1,504.2224984251716,218.86026257300566) translate(34.005 14.4)"/><path d="M699.53 396.67l-1 1.74-128.08-73.75h4zm-162.58-93.62h-4l-89.98-51.8 1-1.74z"/><path d="M699.9 396.88v2.3l-1.4-.8 1-1.72zM463.6 251.2l-18.3.23 9 15.94-1.74.98-10.67-18.88 21.68-.25z"/><use xlink:href="#B" transform="matrix(1,0,0,1,496.79749842517174,303.0493229174838) translate(0.005000000000002558 14.4)"/><use xlink:href="#D" transform="matrix(1,0,0,1,496.79749842517174,303.0493229174838) translate(34.005 14.4)"/><path d="M500.77 399.04H443.7v-2h57.07zm198.12 0H606.6v-2h92.27z"/><path d="M699.9 399.04h-1.03v-2h1.02zM461.58 388.72l-15.76 9.32 15.76 9.32-1.02 1.72-18.67-11.04L460.55 387z"/><use xlink:href="#E" transform="matrix(1,0,0,1,500.7724984251717,376.4383832619619) translate(3.9549999999999983 14.4)"/><use xlink:href="#F" transform="matrix(1,0,0,1,500.7724984251717,376.4383832619619) translate(8.954999999999998 14.4)"/><use xlink:href="#G" transform="matrix(1,0,0,1,500.7724984251717,376.4383832619619) translate(42.955 14.4)"/><use xlink:href="#H" transform="matrix(1,0,0,1,500.7724984251717,376.4383832619619) translate(0.005000000000002558 36)"/><path d="M443.97 549.4l-1-1.72 90.35-53.03h3.95zm255.57-150l-125.47 73.65h-3.95l128.4-75.37z"/><path d="M699.9 399.2l-.38.22-1.02-1.72 1.4-.82zM454.16 531.46l-8.88 16.02 18.3.06v2l-21.7-.07 10.53-18.98z"/><use xlink:href="#B" transform="matrix(1,0,0,1,512.6974984251717,473.04591624879106) translate(0.005000000000002558 14.4)"/><use xlink:href="#I" transform="matrix(1,0,0,1,512.6974984251717,473.04591624879106) translate(34.005 14.4)"/><path d="M443.83 700.16l-1.52-1.3 88.3-103.63h2.62zM700 399.46L570.04 552.02h-2.63l131.08-153.88z"/><path d="M699.9 399.4l-1.43-1.23 1.42-1.67zM447.57 679.86l-3.13 18.04 17.32-5.95.65 1.9-20.5 7.04 3.7-21.38z"/><g><use xlink:href="#J" transform="matrix(1,0,0,1,506.93700408263453,552.0275496324003) translate(0.005000000000002558 14.4)"/><use xlink:href="#K" transform="matrix(1,0,0,1,506.93700408263453,552.0275496324003) translate(35.005 14.4)"/><use xlink:href="#L" transform="matrix(1,0,0,1,506.93700408263453,552.0275496324003) translate(13.405000000000001 36)"/></g><path d="M700.9 112.4c0-2.75 1.93-6.1 4.32-7.5l71.35-41.5c2.4-1.38 6.26-1.38 8.65 0l71.35 41.5c2.4 1.4 4.32 4.75 4.32 7.5v63.5c0 2.76-2.24 5-5 5h-150c-2.77 0-5-2.24-5-5z" stroke="#000" stroke-width="2" fill="#fff"/><g><use xlink:href="#M" transform="matrix(1,0,0,1,700.8945686900959,60.89456869009584) translate(60.025 52.8)"/><use xlink:href="#N" transform="matrix(1,0,0,1,700.8945686900959,60.89456869009584) translate(56.5 74.4)"/></g><path d="M759.58 269.28l4.23 6.06 3 4.73 2.43 4.18 2.05 3.92 1.8 3.8 1.56 3.74 1.4 3.78 1.25 3.85 1.1 3.98.98 4.16.83 4.38.7 4.67.53 5.04.34 5.47.1 5.02-2 .04-.1-4.97-.34-5.4-.5-4.94-.7-4.6-.8-4.3-.96-4.06-1.1-3.9-1.2-3.76-1.4-3.7-1.53-3.66-1.75-3.72-2.02-3.84-2.38-4.12-2.96-4.65-4.18-6-6.07-8.16h2.48zm-37.56-81.44l.33 5.4.52 4.94.68 4.58.82 4.3.95 4.07 1.1 3.9 1.2 3.76 1.4 3.68 1.53 3.68 1.75 3.7 2 3.86 2.4 4.1 1.8 2.87h-2.36l-1.16-1.83-2.42-4.2-2.05-3.9-1.78-3.8-1.57-3.75-1.4-3.77-1.26-3.85-1.12-3.97-.97-4.16-.82-4.38-.7-4.67-.52-5.03-.34-5.48-.1-4.2 2-.03z"/><path d="M781.9 337.04h-2l-.03-1 2-.05zM732.96 199.92l-1.66 1.1-10.2-15.2-8.4 16.25-1.8-.92 10-19.26z"/><g><use xlink:href="#O" transform="matrix(1,0,0,1,699.2508958292415,240.68868072688235) translate(0 14.4)"/><use xlink:href="#P" transform="matrix(1,0,0,1,699.2508958292415,240.68868072688235) translate(48.75 14.4)"/></g><path d="M829.1 242.76l-24 29.18-4.13 5.42-3.03 4.36-2.46 3.88-2.1 3.62-1.82 3.48-1.6 3.42-1.44 3.42-1.3 3.45-1.13 3.5-1.03 3.66-.9 3.8-.75 4-.63 4.24-.5 4.55-.3 4.92-.1 4.4-1.98-.05.1-4.44.3-5 .5-4.63.62-4.33.78-4.08.9-3.88 1.05-3.72 1.17-3.6 1.32-3.54 1.46-3.5 1.65-3.5 1.86-3.55 2.13-3.7 2.5-3.94 3.1-4.4 4.16-5.5 23.98-29.15.86-1.23h2.43zm19.42-59.03l-.07 3.62-.3 5-.5 4.63-.64 4.33-.77 4.1-.9 3.87-1.05 3.73-1.17 3.6-.77 2.12h-2.14l1.02-2.77 1.15-3.53 1.02-3.64.88-3.8.76-4 .63-4.25.47-4.54.3-4.93.08-3.58z"/><path d="M781.92 336.03l-.03 1h-2l.02-1.04zM857.46 201.2l-1.78.9-8.36-16.28L837.07 201l-1.66-1.13 12.16-17.98z"/><g><use xlink:href="#Q" transform="matrix(1,0,0,1,778.8784400071296,218.71961841665154) translate(0 14.4)"/><use xlink:href="#P" transform="matrix(1,0,0,1,778.8784400071296,218.71961841665154) translate(71.9 14.4)"/></g><path d="M60.9 649.56c0-2.76 1.93-6.13 4.32-7.52l71.35-41.5c2.4-1.38 6.26-1.38 8.65 0l71.35 41.5c2.4 1.4 4.32 4.76 4.32 7.52v63.48c0 2.76-2.24 5-5 5h-150c-2.77 0-5-2.24-5-5z" stroke="#000" stroke-width="2" fill="#fff"/><g><use xlink:href="#M" transform="matrix(1,0,0,1,60.89456869009584,598.0383832620007) translate(60.025 52.8)"/><use xlink:href="#N" transform="matrix(1,0,0,1,60.89456869009584,598.0383832620007) translate(56.5 74.4)"/></g><path d="M869.23 399.04h-6.34v-2h6.33zm114.5 0h-36.65v-2h36.65z"/><path d="M862.92 399.04h-1.03v-2h1.02zM985.55 398.04l-18.67 11.04-1.02-1.72 15.76-9.32-15.76-9.32 1.02-1.72z"/><g><use xlink:href="#B" transform="matrix(1,0,0,1,869.2325494135026,365.63838326196196) translate(0.005000000000002558 14.4)"/><use xlink:href="#R" transform="matrix(1,0,0,1,869.2325494135026,365.63838326196196) translate(34.005 14.4)"/><use xlink:href="#S" transform="matrix(1,0,0,1,869.2325494135026,365.63838326196196) translate(7.979999999999997 36)"/><use xlink:href="#T" transform="matrix(1,0,0,1,869.2325494135026,365.63838326196196) translate(28.93 57.6)"/></g><path d="M986.55 343.04c0-2.76 2.23-5 5-5h150c2.76 0 5 2.24 5 5v110c0 2.76-2.24 5-5 5h-150c-2.77 0-5-2.24-5-5z" stroke="#000" stroke-width="2" fill="#fff"/><g><use xlink:href="#U" transform="matrix(1,0,0,1,994.5455972198868,346.03838326196194) translate(54.5 34)"/><use xlink:href="#V" transform="matrix(1,0,0,1,994.5455972198868,346.03838326196194) translate(32.55 55.6)"/><use xlink:href="#W" transform="matrix(1,0,0,1,994.5455972198868,346.03838326196194) translate(17.625 77.2)"/><use xlink:href="#X" transform="matrix(1,0,0,1,994.5455972198868,346.03838326196194) translate(79.475 77.2)"/></g><defs><path fill="#fff" d="M33-154v-36h34v36H33zM33 0v-36h34V0H33" id="Y"/><path fill="#fff" d="M160-131c35 5 61 23 61 61C221 17 115-2 30 0v-248c76 3 177-17 177 60 0 33-19 50-47 57zm-97-11c50-1 110 9 110-42 0-47-63-36-110-37v79zm0 115c55-2 124 14 124-45 0-56-70-42-124-44v89" id="Z"/><path fill="#fff" d="M100-194c62-1 85 37 85 99 1 63-27 99-86 99S16-35 15-95c0-66 28-99 85-99zM99-20c44 1 53-31 53-75 0-43-8-75-51-75s-53 32-53 75 10 74 51 75" id="aa"/><path fill="#fff" d="M114-163C36-179 61-72 57 0H25l-1-190h30c1 12-1 29 2 39 6-27 23-49 58-41v29" id="ab"/><path fill="#fff" d="M100-194c63 0 86 42 84 106H49c0 40 14 67 53 68 26 1 43-12 49-29l28 8c-11 28-37 45-77 45C44 4 14-33 15-96c1-61 26-98 85-98zm52 81c6-60-76-77-97-28-3 7-6 17-6 28h103" id="ac"/><path fill="#fff" d="M106-169C34-169 62-67 57 0H25v-261h32l-1 103c12-21 28-36 61-36 89 0 53 116 60 194h-32v-121c2-32-8-49-39-48" id="ad"/><path fill="#fff" d="M24 0v-261h32V0H24" id="ae"/><path fill="#fff" d="M33 0v-248h34V0H33" id="af"/><path fill="#fff" d="M117-194c89-4 53 116 60 194h-32v-121c0-31-8-49-39-48C34-167 62-67 57 0H25l-1-190h30c1 10-1 24 2 32 11-22 29-35 61-36" id="ag"/><path fill="#fff" d="M59-47c-2 24 18 29 38 22v24C64 9 27 4 27-40v-127H5v-23h24l9-43h21v43h35v23H59v120" id="ah"/><path fill="#fff" d="M108 0H70L1-190h34L89-25l56-165h34" id="ai"/><path fill="#fff" d="M141-36C126-15 110 5 73 4 37 3 15-17 15-53c-1-64 63-63 125-63 3-35-9-54-41-54-24 1-41 7-42 31l-33-3c5-37 33-52 76-52 45 0 72 20 72 64v82c-1 20 7 32 28 27v20c-31 9-61-2-59-35zM48-53c0 20 12 33 32 33 41-3 63-29 60-74-43 2-92-5-92 41" id="aj"/><g id="a"><use transform="matrix(0.05,0,0,0.05,0,0)" xlink:href="#Y"/><use transform="matrix(0.05,0,0,0.05,5,0)" xlink:href="#Z"/><use transform="matrix(0.05,0,0,0.05,17,0)" xlink:href="#aa"/><use transform="matrix(0.05,0,0,0.05,27,0)" xlink:href="#ab"/><use transform="matrix(0.05,0,0,0.05,32.95,0)" xlink:href="#ac"/><use transform="matrix(0.05,0,0,0.05,42.95,0)" xlink:href="#ad"/><use transform="matrix(0.05,0,0,0.05,52.95,0)" xlink:href="#aa"/><use transform="matrix(0.05,0,0,0.05,62.95,0)" xlink:href="#ae"/><use transform="matrix(0.05,0,0,0.05,66.9,0)" xlink:href="#ac"/><use transform="matrix(0.05,0,0,0.05,76.9,0)" xlink:href="#af"/><use transform="matrix(0.05,0,0,0.05,81.9,0)" xlink:href="#ag"/><use transform="matrix(0.05,0,0,0.05,91.9,0)" xlink:href="#ah"/><use transform="matrix(0.05,0,0,0.05,96.9,0)" xlink:href="#ac"/><use transform="matrix(0.05,0,0,0.05,106.9,0)" xlink:href="#ab"/><use transform="matrix(0.05,0,0,0.05,112.85000000000001,0)" xlink:href="#ai"/><use transform="matrix(0.05,0,0,0.05,121.85000000000001,0)" xlink:href="#aj"/><use transform="matrix(0.05,0,0,0.05,131.85000000000002,0)" xlink:href="#ae"/></g><path d="M85-194c31 0 48 13 60 33l-1-100h32l1 261h-30c-2-10 0-23-3-31C134-8 116 4 85 4 32 4 16-35 15-94c0-66 23-100 70-100zm9 24c-40 0-46 34-46 75 0 40 6 74 45 74 42 0 51-32 51-76 0-42-9-74-50-73" id="ak"/><path d="M96-169c-40 0-48 33-48 73s9 75 48 75c24 0 41-14 43-38l32 2c-6 37-31 61-74 61-59 0-76-41-82-99-10-93 101-131 147-64 4 7 5 14 7 22l-32 3c-4-21-16-35-41-35" id="al"/><path d="M59-47c-2 24 18 29 38 22v24C64 9 27 4 27-40v-127H5v-23h24l9-43h21v43h35v23H59v120" id="am"/><path d="M33-154v-36h34v36H33zM33 0v-36h34V0H33" id="an"/><path d="M106-169C34-169 62-67 57 0H25v-261h32l-1 103c12-21 28-36 61-36 89 0 53 116 60 194h-32v-121c2-32-8-49-39-48" id="ao"/><path d="M141-36C126-15 110 5 73 4 37 3 15-17 15-53c-1-64 63-63 125-63 3-35-9-54-41-54-24 1-41 7-42 31l-33-3c5-37 33-52 76-52 45 0 72 20 72 64v82c-1 20 7 32 28 27v20c-31 9-61-2-59-35zM48-53c0 20 12 33 32 33 41-3 63-29 60-74-43 2-92-5-92 41" id="ap"/><path d="M135-143c-3-34-86-38-87 0 15 53 115 12 119 90S17 21 10-45l28-5c4 36 97 45 98 0-10-56-113-15-118-90-4-57 82-63 122-42 12 7 21 19 24 35" id="aq"/><path d="M30-248c87 1 191-15 191 75 0 78-77 80-158 76V0H30v-248zm33 125c57 0 124 11 124-50 0-59-68-47-124-48v98" id="ar"/><path d="M114-163C36-179 61-72 57 0H25l-1-190h30c1 12-1 29 2 39 6-27 23-49 58-41v29" id="as"/><g id="b"><use transform="matrix(0.05,0,0,0.05,0,0)" xlink:href="#ak"/><use transform="matrix(0.05,0,0,0.05,10,0)" xlink:href="#al"/><use transform="matrix(0.05,0,0,0.05,19,0)" xlink:href="#am"/><use transform="matrix(0.05,0,0,0.05,24,0)" xlink:href="#an"/><use transform="matrix(0.05,0,0,0.05,29,0)" xlink:href="#ao"/><use transform="matrix(0.05,0,0,0.05,39,0)" xlink:href="#ap"/><use transform="matrix(0.05,0,0,0.05,49,0)" xlink:href="#aq"/><use transform="matrix(0.05,0,0,0.05,58,0)" xlink:href="#ar"/><use transform="matrix(0.05,0,0,0.05,70,0)" xlink:href="#ap"/><use transform="matrix(0.05,0,0,0.05,80,0)" xlink:href="#as"/><use transform="matrix(0.05,0,0,0.05,85.95,0)" xlink:href="#am"/></g><path d="M26 75v-336h71v23H56V52h41v23H26" id="at"/><path d="M27 0v-27h64v-190l-56 39v-29l58-41h29v221h61V0H27" id="au"/><path d="M33 0v-38h34V0H33" id="av"/><path d="M190 0L58-211 59 0H30v-248h39L202-35l-2-213h31V0h-41" id="aw"/><path d="M3 75V52h41v-290H3v-23h71V75H3" id="ax"/><g id="c"><use transform="matrix(0.05,0,0,0.05,0,0)" xlink:href="#at"/><use transform="matrix(0.05,0,0,0.05,5,0)" xlink:href="#au"/><use transform="matrix(0.05,0,0,0.05,15,0)" xlink:href="#av"/><use transform="matrix(0.05,0,0,0.05,20,0)" xlink:href="#av"/><use transform="matrix(0.05,0,0,0.05,25,0)" xlink:href="#aw"/><use transform="matrix(0.05,0,0,0.05,37.95,0)" xlink:href="#ax"/></g><g id="d"><use transform="matrix(0.05,0,0,0.05,0,0)" xlink:href="#Y"/><use transform="matrix(0.05,0,0,0.05,5,0)" xlink:href="#Z"/><use transform="matrix(0.05,0,0,0.05,17,0)" xlink:href="#aa"/><use transform="matrix(0.05,0,0,0.05,27,0)" xlink:href="#ab"/><use transform="matrix(0.05,0,0,0.05,32.95,0)" xlink:href="#ac"/><use transform="matrix(0.05,0,0,0.05,42.95,0)" xlink:href="#ad"/><use transform="matrix(0.05,0,0,0.05,52.95,0)" xlink:href="#aa"/><use transform="matrix(0.05,0,0,0.05,62.95,0)" xlink:href="#ae"/><use transform="matrix(0.05,0,0,0.05,66.9,0)" xlink:href="#ac"/></g><path d="M143 0L79-87 56-68V0H24v-261h32v163l83-92h37l-77 82L181 0h-38" id="ay"/><path d="M100-194c62-1 85 37 85 99 1 63-27 99-86 99S16-35 15-95c0-66 28-99 85-99zM99-20c44 1 53-31 53-75 0-43-8-75-51-75s-53 32-53 75 10 74 51 75" id="az"/><g id="e"><use transform="matrix(0.05,0,0,0.05,0,0)" xlink:href="#aq"/><use transform="matrix(0.05,0,0,0.05,9,0)" xlink:href="#ay"/><use transform="matrix(0.05,0,0,0.05,18,0)" xlink:href="#az"/><use transform="matrix(0.05,0,0,0.05,28,0)" xlink:href="#aq"/><use transform="matrix(0.05,0,0,0.05,37,0)" xlink:href="#an"/></g><path d="M212-179c-10-28-35-45-73-45-59 0-87 40-87 99 0 60 29 101 89 101 43 0 62-24 78-52l27 14C228-24 195 4 139 4 59 4 22-46 18-125c-6-104 99-153 187-111 19 9 31 26 39 46" id="aA"/><path d="M117-194c89-4 53 116 60 194h-32v-121c0-31-8-49-39-48C34-167 62-67 57 0H25l-1-190h30c1 10-1 24 2 32 11-22 29-35 61-36" id="aB"/><path d="M100-194c63 0 86 42 84 106H49c0 40 14 67 53 68 26 1 43-12 49-29l28 8c-11 28-37 45-77 45C44 4 14-33 15-96c1-61 26-98 85-98zm52 81c6-60-76-77-97-28-3 7-6 17-6 28h103" id="aC"/><path d="M115-194c55 1 70 41 70 98S169 2 115 4C84 4 66-9 55-30l1 105H24l-1-265h31l2 30c10-21 28-34 59-34zm-8 174c40 0 45-34 45-75s-6-73-45-74c-42 0-51 32-51 76 0 43 10 73 51 73" id="aD"/><g id="f"><use transform="matrix(0.05,0,0,0.05,0,0)" xlink:href="#aA"/><use transform="matrix(0.05,0,0,0.05,12.950000000000001,0)" xlink:href="#az"/><use transform="matrix(0.05,0,0,0.05,22.950000000000003,0)" xlink:href="#aB"/><use transform="matrix(0.05,0,0,0.05,32.95,0)" xlink:href="#al"/><use transform="matrix(0.05,0,0,0.05,41.95,0)" xlink:href="#aC"/><use transform="matrix(0.05,0,0,0.05,51.95,0)" xlink:href="#aD"/><use transform="matrix(0.05,0,0,0.05,61.95,0)" xlink:href="#am"/></g><path d="M206 0h-36l-40-164L89 0H53L-1-190h32L70-26l43-164h34l41 164 42-164h31" id="aE"/><path d="M24 0v-261h32V0H24" id="aF"/><g id="g"><use transform="matrix(0.05,0,0,0.05,0,0)" xlink:href="#az"/><use transform="matrix(0.05,0,0,0.05,10,0)" xlink:href="#aE"/><use transform="matrix(0.05,0,0,0.05,22.950000000000003,0)" xlink:href="#aF"/><use transform="matrix(0.05,0,0,0.05,26.900000000000002,0)" xlink:href="#an"/></g><g id="h"><use transform="matrix(0.05,0,0,0.05,0,0)" xlink:href="#aA"/><use transform="matrix(0.05,0,0,0.05,12.950000000000001,0)" xlink:href="#aF"/><use transform="matrix(0.05,0,0,0.05,16.900000000000002,0)" xlink:href="#ap"/><use transform="matrix(0.05,0,0,0.05,26.900000000000002,0)" xlink:href="#aq"/><use transform="matrix(0.05,0,0,0.05,35.900000000000006,0)" xlink:href="#aq"/></g><path fill="#fff" d="M143 4C61 4 22-44 18-125c-5-107 100-154 193-111 17 8 29 25 37 43l-32 9c-13-25-37-40-76-40-61 0-88 39-88 99 0 61 29 100 91 101 35 0 62-11 79-27v-45h-74v-28h105v86C228-13 192 4 143 4" id="aG"/><path fill="#fff" d="M185-189c-5-48-123-54-124 2 14 75 158 14 163 119 3 78-121 87-175 55-17-10-28-26-33-46l33-7c5 56 141 63 141-1 0-78-155-14-162-118-5-82 145-84 179-34 5 7 8 16 11 25" id="aH"/><path fill="#fff" d="M140-251c81 0 123 46 123 126C263-53 228-8 163 1c7 30 30 48 69 40v23c-55 16-95-15-103-61C56-3 17-48 17-125c0-80 42-126 123-126zm0 227c63 0 89-41 89-101s-29-99-89-99c-61 0-89 39-89 99S79-25 140-24" id="aI"/><g id="i"><use transform="matrix(0.05,0,0,0.05,0,0)" xlink:href="#aG"/><use transform="matrix(0.05,0,0,0.05,14,0)" xlink:href="#aH"/><use transform="matrix(0.05,0,0,0.05,26,0)" xlink:href="#aI"/></g><path fill="#fff" d="M212-179c-10-28-35-45-73-45-59 0-87 40-87 99 0 60 29 101 89 101 43 0 62-24 78-52l27 14C228-24 195 4 139 4 59 4 22-46 18-125c-6-104 99-153 187-111 19 9 31 26 39 46" id="aJ"/><path fill="#fff" d="M135-143c-3-34-86-38-87 0 15 53 115 12 119 90S17 21 10-45l28-5c4 36 97 45 98 0-10-56-113-15-118-90-4-57 82-63 122-42 12 7 21 19 24 35" id="aK"/><g id="j"><use transform="matrix(0.05,0,0,0.05,0,0)" xlink:href="#aJ"/><use transform="matrix(0.05,0,0,0.05,12.950000000000001,0)" xlink:href="#ae"/><use transform="matrix(0.05,0,0,0.05,16.900000000000002,0)" xlink:href="#aj"/><use transform="matrix(0.05,0,0,0.05,26.900000000000002,0)" xlink:href="#aK"/><use transform="matrix(0.05,0,0,0.05,35.900000000000006,0)" xlink:href="#aK"/></g><path d="M30-248c118-7 216 8 213 122C240-48 200 0 122 0H30v-248zM63-27c89 8 146-16 146-99s-60-101-146-95v194" id="aL"/><path d="M24-231v-30h32v30H24zM24 0v-190h32V0H24" id="aM"/><path d="M177-190C167-65 218 103 67 71c-23-6-38-20-44-43l32-5c15 47 100 32 89-28v-30C133-14 115 1 83 1 29 1 15-40 15-95c0-56 16-97 71-98 29-1 48 16 59 35 1-10 0-23 2-32h30zM94-22c36 0 50-32 50-73 0-42-14-75-50-75-39 0-46 34-46 75s6 73 46 73" id="aN"/><path d="M210-169c-67 3-38 105-44 169h-31v-121c0-29-5-50-35-48C34-165 62-65 56 0H25l-1-190h30c1 10-1 24 2 32 10-44 99-50 107 0 11-21 27-35 58-36 85-2 47 119 55 194h-31v-121c0-29-5-49-35-48" id="aO"/><g id="k"><use transform="matrix(0.05,0,0,0.05,0,0)" xlink:href="#aL"/><use transform="matrix(0.05,0,0,0.05,12.950000000000001,0)" xlink:href="#aM"/><use transform="matrix(0.05,0,0,0.05,16.900000000000002,0)" xlink:href="#ap"/><use transform="matrix(0.05,0,0,0.05,26.900000000000002,0)" xlink:href="#aN"/><use transform="matrix(0.05,0,0,0.05,36.900000000000006,0)" xlink:href="#as"/><use transform="matrix(0.05,0,0,0.05,42.85000000000001,0)" xlink:href="#ap"/><use transform="matrix(0.05,0,0,0.05,52.85,0)" xlink:href="#aO"/><path d="M-.9 1.25h74.6v1.32H-.9z"/></g><path d="M30 0v-248h187v28H63v79h144v27H63v87h162V0H30" id="aP"/><g id="l"><use transform="matrix(0.05,0,0,0.05,0,0)" xlink:href="#aP"/><use transform="matrix(0.05,0,0,0.05,12,0)" xlink:href="#aF"/><use transform="matrix(0.05,0,0,0.05,15.949999999999998,0)" xlink:href="#aC"/><use transform="matrix(0.05,0,0,0.05,25.950000000000003,0)" xlink:href="#aO"/><use transform="matrix(0.05,0,0,0.05,40.9,0)" xlink:href="#aC"/><use transform="matrix(0.05,0,0,0.05,50.9,0)" xlink:href="#aB"/><use transform="matrix(0.05,0,0,0.05,60.900000000000006,0)" xlink:href="#am"/><path d="M-.9 1.25h72.7v1.32H-.9z"/></g><path d="M194 0L95-120 63-95V0H30v-248h33v124l119-124h40L117-140 236 0h-42" id="aQ"/><path d="M179-190L93 31C79 59 56 82 12 73V49c39 6 53-20 64-50L1-190h34L92-34l54-156h33" id="aR"/><g id="m"><use transform="matrix(0.05,0,0,0.05,0,0)" xlink:href="#aQ"/><use transform="matrix(0.05,0,0,0.05,12,0)" xlink:href="#aC"/><use transform="matrix(0.05,0,0,0.05,22,0)" xlink:href="#aR"/><path d="M-.9 1.25h32.8v1.32H-.9z"/></g><path d="M101-234c-31-9-42 10-38 44h38v23H63V0H32v-167H5v-23h27c-7-52 17-82 69-68v24" id="aS"/><path d="M84 4C-5 8 30-112 23-190h32v120c0 31 7 50 39 49 72-2 45-101 50-169h31l1 190h-30c-1-10 1-25-2-33-11 22-28 36-60 37" id="aT"/><path d="M115-194c53 0 69 39 70 98 0 66-23 100-70 100C84 3 66-7 56-30L54 0H23l1-261h32v101c10-23 28-34 59-34zm-8 174c40 0 45-34 45-75 0-40-5-75-45-74-42 0-51 32-51 76 0 43 10 73 51 73" id="aU"/><path d="M140-251c81 0 123 46 123 126C263-46 219 4 140 4 59 4 17-45 17-125s42-126 123-126zm0 227c63 0 89-41 89-101s-29-99-89-99c-61 0-89 39-89 99S79-25 140-24" id="aV"/><g id="o"><use transform="matrix(0.05,0,0,0.05,0,0)" xlink:href="#as"/><use transform="matrix(0.05,0,0,0.05,5.95,0)" xlink:href="#ak"/><use transform="matrix(0.05,0,0,0.05,15.949999999999998,0)" xlink:href="#aS"/><use transform="matrix(0.05,0,0,0.05,20.95,0)" xlink:href="#aq"/><use transform="matrix(0.05,0,0,0.05,29.950000000000003,0)" xlink:href="#an"/><use transform="matrix(0.05,0,0,0.05,34.95,0)" xlink:href="#aq"/><use transform="matrix(0.05,0,0,0.05,43.95,0)" xlink:href="#aT"/><use transform="matrix(0.05,0,0,0.05,53.95,0)" xlink:href="#aU"/><use transform="matrix(0.05,0,0,0.05,63.95,0)" xlink:href="#aA"/><use transform="matrix(0.05,0,0,0.05,76.9,0)" xlink:href="#aF"/><use transform="matrix(0.05,0,0,0.05,80.85000000000001,0)" xlink:href="#ap"/><use transform="matrix(0.05,0,0,0.05,90.85000000000001,0)" xlink:href="#aq"/><use transform="matrix(0.05,0,0,0.05,99.85000000000001,0)" xlink:href="#aq"/><use transform="matrix(0.05,0,0,0.05,108.85000000000001,0)" xlink:href="#aV"/><use transform="matrix(0.05,0,0,0.05,122.85000000000001,0)" xlink:href="#aS"/></g><path d="M0 4l72-265h28L28 4H0" id="aW"/><use transform="matrix(0.05,0,0,0.05,0,0)" xlink:href="#aW" id="p"/><g id="q"><use transform="matrix(0.05,0,0,0.05,0,0)" xlink:href="#as"/><use transform="matrix(0.05,0,0,0.05,5.95,0)" xlink:href="#ak"/><use transform="matrix(0.05,0,0,0.05,15.949999999999998,0)" xlink:href="#aS"/><use transform="matrix(0.05,0,0,0.05,20.95,0)" xlink:href="#aq"/><use transform="matrix(0.05,0,0,0.05,29.950000000000003,0)" xlink:href="#an"/><use transform="matrix(0.05,0,0,0.05,34.95,0)" xlink:href="#aq"/><use transform="matrix(0.05,0,0,0.05,43.95,0)" xlink:href="#aT"/><use transform="matrix(0.05,0,0,0.05,53.95,0)" xlink:href="#aU"/><use transform="matrix(0.05,0,0,0.05,63.95,0)" xlink:href="#ar"/><use transform="matrix(0.05,0,0,0.05,75.95,0)" xlink:href="#as"/><use transform="matrix(0.05,0,0,0.05,81.9,0)" xlink:href="#az"/><use transform="matrix(0.05,0,0,0.05,91.9,0)" xlink:href="#aD"/><use transform="matrix(0.05,0,0,0.05,101.9,0)" xlink:href="#aC"/><use transform="matrix(0.05,0,0,0.05,111.9,0)" xlink:href="#as"/><use transform="matrix(0.05,0,0,0.05,117.85000000000001,0)" xlink:href="#am"/><use transform="matrix(0.05,0,0,0.05,122.85000000000001,0)" xlink:href="#aR"/><use transform="matrix(0.05,0,0,0.05,131.85000000000002,0)" xlink:href="#aV"/><use transform="matrix(0.05,0,0,0.05,145.85000000000002,0)" xlink:href="#aS"/></g><g id="r"><use transform="matrix(0.05,0,0,0.05,0,0)" xlink:href="#as"/><use transform="matrix(0.05,0,0,0.05,5.95,0)" xlink:href="#ak"/><use transform="matrix(0.05,0,0,0.05,15.949999999999998,0)" xlink:href="#aS"/><use transform="matrix(0.05,0,0,0.05,20.95,0)" xlink:href="#an"/><use transform="matrix(0.05,0,0,0.05,25.950000000000003,0)" xlink:href="#aD"/><use transform="matrix(0.05,0,0,0.05,35.95,0)" xlink:href="#as"/><use transform="matrix(0.05,0,0,0.05,41.900000000000006,0)" xlink:href="#az"/><use transform="matrix(0.05,0,0,0.05,51.900000000000006,0)" xlink:href="#aD"/><use transform="matrix(0.05,0,0,0.05,61.900000000000006,0)" xlink:href="#aC"/><use transform="matrix(0.05,0,0,0.05,71.9,0)" xlink:href="#as"/><use transform="matrix(0.05,0,0,0.05,77.85000000000001,0)" xlink:href="#am"/><use transform="matrix(0.05,0,0,0.05,82.85000000000001,0)" xlink:href="#aR"/></g><path d="M160-131c35 5 61 23 61 61C221 17 115-2 30 0v-248c76 3 177-17 177 60 0 33-19 50-47 57zm-97-11c50-1 110 9 110-42 0-47-63-36-110-37v79zm0 115c55-2 124 14 124-45 0-56-70-42-124-44v89" id="aX"/><g id="s"><use transform="matrix(0.05,0,0,0.05,0,0)" xlink:href="#aX"/><use transform="matrix(0.05,0,0,0.05,12,0)" xlink:href="#az"/><use transform="matrix(0.05,0,0,0.05,22,0)" xlink:href="#as"/><use transform="matrix(0.05,0,0,0.05,27.950000000000003,0)" xlink:href="#aC"/><use transform="matrix(0.05,0,0,0.05,37.95,0)" xlink:href="#ao"/><use transform="matrix(0.05,0,0,0.05,47.95,0)" xlink:href="#az"/><use transform="matrix(0.05,0,0,0.05,57.95,0)" xlink:href="#aF"/><use transform="matrix(0.05,0,0,0.05,61.900000000000006,0)" xlink:href="#aC"/></g><path d="M33 0v-248h34V0H33" id="aY"/><g id="t"><use transform="matrix(0.05,0,0,0.05,0,0)" xlink:href="#aY"/><use transform="matrix(0.05,0,0,0.05,5,0)" xlink:href="#aB"/><use transform="matrix(0.05,0,0,0.05,15,0)" xlink:href="#al"/><use transform="matrix(0.05,0,0,0.05,24,0)" xlink:href="#aF"/><use transform="matrix(0.05,0,0,0.05,27.950000000000003,0)" xlink:href="#aM"/><use transform="matrix(0.05,0,0,0.05,31.899999999999995,0)" xlink:href="#aB"/><use transform="matrix(0.05,0,0,0.05,41.9,0)" xlink:href="#ap"/><use transform="matrix(0.05,0,0,0.05,51.900000000000006,0)" xlink:href="#am"/><use transform="matrix(0.05,0,0,0.05,56.900000000000006,0)" xlink:href="#aM"/><use transform="matrix(0.05,0,0,0.05,60.85,0)" xlink:href="#az"/><use transform="matrix(0.05,0,0,0.05,70.85,0)" xlink:href="#aB"/></g><g id="u"><use transform="matrix(0.05,0,0,0.05,0,0)" xlink:href="#aX"/><use transform="matrix(0.05,0,0,0.05,12,0)" xlink:href="#az"/><use transform="matrix(0.05,0,0,0.05,22,0)" xlink:href="#as"/><use transform="matrix(0.05,0,0,0.05,27.950000000000003,0)" xlink:href="#aC"/><use transform="matrix(0.05,0,0,0.05,37.95,0)" xlink:href="#ao"/><use transform="matrix(0.05,0,0,0.05,47.95,0)" xlink:href="#az"/><use transform="matrix(0.05,0,0,0.05,57.95,0)" xlink:href="#aF"/><use transform="matrix(0.05,0,0,0.05,61.900000000000006,0)" xlink:href="#aC"/></g><path d="M185-189c-5-48-123-54-124 2 14 75 158 14 163 119 3 78-121 87-175 55-17-10-28-26-33-46l33-7c5 56 141 63 141-1 0-78-155-14-162-118-5-82 145-84 179-34 5 7 8 16 11 25" id="aZ"/><g id="v"><use transform="matrix(0.05,0,0,0.05,0,0)" xlink:href="#aZ"/><use transform="matrix(0.05,0,0,0.05,12,0)" xlink:href="#aT"/><use transform="matrix(0.05,0,0,0.05,22,0)" xlink:href="#as"/><use transform="matrix(0.05,0,0,0.05,27.950000000000003,0)" xlink:href="#aS"/><use transform="matrix(0.05,0,0,0.05,32.95,0)" xlink:href="#ap"/><use transform="matrix(0.05,0,0,0.05,42.95,0)" xlink:href="#al"/><use transform="matrix(0.05,0,0,0.05,51.95,0)" xlink:href="#aC"/></g><g id="w"><use transform="matrix(0.05,0,0,0.05,0,0)" xlink:href="#aA"/><use transform="matrix(0.05,0,0,0.05,12.950000000000001,0)" xlink:href="#aM"/><use transform="matrix(0.05,0,0,0.05,16.900000000000002,0)" xlink:href="#as"/><use transform="matrix(0.05,0,0,0.05,22.85,0)" xlink:href="#al"/><use transform="matrix(0.05,0,0,0.05,31.85,0)" xlink:href="#aT"/><use transform="matrix(0.05,0,0,0.05,41.85,0)" xlink:href="#aO"/><use transform="matrix(0.05,0,0,0.05,56.800000000000004,0)" xlink:href="#aq"/><use transform="matrix(0.05,0,0,0.05,65.80000000000001,0)" xlink:href="#am"/><use transform="matrix(0.05,0,0,0.05,70.80000000000001,0)" xlink:href="#ap"/><use transform="matrix(0.05,0,0,0.05,80.80000000000001,0)" xlink:href="#aB"/><use transform="matrix(0.05,0,0,0.05,90.80000000000001,0)" xlink:href="#al"/><use transform="matrix(0.05,0,0,0.05,99.80000000000001,0)" xlink:href="#aC"/></g><g id="x"><use transform="matrix(0.05,0,0,0.05,0,0)" xlink:href="#aZ"/><use transform="matrix(0.05,0,0,0.05,12,0)" xlink:href="#am"/><use transform="matrix(0.05,0,0,0.05,17,0)" xlink:href="#ap"/><use transform="matrix(0.05,0,0,0.05,27,0)" xlink:href="#am"/><use transform="matrix(0.05,0,0,0.05,32,0)" xlink:href="#aT"/><use transform="matrix(0.05,0,0,0.05,42,0)" xlink:href="#aq"/></g><g id="y"><use transform="matrix(0.05,0,0,0.05,0,0)" xlink:href="#ar"/><use transform="matrix(0.05,0,0,0.05,12,0)" xlink:href="#aT"/><use transform="matrix(0.05,0,0,0.05,22,0)" xlink:href="#as"/><use transform="matrix(0.05,0,0,0.05,27.950000000000003,0)" xlink:href="#aD"/><use transform="matrix(0.05,0,0,0.05,37.95,0)" xlink:href="#az"/><use transform="matrix(0.05,0,0,0.05,47.95,0)" xlink:href="#aq"/><use transform="matrix(0.05,0,0,0.05,56.95,0)" xlink:href="#aC"/></g><g id="z"><use transform="matrix(0.05,0,0,0.05,0,0)" xlink:href="#aL"/><use transform="matrix(0.05,0,0,0.05,12.950000000000001,0)" xlink:href="#as"/><use transform="matrix(0.05,0,0,0.05,18.900000000000002,0)" xlink:href="#aM"/><use transform="matrix(0.05,0,0,0.05,22.85,0)" xlink:href="#aF"/><use transform="matrix(0.05,0,0,0.05,26.8,0)" xlink:href="#aF"/><use transform="matrix(0.05,0,0,0.05,30.75,0)" xlink:href="#aM"/><use transform="matrix(0.05,0,0,0.05,34.7,0)" xlink:href="#aB"/><use transform="matrix(0.05,0,0,0.05,44.7,0)" xlink:href="#aN"/></g><path d="M240 0l2-218c-23 76-54 145-80 218h-23L58-218 59 0H30v-248h44l77 211c21-75 51-140 76-211h43V0h-30" id="ba"/><g id="A"><use transform="matrix(0.05,0,0,0.05,0,0)" xlink:href="#ba"/><use transform="matrix(0.05,0,0,0.05,14.950000000000001,0)" xlink:href="#aC"/><use transform="matrix(0.05,0,0,0.05,24.950000000000003,0)" xlink:href="#am"/><use transform="matrix(0.05,0,0,0.05,29.950000000000003,0)" xlink:href="#ao"/><use transform="matrix(0.05,0,0,0.05,39.95,0)" xlink:href="#az"/><use transform="matrix(0.05,0,0,0.05,49.95,0)" xlink:href="#ak"/></g><g id="B"><use transform="matrix(0.05,0,0,0.05,0,0)" xlink:href="#ao"/><use transform="matrix(0.05,0,0,0.05,10,0)" xlink:href="#ap"/><use transform="matrix(0.05,0,0,0.05,20,0)" xlink:href="#aq"/></g><g id="C"><use transform="matrix(0.05,0,0,0.05,0,0)" xlink:href="#aD"/><use transform="matrix(0.05,0,0,0.05,10,0)" xlink:href="#aT"/><use transform="matrix(0.05,0,0,0.05,20,0)" xlink:href="#as"/><use transform="matrix(0.05,0,0,0.05,25.950000000000003,0)" xlink:href="#aD"/><use transform="matrix(0.05,0,0,0.05,35.95,0)" xlink:href="#az"/><use transform="matrix(0.05,0,0,0.05,45.95,0)" xlink:href="#aq"/><use transform="matrix(0.05,0,0,0.05,54.95,0)" xlink:href="#aC"/></g><g id="D"><use transform="matrix(0.05,0,0,0.05,0,0)" xlink:href="#aM"/><use transform="matrix(0.05,0,0,0.05,3.95,0)" xlink:href="#aB"/><use transform="matrix(0.05,0,0,0.05,13.949999999999998,0)" xlink:href="#al"/><use transform="matrix(0.05,0,0,0.05,22.95,0)" xlink:href="#aF"/><use transform="matrix(0.05,0,0,0.05,26.899999999999995,0)" xlink:href="#aM"/><use transform="matrix(0.05,0,0,0.05,30.849999999999994,0)" xlink:href="#aB"/><use transform="matrix(0.05,0,0,0.05,40.849999999999994,0)" xlink:href="#ap"/><use transform="matrix(0.05,0,0,0.05,50.849999999999994,0)" xlink:href="#am"/><use transform="matrix(0.05,0,0,0.05,55.849999999999994,0)" xlink:href="#aM"/><use transform="matrix(0.05,0,0,0.05,59.79999999999999,0)" xlink:href="#az"/><use transform="matrix(0.05,0,0,0.05,69.8,0)" xlink:href="#aB"/></g><g id="F"><use transform="matrix(0.05,0,0,0.05,0,0)" xlink:href="#ao"/><use transform="matrix(0.05,0,0,0.05,10,0)" xlink:href="#ap"/><use transform="matrix(0.05,0,0,0.05,20,0)" xlink:href="#aq"/></g><g id="G"><use transform="matrix(0.05,0,0,0.05,0,0)" xlink:href="#aq"/><use transform="matrix(0.05,0,0,0.05,9,0)" xlink:href="#aT"/><use transform="matrix(0.05,0,0,0.05,19,0)" xlink:href="#as"/><use transform="matrix(0.05,0,0,0.05,24.95,0)" xlink:href="#aS"/><use transform="matrix(0.05,0,0,0.05,29.950000000000003,0)" xlink:href="#ap"/><use transform="matrix(0.05,0,0,0.05,39.95,0)" xlink:href="#al"/><use transform="matrix(0.05,0,0,0.05,48.95,0)" xlink:href="#aC"/></g><g id="H"><use transform="matrix(0.05,0,0,0.05,0,0)" xlink:href="#al"/><use transform="matrix(0.05,0,0,0.05,9,0)" xlink:href="#aM"/><use transform="matrix(0.05,0,0,0.05,12.949999999999998,0)" xlink:href="#as"/><use transform="matrix(0.05,0,0,0.05,18.9,0)" xlink:href="#al"/><use transform="matrix(0.05,0,0,0.05,27.899999999999995,0)" xlink:href="#aT"/><use transform="matrix(0.05,0,0,0.05,37.9,0)" xlink:href="#aO"/><use transform="matrix(0.05,0,0,0.05,52.85,0)" xlink:href="#aq"/><use transform="matrix(0.05,0,0,0.05,61.85,0)" xlink:href="#am"/><use transform="matrix(0.05,0,0,0.05,66.85,0)" xlink:href="#ap"/><use transform="matrix(0.05,0,0,0.05,76.85,0)" xlink:href="#aB"/><use transform="matrix(0.05,0,0,0.05,86.85,0)" xlink:href="#al"/><use transform="matrix(0.05,0,0,0.05,95.85,0)" xlink:href="#aC"/></g><g id="I"><use transform="matrix(0.05,0,0,0.05,0,0)" xlink:href="#aq"/><use transform="matrix(0.05,0,0,0.05,9,0)" xlink:href="#am"/><use transform="matrix(0.05,0,0,0.05,14,0)" xlink:href="#ap"/><use transform="matrix(0.05,0,0,0.05,24,0)" xlink:href="#am"/><use transform="matrix(0.05,0,0,0.05,29,0)" xlink:href="#aT"/><use transform="matrix(0.05,0,0,0.05,39,0)" xlink:href="#aq"/></g><g id="J"><use transform="matrix(0.05,0,0,0.05,0,0)" xlink:href="#ao"/><use transform="matrix(0.05,0,0,0.05,10,0)" xlink:href="#ap"/><use transform="matrix(0.05,0,0,0.05,20,0)" xlink:href="#ak"/></g><g id="K"><use transform="matrix(0.05,0,0,0.05,0,0)" xlink:href="#ak"/><use transform="matrix(0.05,0,0,0.05,10,0)" xlink:href="#as"/><use transform="matrix(0.05,0,0,0.05,15.949999999999998,0)" xlink:href="#aM"/><use transform="matrix(0.05,0,0,0.05,19.9,0)" xlink:href="#aF"/><use transform="matrix(0.05,0,0,0.05,23.849999999999998,0)" xlink:href="#aF"/><use transform="matrix(0.05,0,0,0.05,27.799999999999997,0)" xlink:href="#aM"/><use transform="matrix(0.05,0,0,0.05,31.749999999999996,0)" xlink:href="#aB"/><use transform="matrix(0.05,0,0,0.05,41.75,0)" xlink:href="#aN"/></g><g id="L"><use transform="matrix(0.05,0,0,0.05,0,0)" xlink:href="#aO"/><use transform="matrix(0.05,0,0,0.05,14.950000000000001,0)" xlink:href="#aC"/><use transform="matrix(0.05,0,0,0.05,24.950000000000003,0)" xlink:href="#am"/><use transform="matrix(0.05,0,0,0.05,29.950000000000003,0)" xlink:href="#ao"/><use transform="matrix(0.05,0,0,0.05,39.95,0)" xlink:href="#az"/><use transform="matrix(0.05,0,0,0.05,49.95,0)" xlink:href="#ak"/></g><path d="M108 0H70L1-190h34L89-25l56-165h34" id="bb"/><g id="M"><use transform="matrix(0.05,0,0,0.05,0,0)" xlink:href="#aD"/><use transform="matrix(0.05,0,0,0.05,10,0)" xlink:href="#as"/><use transform="matrix(0.05,0,0,0.05,15.949999999999998,0)" xlink:href="#az"/><use transform="matrix(0.05,0,0,0.05,25.950000000000003,0)" xlink:href="#bb"/><use transform="matrix(0.05,0,0,0.05,34.95,0)" xlink:href="#an"/></g><path d="M205 0l-28-72H64L36 0H1l101-248h38L239 0h-34zm-38-99l-47-123c-12 45-31 82-46 123h93" id="bc"/><g id="N"><use transform="matrix(0.05,0,0,0.05,0,0)" xlink:href="#bc"/><use transform="matrix(0.05,0,0,0.05,12,0)" xlink:href="#aN"/><use transform="matrix(0.05,0,0,0.05,22,0)" xlink:href="#aC"/><use transform="matrix(0.05,0,0,0.05,32,0)" xlink:href="#aB"/><use transform="matrix(0.05,0,0,0.05,42,0)" xlink:href="#am"/></g><g id="O"><use transform="matrix(0.05,0,0,0.05,0,0)" xlink:href="#ak"/><use transform="matrix(0.05,0,0,0.05,10,0)" xlink:href="#as"/><use transform="matrix(0.05,0,0,0.05,15.949999999999998,0)" xlink:href="#aM"/><use transform="matrix(0.05,0,0,0.05,19.9,0)" xlink:href="#aF"/><use transform="matrix(0.05,0,0,0.05,23.849999999999998,0)" xlink:href="#aF"/><use transform="matrix(0.05,0,0,0.05,27.799999999999997,0)" xlink:href="#aC"/><use transform="matrix(0.05,0,0,0.05,37.8,0)" xlink:href="#as"/></g><path d="M101-251c68 0 85 55 85 127S166 4 100 4C33 4 14-52 14-124c0-73 17-127 87-127zm-1 229c47 0 54-49 54-102s-4-102-53-102c-51 0-55 48-55 102 0 53 5 102 54 102" id="bd"/><g id="P"><use transform="matrix(0.05,0,0,0.05,0,0)" xlink:href="#at"/><use transform="matrix(0.05,0,0,0.05,5,0)" xlink:href="#bd"/><use transform="matrix(0.05,0,0,0.05,15,0)" xlink:href="#av"/><use transform="matrix(0.05,0,0,0.05,20,0)" xlink:href="#av"/><use transform="matrix(0.05,0,0,0.05,25,0)" xlink:href="#aw"/><use transform="matrix(0.05,0,0,0.05,37.95,0)" xlink:href="#ax"/></g><g id="Q"><use transform="matrix(0.05,0,0,0.05,0,0)" xlink:href="#az"/><use transform="matrix(0.05,0,0,0.05,10,0)" xlink:href="#aD"/><use transform="matrix(0.05,0,0,0.05,20,0)" xlink:href="#aC"/><use transform="matrix(0.05,0,0,0.05,30,0)" xlink:href="#as"/><use transform="matrix(0.05,0,0,0.05,35.95,0)" xlink:href="#ap"/><use transform="matrix(0.05,0,0,0.05,45.95,0)" xlink:href="#am"/><use transform="matrix(0.05,0,0,0.05,50.95,0)" xlink:href="#az"/><use transform="matrix(0.05,0,0,0.05,60.95,0)" xlink:href="#as"/></g><g id="R"><use transform="matrix(0.05,0,0,0.05,0,0)" xlink:href="#az"/><use transform="matrix(0.05,0,0,0.05,10,0)" xlink:href="#as"/><use transform="matrix(0.05,0,0,0.05,15.949999999999998,0)" xlink:href="#aM"/><use transform="matrix(0.05,0,0,0.05,19.9,0)" xlink:href="#aN"/><use transform="matrix(0.05,0,0,0.05,29.899999999999995,0)" xlink:href="#aM"/><use transform="matrix(0.05,0,0,0.05,33.85,0)" xlink:href="#aB"/></g><g id="S"><use transform="matrix(0.05,0,0,0.05,0,0)" xlink:href="#aD"/><use transform="matrix(0.05,0,0,0.05,10,0)" xlink:href="#az"/><use transform="matrix(0.05,0,0,0.05,20,0)" xlink:href="#aq"/><use transform="matrix(0.05,0,0,0.05,29,0)" xlink:href="#aM"/><use transform="matrix(0.05,0,0,0.05,32.95,0)" xlink:href="#am"/><use transform="matrix(0.05,0,0,0.05,37.95,0)" xlink:href="#aM"/><use transform="matrix(0.05,0,0,0.05,41.900000000000006,0)" xlink:href="#az"/><use transform="matrix(0.05,0,0,0.05,51.900000000000006,0)" xlink:href="#aB"/></g><g id="T"><use transform="matrix(0.05,0,0,0.05,0,0)" xlink:href="#at"/><use transform="matrix(0.05,0,0,0.05,5,0)" xlink:href="#au"/><use transform="matrix(0.05,0,0,0.05,15,0)" xlink:href="#ax"/></g><g id="U"><use transform="matrix(0.05,0,0,0.05,0,0)" xlink:href="#aN"/><use transform="matrix(0.05,0,0,0.05,10,0)" xlink:href="#aC"/><use transform="matrix(0.05,0,0,0.05,20,0)" xlink:href="#az"/><use transform="matrix(0.05,0,0,0.05,30,0)" xlink:href="#an"/></g><path d="M143 4C61 4 22-44 18-125c-5-107 100-154 193-111 17 8 29 25 37 43l-32 9c-13-25-37-40-76-40-61 0-88 39-88 99 0 61 29 100 91 101 35 0 62-11 79-27v-45h-74v-28h105v86C228-13 192 4 143 4" id="be"/><g id="V"><use transform="matrix(0.05,0,0,0.05,0,0)" xlink:href="#be"/><use transform="matrix(0.05,0,0,0.05,14,0)" xlink:href="#aC"/><use transform="matrix(0.05,0,0,0.05,24,0)" xlink:href="#az"/><use transform="matrix(0.05,0,0,0.05,34,0)" xlink:href="#aO"/><use transform="matrix(0.05,0,0,0.05,48.95,0)" xlink:href="#aC"/><use transform="matrix(0.05,0,0,0.05,58.95,0)" xlink:href="#am"/><use transform="matrix(0.05,0,0,0.05,63.95,0)" xlink:href="#as"/><use transform="matrix(0.05,0,0,0.05,69.9,0)" xlink:href="#aR"/></g><path d="M17-49c1-102 45-165 103-212h30C92-210 49-145 49-46 49 4 63 43 85 75H54C30 43 18 2 17-49" id="bf"/><path d="M123-251c66 0 92 69 53 113C138-94 73-75 39-27h128l-5 27H-2c17-92 123-93 159-163 14-28-1-64-36-62-29 2-46 17-54 41l-30-6c13-36 37-61 86-61" id="bg"/><path d="M248-139C247-14 144 9 11 0l48-248c105-6 190 8 189 109zm-34 0c1-70-52-87-126-82L50-27c98 7 163-21 164-112" id="bh"/><path d="M-20 4l123-265h28L8 4h-28" id="bi"/><path d="M148-71c0-36-31-44-71-41l5-28c46 3 81-6 81-50 0-23-15-35-39-35-30 0-49 17-56 41l-32-3c12-39 42-63 90-64 43 0 69 19 71 60 1 43-30 58-65 66 27 5 49 22 49 53 0 85-133 99-164 35-4-7-7-15-9-22l29-9c8 25 25 45 58 45 34 1 53-17 53-48" id="bj"/><g id="W"><use transform="matrix(0.05,0,0,0.05,0,0)" xlink:href="#bf"/><use transform="matrix(0.05,0,0,0.05,5.95,0)" xlink:href="#bg"/><use transform="matrix(0.05,0,0,0.05,15.949999999999998,0)" xlink:href="#bh"/><use transform="matrix(0.05,0,0,0.05,28.899999999999995,0)" xlink:href="#bi"/><use transform="matrix(0.05,0,0,0.05,33.9,0)" xlink:href="#bj"/><use transform="matrix(0.05,0,0,0.05,43.9,0)" xlink:href="#bh"/></g><path d="M238-179c0 84-86 86-175 82L45 0H11l48-248c82 0 179-12 179 69zm-34 1c0-53-64-42-116-43l-19 98c63 0 135 9 135-55" id="bk"/><path d="M30-147c31-64 166-65 159 27C183-49 158 1 86 4 9 8 1-88 30-147zM88-20c53 0 68-48 68-100 0-31-11-51-44-50-52 1-68 46-68 97 0 32 13 53 44 53" id="bl"/><path d="M50-231l6-30h32l-6 30H50zM6 0l37-190h31L37 0H6" id="bm"/><path d="M67-158c22-48 132-52 116 29L158 0h-32l25-140c3-38-53-32-70-12C52-117 51-52 38 0H6l36-190h30" id="bn"/><path d="M51-54c-9 22 5 41 31 30L79-1C43 14 10-4 19-52l22-115H19l5-23h22l19-43h21l-9 43h35l-4 23H73" id="bo"/><path d="M98-137C97-35 54 29-4 75h-31C23 23 67-41 67-140c0-50-15-89-37-121h31c24 32 36 73 37 124" id="bp"/><g id="X"><use transform="matrix(0.05,0,0,0.05,0,0)" xlink:href="#bk"/><use transform="matrix(0.05,0,0,0.05,12,0)" xlink:href="#bl"/><use transform="matrix(0.05,0,0,0.05,22,0)" xlink:href="#bm"/><use transform="matrix(0.05,0,0,0.05,25.950000000000003,0)" xlink:href="#bn"/><use transform="matrix(0.05,0,0,0.05,35.95,0)" xlink:href="#bo"/><use transform="matrix(0.05,0,0,0.05,40.95,0)" xlink:href="#bp"/></g></defs></g></svg>