<svg xmlns="http://www.w3.org/2000/svg" xmlns:xlink="http://www.w3.org/1999/xlink" xmlns:lucid="lucid" width="1155.65" height="839.58"><g transform="translate(0 0)" lucid:page-tab-id="dgJIOV1YgyRZ"><path d="M0 0h1155.65v839.58H0z" fill="#fff"/><path d="M596.32 261.3c0-2.77 2.24-5 5-5h150c2.77 0 5 2.23 5 5v110c0 2.76-2.23 5-5 5h-150c-2.76 0-5-2.24-5-5z" stroke="#000" stroke-width="2" fill="#666"/><use xlink:href="#a" transform="matrix(1,0,0,1,604.3245093564583,264.2947457301747) translate(50 44.8)"/><use xlink:href="#b" transform="matrix(1,0,0,1,604.3245093564583,264.2947457301747) translate(6.599999999999994 66.4)"/><path d="M956.32 261.3c0-2.77 2.24-5 5-5h150c2.77 0 5 2.23 5 5v110c0 2.76-2.23 5-5 5h-150c-2.76 0-5-2.24-5-5z" stroke="#000" stroke-width="2" fill="#fff"/><use xlink:href="#c" transform="matrix(1,0,0,1,964.3245093564583,264.2947457301747) translate(54.5 44.8)"/><use xlink:href="#d" transform="matrix(1,0,0,1,964.3245093564583,264.2947457301747) translate(32.55 66.4)"/><path d="M484.85 317.3h-22.7v-2h22.7zm109.47 0H570.8v-2h23.52z"/><path d="M595.32 317.3h-1.02v-2h1.02zM480 306.97l-15.75 9.32 15.76 9.3-1 1.74-18.67-11.05L479 305.24z"/><use xlink:href="#e" transform="matrix(1,0,0,1,484.84950935645827,294.6947457301747) translate(0.005000000000002558 14.4)"/><use xlink:href="#f" transform="matrix(1,0,0,1,484.84950935645827,294.6947457301747) translate(34.005 14.4)"/><use xlink:href="#g" transform="matrix(1,0,0,1,484.84950935645827,294.6947457301747) translate(22.980000000000004 36)"/><path d="M677.32 254.3h-2v-45.2h2zm0-66.8h-2v-25.36h2z"/><path d="M677.32 255.3h-2v-1.03h2zM687.37 179l-1.73 1-9.32-15.75L667 180l-1.72-1 11.04-18.68z"/><use xlink:href="#h" transform="matrix(1,0,0,1,616.8745093564582,187.4947457301746) translate(0 14.4)"/><use xlink:href="#i" transform="matrix(1,0,0,1,616.8745093564582,187.4947457301746) translate(98.9 14.4)"/><path d="M802.37 317.3h-44.05v-2h44.05zm151.14 0h-43.23v-2h43.24z"/><path d="M758.35 317.3h-1.03v-2h1.03zM955.32 316.3l-18.67 11.04-1-1.73 15.75-9.3-15.76-9.33 1-1.72z"/><use xlink:href="#c" transform="matrix(1,0,0,1,802.3745093564582,283.89474573017475) translate(36.455000000000005 14.4)"/><use xlink:href="#j" transform="matrix(1,0,0,1,802.3745093564582,283.89474573017475) translate(0.005000000000002558 36)"/><use xlink:href="#k" transform="matrix(1,0,0,1,802.3745093564582,283.89474573017475) translate(43.955000000000005 57.6)"/><path d="M596.32 44.32c0-2.76 2.24-5 5-5h150c2.77 0 5 2.24 5 5v110c0 2.77-2.23 5-5 5h-150c-2.76 0-5-2.23-5-5z" stroke="#000" stroke-width="2" fill="#666"/><use xlink:href="#l" transform="matrix(1,0,0,1,604.3245093564583,47.324509356458236) translate(33.55 55.6)"/><path d="M596.32 486.63c0-2.76 2.24-5 5-5h150c2.77 0 5 2.24 5 5v110c0 2.76-2.23 5-5 5h-150c-2.76 0-5-2.24-5-5z" stroke="#000" stroke-width="2" fill="#666"/><use xlink:href="#m" transform="matrix(1,0,0,1,604.3245093564583,489.62807906350804) translate(52 44.8)"/><use xlink:href="#n" transform="matrix(1,0,0,1,604.3245093564583,489.62807906350804) translate(38.525 66.4)"/><path d="M556.32 536.47l.82 2.5 2 1.45 1.26.2h33.1v2h-33.26l-1.9-.3-2.9-2.12-1.12-3.4v-66.04h2zm86.17-124.02l-1.12 3.42-2.9 2.12-1.9.3h-76.1l-2.5.8-1.45 2-.2 1.27v26.8h-2V422.2l.3-1.88 2.12-2.9 3.42-1.13h76.24l1.28-.2 2-1.47.8-2.5V378.3h2z"/><path d="M642.5 378.32h-2v-1.03h2zM595.32 541.63l-18.67 11.04-1-1.72 15.75-9.32-15.76-9.32 1-1.7z"/><use xlink:href="#e" transform="matrix(1,0,0,1,508.34950935645827,449.1614123968414) translate(0.005000000000002558 14.4)"/><use xlink:href="#o" transform="matrix(1,0,0,1,508.34950935645827,449.1614123968414) translate(34.005 14.4)"/><use xlink:href="#i" transform="matrix(1,0,0,1,508.34950935645827,449.1614123968414) translate(73.95500000000001 14.4)"/><path d="M677.32 478.8h-2v-26.16h2zm0-47.76h-2V378.3h2z"/><path d="M677.32 378.32h-2v-1.03h2zM687.37 461.96l-11.05 18.67-11.04-18.67 1.72-1.02 9.32 15.76 9.32-15.76z"/><use xlink:href="#e" transform="matrix(1,0,0,1,631.8245093564583,431.03572933673206) translate(0.005000000000002558 14.4)"/><use xlink:href="#p" transform="matrix(1,0,0,1,631.8245093564583,431.03572933673206) translate(34.005 14.4)"/><use xlink:href="#i" transform="matrix(1,0,0,1,631.8245093564583,431.03572933673206) translate(69.005 14.4)"/><path d="M817.32 536.8l-1.1 3.4-2.92 2.12-1.9.3h-52.26v-2h52.1l1.27-.2 2-1.46.82-2.5V472.1h2zm-96.64-130.33l.8 2.5 2.02 1.45 1.26.2h86.72l3.4 1.12 2.14 2.9.3 1.9v33.95h-2v-33.8l-.2-1.26-1.46-2-2.5-.8H724.6l-1.9-.32-2.9-2.12-1.12-3.4v-28.5h2z"/><path d="M720.68 378.32h-2v-1.03h2zM777 532.3l-15.75 9.33 15.76 9.32-1 1.72-18.68-11.04L776 530.6z"/><use xlink:href="#e" transform="matrix(1,0,0,1,741.8995093564583,450.49474573017466) translate(0 14.4)"/><use xlink:href="#q" transform="matrix(1,0,0,1,741.8995093564583,450.49474573017466) translate(34 14.4)"/><use xlink:href="#r" transform="matrix(1,0,0,1,741.8995093564583,450.49474573017466) translate(108.85 14.4)"/><path d="M563.1 216.3h-2.62l-2.5.8-1.45 2-.2 1.27v62.8l.8 2.48 2 1.46 1.27.22h33.1v2h-33.26l-1.9-.3-2.9-2.13-1.12-3.43V220.2l.3-1.88 2.13-2.9 3.42-1.13h2.94zm61.2-1.7l2.9 2.12 1.13 3.42v34.15h-2v-33.85l-.82-2.5-2-1.45-1.25-.2H597.1v-2h25.3z"/><path d="M628.33 255.3h-2v-1.03h2zM595.32 288.32l-18.67 11.04-1-1.72 15.75-9.32-15.76-9.32 1-1.73z"/><use xlink:href="#s" transform="matrix(1,0,0,1,563.1057593564583,204.4947457301747) translate(0 14.4)"/><path d="M758.74 316.4l-1.32-1.52 84.92-73.62h3.05zM954.6 146.57l-84.3 73.1h-3.05l86.05-74.6z"/><path d="M758.75 316.38l-1.43 1.24v-2.65l.12-.1zM948.45 165.2l-1.9-.63 5.8-17.37-18 3.28-.37-1.96 21.34-3.9z"/><use xlink:href="#t" transform="matrix(1,0,0,1,780.9995093564582,219.66141239684134) translate(0.0049999999999954525 14.4)"/><use xlink:href="#u" transform="matrix(1,0,0,1,780.9995093564582,219.66141239684134) translate(35.004999999999995 14.4)"/><use xlink:href="#v" transform="matrix(1,0,0,1,780.9995093564582,219.66141239684134) translate(91.755 14.4)"/><use xlink:href="#i" transform="matrix(1,0,0,1,780.9995093564582,219.66141239684134) translate(130.655 14.4)"/><path d="M956.32 89.63c0-2.76 2.24-5 5-5h150c2.77 0 5 2.24 5 5v110c0 2.76-2.23 5-5 5h-150c-2.76 0-5-2.24-5-5z" stroke="#000" stroke-width="2" fill="#fff"/><use xlink:href="#w" transform="matrix(1,0,0,1,964.3245093564583,92.62807906350795) translate(52.55 44.8)"/><use xlink:href="#x" transform="matrix(1,0,0,1,964.3245093564583,92.62807906350795) translate(42.55 66.4)"/><path d="M785.72 124.63h145.3v34.7h-145.3z" stroke="#000" stroke-opacity="0" stroke-width="2" fill="#fff" fill-opacity="0"/><use xlink:href="#y" transform="matrix(1,0,0,1,785.7173699423587,124.62807906350793) translate(18.95499999999999 19.41)"/><path d="M859.05 177.84l-.73 41.82h-2l.73-41.85z"/><path d="M862.7 176.9l-9.27-.16 4.88-14.18z" fill="#fff"/><path d="M864.06 177.93l-12.02-.2 6.33-18.4zm-9.24-2.16l6.52.1-3.08-10.07z"/><path/><path d="M299.32 261.3c0-2.77 2.24-5 5-5h150c2.77 0 5 2.23 5 5v110c0 2.76-2.23 5-5 5h-150c-2.76 0-5-2.24-5-5z" stroke="#000" stroke-width="2" fill="#666"/><use xlink:href="#z" transform="matrix(1,0,0,1,307.32450935645824,264.2947457301747) translate(41.55 55.6)"/><path d="M59.32 84.32c0-2.76 2.24-5 5-5h150c2.77 0 5 2.24 5 5v110c0 2.77-2.23 5-5 5h-150c-2.76 0-5-2.23-5-5z" stroke="#000" stroke-width="2" fill="#fff"/><g><use xlink:href="#A" transform="matrix(1,0,0,1,67.32450935645824,87.32450935645824) translate(56.05 44.8)"/><use xlink:href="#B" transform="matrix(1,0,0,1,67.32450935645824,87.32450935645824) translate(49.55 66.4)"/></g><path d="M59.32 224.32c0-2.76 2.24-5 5-5h150c2.77 0 5 2.24 5 5v110c0 2.77-2.23 5-5 5h-150c-2.76 0-5-2.23-5-5z" stroke="#000" stroke-width="2" fill="#666"/><g><use xlink:href="#C" transform="matrix(1,0,0,1,67.32450935645824,227.32450935645824) translate(27.049999999999997 55.6)"/><use xlink:href="#D" transform="matrix(1,0,0,1,67.32450935645824,227.32450935645824) translate(72.05 55.6)"/></g><path d="M39.32 44.32c0-2.76 2.24-5 5-5h190c2.77 0 5 2.24 5 5v27c0 2.77-2.23 5-5 5h-190c-2.76 0-5-2.23-5-5z" stroke="#000" stroke-opacity="0" stroke-width="2" fill="#fff" fill-opacity="0"/><g><use xlink:href="#E" transform="matrix(1,0,0,1,39.324509356458236,39.324509356458236) translate(7.01 21.3375)"/><use xlink:href="#F" transform="matrix(1,0,0,1,39.324509356458236,39.324509356458236) translate(79.81000000000002 21.3375)"/><use xlink:href="#G" transform="matrix(1,0,0,1,39.324509356458236,39.324509356458236) translate(150.71000000000004 21.3375)"/></g><path d="M75.4 421.2H40.32v-2H75.4zm168.42 0h-17.57v-2h17.57z"/><path d="M40.35 421.2h-1.03v-2h1.03z"/><path d="M259.1 420.2l-14.28 4.63v-9.27z" fill="#fff"/><path d="M262.32 420.2l-18.5 6v-12zm-16.5 3.26l10.03-3.26-10.03-3.26z"/><g><use xlink:href="#H" transform="matrix(1,0,0,1,150.82450935645824,409.7995093564562) translate(0 13.866666666666669)"/></g><g><use xlink:href="#I" transform="matrix(1,0,0,1,75.39950935645822,398.59950935645617) translate(0 14.4)"/><use xlink:href="#J" transform="matrix(1,0,0,1,75.39950935645822,398.59950935645617) translate(132.85000000000002 14.4)"/><use xlink:href="#K" transform="matrix(1,0,0,1,75.39950935645822,398.59950935645617) translate(0 36)"/></g><path d="M104.9 366.67H40.32v-2h64.58zm155.6 0h-63.75v-2h63.76z"/><path d="M40.35 366.67h-1.03v-2h1.03zM262.32 365.67l-18.67 11.05-1-1.73 15.75-9.33-15.76-9.32 1-1.72z"/><g><use xlink:href="#H" transform="matrix(1,0,0,1,150.82450935645824,355.27450935645635) translate(0 13.866666666666669)"/></g><g><use xlink:href="#L" transform="matrix(1,0,0,1,104.89950935645822,354.8745093564563) translate(0 14.4)"/></g><defs><path fill="#fff" d="M177-190C167-65 218 103 67 71c-23-6-38-20-44-43l32-5c15 47 100 32 89-28v-30C133-14 115 1 83 1 29 1 15-40 15-95c0-56 16-97 71-98 29-1 48 16 59 35 1-10 0-23 2-32h30zM94-22c36 0 50-32 50-73 0-42-14-75-50-75-39 0-46 34-46 75s6 73 46 73" id="M"/><path fill="#fff" d="M135-143c-3-34-86-38-87 0 15 53 115 12 119 90S17 21 10-45l28-5c4 36 97 45 98 0-10-56-113-15-118-90-4-57 82-63 122-42 12 7 21 19 24 35" id="N"/><path fill="#fff" d="M145-31C134-9 116 4 85 4 32 4 16-35 15-94c0-59 17-99 70-100 32-1 48 14 60 33 0-11-1-24 2-32h30l-1 268h-32zM93-21c41 0 51-33 51-76s-8-73-50-73c-40 0-46 35-46 75s5 74 45 74" id="O"/><path fill="#fff" d="M115-194c53 0 69 39 70 98 0 66-23 100-70 100C84 3 66-7 56-30L54 0H23l1-261h32v101c10-23 28-34 59-34zm-8 174c40 0 45-34 45-75 0-40-5-75-45-74-42 0-51 32-51 76 0 43 10 73 51 73" id="P"/><path fill="#fff" d="M33-154v-36h34v36H33zM33 0v-36h34V0H33" id="Q"/><g id="a"><use transform="matrix(0.05,0,0,0.05,0,0)" xlink:href="#M"/><use transform="matrix(0.05,0,0,0.05,10,0)" xlink:href="#N"/><use transform="matrix(0.05,0,0,0.05,19,0)" xlink:href="#O"/><use transform="matrix(0.05,0,0,0.05,29,0)" xlink:href="#P"/><use transform="matrix(0.05,0,0,0.05,39,0)" xlink:href="#Q"/></g><path fill="#fff" d="M160-131c35 5 61 23 61 61C221 17 115-2 30 0v-248c76 3 177-17 177 60 0 33-19 50-47 57zm-97-11c50-1 110 9 110-42 0-47-63-36-110-37v79zm0 115c55-2 124 14 124-45 0-56-70-42-124-44v89" id="R"/><path fill="#fff" d="M100-194c62-1 85 37 85 99 1 63-27 99-86 99S16-35 15-95c0-66 28-99 85-99zM99-20c44 1 53-31 53-75 0-43-8-75-51-75s-53 32-53 75 10 74 51 75" id="S"/><path fill="#fff" d="M114-163C36-179 61-72 57 0H25l-1-190h30c1 12-1 29 2 39 6-27 23-49 58-41v29" id="T"/><path fill="#fff" d="M100-194c63 0 86 42 84 106H49c0 40 14 67 53 68 26 1 43-12 49-29l28 8c-11 28-37 45-77 45C44 4 14-33 15-96c1-61 26-98 85-98zm52 81c6-60-76-77-97-28-3 7-6 17-6 28h103" id="U"/><path fill="#fff" d="M106-169C34-169 62-67 57 0H25v-261h32l-1 103c12-21 28-36 61-36 89 0 53 116 60 194h-32v-121c2-32-8-49-39-48" id="V"/><path fill="#fff" d="M24 0v-261h32V0H24" id="W"/><path fill="#fff" d="M33 0v-248h34V0H33" id="X"/><path fill="#fff" d="M117-194c89-4 53 116 60 194h-32v-121c0-31-8-49-39-48C34-167 62-67 57 0H25l-1-190h30c1 10-1 24 2 32 11-22 29-35 61-36" id="Y"/><path fill="#fff" d="M59-47c-2 24 18 29 38 22v24C64 9 27 4 27-40v-127H5v-23h24l9-43h21v43h35v23H59v120" id="Z"/><path fill="#fff" d="M108 0H70L1-190h34L89-25l56-165h34" id="aa"/><path fill="#fff" d="M141-36C126-15 110 5 73 4 37 3 15-17 15-53c-1-64 63-63 125-63 3-35-9-54-41-54-24 1-41 7-42 31l-33-3c5-37 33-52 76-52 45 0 72 20 72 64v82c-1 20 7 32 28 27v20c-31 9-61-2-59-35zM48-53c0 20 12 33 32 33 41-3 63-29 60-74-43 2-92-5-92 41" id="ab"/><g id="b"><use transform="matrix(0.05,0,0,0.05,0,0)" xlink:href="#R"/><use transform="matrix(0.05,0,0,0.05,12,0)" xlink:href="#S"/><use transform="matrix(0.05,0,0,0.05,22,0)" xlink:href="#T"/><use transform="matrix(0.05,0,0,0.05,27.950000000000003,0)" xlink:href="#U"/><use transform="matrix(0.05,0,0,0.05,37.95,0)" xlink:href="#V"/><use transform="matrix(0.05,0,0,0.05,47.95,0)" xlink:href="#S"/><use transform="matrix(0.05,0,0,0.05,57.95,0)" xlink:href="#W"/><use transform="matrix(0.05,0,0,0.05,61.900000000000006,0)" xlink:href="#U"/><use transform="matrix(0.05,0,0,0.05,71.9,0)" xlink:href="#X"/><use transform="matrix(0.05,0,0,0.05,76.9,0)" xlink:href="#Y"/><use transform="matrix(0.05,0,0,0.05,86.9,0)" xlink:href="#Z"/><use transform="matrix(0.05,0,0,0.05,91.9,0)" xlink:href="#U"/><use transform="matrix(0.05,0,0,0.05,101.9,0)" xlink:href="#T"/><use transform="matrix(0.05,0,0,0.05,107.85000000000001,0)" xlink:href="#aa"/><use transform="matrix(0.05,0,0,0.05,116.85000000000001,0)" xlink:href="#ab"/><use transform="matrix(0.05,0,0,0.05,126.85000000000001,0)" xlink:href="#W"/></g><path d="M177-190C167-65 218 103 67 71c-23-6-38-20-44-43l32-5c15 47 100 32 89-28v-30C133-14 115 1 83 1 29 1 15-40 15-95c0-56 16-97 71-98 29-1 48 16 59 35 1-10 0-23 2-32h30zM94-22c36 0 50-32 50-73 0-42-14-75-50-75-39 0-46 34-46 75s6 73 46 73" id="ac"/><path d="M100-194c63 0 86 42 84 106H49c0 40 14 67 53 68 26 1 43-12 49-29l28 8c-11 28-37 45-77 45C44 4 14-33 15-96c1-61 26-98 85-98zm52 81c6-60-76-77-97-28-3 7-6 17-6 28h103" id="ad"/><path d="M100-194c62-1 85 37 85 99 1 63-27 99-86 99S16-35 15-95c0-66 28-99 85-99zM99-20c44 1 53-31 53-75 0-43-8-75-51-75s-53 32-53 75 10 74 51 75" id="ae"/><path d="M33-154v-36h34v36H33zM33 0v-36h34V0H33" id="af"/><g id="c"><use transform="matrix(0.05,0,0,0.05,0,0)" xlink:href="#ac"/><use transform="matrix(0.05,0,0,0.05,10,0)" xlink:href="#ad"/><use transform="matrix(0.05,0,0,0.05,20,0)" xlink:href="#ae"/><use transform="matrix(0.05,0,0,0.05,30,0)" xlink:href="#af"/></g><path d="M143 4C61 4 22-44 18-125c-5-107 100-154 193-111 17 8 29 25 37 43l-32 9c-13-25-37-40-76-40-61 0-88 39-88 99 0 61 29 100 91 101 35 0 62-11 79-27v-45h-74v-28h105v86C228-13 192 4 143 4" id="ag"/><path d="M210-169c-67 3-38 105-44 169h-31v-121c0-29-5-50-35-48C34-165 62-65 56 0H25l-1-190h30c1 10-1 24 2 32 10-44 99-50 107 0 11-21 27-35 58-36 85-2 47 119 55 194h-31v-121c0-29-5-49-35-48" id="ah"/><path d="M59-47c-2 24 18 29 38 22v24C64 9 27 4 27-40v-127H5v-23h24l9-43h21v43h35v23H59v120" id="ai"/><path d="M114-163C36-179 61-72 57 0H25l-1-190h30c1 12-1 29 2 39 6-27 23-49 58-41v29" id="aj"/><path d="M179-190L93 31C79 59 56 82 12 73V49c39 6 53-20 64-50L1-190h34L92-34l54-156h33" id="ak"/><g id="d"><use transform="matrix(0.05,0,0,0.05,0,0)" xlink:href="#ag"/><use transform="matrix(0.05,0,0,0.05,14,0)" xlink:href="#ad"/><use transform="matrix(0.05,0,0,0.05,24,0)" xlink:href="#ae"/><use transform="matrix(0.05,0,0,0.05,34,0)" xlink:href="#ah"/><use transform="matrix(0.05,0,0,0.05,48.95,0)" xlink:href="#ad"/><use transform="matrix(0.05,0,0,0.05,58.95,0)" xlink:href="#ai"/><use transform="matrix(0.05,0,0,0.05,63.95,0)" xlink:href="#aj"/><use transform="matrix(0.05,0,0,0.05,69.9,0)" xlink:href="#ak"/></g><path d="M106-169C34-169 62-67 57 0H25v-261h32l-1 103c12-21 28-36 61-36 89 0 53 116 60 194h-32v-121c2-32-8-49-39-48" id="al"/><path d="M141-36C126-15 110 5 73 4 37 3 15-17 15-53c-1-64 63-63 125-63 3-35-9-54-41-54-24 1-41 7-42 31l-33-3c5-37 33-52 76-52 45 0 72 20 72 64v82c-1 20 7 32 28 27v20c-31 9-61-2-59-35zM48-53c0 20 12 33 32 33 41-3 63-29 60-74-43 2-92-5-92 41" id="am"/><path d="M135-143c-3-34-86-38-87 0 15 53 115 12 119 90S17 21 10-45l28-5c4 36 97 45 98 0-10-56-113-15-118-90-4-57 82-63 122-42 12 7 21 19 24 35" id="an"/><g id="e"><use transform="matrix(0.05,0,0,0.05,0,0)" xlink:href="#al"/><use transform="matrix(0.05,0,0,0.05,10,0)" xlink:href="#am"/><use transform="matrix(0.05,0,0,0.05,20,0)" xlink:href="#an"/></g><path d="M96-169c-40 0-48 33-48 73s9 75 48 75c24 0 41-14 43-38l32 2c-6 37-31 61-74 61-59 0-76-41-82-99-10-93 101-131 147-64 4 7 5 14 7 22l-32 3c-4-21-16-35-41-35" id="ao"/><path d="M24-231v-30h32v30H24zM24 0v-190h32V0H24" id="ap"/><path d="M117-194c89-4 53 116 60 194h-32v-121c0-31-8-49-39-48C34-167 62-67 57 0H25l-1-190h30c1 10-1 24 2 32 11-22 29-35 61-36" id="aq"/><g id="f"><use transform="matrix(0.05,0,0,0.05,0,0)" xlink:href="#ao"/><use transform="matrix(0.05,0,0,0.05,9,0)" xlink:href="#am"/><use transform="matrix(0.05,0,0,0.05,19,0)" xlink:href="#an"/><use transform="matrix(0.05,0,0,0.05,28,0)" xlink:href="#ap"/><use transform="matrix(0.05,0,0,0.05,31.950000000000003,0)" xlink:href="#aq"/><use transform="matrix(0.05,0,0,0.05,41.95,0)" xlink:href="#ac"/></g><path d="M26 75v-336h71v23H56V52h41v23H26" id="ar"/><path d="M101-251c68 0 85 55 85 127S166 4 100 4C33 4 14-52 14-124c0-73 17-127 87-127zm-1 229c47 0 54-49 54-102s-4-102-53-102c-51 0-55 48-55 102 0 53 5 102 54 102" id="as"/><path d="M33 0v-38h34V0H33" id="at"/><path d="M27 0v-27h64v-190l-56 39v-29l58-41h29v221h61V0H27" id="au"/><path d="M3 75V52h41v-290H3v-23h71V75H3" id="av"/><g id="g"><use transform="matrix(0.05,0,0,0.05,0,0)" xlink:href="#ar"/><use transform="matrix(0.05,0,0,0.05,5,0)" xlink:href="#as"/><use transform="matrix(0.05,0,0,0.05,15,0)" xlink:href="#at"/><use transform="matrix(0.05,0,0,0.05,20,0)" xlink:href="#at"/><use transform="matrix(0.05,0,0,0.05,25,0)" xlink:href="#au"/><use transform="matrix(0.05,0,0,0.05,35,0)" xlink:href="#av"/></g><path d="M85-194c31 0 48 13 60 33l-1-100h32l1 261h-30c-2-10 0-23-3-31C134-8 116 4 85 4 32 4 16-35 15-94c0-66 23-100 70-100zm9 24c-40 0-46 34-46 75 0 40 6 74 45 74 42 0 51-32 51-76 0-42-9-74-50-73" id="aw"/><path d="M30-248c87 1 191-15 191 75 0 78-77 80-158 76V0H30v-248zm33 125c57 0 124 11 124-50 0-59-68-47-124-48v98" id="ax"/><path d="M140-251c81 0 123 46 123 126C263-46 219 4 140 4 59 4 17-45 17-125s42-126 123-126zm0 227c63 0 89-41 89-101s-29-99-89-99c-61 0-89 39-89 99S79-25 140-24" id="ay"/><path d="M101-234c-31-9-42 10-38 44h38v23H63V0H32v-167H5v-23h27c-7-52 17-82 69-68v24" id="az"/><g id="h"><use transform="matrix(0.05,0,0,0.05,0,0)" xlink:href="#aw"/><use transform="matrix(0.05,0,0,0.05,10,0)" xlink:href="#ao"/><use transform="matrix(0.05,0,0,0.05,19,0)" xlink:href="#ai"/><use transform="matrix(0.05,0,0,0.05,24,0)" xlink:href="#af"/><use transform="matrix(0.05,0,0,0.05,29,0)" xlink:href="#ap"/><use transform="matrix(0.05,0,0,0.05,32.95,0)" xlink:href="#an"/><use transform="matrix(0.05,0,0,0.05,41.95,0)" xlink:href="#ax"/><use transform="matrix(0.05,0,0,0.05,53.95,0)" xlink:href="#am"/><use transform="matrix(0.05,0,0,0.05,63.95,0)" xlink:href="#aj"/><use transform="matrix(0.05,0,0,0.05,69.9,0)" xlink:href="#ai"/><use transform="matrix(0.05,0,0,0.05,74.9,0)" xlink:href="#ay"/><use transform="matrix(0.05,0,0,0.05,88.9,0)" xlink:href="#az"/></g><g id="i"><use transform="matrix(0.05,0,0,0.05,0,0)" xlink:href="#ar"/><use transform="matrix(0.05,0,0,0.05,5,0)" xlink:href="#au"/><use transform="matrix(0.05,0,0,0.05,15,0)" xlink:href="#av"/></g><g id="j"><use transform="matrix(0.05,0,0,0.05,0,0)" xlink:href="#al"/><use transform="matrix(0.05,0,0,0.05,10,0)" xlink:href="#am"/><use transform="matrix(0.05,0,0,0.05,20,0)" xlink:href="#an"/><use transform="matrix(0.05,0,0,0.05,29,0)" xlink:href="#ag"/><use transform="matrix(0.05,0,0,0.05,43,0)" xlink:href="#ad"/><use transform="matrix(0.05,0,0,0.05,53,0)" xlink:href="#ae"/><use transform="matrix(0.05,0,0,0.05,63,0)" xlink:href="#ah"/><use transform="matrix(0.05,0,0,0.05,77.95,0)" xlink:href="#ad"/><use transform="matrix(0.05,0,0,0.05,87.95,0)" xlink:href="#ai"/><use transform="matrix(0.05,0,0,0.05,92.95,0)" xlink:href="#aj"/><use transform="matrix(0.05,0,0,0.05,98.9,0)" xlink:href="#ak"/></g><g id="k"><use transform="matrix(0.05,0,0,0.05,0,0)" xlink:href="#ar"/><use transform="matrix(0.05,0,0,0.05,5,0)" xlink:href="#au"/><use transform="matrix(0.05,0,0,0.05,15,0)" xlink:href="#av"/></g><g id="l"><use transform="matrix(0.05,0,0,0.05,0,0)" xlink:href="#Q"/><use transform="matrix(0.05,0,0,0.05,5,0)" xlink:href="#R"/><use transform="matrix(0.05,0,0,0.05,17,0)" xlink:href="#S"/><use transform="matrix(0.05,0,0,0.05,27,0)" xlink:href="#T"/><use transform="matrix(0.05,0,0,0.05,32.95,0)" xlink:href="#U"/><use transform="matrix(0.05,0,0,0.05,42.95,0)" xlink:href="#V"/><use transform="matrix(0.05,0,0,0.05,52.95,0)" xlink:href="#S"/><use transform="matrix(0.05,0,0,0.05,62.95,0)" xlink:href="#W"/><use transform="matrix(0.05,0,0,0.05,66.9,0)" xlink:href="#U"/></g><path fill="#fff" d="M84 4C-5 8 30-112 23-190h32v120c0 31 7 50 39 49 72-2 45-101 50-169h31l1 190h-30c-1-10 1-25-2-33-11 22-28 36-60 37" id="aA"/><path fill="#fff" d="M85-194c31 0 48 13 60 33l-1-100h32l1 261h-30c-2-10 0-23-3-31C134-8 116 4 85 4 32 4 16-35 15-94c0-66 23-100 70-100zm9 24c-40 0-46 34-46 75 0 40 6 74 45 74 42 0 51-32 51-76 0-42-9-74-50-73" id="aB"/><g id="m"><use transform="matrix(0.05,0,0,0.05,0,0)" xlink:href="#O"/><use transform="matrix(0.05,0,0,0.05,10,0)" xlink:href="#aA"/><use transform="matrix(0.05,0,0,0.05,20,0)" xlink:href="#aB"/><use transform="matrix(0.05,0,0,0.05,30,0)" xlink:href="#Z"/><use transform="matrix(0.05,0,0,0.05,35,0)" xlink:href="#Q"/></g><path fill="#fff" d="M140-251c81 0 123 46 123 126C263-53 228-8 163 1c7 30 30 48 69 40v23c-55 16-95-15-103-61C56-3 17-48 17-125c0-80 42-126 123-126zm0 227c63 0 89-41 89-101s-29-99-89-99c-61 0-89 39-89 99S79-25 140-24" id="aC"/><path fill="#fff" d="M24-231v-30h32v30H24zM24 0v-190h32V0H24" id="aD"/><path fill="#fff" d="M179-190L93 31C79 59 56 82 12 73V49c39 6 53-20 64-50L1-190h34L92-34l54-156h33" id="aE"/><g id="n"><use transform="matrix(0.05,0,0,0.05,0,0)" xlink:href="#aC"/><use transform="matrix(0.05,0,0,0.05,14,0)" xlink:href="#aA"/><use transform="matrix(0.05,0,0,0.05,24,0)" xlink:href="#ab"/><use transform="matrix(0.05,0,0,0.05,34,0)" xlink:href="#Y"/><use transform="matrix(0.05,0,0,0.05,44,0)" xlink:href="#Z"/><use transform="matrix(0.05,0,0,0.05,49,0)" xlink:href="#aD"/><use transform="matrix(0.05,0,0,0.05,52.95,0)" xlink:href="#Z"/><use transform="matrix(0.05,0,0,0.05,57.95,0)" xlink:href="#aE"/></g><g id="o"><use transform="matrix(0.05,0,0,0.05,0,0)" xlink:href="#an"/><use transform="matrix(0.05,0,0,0.05,9,0)" xlink:href="#ai"/><use transform="matrix(0.05,0,0,0.05,14,0)" xlink:href="#am"/><use transform="matrix(0.05,0,0,0.05,24,0)" xlink:href="#aj"/><use transform="matrix(0.05,0,0,0.05,29.950000000000003,0)" xlink:href="#ai"/></g><g id="p"><use transform="matrix(0.05,0,0,0.05,0,0)" xlink:href="#ad"/><use transform="matrix(0.05,0,0,0.05,10,0)" xlink:href="#aq"/><use transform="matrix(0.05,0,0,0.05,20,0)" xlink:href="#aw"/></g><g id="q"><use transform="matrix(0.05,0,0,0.05,0,0)" xlink:href="#aw"/><use transform="matrix(0.05,0,0,0.05,10,0)" xlink:href="#ap"/><use transform="matrix(0.05,0,0,0.05,13.949999999999998,0)" xlink:href="#am"/><use transform="matrix(0.05,0,0,0.05,23.95,0)" xlink:href="#ah"/><use transform="matrix(0.05,0,0,0.05,38.9,0)" xlink:href="#ad"/><use transform="matrix(0.05,0,0,0.05,48.9,0)" xlink:href="#ai"/><use transform="matrix(0.05,0,0,0.05,53.900000000000006,0)" xlink:href="#ad"/><use transform="matrix(0.05,0,0,0.05,63.900000000000006,0)" xlink:href="#aj"/></g><g id="r"><use transform="matrix(0.05,0,0,0.05,0,0)" xlink:href="#ar"/><use transform="matrix(0.05,0,0,0.05,5,0)" xlink:href="#as"/><use transform="matrix(0.05,0,0,0.05,15,0)" xlink:href="#at"/><use transform="matrix(0.05,0,0,0.05,20,0)" xlink:href="#at"/><use transform="matrix(0.05,0,0,0.05,25,0)" xlink:href="#au"/><use transform="matrix(0.05,0,0,0.05,35,0)" xlink:href="#av"/></g><path d="M141 0L90-78 38 0H4l68-98-65-92h35l48 74 47-74h35l-64 92 68 98h-35" id="aF"/><g id="s"><use transform="matrix(0.05,0,0,0.05,0,0)" xlink:href="#aq"/><use transform="matrix(0.05,0,0,0.05,10,0)" xlink:href="#ad"/><use transform="matrix(0.05,0,0,0.05,20,0)" xlink:href="#aF"/><use transform="matrix(0.05,0,0,0.05,29,0)" xlink:href="#ai"/></g><g id="t"><use transform="matrix(0.05,0,0,0.05,0,0)" xlink:href="#al"/><use transform="matrix(0.05,0,0,0.05,10,0)" xlink:href="#am"/><use transform="matrix(0.05,0,0,0.05,20,0)" xlink:href="#aw"/></g><path d="M24 0v-261h32V0H24" id="aG"/><g id="u"><use transform="matrix(0.05,0,0,0.05,0,0)" xlink:href="#aw"/><use transform="matrix(0.05,0,0,0.05,10,0)" xlink:href="#aj"/><use transform="matrix(0.05,0,0,0.05,15.949999999999998,0)" xlink:href="#ap"/><use transform="matrix(0.05,0,0,0.05,19.9,0)" xlink:href="#aG"/><use transform="matrix(0.05,0,0,0.05,23.849999999999998,0)" xlink:href="#aG"/><use transform="matrix(0.05,0,0,0.05,27.799999999999997,0)" xlink:href="#ap"/><use transform="matrix(0.05,0,0,0.05,31.749999999999996,0)" xlink:href="#aq"/><use transform="matrix(0.05,0,0,0.05,41.75,0)" xlink:href="#ac"/></g><g id="v"><use transform="matrix(0.05,0,0,0.05,0,0)" xlink:href="#ai"/><use transform="matrix(0.05,0,0,0.05,5,0)" xlink:href="#ap"/><use transform="matrix(0.05,0,0,0.05,8.95,0)" xlink:href="#ah"/><use transform="matrix(0.05,0,0,0.05,23.9,0)" xlink:href="#ad"/></g><g id="w"><use transform="matrix(0.05,0,0,0.05,0,0)" xlink:href="#ai"/><use transform="matrix(0.05,0,0,0.05,5,0)" xlink:href="#ap"/><use transform="matrix(0.05,0,0,0.05,8.95,0)" xlink:href="#ah"/><use transform="matrix(0.05,0,0,0.05,23.9,0)" xlink:href="#ad"/><use transform="matrix(0.05,0,0,0.05,33.9,0)" xlink:href="#af"/></g><path d="M33 0v-248h34V0H33" id="aH"/><path d="M108 0H70L1-190h34L89-25l56-165h34" id="aI"/><g id="x"><use transform="matrix(0.05,0,0,0.05,0,0)" xlink:href="#aH"/><use transform="matrix(0.05,0,0,0.05,5,0)" xlink:href="#aq"/><use transform="matrix(0.05,0,0,0.05,15,0)" xlink:href="#ai"/><use transform="matrix(0.05,0,0,0.05,20,0)" xlink:href="#ad"/><use transform="matrix(0.05,0,0,0.05,30,0)" xlink:href="#aj"/><use transform="matrix(0.05,0,0,0.05,35.95,0)" xlink:href="#aI"/><use transform="matrix(0.05,0,0,0.05,44.95,0)" xlink:href="#am"/><use transform="matrix(0.05,0,0,0.05,54.95,0)" xlink:href="#aG"/></g><path d="M127-220V0H93v-220H8v-28h204v28h-85" id="aJ"/><g id="y"><use transform="matrix(0.05,0,0,0.05,0,0)" xlink:href="#ai"/><use transform="matrix(0.05,0,0,0.05,5,0)" xlink:href="#ap"/><use transform="matrix(0.05,0,0,0.05,8.95,0)" xlink:href="#ah"/><use transform="matrix(0.05,0,0,0.05,23.9,0)" xlink:href="#ad"/><use transform="matrix(0.05,0,0,0.05,33.9,0)" xlink:href="#af"/><use transform="matrix(0.05,0,0,0.05,38.9,0)" xlink:href="#al"/><use transform="matrix(0.05,0,0,0.05,48.9,0)" xlink:href="#am"/><use transform="matrix(0.05,0,0,0.05,58.900000000000006,0)" xlink:href="#an"/><use transform="matrix(0.05,0,0,0.05,67.9,0)" xlink:href="#aJ"/><use transform="matrix(0.05,0,0,0.05,78.2,0)" xlink:href="#ap"/><use transform="matrix(0.05,0,0,0.05,82.15,0)" xlink:href="#ah"/><use transform="matrix(0.05,0,0,0.05,97.10000000000001,0)" xlink:href="#ad"/></g><path fill="#fff" d="M212-179c-10-28-35-45-73-45-59 0-87 40-87 99 0 60 29 101 89 101 43 0 62-24 78-52l27 14C228-24 195 4 139 4 59 4 22-46 18-125c-6-104 99-153 187-111 19 9 31 26 39 46" id="aK"/><g id="z"><use transform="matrix(0.05,0,0,0.05,0,0)" xlink:href="#Q"/><use transform="matrix(0.05,0,0,0.05,5,0)" xlink:href="#aK"/><use transform="matrix(0.05,0,0,0.05,17.950000000000003,0)" xlink:href="#ab"/><use transform="matrix(0.05,0,0,0.05,27.950000000000003,0)" xlink:href="#N"/><use transform="matrix(0.05,0,0,0.05,36.95,0)" xlink:href="#aD"/><use transform="matrix(0.05,0,0,0.05,40.900000000000006,0)" xlink:href="#Y"/><use transform="matrix(0.05,0,0,0.05,50.900000000000006,0)" xlink:href="#M"/></g><path d="M206 0h-36l-40-164L89 0H53L-1-190h32L70-26l43-164h34l41 164 42-164h31" id="aL"/><g id="A"><use transform="matrix(0.05,0,0,0.05,0,0)" xlink:href="#ae"/><use transform="matrix(0.05,0,0,0.05,10,0)" xlink:href="#aL"/><use transform="matrix(0.05,0,0,0.05,22.950000000000003,0)" xlink:href="#aG"/><use transform="matrix(0.05,0,0,0.05,26.900000000000002,0)" xlink:href="#af"/></g><path d="M212-179c-10-28-35-45-73-45-59 0-87 40-87 99 0 60 29 101 89 101 43 0 62-24 78-52l27 14C228-24 195 4 139 4 59 4 22-46 18-125c-6-104 99-153 187-111 19 9 31 26 39 46" id="aM"/><g id="B"><use transform="matrix(0.05,0,0,0.05,0,0)" xlink:href="#aM"/><use transform="matrix(0.05,0,0,0.05,12.950000000000001,0)" xlink:href="#aG"/><use transform="matrix(0.05,0,0,0.05,16.900000000000002,0)" xlink:href="#am"/><use transform="matrix(0.05,0,0,0.05,26.900000000000002,0)" xlink:href="#an"/><use transform="matrix(0.05,0,0,0.05,35.900000000000006,0)" xlink:href="#an"/></g><path fill="#fff" d="M143 4C61 4 22-44 18-125c-5-107 100-154 193-111 17 8 29 25 37 43l-32 9c-13-25-37-40-76-40-61 0-88 39-88 99 0 61 29 100 91 101 35 0 62-11 79-27v-45h-74v-28h105v86C228-13 192 4 143 4" id="aN"/><path fill="#fff" d="M185-189c-5-48-123-54-124 2 14 75 158 14 163 119 3 78-121 87-175 55-17-10-28-26-33-46l33-7c5 56 141 63 141-1 0-78-155-14-162-118-5-82 145-84 179-34 5 7 8 16 11 25" id="aO"/><g id="C"><use transform="matrix(0.05,0,0,0.05,0,0)" xlink:href="#aN"/><use transform="matrix(0.05,0,0,0.05,14,0)" xlink:href="#aO"/><use transform="matrix(0.05,0,0,0.05,26,0)" xlink:href="#aC"/></g><g id="D"><use transform="matrix(0.05,0,0,0.05,0,0)" xlink:href="#aK"/><use transform="matrix(0.05,0,0,0.05,12.950000000000001,0)" xlink:href="#W"/><use transform="matrix(0.05,0,0,0.05,16.900000000000002,0)" xlink:href="#ab"/><use transform="matrix(0.05,0,0,0.05,26.900000000000002,0)" xlink:href="#N"/><use transform="matrix(0.05,0,0,0.05,35.900000000000006,0)" xlink:href="#N"/></g><path d="M30-248c118-7 216 8 213 122C240-48 200 0 122 0H30v-248zM63-27c89 8 146-16 146-99s-60-101-146-95v194" id="aP"/><g id="E"><use transform="matrix(0.05,0,0,0.05,0,0)" xlink:href="#aP"/><use transform="matrix(0.05,0,0,0.05,12.950000000000001,0)" xlink:href="#ap"/><use transform="matrix(0.05,0,0,0.05,16.900000000000002,0)" xlink:href="#am"/><use transform="matrix(0.05,0,0,0.05,26.900000000000002,0)" xlink:href="#ac"/><use transform="matrix(0.05,0,0,0.05,36.900000000000006,0)" xlink:href="#aj"/><use transform="matrix(0.05,0,0,0.05,42.85000000000001,0)" xlink:href="#am"/><use transform="matrix(0.05,0,0,0.05,52.85,0)" xlink:href="#ah"/><path d="M-.9 1.25h74.6v1.32H-.9z"/></g><path d="M30 0v-248h187v28H63v79h144v27H63v87h162V0H30" id="aQ"/><g id="F"><use transform="matrix(0.05,0,0,0.05,0,0)" xlink:href="#aQ"/><use transform="matrix(0.05,0,0,0.05,12,0)" xlink:href="#aG"/><use transform="matrix(0.05,0,0,0.05,15.949999999999998,0)" xlink:href="#ad"/><use transform="matrix(0.05,0,0,0.05,25.950000000000003,0)" xlink:href="#ah"/><use transform="matrix(0.05,0,0,0.05,40.9,0)" xlink:href="#ad"/><use transform="matrix(0.05,0,0,0.05,50.9,0)" xlink:href="#aq"/><use transform="matrix(0.05,0,0,0.05,60.900000000000006,0)" xlink:href="#ai"/><path d="M-.9 1.25h72.7v1.32H-.9z"/></g><path d="M194 0L95-120 63-95V0H30v-248h33v124l119-124h40L117-140 236 0h-42" id="aR"/><g id="G"><use transform="matrix(0.05,0,0,0.05,0,0)" xlink:href="#aR"/><use transform="matrix(0.05,0,0,0.05,12,0)" xlink:href="#ad"/><use transform="matrix(0.05,0,0,0.05,22,0)" xlink:href="#ak"/><path d="M-.9 1.25h32.8v1.32H-.9z"/></g><path d="M84 4C-5 8 30-112 23-190h32v120c0 31 7 50 39 49 72-2 45-101 50-169h31l1 190h-30c-1-10 1-25-2-33-11 22-28 36-60 37" id="aS"/><path d="M115-194c53 0 69 39 70 98 0 66-23 100-70 100C84 3 66-7 56-30L54 0H23l1-261h32v101c10-23 28-34 59-34zm-8 174c40 0 45-34 45-75 0-40-5-75-45-74-42 0-51 32-51 76 0 43 10 73 51 73" id="aT"/><g id="I"><use transform="matrix(0.05,0,0,0.05,0,0)" xlink:href="#aj"/><use transform="matrix(0.05,0,0,0.05,5.95,0)" xlink:href="#aw"/><use transform="matrix(0.05,0,0,0.05,15.949999999999998,0)" xlink:href="#az"/><use transform="matrix(0.05,0,0,0.05,20.95,0)" xlink:href="#an"/><use transform="matrix(0.05,0,0,0.05,29.950000000000003,0)" xlink:href="#af"/><use transform="matrix(0.05,0,0,0.05,34.95,0)" xlink:href="#an"/><use transform="matrix(0.05,0,0,0.05,43.95,0)" xlink:href="#aS"/><use transform="matrix(0.05,0,0,0.05,53.95,0)" xlink:href="#aT"/><use transform="matrix(0.05,0,0,0.05,63.95,0)" xlink:href="#aM"/><use transform="matrix(0.05,0,0,0.05,76.9,0)" xlink:href="#aG"/><use transform="matrix(0.05,0,0,0.05,80.85000000000001,0)" xlink:href="#am"/><use transform="matrix(0.05,0,0,0.05,90.85000000000001,0)" xlink:href="#an"/><use transform="matrix(0.05,0,0,0.05,99.85000000000001,0)" xlink:href="#an"/><use transform="matrix(0.05,0,0,0.05,108.85000000000001,0)" xlink:href="#ay"/><use transform="matrix(0.05,0,0,0.05,122.85000000000001,0)" xlink:href="#az"/></g><path d="M0 4l72-265h28L28 4H0" id="aU"/><use transform="matrix(0.05,0,0,0.05,0,0)" xlink:href="#aU" id="J"/><path d="M115-194c55 1 70 41 70 98S169 2 115 4C84 4 66-9 55-30l1 105H24l-1-265h31l2 30c10-21 28-34 59-34zm-8 174c40 0 45-34 45-75s-6-73-45-74c-42 0-51 32-51 76 0 43 10 73 51 73" id="aV"/><g id="K"><use transform="matrix(0.05,0,0,0.05,0,0)" xlink:href="#aj"/><use transform="matrix(0.05,0,0,0.05,5.95,0)" xlink:href="#aw"/><use transform="matrix(0.05,0,0,0.05,15.949999999999998,0)" xlink:href="#az"/><use transform="matrix(0.05,0,0,0.05,20.95,0)" xlink:href="#an"/><use transform="matrix(0.05,0,0,0.05,29.950000000000003,0)" xlink:href="#af"/><use transform="matrix(0.05,0,0,0.05,34.95,0)" xlink:href="#an"/><use transform="matrix(0.05,0,0,0.05,43.95,0)" xlink:href="#aS"/><use transform="matrix(0.05,0,0,0.05,53.95,0)" xlink:href="#aT"/><use transform="matrix(0.05,0,0,0.05,63.95,0)" xlink:href="#ax"/><use transform="matrix(0.05,0,0,0.05,75.95,0)" xlink:href="#aj"/><use transform="matrix(0.05,0,0,0.05,81.9,0)" xlink:href="#ae"/><use transform="matrix(0.05,0,0,0.05,91.9,0)" xlink:href="#aV"/><use transform="matrix(0.05,0,0,0.05,101.9,0)" xlink:href="#ad"/><use transform="matrix(0.05,0,0,0.05,111.9,0)" xlink:href="#aj"/><use transform="matrix(0.05,0,0,0.05,117.85000000000001,0)" xlink:href="#ai"/><use transform="matrix(0.05,0,0,0.05,122.85000000000001,0)" xlink:href="#ak"/><use transform="matrix(0.05,0,0,0.05,131.85000000000002,0)" xlink:href="#ay"/><use transform="matrix(0.05,0,0,0.05,145.85000000000002,0)" xlink:href="#az"/></g><g id="L"><use transform="matrix(0.05,0,0,0.05,0,0)" xlink:href="#aj"/><use transform="matrix(0.05,0,0,0.05,5.95,0)" xlink:href="#aw"/><use transform="matrix(0.05,0,0,0.05,15.949999999999998,0)" xlink:href="#az"/><use transform="matrix(0.05,0,0,0.05,20.95,0)" xlink:href="#af"/><use transform="matrix(0.05,0,0,0.05,25.950000000000003,0)" xlink:href="#aV"/><use transform="matrix(0.05,0,0,0.05,35.95,0)" xlink:href="#aj"/><use transform="matrix(0.05,0,0,0.05,41.900000000000006,0)" xlink:href="#ae"/><use transform="matrix(0.05,0,0,0.05,51.900000000000006,0)" xlink:href="#aV"/><use transform="matrix(0.05,0,0,0.05,61.900000000000006,0)" xlink:href="#ad"/><use transform="matrix(0.05,0,0,0.05,71.9,0)" xlink:href="#aj"/><use transform="matrix(0.05,0,0,0.05,77.85000000000001,0)" xlink:href="#ai"/><use transform="matrix(0.05,0,0,0.05,82.85000000000001,0)" xlink:href="#ak"/></g></defs></g></svg>