<svg xmlns="http://www.w3.org/2000/svg" xmlns:xlink="http://www.w3.org/1999/xlink" xmlns:lucid="lucid" width="1260" height="1035.7"><g transform="translate(-5.303569707049689 -5.303569707049704)" lucid:page-tab-id="0_0"><path d="M0 0h1479v1046.3H0z" fill="#fff"/><path d="M1061 580h100.5M1061.03 580H1060" stroke="#000" stroke-width="2" fill="none"/><path d="M1176.76 580l-14.26 4.64v-9.28z" stroke="#000" stroke-width="2" fill="#fff"/><path d="M1045.3 370.3c0-2.76 2.24-5 5-5h150c2.76 0 5 2.24 5 5v110c0 2.76-2.24 5-5 5h-150c-2.76 0-5-2.24-5-5z" stroke="#000" stroke-width="2" fill="#b2b2b2"/><use xlink:href="#a" transform="matrix(1,0,0,1,1053.3035697070497,373.3035697070497) translate(51 44.8)"/><use xlink:href="#b" transform="matrix(1,0,0,1,1053.3035697070497,373.3035697070497) translate(38.525 66.4)"/><path d="M1045.3 230.3c0-2.76 2.24-5 5-5h150c2.76 0 5 2.24 5 5v110c0 2.76-2.24 5-5 5h-150c-2.76 0-5-2.24-5-5z" stroke="#000" stroke-width="2" fill="#666"/><use xlink:href="#c" transform="matrix(1,0,0,1,1053.3035697070497,233.3035697070497) translate(27.049999999999997 55.6)"/><use xlink:href="#d" transform="matrix(1,0,0,1,1053.3035697070497,233.3035697070497) translate(72.05 55.6)"/><path d="M1045.3 30.3c0-2.76 2.24-5 5-5h190c2.76 0 5 2.24 5 5v50c0 2.76-2.24 5-5 5h-190c-2.76 0-5-2.24-5-5z" stroke="#000" stroke-opacity="0" stroke-width="2" fill="#fff" fill-opacity="0"/><use xlink:href="#e" transform="matrix(1,0,0,1,1050.3035697070497,30.303569707049704) translate(0 28.6)"/><use xlink:href="#f" transform="matrix(1,0,0,1,1050.3035697070497,30.303569707049704) translate(72.80000000000001 28.6)"/><use xlink:href="#g" transform="matrix(1,0,0,1,1050.3035697070497,30.303569707049704) translate(143.70000000000002 28.6)"/><path d="M1045.3 87.64c0-2.76 2.24-5 5-5h150c2.76 0 5 2.24 5 5v110c0 2.76-2.24 5-5 5h-150c-2.76 0-5-2.24-5-5z" stroke="#000" stroke-width="2" fill="#fff"/><use xlink:href="#h" transform="matrix(1,0,0,1,1053.3035697070497,90.63690304038306) translate(56.05 44.8)"/><use xlink:href="#i" transform="matrix(1,0,0,1,1053.3035697070497,90.63690304038306) translate(49.55 66.4)"/><path d="M445.3 358.88c0-2.77 2.24-5 5-5h150c2.76 0 5 2.23 5 5v110c0 2.76-2.24 5-5 5h-150c-2.76 0-5-2.24-5-5z" stroke="#000" stroke-width="2" fill="#666"/><use xlink:href="#j" transform="matrix(1,0,0,1,453.30356970704975,361.8754769929827) translate(33.55 55.6)"/><path d="M1060 525c0-2.76 2.24-5 5-5h110c2.76 0 5 2.24 5 5v30c0 2.76-2.24 5-5 5h-110c-2.76 0-5-2.24-5-5z" stroke="#000" stroke-opacity="0" stroke-width="2" fill="#fff" fill-opacity="0"/><use xlink:href="#k" transform="matrix(1,0,0,1,1065,525) translate(0 22.799999999999997)"/><path d="M622.9 666.93l-1.8.9-37.3-74.3h2.23zm-58.57-116.6h-2.24l-37.24-74.1 1.8-.9z"/><path d="M526.66 475.34l-1.8.9-.68-1.36h2.24zM624.3 647.36L622.8 669l-18.24-11.73 1.08-1.68 15.4 9.9 1.26-18.28z"/><use xlink:href="#l" transform="matrix(1,0,0,1,510.10658466675665,550.3372573362395) translate(41.955000000000005 14.4)"/><use xlink:href="#m" transform="matrix(1,0,0,1,510.10658466675665,550.3372573362395) translate(0.005000000000002558 36)"/><use xlink:href="#n" transform="matrix(1,0,0,1,510.10658466675665,550.3372573362395) translate(107.905 36)"/><path d="M622.7 792.4L494.97 899.6l-1.3-1.54L621.4 790.88z"/><path d="M622.67 792.42l-1.2-1.42h2.9zM502.03 880.2l-6.08 17.27 18.07-3 .32 1.98-21.4 3.55 7.2-20.46z"/><use xlink:href="#o" transform="matrix(1,0,0,1,440.05060619282847,837.459243661097) translate(0 14.4)"/><use xlink:href="#p" transform="matrix(1,0,0,1,440.05060619282847,837.459243661097) translate(34 14.4)"/><use xlink:href="#q" transform="matrix(1,0,0,1,440.05060619282847,837.459243661097) translate(64 14.4)"/><path d="M599.65 898.44l-1.95-.43 3.55-15.75h2.05zm23.92-106.25l-15.4 68.45h-2.06l15.5-68.9z"/><path d="M623.56 792.22l-1.95-.44.18-.78h2.05zM599.14 896.17l12.55-13.33 1.45 1.37-14.87 15.8-5.74-17.75h2.1z"/><use xlink:href="#r" transform="matrix(1,0,0,1,545.701912950555,860.6526323705559) translate(0 14.4)"/><use xlink:href="#s" transform="matrix(1,0,0,1,545.701912950555,860.6526323705559) translate(34 14.4)"/><use xlink:href="#t" transform="matrix(1,0,0,1,545.701912950555,860.6526323705559) translate(78 14.4)"/><path d="M417.38 667.9l-1.75-.98 16.2-28.64h2.3zm108.3-191.66l-67.15 118.84h-2.3l67.7-119.83z"/><path d="M525.67 476.26l-1.74-.98.22-.4h2.3zM417.54 665.58l15.87-9.14 1 1.74L415.6 669l-.42-21.7 2-.03z"/><use xlink:href="#u" transform="matrix(1,0,0,1,370.22383126732893,595.0806337698186) translate(57.455 14.4)"/><use xlink:href="#v" transform="matrix(1,0,0,1,370.22383126732893,595.0806337698186) translate(0.0049999999999954525 36)"/><use xlink:href="#w" transform="matrix(1,0,0,1,370.22383126732893,595.0806337698186) translate(112.905 36)"/><path d="M335.6 675c0-2.76 2.25-5 5-5h150c2.77 0 5 2.24 5 5v110c0 2.76-2.23 5-5 5h-150c-2.75 0-5-2.24-5-5z" stroke="#000" stroke-width="2" fill="#fff"/><use xlink:href="#u" transform="matrix(1,0,0,1,343.61030821813785,677.9990376794964) translate(54.5 44.8)"/><use xlink:href="#x" transform="matrix(1,0,0,1,343.61030821813785,677.9990376794964) translate(32.55 66.4)"/><path d="M542.8 675c0-2.76 2.25-5 5-5h150c2.77 0 5 2.24 5 5v110c0 2.76-2.23 5-5 5h-150c-2.75 0-5-2.24-5-5z" stroke="#000" stroke-width="2" fill="#fff"/><use xlink:href="#l" transform="matrix(1,0,0,1,550.8095996264635,677.9990376794964) translate(50 44.8)"/><use xlink:href="#y" transform="matrix(1,0,0,1,550.8095996264635,677.9990376794964) translate(3.125 66.4)"/><path d="M675.6 906c0-2.76 2.25-5 5-5h150c2.77 0 5 2.24 5 5v110c0 2.76-2.23 5-5 5h-150c-2.75 0-5-2.24-5-5z" stroke="#000" stroke-width="2" fill="#666"/><use xlink:href="#z" transform="matrix(1,0,0,1,683.610308218138,908.9990376794555) translate(55 44.8)"/><use xlink:href="#A" transform="matrix(1,0,0,1,683.610308218138,908.9990376794555) translate(16.125 66.4)"/><path d="M905.3 906c0-2.76 2.24-5 5-5h150c2.76 0 5 2.24 5 5v110c0 2.76-2.24 5-5 5h-150c-2.76 0-5-2.24-5-5z" stroke="#000" stroke-width="2" fill="#fff"/><use xlink:href="#B" transform="matrix(1,0,0,1,913.3035697070497,908.9990376794555) translate(4.4691358024691255 44.84330484330484)"/><use xlink:href="#C" transform="matrix(1,0,0,1,913.3035697070497,908.9990376794555) translate(88.27160493827161 44.84330484330484)"/><use xlink:href="#D" transform="matrix(1,0,0,1,913.3035697070497,908.9990376794555) translate(45.87654320987654 66.26780626780626)"/><path d="M903.3 961h-64.87" fill="none"/><path d="M903.3 961h-10.8m-10.82 0h-21.63m-10.8 0h-10.82" stroke="#000" stroke-width="2" fill="none"/><path d="M904.3 962h-1.02v-2h1.02z"/><path d="M855.8 950.82L838.56 961l17.22 10.18" stroke="#000" stroke-width="2" fill="none"/><path d="M754.84 898.07l-1.27 1.55-130.62-107.2 1.27-1.56z"/><path d="M622.97 792.42l-1.74-1.42h2.9zM755.6 900l-21.43-3.3.3-2 18.1 2.8-6.27-17.2 1.88-.68z"/><use xlink:href="#E" transform="matrix(1,0,0,1,680.1820119668524,819.3285583662864) translate(0.0049999999999954525 14.4)"/><use xlink:href="#n" transform="matrix(1,0,0,1,680.1820119668524,819.3285583662864) translate(153.70499999999998 14.4)"/><path d="M475.6 906c0-2.76 2.25-5 5-5h150c2.77 0 5 2.24 5 5v110c0 2.76-2.23 5-5 5h-150c-2.75 0-5-2.24-5-5z" stroke="#000" stroke-width="2" fill="#666"/><use xlink:href="#F" transform="matrix(1,0,0,1,483.6103082181378,908.9990376794555) translate(21.525 55.6)"/><path d="M805.3 436.82c0-2.76 1.94-6.12 4.33-7.5l71.35-41.5c2.4-1.4 6.26-1.4 8.65 0l71.35 41.5c2.4 1.38 4.32 4.74 4.32 7.5v63.48c0 2.76-2.24 5-5 5h-150c-2.76 0-5-2.24-5-5z" stroke="#000" stroke-width="2" fill="#fff"/><use xlink:href="#G" transform="matrix(1,0,0,1,805.3035697070497,385.3035697070497) translate(60.025 52.8)"/><use xlink:href="#H" transform="matrix(1,0,0,1,805.3035697070497,385.3035697070497) translate(56.5 74.4)"/><path d="M694.4 396.16l-21.08 6.88-15.46 4.33-12.3 2.9-10.24 1.96-8.73 1.3-7.6.8-6.7.42-4.97.1-.04-2 4.9-.1 6.63-.42 7.5-.8 8.65-1.27 10.15-1.95 12.23-2.87 15.38-4.3 20.98-6.86 20.14-7.57h5.68zm161.15-54.8l2.22.15 1.98.22 1.8.26 1.63.3 1.5.36 1.38.4 1.28.4 1.2.45 1.12.46 1.05.5 1 .5.95.56.9.57.85.58.83.63.78.66.77.68.73.7.7.77.7.8.65.83.64.9.62.93.6 1 .6 1.06.56 1.15.55 1.23.53 1.34.5 1.46.48 1.6.45 1.74.4 1.94.37 2.17.3 2.44.24 2.76.14 3.18v3.7l-.14 3.3-2-.1.14-3.25v-3.62l-.13-3.1-.2-2.68-.3-2.36-.36-2.08-.4-1.86-.42-1.67-.46-1.52-.48-1.36-.5-1.26-.5-1.16-.54-1.07-.55-1-.57-.92-.58-.87-.6-.82-.6-.77-.63-.73-.65-.7-.67-.64-.7-.63-.72-.6-.75-.57-.8-.55-.82-.52-.86-.5-.92-.5-.98-.44-1.04-.45-1.1-.42-1.22-.4-1.3-.35-1.4-.33-1.56-.3-1.72-.25-1.9-.2-2.13-.13-2.42-.05-2.76.06-3.22.2-3.77.4-4.54.67-5.6 1.08-7.15 1.68-9.65 2.72-14.47 4.73-26.34 10.25h-5.5l31.16-12.13 14.57-4.76 9.74-2.72 7.25-1.7 5.68-1.1 4.62-.68 3.87-.4 3.3-.22 2.83-.06z"/><path d="M607.35 414.85l-1.05.03v-2l1-.03zM896.14 367l-10.84 18.8-11.25-18.54 1.7-1.04 9.5 15.66L894.4 366z"/><use xlink:href="#I" transform="matrix(1,0,0,1,696.6730225888107,365.0989744037938) translate(0 14.4)"/><use xlink:href="#J" transform="matrix(1,0,0,1,696.6730225888107,365.0989744037938) translate(53.75 14.4)"/><path d="M740.78 469.26l81.03 54.65 9.74 5.65 6.7 3.5 5.02 2.38 3.95 1.66 3.22 1.2 2.68.86 2.28.64 1.96.46 1.72.33 1.53.2 1.35.16 1.22.08 1.12.02 1-.02.94-.06.87-.1.82-.1.76-.16.72-.16.68-.2.64-.2.62-.23.6-.25.55-.26.54-.3.53-.3.52-.33.5-.36.5-.37.48-.4.48-.44.47-.47.48-.5.47-.54.47-.6.47-.63.48-.72.46-.77.47-.84.48-.95.47-1.05.47-1.2.47-1.33.45-1.54.46-1.77.44-2.04.4-2.42.37-2.87.3-3.47.18-4.28v-.7h2v.75l-.18 4.35-.3 3.56-.37 2.96-.42 2.5-.44 2.13-.48 1.85-.5 1.6-.48 1.44-.5 1.27-.5 1.13-.5 1.02-.52.93-.5.85-.53.78-.5.7-.53.66-.53.6-.54.56-.53.53-.54.48-.57.45-.56.43-.57.4-.6.37-.6.35-.62.33-.64.3-.67.3-.7.25-.7.23-.77.2-.8.2-.84.16-.9.13-.95.1-1 .07-1.12.02-1.2-.03-1.3-.08-1.45-.15-1.6-.24-1.8-.34-2.05-.48-2.36-.66-2.76-.9-3.3-1.23-4-1.7-5.1-2.4-6.78-3.55-9.83-5.7-81.07-54.67-19-12.1h3.73zm-130.17-56.3l4.58.3 4.9.5 5.25.8 5.7 1.08 6.22 1.46 6.86 1.92 7.66 2.5 8.62 3.2 9.9 4.17 11.6 5.45 5.46 2.87h-4.3l-2.07-1.08-11.5-5.43-9.83-4.12-8.54-3.18-7.57-2.47-6.78-1.9-6.14-1.44-5.6-1.08-5.2-.77-4.8-.5-4.48-.28-3.23-.07.03-2z"/><path d="M607.35 412.9l-.04 2-1-.02v-2zM894.9 525.76l-1.8.9-8.1-16.44-10.5 15-1.63-1.14 12.43-17.78z"/><use xlink:href="#K" transform="matrix(1,0,0,1,644.8920484398942,437.22066785878394) translate(0 14.4)"/><use xlink:href="#J" transform="matrix(1,0,0,1,644.8920484398942,437.22066785878394) translate(76.9 14.4)"/><path d="M1045.3 640h160v40h-160z" stroke="#000" fill="#fff"/><use xlink:href="#L" transform="matrix(1,0,0,1,1050.3035697070497,645) translate(50.575 18.6)"/><path d="M607.7 414.08l-1.2-1.6 95.94-72h3.33zm195.75-146.9l-68.9 51.7h-3.32l71.02-53.3z"/><path d="M607.72 414.06l-1.42 1.07v-2.5l.22-.17zM796 285.34l-1.85-.76 7-16.92-18.2 2-.2-1.98 21.55-2.38z"/><use xlink:href="#M" transform="matrix(1,0,0,1,641.5513213057125,318.88641664850456) translate(0.0049999999999954525 14.4)"/><use xlink:href="#n" transform="matrix(1,0,0,1,641.5513213057125,318.88641664850456) translate(133.90500000000003 14.4)"/><path d="M805.3 210.3c0-2.76 2.24-5 5-5h150c2.76 0 5 2.24 5 5v110c0 2.76-2.24 5-5 5h-150c-2.76 0-5-2.24-5-5z" stroke="#000" stroke-width="2" fill="#fff"/><use xlink:href="#N" transform="matrix(1,0,0,1,813.3035697070497,213.3035697070497) translate(52.55 44.8)"/><use xlink:href="#O" transform="matrix(1,0,0,1,813.3035697070497,213.3035697070497) translate(42.55 66.4)"/><path d="M25.3 210.3c0-2.76 2.24-5 5-5h150c2.76 0 5 2.24 5 5v110c0 2.76-2.24 5-5 5h-150c-2.76 0-5-2.24-5-5z" stroke="#000" stroke-width="2" fill="#b2b2b2"/><use xlink:href="#P" transform="matrix(1,0,0,1,33.30356970704969,213.3035697070497) translate(36.05 44.8)"/><use xlink:href="#Q" transform="matrix(1,0,0,1,33.30356970704969,213.3035697070497) translate(31.575000000000003 66.4)"/><path d="M25.3 358.88c0-2.77 2.24-5 5-5h150c2.76 0 5 2.23 5 5v110c0 2.76-2.24 5-5 5h-150c-2.76 0-5-2.24-5-5z" stroke="#000" stroke-width="2" fill="#b2b2b2"/><use xlink:href="#R" transform="matrix(1,0,0,1,33.30356970704969,361.8754769929827) translate(36.05 34)"/><use xlink:href="#S" transform="matrix(1,0,0,1,33.30356970704969,361.8754769929827) translate(41.025 55.6)"/><use xlink:href="#T" transform="matrix(1,0,0,1,33.30356970704969,361.8754769929827) translate(17.099999999999994 77.2)"/><path d="M25.3 510.3c0-2.76 2.24-5 5-5h150c2.76 0 5 2.24 5 5v110c0 2.76-2.24 5-5 5h-150c-2.76 0-5-2.24-5-5z" stroke="#000" stroke-width="2" fill="#b2b2b2"/><use xlink:href="#R" transform="matrix(1,0,0,1,33.30356970704969,513.3035697070497) translate(36.05 44.8)"/><use xlink:href="#U" transform="matrix(1,0,0,1,33.30356970704969,513.3035697070497) translate(46.5 66.4)"/><path d="M25.3 61.73c0-2.76 2.24-5 5-5h150c2.76 0 5 2.24 5 5v110c0 2.76-2.24 5-5 5h-150c-2.76 0-5-2.24-5-5z" stroke="#000" stroke-width="2" fill="#b2b2b2"/><use xlink:href="#V" transform="matrix(1,0,0,1,33.30356970704969,64.73166242111667) translate(36.05 44.8)"/><use xlink:href="#W" transform="matrix(1,0,0,1,33.30356970704969,64.73166242111667) translate(38.525 66.4)"/><path d="M25.3 661.73c0-2.76 2.24-5 5-5h150c2.76 0 5 2.24 5 5v110c0 2.76-2.24 5-5 5h-150c-2.76 0-5-2.24-5-5z" stroke="#000" stroke-width="2" fill="#b2b2b2"/><use xlink:href="#R" transform="matrix(1,0,0,1,33.30356970704969,664.7316624211167) translate(36.05 44.8)"/><use xlink:href="#X" transform="matrix(1,0,0,1,33.30356970704969,664.7316624211167) translate(12.174999999999997 66.4)"/><use xlink:href="#Y" transform="matrix(1,0,0,1,33.30356970704969,664.7316624211167) translate(71.875 66.4)"/><path d="M444.4 412.46l-1.5 1.32L306.15 256.3h2.65zM290.05 234.7h-2.65L186.74 118.76l1.5-1.3z"/><path d="M444.3 415.4l-1.42-1.64 1.42-1.24zM206.88 123.6l-.63 1.9-17.37-5.8 3.3 18-1.97.37-3.9-21.34z"/><use xlink:href="#Z" transform="matrix(1,0,0,1,247.63149944212546,234.69735630402647) translate(0.005000000000002558 14.4)"/><path d="M443.94 412.5l-1 1.74-128.08-73.75h4zm-162.58-93.6h-4l-89.98-51.82 1-1.74z"/><path d="M444.3 412.72v2.3l-1.38-.8 1-1.72zM208.02 267.05l-18.3.2 9 15.96-1.75 1-10.67-18.9 21.7-.25z"/><g><use xlink:href="#aa" transform="matrix(1,0,0,1,238.18149944212547,318.88641664850456) translate(0.005000000000002558 14.4)"/></g><path d="M195.23 414.78l-7.1.08-.02-2 7.13-.08zm248.08-2.56l-42.32.44v-2l42.3-.44z"/><path d="M444.3 412.2l-1 .02-.03-2h1.03zM205.1 424.72l-2.1-1.2h2.78zm-9.87-13.9l-5 3 5 2.9v2.3l-8.93-5.14 8.93-5.4z"/><g><use xlink:href="#ab" transform="matrix(1,0,0,1,195.23149944212548,401.9198911559277) translate(0.0049999999999954525 14.4)"/></g><path d="M188.38 565.25l-1-1.73 90.35-53.04h3.95zm255.57-150l-125.47 73.63h-3.95l128.4-75.36z"/><path d="M444.3 415.03l-.37.23-1.02-1.73 1.4-.8zM198.57 547.3l-8.88 16 18.3.08v2l-21.7-.08 10.52-18.97z"/><g><use xlink:href="#ac" transform="matrix(1,0,0,1,255.60649944212548,488.88300997981185) translate(0.005000000000002558 14.4)"/></g><path d="M188.24 716l-1.52-1.3 59.16-69.44h2.63zm256.18-300.7l-177.5 208.36h-2.64L442.88 414z"/><path d="M444.3 415.22l-1.42-1.2 1.42-1.7zM191.98 695.7l-3.13 18.04 17.32-5.95.65 1.88-20.52 7.05 3.7-21.37z"/><g><use xlink:href="#ad" transform="matrix(1,0,0,1,181.56752095049447,623.656963141085) translate(0.0049999999999954525 14.4)"/></g><path d="M1061 520h107.18M1061.03 520H1060M1150.82 530.18l17.22-10.18-17.22-10.18" stroke="#000" stroke-width="2" fill="none"/><path d="M1060 585c0-2.76 2.24-5 5-5h150c2.76 0 5 2.24 5 5v30c0 2.76-2.24 5-5 5h-150c-2.76 0-5-2.24-5-5z" stroke="#000" stroke-opacity="0" stroke-width="2" fill="#fff" fill-opacity="0"/><g><use xlink:href="#ae" transform="matrix(1,0,0,1,1065,585) translate(0 22.799999999999997)"/></g><path d="M346.15 867.38l6.53 10.05 6.75 9.5 6.87 8.83 6.9 8.14 6.8 7.4 6.7 6.7 6.54 6 6.32 5.33 6.1 4.72 5.85 4.16 5.64 3.66 5.4 3.2 5.17 2.76 4.98 2.4 4.76 2.06 4.6 1.76 4.4 1.48 4.27 1.24 4.13 1 4 .8 3.88.62 3.8.44 3.68.26 2.64.1-.06 1.98-2.7-.08-3.76-.27-3.86-.44-3.96-.62-4.08-.82-4.2-1.03-4.35-1.27-4.5-1.5-4.66-1.8-4.86-2.1-5.04-2.43-5.25-2.8-5.47-3.24-5.7-3.7-5.92-4.2-6.16-4.77-6.4-5.4-6.57-6.05-6.76-6.75-6.88-7.48-6.95-8.2-6.92-8.9-6.8-9.57-6.58-10.1-4.97-8.4h2.32zm178.96-391.1l-20.85 15.8-104.3 72.52-8.97 7.43-6.67 6-2.65 2.56-6.82 6.95-6.42 7.12-6.08 7.37-5.86 7.72-5.68 8.18-5.6 8.8-5.55 9.64-5.64 10.8-5.85 12.43-6.27 14.96-7.15 19.28-2.17 6.35-1.36 4.33-1.22 4.58-1.08 4.87-.92 5.15-.75 5.48-.54 5.84-.33 6.23-.07 6.64.23 7.1.57 7.56.94 8.06 1.36 8.57 1.84 9.06 2.36 9.57 2.92 10.02 3.52 10.4 4.12 10.7 4.7 10.88 1.57 3.22h-2.22l-1.14-2.38-4.75-10.95-4.14-10.78-3.54-10.5-2.95-10.1-2.38-9.64-1.87-9.16-1.37-8.65-.95-8.15-.56-7.65-.24-7.17.07-6.72.32-6.3.55-5.92.75-5.57.94-5.23 1.1-4.93 1.24-4.67 1.38-4.4 2.2-6.4 7.16-19.34 6.3-15.03 5.88-12.5 5.68-10.88 5.6-9.7 5.63-8.9 5.74-8.24 5.9-7.78 6.16-7.43 6.47-7.2 6.87-7 2.7-2.6 6.73-6.06 9.08-7.5 104.33-72.52 20.82-15.8z"/><path d="M525.1 476.3l-1.1-1.42h2.96zM474.6 961l-19.54 9.4-.86-1.8 16.5-7.94-14.9-10.63 1.15-1.63z"/><g><use xlink:href="#af" transform="matrix(1,0,0,1,277.2678228919751,838.4487255783961) translate(0.005000000000002558 14.4)"/><use xlink:href="#t" transform="matrix(1,0,0,1,277.2678228919751,838.4487255783961) translate(74.85499999999999 14.4)"/></g><path d="M750 675c0-2.76 2.25-5 5-5h150c2.77 0 5 2.24 5 5v110c0 2.76-2.23 5-5 5H755c-2.75 0-5-2.24-5-5z" stroke="#000" stroke-width="2" fill="#fff"/><g><use xlink:href="#ag" transform="matrix(1,0,0,1,758.0088910347893,677.9990376794964) translate(50.5 44.8)"/><use xlink:href="#ah" transform="matrix(1,0,0,1,758.0088910347893,677.9990376794964) translate(8.649999999999991 66.4)"/></g><path d="M829 667.18l-1.06 1.7-94.5-60.22h3.7zm-125.75-80.12h-3.72L525.6 476.26l1.08-1.7z"/><path d="M525.63 476.27l-2.2-1.4h3.1zM830 669l-21.67-.72.07-2 18.3.6-8.3-16.32 1.8-.9z"/><g><use xlink:href="#ai" transform="matrix(1,0,0,1,667.8391279590774,587.0557706869253) translate(0.005000000000002558 14.4)"/><use xlink:href="#n" transform="matrix(1,0,0,1,667.8391279590774,587.0557706869253) translate(81.005 14.4)"/></g><defs><path d="M135-143c-3-34-86-38-87 0 15 53 115 12 119 90S17 21 10-45l28-5c4 36 97 45 98 0-10-56-113-15-118-90-4-57 82-63 122-42 12 7 21 19 24 35" id="aj"/><path d="M143 0L79-87 56-68V0H24v-261h32v163l83-92h37l-77 82L181 0h-38" id="ak"/><path d="M100-194c62-1 85 37 85 99 1 63-27 99-86 99S16-35 15-95c0-66 28-99 85-99zM99-20c44 1 53-31 53-75 0-43-8-75-51-75s-53 32-53 75 10 74 51 75" id="al"/><path d="M33-154v-36h34v36H33zM33 0v-36h34V0H33" id="am"/><g id="a"><use transform="matrix(0.05,0,0,0.05,0,0)" xlink:href="#aj"/><use transform="matrix(0.05,0,0,0.05,9,0)" xlink:href="#ak"/><use transform="matrix(0.05,0,0,0.05,18,0)" xlink:href="#al"/><use transform="matrix(0.05,0,0,0.05,28,0)" xlink:href="#aj"/><use transform="matrix(0.05,0,0,0.05,37,0)" xlink:href="#am"/></g><path d="M212-179c-10-28-35-45-73-45-59 0-87 40-87 99 0 60 29 101 89 101 43 0 62-24 78-52l27 14C228-24 195 4 139 4 59 4 22-46 18-125c-6-104 99-153 187-111 19 9 31 26 39 46" id="an"/><path d="M117-194c89-4 53 116 60 194h-32v-121c0-31-8-49-39-48C34-167 62-67 57 0H25l-1-190h30c1 10-1 24 2 32 11-22 29-35 61-36" id="ao"/><path d="M96-169c-40 0-48 33-48 73s9 75 48 75c24 0 41-14 43-38l32 2c-6 37-31 61-74 61-59 0-76-41-82-99-10-93 101-131 147-64 4 7 5 14 7 22l-32 3c-4-21-16-35-41-35" id="ap"/><path d="M100-194c63 0 86 42 84 106H49c0 40 14 67 53 68 26 1 43-12 49-29l28 8c-11 28-37 45-77 45C44 4 14-33 15-96c1-61 26-98 85-98zm52 81c6-60-76-77-97-28-3 7-6 17-6 28h103" id="aq"/><path d="M115-194c55 1 70 41 70 98S169 2 115 4C84 4 66-9 55-30l1 105H24l-1-265h31l2 30c10-21 28-34 59-34zm-8 174c40 0 45-34 45-75s-6-73-45-74c-42 0-51 32-51 76 0 43 10 73 51 73" id="ar"/><path d="M59-47c-2 24 18 29 38 22v24C64 9 27 4 27-40v-127H5v-23h24l9-43h21v43h35v23H59v120" id="as"/><g id="b"><use transform="matrix(0.05,0,0,0.05,0,0)" xlink:href="#an"/><use transform="matrix(0.05,0,0,0.05,12.950000000000001,0)" xlink:href="#al"/><use transform="matrix(0.05,0,0,0.05,22.950000000000003,0)" xlink:href="#ao"/><use transform="matrix(0.05,0,0,0.05,32.95,0)" xlink:href="#ap"/><use transform="matrix(0.05,0,0,0.05,41.95,0)" xlink:href="#aq"/><use transform="matrix(0.05,0,0,0.05,51.95,0)" xlink:href="#ar"/><use transform="matrix(0.05,0,0,0.05,61.95,0)" xlink:href="#as"/></g><path fill="#fff" d="M143 4C61 4 22-44 18-125c-5-107 100-154 193-111 17 8 29 25 37 43l-32 9c-13-25-37-40-76-40-61 0-88 39-88 99 0 61 29 100 91 101 35 0 62-11 79-27v-45h-74v-28h105v86C228-13 192 4 143 4" id="at"/><path fill="#fff" d="M185-189c-5-48-123-54-124 2 14 75 158 14 163 119 3 78-121 87-175 55-17-10-28-26-33-46l33-7c5 56 141 63 141-1 0-78-155-14-162-118-5-82 145-84 179-34 5 7 8 16 11 25" id="au"/><path fill="#fff" d="M140-251c81 0 123 46 123 126C263-53 228-8 163 1c7 30 30 48 69 40v23c-55 16-95-15-103-61C56-3 17-48 17-125c0-80 42-126 123-126zm0 227c63 0 89-41 89-101s-29-99-89-99c-61 0-89 39-89 99S79-25 140-24" id="av"/><g id="c"><use transform="matrix(0.05,0,0,0.05,0,0)" xlink:href="#at"/><use transform="matrix(0.05,0,0,0.05,14,0)" xlink:href="#au"/><use transform="matrix(0.05,0,0,0.05,26,0)" xlink:href="#av"/></g><path fill="#fff" d="M212-179c-10-28-35-45-73-45-59 0-87 40-87 99 0 60 29 101 89 101 43 0 62-24 78-52l27 14C228-24 195 4 139 4 59 4 22-46 18-125c-6-104 99-153 187-111 19 9 31 26 39 46" id="aw"/><path fill="#fff" d="M24 0v-261h32V0H24" id="ax"/><path fill="#fff" d="M141-36C126-15 110 5 73 4 37 3 15-17 15-53c-1-64 63-63 125-63 3-35-9-54-41-54-24 1-41 7-42 31l-33-3c5-37 33-52 76-52 45 0 72 20 72 64v82c-1 20 7 32 28 27v20c-31 9-61-2-59-35zM48-53c0 20 12 33 32 33 41-3 63-29 60-74-43 2-92-5-92 41" id="ay"/><path fill="#fff" d="M135-143c-3-34-86-38-87 0 15 53 115 12 119 90S17 21 10-45l28-5c4 36 97 45 98 0-10-56-113-15-118-90-4-57 82-63 122-42 12 7 21 19 24 35" id="az"/><g id="d"><use transform="matrix(0.05,0,0,0.05,0,0)" xlink:href="#aw"/><use transform="matrix(0.05,0,0,0.05,12.950000000000001,0)" xlink:href="#ax"/><use transform="matrix(0.05,0,0,0.05,16.900000000000002,0)" xlink:href="#ay"/><use transform="matrix(0.05,0,0,0.05,26.900000000000002,0)" xlink:href="#az"/><use transform="matrix(0.05,0,0,0.05,35.900000000000006,0)" xlink:href="#az"/></g><path d="M30-248c118-7 216 8 213 122C240-48 200 0 122 0H30v-248zM63-27c89 8 146-16 146-99s-60-101-146-95v194" id="aA"/><path d="M24-231v-30h32v30H24zM24 0v-190h32V0H24" id="aB"/><path d="M141-36C126-15 110 5 73 4 37 3 15-17 15-53c-1-64 63-63 125-63 3-35-9-54-41-54-24 1-41 7-42 31l-33-3c5-37 33-52 76-52 45 0 72 20 72 64v82c-1 20 7 32 28 27v20c-31 9-61-2-59-35zM48-53c0 20 12 33 32 33 41-3 63-29 60-74-43 2-92-5-92 41" id="aC"/><path d="M177-190C167-65 218 103 67 71c-23-6-38-20-44-43l32-5c15 47 100 32 89-28v-30C133-14 115 1 83 1 29 1 15-40 15-95c0-56 16-97 71-98 29-1 48 16 59 35 1-10 0-23 2-32h30zM94-22c36 0 50-32 50-73 0-42-14-75-50-75-39 0-46 34-46 75s6 73 46 73" id="aD"/><path d="M114-163C36-179 61-72 57 0H25l-1-190h30c1 12-1 29 2 39 6-27 23-49 58-41v29" id="aE"/><path d="M210-169c-67 3-38 105-44 169h-31v-121c0-29-5-50-35-48C34-165 62-65 56 0H25l-1-190h30c1 10-1 24 2 32 10-44 99-50 107 0 11-21 27-35 58-36 85-2 47 119 55 194h-31v-121c0-29-5-49-35-48" id="aF"/><g id="e"><use transform="matrix(0.05,0,0,0.05,0,0)" xlink:href="#aA"/><use transform="matrix(0.05,0,0,0.05,12.950000000000001,0)" xlink:href="#aB"/><use transform="matrix(0.05,0,0,0.05,16.900000000000002,0)" xlink:href="#aC"/><use transform="matrix(0.05,0,0,0.05,26.900000000000002,0)" xlink:href="#aD"/><use transform="matrix(0.05,0,0,0.05,36.900000000000006,0)" xlink:href="#aE"/><use transform="matrix(0.05,0,0,0.05,42.85000000000001,0)" xlink:href="#aC"/><use transform="matrix(0.05,0,0,0.05,52.85,0)" xlink:href="#aF"/><path d="M-.9 1.25h74.6v1.32H-.9z"/></g><path d="M30 0v-248h187v28H63v79h144v27H63v87h162V0H30" id="aG"/><path d="M24 0v-261h32V0H24" id="aH"/><g id="f"><use transform="matrix(0.05,0,0,0.05,0,0)" xlink:href="#aG"/><use transform="matrix(0.05,0,0,0.05,12,0)" xlink:href="#aH"/><use transform="matrix(0.05,0,0,0.05,15.949999999999998,0)" xlink:href="#aq"/><use transform="matrix(0.05,0,0,0.05,25.950000000000003,0)" xlink:href="#aF"/><use transform="matrix(0.05,0,0,0.05,40.9,0)" xlink:href="#aq"/><use transform="matrix(0.05,0,0,0.05,50.9,0)" xlink:href="#ao"/><use transform="matrix(0.05,0,0,0.05,60.900000000000006,0)" xlink:href="#as"/><path d="M-.9 1.25h72.7v1.32H-.9z"/></g><path d="M194 0L95-120 63-95V0H30v-248h33v124l119-124h40L117-140 236 0h-42" id="aI"/><path d="M179-190L93 31C79 59 56 82 12 73V49c39 6 53-20 64-50L1-190h34L92-34l54-156h33" id="aJ"/><g id="g"><use transform="matrix(0.05,0,0,0.05,0,0)" xlink:href="#aI"/><use transform="matrix(0.05,0,0,0.05,12,0)" xlink:href="#aq"/><use transform="matrix(0.05,0,0,0.05,22,0)" xlink:href="#aJ"/><path d="M-.9 1.25h32.8v1.32H-.9z"/></g><path d="M206 0h-36l-40-164L89 0H53L-1-190h32L70-26l43-164h34l41 164 42-164h31" id="aK"/><g id="h"><use transform="matrix(0.05,0,0,0.05,0,0)" xlink:href="#al"/><use transform="matrix(0.05,0,0,0.05,10,0)" xlink:href="#aK"/><use transform="matrix(0.05,0,0,0.05,22.950000000000003,0)" xlink:href="#aH"/><use transform="matrix(0.05,0,0,0.05,26.900000000000002,0)" xlink:href="#am"/></g><g id="i"><use transform="matrix(0.05,0,0,0.05,0,0)" xlink:href="#an"/><use transform="matrix(0.05,0,0,0.05,12.950000000000001,0)" xlink:href="#aH"/><use transform="matrix(0.05,0,0,0.05,16.900000000000002,0)" xlink:href="#aC"/><use transform="matrix(0.05,0,0,0.05,26.900000000000002,0)" xlink:href="#aj"/><use transform="matrix(0.05,0,0,0.05,35.900000000000006,0)" xlink:href="#aj"/></g><path fill="#fff" d="M33-154v-36h34v36H33zM33 0v-36h34V0H33" id="aL"/><path fill="#fff" d="M160-131c35 5 61 23 61 61C221 17 115-2 30 0v-248c76 3 177-17 177 60 0 33-19 50-47 57zm-97-11c50-1 110 9 110-42 0-47-63-36-110-37v79zm0 115c55-2 124 14 124-45 0-56-70-42-124-44v89" id="aM"/><path fill="#fff" d="M100-194c62-1 85 37 85 99 1 63-27 99-86 99S16-35 15-95c0-66 28-99 85-99zM99-20c44 1 53-31 53-75 0-43-8-75-51-75s-53 32-53 75 10 74 51 75" id="aN"/><path fill="#fff" d="M114-163C36-179 61-72 57 0H25l-1-190h30c1 12-1 29 2 39 6-27 23-49 58-41v29" id="aO"/><path fill="#fff" d="M100-194c63 0 86 42 84 106H49c0 40 14 67 53 68 26 1 43-12 49-29l28 8c-11 28-37 45-77 45C44 4 14-33 15-96c1-61 26-98 85-98zm52 81c6-60-76-77-97-28-3 7-6 17-6 28h103" id="aP"/><path fill="#fff" d="M106-169C34-169 62-67 57 0H25v-261h32l-1 103c12-21 28-36 61-36 89 0 53 116 60 194h-32v-121c2-32-8-49-39-48" id="aQ"/><g id="j"><use transform="matrix(0.05,0,0,0.05,0,0)" xlink:href="#aL"/><use transform="matrix(0.05,0,0,0.05,5,0)" xlink:href="#aM"/><use transform="matrix(0.05,0,0,0.05,17,0)" xlink:href="#aN"/><use transform="matrix(0.05,0,0,0.05,27,0)" xlink:href="#aO"/><use transform="matrix(0.05,0,0,0.05,32.95,0)" xlink:href="#aP"/><use transform="matrix(0.05,0,0,0.05,42.95,0)" xlink:href="#aQ"/><use transform="matrix(0.05,0,0,0.05,52.95,0)" xlink:href="#aN"/><use transform="matrix(0.05,0,0,0.05,62.95,0)" xlink:href="#ax"/><use transform="matrix(0.05,0,0,0.05,66.9,0)" xlink:href="#aP"/></g><path d="M85-194c31 0 48 13 60 33l-1-100h32l1 261h-30c-2-10 0-23-3-31C134-8 116 4 85 4 32 4 16-35 15-94c0-66 23-100 70-100zm9 24c-40 0-46 34-46 75 0 40 6 74 45 74 42 0 51-32 51-76 0-42-9-74-50-73" id="aR"/><path d="M101-234c-31-9-42 10-38 44h38v23H63V0H32v-167H5v-23h27c-7-52 17-82 69-68v24" id="aS"/><g id="k"><use transform="matrix(0.05,0,0,0.05,0,0)" xlink:href="#aE"/><use transform="matrix(0.05,0,0,0.05,5.95,0)" xlink:href="#aR"/><use transform="matrix(0.05,0,0,0.05,15.949999999999998,0)" xlink:href="#aS"/><use transform="matrix(0.05,0,0,0.05,20.95,0)" xlink:href="#am"/><use transform="matrix(0.05,0,0,0.05,25.950000000000003,0)" xlink:href="#ar"/><use transform="matrix(0.05,0,0,0.05,35.95,0)" xlink:href="#aE"/><use transform="matrix(0.05,0,0,0.05,41.900000000000006,0)" xlink:href="#al"/><use transform="matrix(0.05,0,0,0.05,51.900000000000006,0)" xlink:href="#ar"/><use transform="matrix(0.05,0,0,0.05,61.900000000000006,0)" xlink:href="#aq"/><use transform="matrix(0.05,0,0,0.05,71.9,0)" xlink:href="#aE"/><use transform="matrix(0.05,0,0,0.05,77.85000000000001,0)" xlink:href="#as"/><use transform="matrix(0.05,0,0,0.05,82.85000000000001,0)" xlink:href="#aJ"/></g><path d="M141 0L90-78 38 0H4l68-98-65-92h35l48 74 47-74h35l-64 92 68 98h-35" id="aT"/><g id="l"><use transform="matrix(0.05,0,0,0.05,0,0)" xlink:href="#aD"/><use transform="matrix(0.05,0,0,0.05,10,0)" xlink:href="#aq"/><use transform="matrix(0.05,0,0,0.05,20,0)" xlink:href="#al"/><use transform="matrix(0.05,0,0,0.05,30,0)" xlink:href="#aT"/><use transform="matrix(0.05,0,0,0.05,39,0)" xlink:href="#am"/></g><path d="M106-169C34-169 62-67 57 0H25v-261h32l-1 103c12-21 28-36 61-36 89 0 53 116 60 194h-32v-121c2-32-8-49-39-48" id="aU"/><path d="M108 0H70L1-190h34L89-25l56-165h34" id="aV"/><g id="m"><use transform="matrix(0.05,0,0,0.05,0,0)" xlink:href="#aU"/><use transform="matrix(0.05,0,0,0.05,10,0)" xlink:href="#aC"/><use transform="matrix(0.05,0,0,0.05,20,0)" xlink:href="#aj"/><use transform="matrix(0.05,0,0,0.05,29,0)" xlink:href="#aG"/><use transform="matrix(0.05,0,0,0.05,41,0)" xlink:href="#aH"/><use transform="matrix(0.05,0,0,0.05,44.95,0)" xlink:href="#aq"/><use transform="matrix(0.05,0,0,0.05,54.95,0)" xlink:href="#aV"/><use transform="matrix(0.05,0,0,0.05,63.95,0)" xlink:href="#aC"/><use transform="matrix(0.05,0,0,0.05,73.95,0)" xlink:href="#as"/><use transform="matrix(0.05,0,0,0.05,78.95,0)" xlink:href="#aB"/><use transform="matrix(0.05,0,0,0.05,82.9,0)" xlink:href="#al"/><use transform="matrix(0.05,0,0,0.05,92.9,0)" xlink:href="#ao"/></g><path d="M26 75v-336h71v23H56V52h41v23H26" id="aW"/><path d="M27 0v-27h64v-190l-56 39v-29l58-41h29v221h61V0H27" id="aX"/><path d="M3 75V52h41v-290H3v-23h71V75H3" id="aY"/><g id="n"><use transform="matrix(0.05,0,0,0.05,0,0)" xlink:href="#aW"/><use transform="matrix(0.05,0,0,0.05,5,0)" xlink:href="#aX"/><use transform="matrix(0.05,0,0,0.05,15,0)" xlink:href="#aY"/></g><g id="o"><use transform="matrix(0.05,0,0,0.05,0,0)" xlink:href="#aU"/><use transform="matrix(0.05,0,0,0.05,10,0)" xlink:href="#aC"/><use transform="matrix(0.05,0,0,0.05,20,0)" xlink:href="#aj"/></g><g id="p"><use transform="matrix(0.05,0,0,0.05,0,0)" xlink:href="#as"/><use transform="matrix(0.05,0,0,0.05,5,0)" xlink:href="#al"/><use transform="matrix(0.05,0,0,0.05,15,0)" xlink:href="#ar"/></g><path d="M101-251c68 0 85 55 85 127S166 4 100 4C33 4 14-52 14-124c0-73 17-127 87-127zm-1 229c47 0 54-49 54-102s-4-102-53-102c-51 0-55 48-55 102 0 53 5 102 54 102" id="aZ"/><path d="M33 0v-38h34V0H33" id="ba"/><g id="q"><use transform="matrix(0.05,0,0,0.05,0,0)" xlink:href="#aW"/><use transform="matrix(0.05,0,0,0.05,5,0)" xlink:href="#aZ"/><use transform="matrix(0.05,0,0,0.05,15,0)" xlink:href="#ba"/><use transform="matrix(0.05,0,0,0.05,20,0)" xlink:href="#ba"/><use transform="matrix(0.05,0,0,0.05,25,0)" xlink:href="#aX"/><use transform="matrix(0.05,0,0,0.05,35,0)" xlink:href="#aY"/></g><g id="r"><use transform="matrix(0.05,0,0,0.05,0,0)" xlink:href="#aU"/><use transform="matrix(0.05,0,0,0.05,10,0)" xlink:href="#aC"/><use transform="matrix(0.05,0,0,0.05,20,0)" xlink:href="#aj"/></g><path d="M115-194c53 0 69 39 70 98 0 66-23 100-70 100C84 3 66-7 56-30L54 0H23l1-261h32v101c10-23 28-34 59-34zm-8 174c40 0 45-34 45-75 0-40-5-75-45-74-42 0-51 32-51 76 0 43 10 73 51 73" id="bb"/><g id="s"><use transform="matrix(0.05,0,0,0.05,0,0)" xlink:href="#bb"/><use transform="matrix(0.05,0,0,0.05,10,0)" xlink:href="#aC"/><use transform="matrix(0.05,0,0,0.05,20,0)" xlink:href="#aj"/><use transform="matrix(0.05,0,0,0.05,29,0)" xlink:href="#aq"/></g><g id="t"><use transform="matrix(0.05,0,0,0.05,0,0)" xlink:href="#aW"/><use transform="matrix(0.05,0,0,0.05,5,0)" xlink:href="#aZ"/><use transform="matrix(0.05,0,0,0.05,15,0)" xlink:href="#ba"/><use transform="matrix(0.05,0,0,0.05,20,0)" xlink:href="#ba"/><use transform="matrix(0.05,0,0,0.05,25,0)" xlink:href="#aX"/><use transform="matrix(0.05,0,0,0.05,35,0)" xlink:href="#aY"/></g><g id="u"><use transform="matrix(0.05,0,0,0.05,0,0)" xlink:href="#aD"/><use transform="matrix(0.05,0,0,0.05,10,0)" xlink:href="#aq"/><use transform="matrix(0.05,0,0,0.05,20,0)" xlink:href="#al"/><use transform="matrix(0.05,0,0,0.05,30,0)" xlink:href="#am"/></g><path d="M143 4C61 4 22-44 18-125c-5-107 100-154 193-111 17 8 29 25 37 43l-32 9c-13-25-37-40-76-40-61 0-88 39-88 99 0 61 29 100 91 101 35 0 62-11 79-27v-45h-74v-28h105v86C228-13 192 4 143 4" id="bc"/><g id="v"><use transform="matrix(0.05,0,0,0.05,0,0)" xlink:href="#aU"/><use transform="matrix(0.05,0,0,0.05,10,0)" xlink:href="#aC"/><use transform="matrix(0.05,0,0,0.05,20,0)" xlink:href="#aj"/><use transform="matrix(0.05,0,0,0.05,29,0)" xlink:href="#bc"/><use transform="matrix(0.05,0,0,0.05,43,0)" xlink:href="#aq"/><use transform="matrix(0.05,0,0,0.05,53,0)" xlink:href="#al"/><use transform="matrix(0.05,0,0,0.05,63,0)" xlink:href="#aF"/><use transform="matrix(0.05,0,0,0.05,77.95,0)" xlink:href="#aq"/><use transform="matrix(0.05,0,0,0.05,87.95,0)" xlink:href="#as"/><use transform="matrix(0.05,0,0,0.05,92.95,0)" xlink:href="#aE"/><use transform="matrix(0.05,0,0,0.05,98.9,0)" xlink:href="#aJ"/></g><path d="M80-196l47-18 7 23-49 13 32 44-20 13-27-46-27 45-21-12 33-44-49-13 8-23 47 19-2-53h23" id="bd"/><g id="w"><use transform="matrix(0.05,0,0,0.05,0,0)" xlink:href="#aW"/><use transform="matrix(0.05,0,0,0.05,5,0)" xlink:href="#aZ"/><use transform="matrix(0.05,0,0,0.05,15,0)" xlink:href="#ba"/><use transform="matrix(0.05,0,0,0.05,20,0)" xlink:href="#ba"/><use transform="matrix(0.05,0,0,0.05,25,0)" xlink:href="#bd"/><use transform="matrix(0.05,0,0,0.05,32,0)" xlink:href="#aY"/></g><g id="x"><use transform="matrix(0.05,0,0,0.05,0,0)" xlink:href="#bc"/><use transform="matrix(0.05,0,0,0.05,14,0)" xlink:href="#aq"/><use transform="matrix(0.05,0,0,0.05,24,0)" xlink:href="#al"/><use transform="matrix(0.05,0,0,0.05,34,0)" xlink:href="#aF"/><use transform="matrix(0.05,0,0,0.05,48.95,0)" xlink:href="#aq"/><use transform="matrix(0.05,0,0,0.05,58.95,0)" xlink:href="#as"/><use transform="matrix(0.05,0,0,0.05,63.95,0)" xlink:href="#aE"/><use transform="matrix(0.05,0,0,0.05,69.9,0)" xlink:href="#aJ"/></g><path d="M137 0h-34L2-248h35l83 218 83-218h36" id="be"/><g id="y"><use transform="matrix(0.05,0,0,0.05,0,0)" xlink:href="#be"/><use transform="matrix(0.05,0,0,0.05,11,0)" xlink:href="#aq"/><use transform="matrix(0.05,0,0,0.05,21,0)" xlink:href="#aE"/><use transform="matrix(0.05,0,0,0.05,26.950000000000003,0)" xlink:href="#as"/><use transform="matrix(0.05,0,0,0.05,31.950000000000003,0)" xlink:href="#aB"/><use transform="matrix(0.05,0,0,0.05,35.9,0)" xlink:href="#ap"/><use transform="matrix(0.05,0,0,0.05,44.9,0)" xlink:href="#aC"/><use transform="matrix(0.05,0,0,0.05,54.900000000000006,0)" xlink:href="#aH"/><use transform="matrix(0.05,0,0,0.05,58.85,0)" xlink:href="#bc"/><use transform="matrix(0.05,0,0,0.05,72.85,0)" xlink:href="#aq"/><use transform="matrix(0.05,0,0,0.05,82.85,0)" xlink:href="#al"/><use transform="matrix(0.05,0,0,0.05,92.85,0)" xlink:href="#aF"/><use transform="matrix(0.05,0,0,0.05,107.80000000000001,0)" xlink:href="#aq"/><use transform="matrix(0.05,0,0,0.05,117.80000000000001,0)" xlink:href="#as"/><use transform="matrix(0.05,0,0,0.05,122.80000000000001,0)" xlink:href="#aE"/><use transform="matrix(0.05,0,0,0.05,128.75,0)" xlink:href="#aJ"/></g><path fill="#fff" d="M177-190C167-65 218 103 67 71c-23-6-38-20-44-43l32-5c15 47 100 32 89-28v-30C133-14 115 1 83 1 29 1 15-40 15-95c0-56 16-97 71-98 29-1 48 16 59 35 1-10 0-23 2-32h30zM94-22c36 0 50-32 50-73 0-42-14-75-50-75-39 0-46 34-46 75s6 73 46 73" id="bf"/><path fill="#fff" d="M145-31C134-9 116 4 85 4 32 4 16-35 15-94c0-59 17-99 70-100 32-1 48 14 60 33 0-11-1-24 2-32h30l-1 268h-32zM93-21c41 0 51-33 51-76s-8-73-50-73c-40 0-46 35-46 75s5 74 45 74" id="bg"/><g id="z"><use transform="matrix(0.05,0,0,0.05,0,0)" xlink:href="#bf"/><use transform="matrix(0.05,0,0,0.05,10,0)" xlink:href="#az"/><use transform="matrix(0.05,0,0,0.05,19,0)" xlink:href="#bg"/><use transform="matrix(0.05,0,0,0.05,29,0)" xlink:href="#aL"/></g><path fill="#fff" d="M137 0h-34L2-248h35l83 218 83-218h36" id="bh"/><path fill="#fff" d="M59-47c-2 24 18 29 38 22v24C64 9 27 4 27-40v-127H5v-23h24l9-43h21v43h35v23H59v120" id="bi"/><path fill="#fff" d="M24-231v-30h32v30H24zM24 0v-190h32V0H24" id="bj"/><path fill="#fff" d="M96-169c-40 0-48 33-48 73s9 75 48 75c24 0 41-14 43-38l32 2c-6 37-31 61-74 61-59 0-76-41-82-99-10-93 101-131 147-64 4 7 5 14 7 22l-32 3c-4-21-16-35-41-35" id="bk"/><path fill="#fff" d="M30-248c118-7 216 8 213 122C240-48 200 0 122 0H30v-248zM63-27c89 8 146-16 146-99s-60-101-146-95v194" id="bl"/><path fill="#fff" d="M84 4C-5 8 30-112 23-190h32v120c0 31 7 50 39 49 72-2 45-101 50-169h31l1 190h-30c-1-10 1-25-2-33-11 22-28 36-60 37" id="bm"/><path fill="#fff" d="M210-169c-67 3-38 105-44 169h-31v-121c0-29-5-50-35-48C34-165 62-65 56 0H25l-1-190h30c1 10-1 24 2 32 10-44 99-50 107 0 11-21 27-35 58-36 85-2 47 119 55 194h-31v-121c0-29-5-49-35-48" id="bn"/><g id="A"><use transform="matrix(0.05,0,0,0.05,0,0)" xlink:href="#bh"/><use transform="matrix(0.05,0,0,0.05,11,0)" xlink:href="#aP"/><use transform="matrix(0.05,0,0,0.05,21,0)" xlink:href="#aO"/><use transform="matrix(0.05,0,0,0.05,26.950000000000003,0)" xlink:href="#bi"/><use transform="matrix(0.05,0,0,0.05,31.950000000000003,0)" xlink:href="#bj"/><use transform="matrix(0.05,0,0,0.05,35.9,0)" xlink:href="#bk"/><use transform="matrix(0.05,0,0,0.05,44.9,0)" xlink:href="#ay"/><use transform="matrix(0.05,0,0,0.05,54.900000000000006,0)" xlink:href="#ax"/><use transform="matrix(0.05,0,0,0.05,58.85,0)" xlink:href="#bl"/><use transform="matrix(0.05,0,0,0.05,71.8,0)" xlink:href="#ay"/><use transform="matrix(0.05,0,0,0.05,81.8,0)" xlink:href="#bi"/><use transform="matrix(0.05,0,0,0.05,86.8,0)" xlink:href="#bm"/><use transform="matrix(0.05,0,0,0.05,96.8,0)" xlink:href="#bn"/></g><path d="M205 0l-28-72H64L36 0H1l101-248h38L239 0h-34zm-38-99l-47-123c-12 45-31 82-46 123h93" id="bo"/><path d="M84 4C-5 8 30-112 23-190h32v120c0 31 7 50 39 49 72-2 45-101 50-169h31l1 190h-30c-1-10 1-25-2-33-11 22-28 36-60 37" id="bp"/><g id="B"><use transform="matrix(0.04938271604938272,0,0,0.04938271604938272,0,0)" xlink:href="#bo"/><use transform="matrix(0.04938271604938272,0,0,0.04938271604938272,11.851851851851853,0)" xlink:href="#bp"/><use transform="matrix(0.04938271604938272,0,0,0.04938271604938272,21.7283950617284,0)" xlink:href="#aj"/><use transform="matrix(0.04938271604938272,0,0,0.04938271604938272,30.617283950617285,0)" xlink:href="#as"/><use transform="matrix(0.04938271604938272,0,0,0.04938271604938272,35.55555555555556,0)" xlink:href="#aE"/><use transform="matrix(0.04938271604938272,0,0,0.04938271604938272,41.4320987654321,0)" xlink:href="#aC"/><use transform="matrix(0.04938271604938272,0,0,0.04938271604938272,51.308641975308646,0)" xlink:href="#aH"/><use transform="matrix(0.04938271604938272,0,0,0.04938271604938272,55.20987654320988,0)" xlink:href="#aB"/><use transform="matrix(0.04938271604938272,0,0,0.04938271604938272,59.111111111111114,0)" xlink:href="#aC"/><use transform="matrix(0.04938271604938272,0,0,0.04938271604938272,68.98765432098766,0)" xlink:href="#ao"/></g><path d="M197 0v-115H63V0H30v-248h33v105h134v-105h34V0h-34" id="bq"/><g id="C"><use transform="matrix(0.04938271604938272,0,0,0.04938271604938272,0,0)" xlink:href="#bq"/><use transform="matrix(0.04938271604938272,0,0,0.04938271604938272,12.790123456790125,0)" xlink:href="#aq"/><use transform="matrix(0.04938271604938272,0,0,0.04938271604938272,22.66666666666667,0)" xlink:href="#aB"/><use transform="matrix(0.04938271604938272,0,0,0.04938271604938272,26.567901234567902,0)" xlink:href="#aD"/><use transform="matrix(0.04938271604938272,0,0,0.04938271604938272,36.44444444444445,0)" xlink:href="#aU"/><use transform="matrix(0.04938271604938272,0,0,0.04938271604938272,46.320987654320994,0)" xlink:href="#as"/></g><g id="D"><use transform="matrix(0.04938271604938272,0,0,0.04938271604938272,0,0)" xlink:href="#aA"/><use transform="matrix(0.04938271604938272,0,0,0.04938271604938272,12.790123456790125,0)" xlink:href="#aC"/><use transform="matrix(0.04938271604938272,0,0,0.04938271604938272,22.66666666666667,0)" xlink:href="#as"/><use transform="matrix(0.04938271604938272,0,0,0.04938271604938272,27.604938271604947,0)" xlink:href="#bp"/><use transform="matrix(0.04938271604938272,0,0,0.04938271604938272,37.48148148148149,0)" xlink:href="#aF"/></g><g id="E"><use transform="matrix(0.05,0,0,0.05,0,0)" xlink:href="#aj"/><use transform="matrix(0.05,0,0,0.05,9,0)" xlink:href="#aC"/><use transform="matrix(0.05,0,0,0.05,19,0)" xlink:href="#aF"/><use transform="matrix(0.05,0,0,0.05,33.95,0)" xlink:href="#am"/><use transform="matrix(0.05,0,0,0.05,38.95,0)" xlink:href="#aV"/><use transform="matrix(0.05,0,0,0.05,47.95,0)" xlink:href="#aq"/><use transform="matrix(0.05,0,0,0.05,57.95,0)" xlink:href="#aE"/><use transform="matrix(0.05,0,0,0.05,63.900000000000006,0)" xlink:href="#as"/><use transform="matrix(0.05,0,0,0.05,68.9,0)" xlink:href="#aB"/><use transform="matrix(0.05,0,0,0.05,72.85000000000001,0)" xlink:href="#ap"/><use transform="matrix(0.05,0,0,0.05,81.85000000000001,0)" xlink:href="#aC"/><use transform="matrix(0.05,0,0,0.05,91.85000000000001,0)" xlink:href="#aH"/><use transform="matrix(0.05,0,0,0.05,95.80000000000001,0)" xlink:href="#aA"/><use transform="matrix(0.05,0,0,0.05,108.75,0)" xlink:href="#aC"/><use transform="matrix(0.05,0,0,0.05,118.75,0)" xlink:href="#as"/><use transform="matrix(0.05,0,0,0.05,123.75,0)" xlink:href="#bp"/><use transform="matrix(0.05,0,0,0.05,133.75,0)" xlink:href="#aF"/></g><path fill="#fff" d="M117-194c89-4 53 116 60 194h-32v-121c0-31-8-49-39-48C34-167 62-67 57 0H25l-1-190h30c1 10-1 24 2 32 11-22 29-35 61-36" id="br"/><path fill="#fff" d="M179-190L93 31C79 59 56 82 12 73V49c39 6 53-20 64-50L1-190h34L92-34l54-156h33" id="bs"/><g id="F"><use transform="matrix(0.05,0,0,0.05,0,0)" xlink:href="#bf"/><use transform="matrix(0.05,0,0,0.05,10,0)" xlink:href="#az"/><use transform="matrix(0.05,0,0,0.05,19,0)" xlink:href="#bg"/><use transform="matrix(0.05,0,0,0.05,29,0)" xlink:href="#aL"/><use transform="matrix(0.05,0,0,0.05,34,0)" xlink:href="#av"/><use transform="matrix(0.05,0,0,0.05,48,0)" xlink:href="#bm"/><use transform="matrix(0.05,0,0,0.05,58,0)" xlink:href="#ay"/><use transform="matrix(0.05,0,0,0.05,68,0)" xlink:href="#br"/><use transform="matrix(0.05,0,0,0.05,78,0)" xlink:href="#bi"/><use transform="matrix(0.05,0,0,0.05,83,0)" xlink:href="#bj"/><use transform="matrix(0.05,0,0,0.05,86.95,0)" xlink:href="#bi"/><use transform="matrix(0.05,0,0,0.05,91.95,0)" xlink:href="#bs"/></g><g id="G"><use transform="matrix(0.05,0,0,0.05,0,0)" xlink:href="#ar"/><use transform="matrix(0.05,0,0,0.05,10,0)" xlink:href="#aE"/><use transform="matrix(0.05,0,0,0.05,15.949999999999998,0)" xlink:href="#al"/><use transform="matrix(0.05,0,0,0.05,25.950000000000003,0)" xlink:href="#aV"/><use transform="matrix(0.05,0,0,0.05,34.95,0)" xlink:href="#am"/></g><g id="H"><use transform="matrix(0.05,0,0,0.05,0,0)" xlink:href="#bo"/><use transform="matrix(0.05,0,0,0.05,12,0)" xlink:href="#aD"/><use transform="matrix(0.05,0,0,0.05,22,0)" xlink:href="#aq"/><use transform="matrix(0.05,0,0,0.05,32,0)" xlink:href="#ao"/><use transform="matrix(0.05,0,0,0.05,42,0)" xlink:href="#as"/></g><g id="I"><use transform="matrix(0.05,0,0,0.05,0,0)" xlink:href="#am"/><use transform="matrix(0.05,0,0,0.05,5,0)" xlink:href="#aR"/><use transform="matrix(0.05,0,0,0.05,15,0)" xlink:href="#aE"/><use transform="matrix(0.05,0,0,0.05,20.95,0)" xlink:href="#aB"/><use transform="matrix(0.05,0,0,0.05,24.9,0)" xlink:href="#aH"/><use transform="matrix(0.05,0,0,0.05,28.849999999999994,0)" xlink:href="#aH"/><use transform="matrix(0.05,0,0,0.05,32.8,0)" xlink:href="#aq"/><use transform="matrix(0.05,0,0,0.05,42.8,0)" xlink:href="#aE"/></g><path d="M190 0L58-211 59 0H30v-248h39L202-35l-2-213h31V0h-41" id="bt"/><g id="J"><use transform="matrix(0.05,0,0,0.05,0,0)" xlink:href="#aW"/><use transform="matrix(0.05,0,0,0.05,5,0)" xlink:href="#aZ"/><use transform="matrix(0.05,0,0,0.05,15,0)" xlink:href="#ba"/><use transform="matrix(0.05,0,0,0.05,20,0)" xlink:href="#ba"/><use transform="matrix(0.05,0,0,0.05,25,0)" xlink:href="#bt"/><use transform="matrix(0.05,0,0,0.05,37.95,0)" xlink:href="#aY"/></g><g id="K"><use transform="matrix(0.05,0,0,0.05,0,0)" xlink:href="#am"/><use transform="matrix(0.05,0,0,0.05,5,0)" xlink:href="#al"/><use transform="matrix(0.05,0,0,0.05,15,0)" xlink:href="#ar"/><use transform="matrix(0.05,0,0,0.05,25,0)" xlink:href="#aq"/><use transform="matrix(0.05,0,0,0.05,35,0)" xlink:href="#aE"/><use transform="matrix(0.05,0,0,0.05,40.95,0)" xlink:href="#aC"/><use transform="matrix(0.05,0,0,0.05,50.95,0)" xlink:href="#as"/><use transform="matrix(0.05,0,0,0.05,55.95,0)" xlink:href="#al"/><use transform="matrix(0.05,0,0,0.05,65.95,0)" xlink:href="#aE"/></g><path d="M30 0v-248h33v221h125V0H30" id="bu"/><g id="L"><use transform="matrix(0.05,0,0,0.05,0,0)" xlink:href="#bu"/><use transform="matrix(0.05,0,0,0.05,10,0)" xlink:href="#aB"/><use transform="matrix(0.05,0,0,0.05,13.949999999999998,0)" xlink:href="#as"/><use transform="matrix(0.05,0,0,0.05,18.95,0)" xlink:href="#aq"/><use transform="matrix(0.05,0,0,0.05,28.950000000000003,0)" xlink:href="#aE"/><use transform="matrix(0.05,0,0,0.05,34.9,0)" xlink:href="#aC"/><use transform="matrix(0.05,0,0,0.05,44.9,0)" xlink:href="#aH"/></g><path d="M127-220V0H93v-220H8v-28h204v28h-85" id="bv"/><g id="M"><use transform="matrix(0.05,0,0,0.05,0,0)" xlink:href="#am"/><use transform="matrix(0.05,0,0,0.05,5,0)" xlink:href="#aU"/><use transform="matrix(0.05,0,0,0.05,15,0)" xlink:href="#aC"/><use transform="matrix(0.05,0,0,0.05,25,0)" xlink:href="#aR"/><use transform="matrix(0.05,0,0,0.05,35,0)" xlink:href="#aA"/><use transform="matrix(0.05,0,0,0.05,47.95,0)" xlink:href="#aE"/><use transform="matrix(0.05,0,0,0.05,53.900000000000006,0)" xlink:href="#aB"/><use transform="matrix(0.05,0,0,0.05,57.85,0)" xlink:href="#aH"/><use transform="matrix(0.05,0,0,0.05,61.80000000000001,0)" xlink:href="#aH"/><use transform="matrix(0.05,0,0,0.05,65.75000000000001,0)" xlink:href="#aB"/><use transform="matrix(0.05,0,0,0.05,69.70000000000002,0)" xlink:href="#ao"/><use transform="matrix(0.05,0,0,0.05,79.70000000000002,0)" xlink:href="#aD"/><use transform="matrix(0.05,0,0,0.05,89.70000000000002,0)" xlink:href="#bv"/><use transform="matrix(0.05,0,0,0.05,100.00000000000001,0)" xlink:href="#aB"/><use transform="matrix(0.05,0,0,0.05,103.95,0)" xlink:href="#aF"/><use transform="matrix(0.05,0,0,0.05,118.90000000000003,0)" xlink:href="#aq"/></g><g id="N"><use transform="matrix(0.05,0,0,0.05,0,0)" xlink:href="#as"/><use transform="matrix(0.05,0,0,0.05,5,0)" xlink:href="#aB"/><use transform="matrix(0.05,0,0,0.05,8.95,0)" xlink:href="#aF"/><use transform="matrix(0.05,0,0,0.05,23.9,0)" xlink:href="#aq"/><use transform="matrix(0.05,0,0,0.05,33.9,0)" xlink:href="#am"/></g><path d="M33 0v-248h34V0H33" id="bw"/><g id="O"><use transform="matrix(0.05,0,0,0.05,0,0)" xlink:href="#bw"/><use transform="matrix(0.05,0,0,0.05,5,0)" xlink:href="#ao"/><use transform="matrix(0.05,0,0,0.05,15,0)" xlink:href="#as"/><use transform="matrix(0.05,0,0,0.05,20,0)" xlink:href="#aq"/><use transform="matrix(0.05,0,0,0.05,30,0)" xlink:href="#aE"/><use transform="matrix(0.05,0,0,0.05,35.95,0)" xlink:href="#aV"/><use transform="matrix(0.05,0,0,0.05,44.95,0)" xlink:href="#aC"/><use transform="matrix(0.05,0,0,0.05,54.95,0)" xlink:href="#aH"/></g><path d="M160-131c35 5 61 23 61 61C221 17 115-2 30 0v-248c76 3 177-17 177 60 0 33-19 50-47 57zm-97-11c50-1 110 9 110-42 0-47-63-36-110-37v79zm0 115c55-2 124 14 124-45 0-56-70-42-124-44v89" id="bx"/><g id="P"><use transform="matrix(0.05,0,0,0.05,0,0)" xlink:href="#bx"/><use transform="matrix(0.05,0,0,0.05,12,0)" xlink:href="#al"/><use transform="matrix(0.05,0,0,0.05,22,0)" xlink:href="#aE"/><use transform="matrix(0.05,0,0,0.05,27.950000000000003,0)" xlink:href="#aq"/><use transform="matrix(0.05,0,0,0.05,37.95,0)" xlink:href="#aU"/><use transform="matrix(0.05,0,0,0.05,47.95,0)" xlink:href="#al"/><use transform="matrix(0.05,0,0,0.05,57.95,0)" xlink:href="#aH"/><use transform="matrix(0.05,0,0,0.05,61.900000000000006,0)" xlink:href="#aq"/></g><g id="Q"><use transform="matrix(0.05,0,0,0.05,0,0)" xlink:href="#bw"/><use transform="matrix(0.05,0,0,0.05,5,0)" xlink:href="#ao"/><use transform="matrix(0.05,0,0,0.05,15,0)" xlink:href="#ap"/><use transform="matrix(0.05,0,0,0.05,24,0)" xlink:href="#aH"/><use transform="matrix(0.05,0,0,0.05,27.950000000000003,0)" xlink:href="#aB"/><use transform="matrix(0.05,0,0,0.05,31.899999999999995,0)" xlink:href="#ao"/><use transform="matrix(0.05,0,0,0.05,41.9,0)" xlink:href="#aC"/><use transform="matrix(0.05,0,0,0.05,51.900000000000006,0)" xlink:href="#as"/><use transform="matrix(0.05,0,0,0.05,56.900000000000006,0)" xlink:href="#aB"/><use transform="matrix(0.05,0,0,0.05,60.85,0)" xlink:href="#al"/><use transform="matrix(0.05,0,0,0.05,70.85,0)" xlink:href="#ao"/></g><g id="R"><use transform="matrix(0.05,0,0,0.05,0,0)" xlink:href="#bx"/><use transform="matrix(0.05,0,0,0.05,12,0)" xlink:href="#al"/><use transform="matrix(0.05,0,0,0.05,22,0)" xlink:href="#aE"/><use transform="matrix(0.05,0,0,0.05,27.950000000000003,0)" xlink:href="#aq"/><use transform="matrix(0.05,0,0,0.05,37.95,0)" xlink:href="#aU"/><use transform="matrix(0.05,0,0,0.05,47.95,0)" xlink:href="#al"/><use transform="matrix(0.05,0,0,0.05,57.95,0)" xlink:href="#aH"/><use transform="matrix(0.05,0,0,0.05,61.900000000000006,0)" xlink:href="#aq"/></g><path d="M185-189c-5-48-123-54-124 2 14 75 158 14 163 119 3 78-121 87-175 55-17-10-28-26-33-46l33-7c5 56 141 63 141-1 0-78-155-14-162-118-5-82 145-84 179-34 5 7 8 16 11 25" id="by"/><g id="S"><use transform="matrix(0.05,0,0,0.05,0,0)" xlink:href="#by"/><use transform="matrix(0.05,0,0,0.05,12,0)" xlink:href="#bp"/><use transform="matrix(0.05,0,0,0.05,22,0)" xlink:href="#aE"/><use transform="matrix(0.05,0,0,0.05,27.950000000000003,0)" xlink:href="#aS"/><use transform="matrix(0.05,0,0,0.05,32.95,0)" xlink:href="#aC"/><use transform="matrix(0.05,0,0,0.05,42.95,0)" xlink:href="#ap"/><use transform="matrix(0.05,0,0,0.05,51.95,0)" xlink:href="#aq"/></g><g id="T"><use transform="matrix(0.05,0,0,0.05,0,0)" xlink:href="#an"/><use transform="matrix(0.05,0,0,0.05,12.950000000000001,0)" xlink:href="#aB"/><use transform="matrix(0.05,0,0,0.05,16.900000000000002,0)" xlink:href="#aE"/><use transform="matrix(0.05,0,0,0.05,22.85,0)" xlink:href="#ap"/><use transform="matrix(0.05,0,0,0.05,31.85,0)" xlink:href="#bp"/><use transform="matrix(0.05,0,0,0.05,41.85,0)" xlink:href="#aF"/><use transform="matrix(0.05,0,0,0.05,56.800000000000004,0)" xlink:href="#aj"/><use transform="matrix(0.05,0,0,0.05,65.80000000000001,0)" xlink:href="#as"/><use transform="matrix(0.05,0,0,0.05,70.80000000000001,0)" xlink:href="#aC"/><use transform="matrix(0.05,0,0,0.05,80.80000000000001,0)" xlink:href="#ao"/><use transform="matrix(0.05,0,0,0.05,90.80000000000001,0)" xlink:href="#ap"/><use transform="matrix(0.05,0,0,0.05,99.80000000000001,0)" xlink:href="#aq"/></g><g id="U"><use transform="matrix(0.05,0,0,0.05,0,0)" xlink:href="#by"/><use transform="matrix(0.05,0,0,0.05,12,0)" xlink:href="#as"/><use transform="matrix(0.05,0,0,0.05,17,0)" xlink:href="#aC"/><use transform="matrix(0.05,0,0,0.05,27,0)" xlink:href="#as"/><use transform="matrix(0.05,0,0,0.05,32,0)" xlink:href="#bp"/><use transform="matrix(0.05,0,0,0.05,42,0)" xlink:href="#aj"/></g><g id="V"><use transform="matrix(0.05,0,0,0.05,0,0)" xlink:href="#bx"/><use transform="matrix(0.05,0,0,0.05,12,0)" xlink:href="#al"/><use transform="matrix(0.05,0,0,0.05,22,0)" xlink:href="#aE"/><use transform="matrix(0.05,0,0,0.05,27.950000000000003,0)" xlink:href="#aq"/><use transform="matrix(0.05,0,0,0.05,37.95,0)" xlink:href="#aU"/><use transform="matrix(0.05,0,0,0.05,47.95,0)" xlink:href="#al"/><use transform="matrix(0.05,0,0,0.05,57.95,0)" xlink:href="#aH"/><use transform="matrix(0.05,0,0,0.05,61.900000000000006,0)" xlink:href="#aq"/></g><path d="M30-248c87 1 191-15 191 75 0 78-77 80-158 76V0H30v-248zm33 125c57 0 124 11 124-50 0-59-68-47-124-48v98" id="bz"/><g id="W"><use transform="matrix(0.05,0,0,0.05,0,0)" xlink:href="#bz"/><use transform="matrix(0.05,0,0,0.05,12,0)" xlink:href="#bp"/><use transform="matrix(0.05,0,0,0.05,22,0)" xlink:href="#aE"/><use transform="matrix(0.05,0,0,0.05,27.950000000000003,0)" xlink:href="#ar"/><use transform="matrix(0.05,0,0,0.05,37.95,0)" xlink:href="#al"/><use transform="matrix(0.05,0,0,0.05,47.95,0)" xlink:href="#aj"/><use transform="matrix(0.05,0,0,0.05,56.95,0)" xlink:href="#aq"/></g><g id="X"><use transform="matrix(0.05,0,0,0.05,0,0)" xlink:href="#aA"/><use transform="matrix(0.05,0,0,0.05,12.950000000000001,0)" xlink:href="#aE"/><use transform="matrix(0.05,0,0,0.05,18.900000000000002,0)" xlink:href="#aB"/><use transform="matrix(0.05,0,0,0.05,22.85,0)" xlink:href="#aH"/><use transform="matrix(0.05,0,0,0.05,26.8,0)" xlink:href="#aH"/><use transform="matrix(0.05,0,0,0.05,30.75,0)" xlink:href="#aB"/><use transform="matrix(0.05,0,0,0.05,34.7,0)" xlink:href="#ao"/><use transform="matrix(0.05,0,0,0.05,44.7,0)" xlink:href="#aD"/></g><path d="M240 0l2-218c-23 76-54 145-80 218h-23L58-218 59 0H30v-248h44l77 211c21-75 51-140 76-211h43V0h-30" id="bA"/><g id="Y"><use transform="matrix(0.05,0,0,0.05,0,0)" xlink:href="#bA"/><use transform="matrix(0.05,0,0,0.05,14.950000000000001,0)" xlink:href="#aq"/><use transform="matrix(0.05,0,0,0.05,24.950000000000003,0)" xlink:href="#as"/><use transform="matrix(0.05,0,0,0.05,29.950000000000003,0)" xlink:href="#aU"/><use transform="matrix(0.05,0,0,0.05,39.95,0)" xlink:href="#al"/><use transform="matrix(0.05,0,0,0.05,49.95,0)" xlink:href="#aR"/></g><g id="Z"><use transform="matrix(0.05,0,0,0.05,0,0)" xlink:href="#am"/><use transform="matrix(0.05,0,0,0.05,5,0)" xlink:href="#aU"/><use transform="matrix(0.05,0,0,0.05,15,0)" xlink:href="#aC"/><use transform="matrix(0.05,0,0,0.05,25,0)" xlink:href="#aj"/><use transform="matrix(0.05,0,0,0.05,34,0)" xlink:href="#bz"/><use transform="matrix(0.05,0,0,0.05,46,0)" xlink:href="#bp"/><use transform="matrix(0.05,0,0,0.05,56,0)" xlink:href="#aE"/><use transform="matrix(0.05,0,0,0.05,61.95,0)" xlink:href="#ar"/><use transform="matrix(0.05,0,0,0.05,71.95,0)" xlink:href="#al"/><use transform="matrix(0.05,0,0,0.05,81.95,0)" xlink:href="#aj"/><use transform="matrix(0.05,0,0,0.05,90.95,0)" xlink:href="#aq"/></g><g id="aa"><use transform="matrix(0.05,0,0,0.05,0,0)" xlink:href="#am"/><use transform="matrix(0.05,0,0,0.05,5,0)" xlink:href="#am"/><use transform="matrix(0.05,0,0,0.05,10,0)" xlink:href="#aU"/><use transform="matrix(0.05,0,0,0.05,20,0)" xlink:href="#aC"/><use transform="matrix(0.05,0,0,0.05,30,0)" xlink:href="#aj"/><use transform="matrix(0.05,0,0,0.05,39,0)" xlink:href="#bw"/><use transform="matrix(0.05,0,0,0.05,44,0)" xlink:href="#ao"/><use transform="matrix(0.05,0,0,0.05,54,0)" xlink:href="#ap"/><use transform="matrix(0.05,0,0,0.05,63,0)" xlink:href="#aH"/><use transform="matrix(0.05,0,0,0.05,66.95,0)" xlink:href="#aB"/><use transform="matrix(0.05,0,0,0.05,70.9,0)" xlink:href="#ao"/><use transform="matrix(0.05,0,0,0.05,80.9,0)" xlink:href="#aC"/><use transform="matrix(0.05,0,0,0.05,90.9,0)" xlink:href="#as"/><use transform="matrix(0.05,0,0,0.05,95.9,0)" xlink:href="#aB"/><use transform="matrix(0.05,0,0,0.05,99.85000000000001,0)" xlink:href="#al"/><use transform="matrix(0.05,0,0,0.05,109.85000000000001,0)" xlink:href="#ao"/></g><g id="ab"><use transform="matrix(0.05,0,0,0.05,0,0)" xlink:href="#am"/><use transform="matrix(0.05,0,0,0.05,5,0)" xlink:href="#aU"/><use transform="matrix(0.05,0,0,0.05,15,0)" xlink:href="#aC"/><use transform="matrix(0.05,0,0,0.05,25,0)" xlink:href="#aj"/><use transform="matrix(0.05,0,0,0.05,34,0)" xlink:href="#by"/><use transform="matrix(0.05,0,0,0.05,46,0)" xlink:href="#bp"/><use transform="matrix(0.05,0,0,0.05,56,0)" xlink:href="#aE"/><use transform="matrix(0.05,0,0,0.05,61.95,0)" xlink:href="#aS"/><use transform="matrix(0.05,0,0,0.05,66.95,0)" xlink:href="#aC"/><use transform="matrix(0.05,0,0,0.05,76.95,0)" xlink:href="#ap"/><use transform="matrix(0.05,0,0,0.05,85.95,0)" xlink:href="#aq"/><use transform="matrix(0.05,0,0,0.05,95.95,0)" xlink:href="#an"/><use transform="matrix(0.05,0,0,0.05,108.9,0)" xlink:href="#aB"/><use transform="matrix(0.05,0,0,0.05,112.85000000000001,0)" xlink:href="#aE"/><use transform="matrix(0.05,0,0,0.05,118.80000000000001,0)" xlink:href="#ap"/><use transform="matrix(0.05,0,0,0.05,127.80000000000001,0)" xlink:href="#bp"/><use transform="matrix(0.05,0,0,0.05,137.8,0)" xlink:href="#aF"/><use transform="matrix(0.05,0,0,0.05,152.75,0)" xlink:href="#aj"/><use transform="matrix(0.05,0,0,0.05,161.75,0)" xlink:href="#as"/><use transform="matrix(0.05,0,0,0.05,166.75,0)" xlink:href="#aC"/><use transform="matrix(0.05,0,0,0.05,176.75,0)" xlink:href="#ao"/><use transform="matrix(0.05,0,0,0.05,186.75,0)" xlink:href="#ap"/><use transform="matrix(0.05,0,0,0.05,195.75,0)" xlink:href="#aq"/></g><g id="ac"><use transform="matrix(0.05,0,0,0.05,0,0)" xlink:href="#am"/><use transform="matrix(0.05,0,0,0.05,5,0)" xlink:href="#aU"/><use transform="matrix(0.05,0,0,0.05,15,0)" xlink:href="#aC"/><use transform="matrix(0.05,0,0,0.05,25,0)" xlink:href="#aj"/><use transform="matrix(0.05,0,0,0.05,34,0)" xlink:href="#by"/><use transform="matrix(0.05,0,0,0.05,46,0)" xlink:href="#as"/><use transform="matrix(0.05,0,0,0.05,51,0)" xlink:href="#aC"/><use transform="matrix(0.05,0,0,0.05,61,0)" xlink:href="#as"/><use transform="matrix(0.05,0,0,0.05,66,0)" xlink:href="#bp"/><use transform="matrix(0.05,0,0,0.05,76,0)" xlink:href="#aj"/></g><g id="ad"><use transform="matrix(0.05,0,0,0.05,0,0)" xlink:href="#am"/><use transform="matrix(0.05,0,0,0.05,5,0)" xlink:href="#aU"/><use transform="matrix(0.05,0,0,0.05,15,0)" xlink:href="#aC"/><use transform="matrix(0.05,0,0,0.05,25,0)" xlink:href="#aR"/><use transform="matrix(0.05,0,0,0.05,35,0)" xlink:href="#aA"/><use transform="matrix(0.05,0,0,0.05,47.95,0)" xlink:href="#aE"/><use transform="matrix(0.05,0,0,0.05,53.900000000000006,0)" xlink:href="#aB"/><use transform="matrix(0.05,0,0,0.05,57.85,0)" xlink:href="#aH"/><use transform="matrix(0.05,0,0,0.05,61.80000000000001,0)" xlink:href="#aH"/><use transform="matrix(0.05,0,0,0.05,65.75000000000001,0)" xlink:href="#aB"/><use transform="matrix(0.05,0,0,0.05,69.70000000000002,0)" xlink:href="#ao"/><use transform="matrix(0.05,0,0,0.05,79.70000000000002,0)" xlink:href="#aD"/><use transform="matrix(0.05,0,0,0.05,89.70000000000002,0)" xlink:href="#bA"/><use transform="matrix(0.05,0,0,0.05,104.65000000000003,0)" xlink:href="#aq"/><use transform="matrix(0.05,0,0,0.05,114.65000000000003,0)" xlink:href="#as"/><use transform="matrix(0.05,0,0,0.05,119.65000000000003,0)" xlink:href="#aU"/><use transform="matrix(0.05,0,0,0.05,129.65000000000003,0)" xlink:href="#al"/><use transform="matrix(0.05,0,0,0.05,139.65000000000003,0)" xlink:href="#aR"/></g><path d="M140-251c81 0 123 46 123 126C263-46 219 4 140 4 59 4 17-45 17-125s42-126 123-126zm0 227c63 0 89-41 89-101s-29-99-89-99c-61 0-89 39-89 99S79-25 140-24" id="bB"/><g id="ae"><use transform="matrix(0.05,0,0,0.05,0,0)" xlink:href="#aE"/><use transform="matrix(0.05,0,0,0.05,5.95,0)" xlink:href="#aR"/><use transform="matrix(0.05,0,0,0.05,15.949999999999998,0)" xlink:href="#aS"/><use transform="matrix(0.05,0,0,0.05,20.95,0)" xlink:href="#aj"/><use transform="matrix(0.05,0,0,0.05,29.950000000000003,0)" xlink:href="#am"/><use transform="matrix(0.05,0,0,0.05,34.95,0)" xlink:href="#aj"/><use transform="matrix(0.05,0,0,0.05,43.95,0)" xlink:href="#bp"/><use transform="matrix(0.05,0,0,0.05,53.95,0)" xlink:href="#bb"/><use transform="matrix(0.05,0,0,0.05,63.95,0)" xlink:href="#an"/><use transform="matrix(0.05,0,0,0.05,76.9,0)" xlink:href="#aH"/><use transform="matrix(0.05,0,0,0.05,80.85000000000001,0)" xlink:href="#aC"/><use transform="matrix(0.05,0,0,0.05,90.85000000000001,0)" xlink:href="#aj"/><use transform="matrix(0.05,0,0,0.05,99.85000000000001,0)" xlink:href="#aj"/><use transform="matrix(0.05,0,0,0.05,108.85000000000001,0)" xlink:href="#bB"/><use transform="matrix(0.05,0,0,0.05,122.85000000000001,0)" xlink:href="#aS"/></g><g id="af"><use transform="matrix(0.05,0,0,0.05,0,0)" xlink:href="#aR"/><use transform="matrix(0.05,0,0,0.05,10,0)" xlink:href="#aB"/><use transform="matrix(0.05,0,0,0.05,13.949999999999998,0)" xlink:href="#aC"/><use transform="matrix(0.05,0,0,0.05,23.95,0)" xlink:href="#aF"/><use transform="matrix(0.05,0,0,0.05,38.9,0)" xlink:href="#aq"/><use transform="matrix(0.05,0,0,0.05,48.9,0)" xlink:href="#as"/><use transform="matrix(0.05,0,0,0.05,53.900000000000006,0)" xlink:href="#aq"/><use transform="matrix(0.05,0,0,0.05,63.900000000000006,0)" xlink:href="#aE"/></g><g id="ag"><use transform="matrix(0.05,0,0,0.05,0,0)" xlink:href="#aC"/><use transform="matrix(0.05,0,0,0.05,10,0)" xlink:href="#aj"/><use transform="matrix(0.05,0,0,0.05,19,0)" xlink:href="#aD"/><use transform="matrix(0.05,0,0,0.05,29,0)" xlink:href="#aj"/><use transform="matrix(0.05,0,0,0.05,38,0)" xlink:href="#am"/></g><g id="ah"><use transform="matrix(0.05,0,0,0.05,0,0)" xlink:href="#by"/><use transform="matrix(0.05,0,0,0.05,12,0)" xlink:href="#as"/><use transform="matrix(0.05,0,0,0.05,17,0)" xlink:href="#aC"/><use transform="matrix(0.05,0,0,0.05,27,0)" xlink:href="#as"/><use transform="matrix(0.05,0,0,0.05,32,0)" xlink:href="#aq"/><use transform="matrix(0.05,0,0,0.05,42,0)" xlink:href="#bB"/><use transform="matrix(0.05,0,0,0.05,56,0)" xlink:href="#aE"/><use transform="matrix(0.05,0,0,0.05,61.95,0)" xlink:href="#bv"/><use transform="matrix(0.05,0,0,0.05,70.9,0)" xlink:href="#aq"/><use transform="matrix(0.05,0,0,0.05,80.9,0)" xlink:href="#aE"/><use transform="matrix(0.05,0,0,0.05,86.85000000000001,0)" xlink:href="#aE"/><use transform="matrix(0.05,0,0,0.05,92.80000000000001,0)" xlink:href="#aB"/><use transform="matrix(0.05,0,0,0.05,96.75000000000001,0)" xlink:href="#as"/><use transform="matrix(0.05,0,0,0.05,101.75000000000001,0)" xlink:href="#al"/><use transform="matrix(0.05,0,0,0.05,111.75,0)" xlink:href="#aE"/><use transform="matrix(0.05,0,0,0.05,117.7,0)" xlink:href="#aJ"/></g><g id="ai"><use transform="matrix(0.05,0,0,0.05,0,0)" xlink:href="#am"/><use transform="matrix(0.05,0,0,0.05,5,0)" xlink:href="#aU"/><use transform="matrix(0.05,0,0,0.05,15,0)" xlink:href="#aC"/><use transform="matrix(0.05,0,0,0.05,25,0)" xlink:href="#aj"/><use transform="matrix(0.05,0,0,0.05,34,0)" xlink:href="#by"/><use transform="matrix(0.05,0,0,0.05,46,0)" xlink:href="#as"/><use transform="matrix(0.05,0,0,0.05,51,0)" xlink:href="#aC"/><use transform="matrix(0.05,0,0,0.05,61,0)" xlink:href="#as"/><use transform="matrix(0.05,0,0,0.05,66,0)" xlink:href="#aq"/></g></defs></g></svg>