<svg xmlns="http://www.w3.org/2000/svg" xmlns:xlink="http://www.w3.org/1999/xlink" xmlns:lucid="lucid" width="863.41" height="760"><g transform="translate(1.7026683608640099 1.7026683608640383)" lucid:page-tab-id="0UnbxgOwX9Pl"><path d="M0 0h1069.48v756.6H0z" fill="#fff"/><path d="M619.3 578.3h100.5M619.32 578.3h-1.02" stroke="#000" stroke-width="2" fill="none"/><path d="M735.06 578.3l-14.26 4.63v-9.27z" stroke="#000" stroke-width="2" fill="#fff"/><path d="M603.6 368.6c0-2.76 2.24-5 5-5h150c2.76 0 5 2.24 5 5v110c0 2.76-2.24 5-5 5h-150c-2.76 0-5-2.24-5-5z" stroke="#000" stroke-width="2" fill="#b2b2b2"/><use xlink:href="#a" transform="matrix(1,0,0,1,611.6009013461858,371.60090134618565) translate(51 44.8)"/><use xlink:href="#b" transform="matrix(1,0,0,1,611.6009013461858,371.60090134618565) translate(38.525 66.4)"/><path d="M603.6 228.6c0-2.76 2.24-5 5-5h150c2.76 0 5 2.24 5 5v110c0 2.76-2.24 5-5 5h-150c-2.76 0-5-2.24-5-5z" stroke="#000" stroke-width="2" fill="#666"/><use xlink:href="#c" transform="matrix(1,0,0,1,611.6009013461858,231.60090134618565) translate(27.049999999999997 55.6)"/><use xlink:href="#d" transform="matrix(1,0,0,1,611.6009013461858,231.60090134618565) translate(72.05 55.6)"/><path d="M603.6 28.6c0-2.76 2.24-5 5-5h190c2.76 0 5 2.24 5 5v50c0 2.76-2.24 5-5 5h-190c-2.76 0-5-2.24-5-5z" stroke="#000" stroke-opacity="0" stroke-width="2" fill="#fff" fill-opacity="0"/><use xlink:href="#e" transform="matrix(1,0,0,1,608.6009013461858,28.600901346185665) translate(0 28.6)"/><use xlink:href="#f" transform="matrix(1,0,0,1,608.6009013461858,28.600901346185665) translate(72.80000000000001 28.6)"/><use xlink:href="#g" transform="matrix(1,0,0,1,608.6009013461858,28.600901346185665) translate(143.70000000000002 28.6)"/><path d="M603.6 85.93c0-2.76 2.24-5 5-5h150c2.76 0 5 2.24 5 5v110c0 2.77-2.24 5-5 5h-150c-2.76 0-5-2.23-5-5z" stroke="#000" stroke-width="2" fill="#fff"/><use xlink:href="#h" transform="matrix(1,0,0,1,611.6009013461858,88.93423467951902) translate(56.05 44.8)"/><use xlink:href="#i" transform="matrix(1,0,0,1,611.6009013461858,88.93423467951902) translate(49.55 66.4)"/><path d="M618.3 523.3c0-2.76 2.24-5 5-5h110c2.76 0 5 2.24 5 5v30c0 2.76-2.24 5-5 5h-110c-2.76 0-5-2.24-5-5z" stroke="#000" stroke-opacity="0" stroke-width="2" fill="#fff" fill-opacity="0"/><use xlink:href="#j" transform="matrix(1,0,0,1,623.297331639136,523.297331639136) translate(0 22.799999999999997)"/><path d="M603.6 638.3h160v40h-160z" stroke="#000" fill="#fff"/><use xlink:href="#k" transform="matrix(1,0,0,1,608.6009013461858,643.297331639136) translate(50.575 18.6)"/><path d="M619.3 518.3h107.18M619.32 518.3h-1.02M709.12 528.48l17.2-10.18-17.2-10.18" stroke="#000" stroke-width="2" fill="none"/><path d="M618.3 583.3c0-2.76 2.24-5 5-5h150c2.76 0 5 2.24 5 5v30c0 2.76-2.24 5-5 5h-150c-2.76 0-5-2.24-5-5z" stroke="#000" stroke-opacity="0" stroke-width="2" fill="#fff" fill-opacity="0"/><use xlink:href="#l" transform="matrix(1,0,0,1,623.297331639136,583.297331639136) translate(0 22.799999999999997)"/><path d="M138.3 223.3c0-2.76 2.24-5 5-5h150c2.76 0 5 2.24 5 5v110c0 2.76-2.24 5-5 5h-150c-2.76 0-5-2.24-5-5z" stroke="#000" stroke-width="2" fill="#666"/><use xlink:href="#m" transform="matrix(1,0,0,1,146.29733163913596,226.29733163913596) translate(39.525 55.6)"/><path d="M378.3 223.3c0-2.76 2.24-5 5-5h150c2.76 0 5 2.24 5 5v110c0 2.76-2.24 5-5 5h-150c-2.76 0-5-2.24-5-5z" stroke="#000" stroke-width="2" fill="#666"/><use xlink:href="#n" transform="matrix(1,0,0,1,386.297331639136,226.29733163913596) translate(33.55 55.6)"/><path d="M376.3 278.3h-58.5" stroke="#000" stroke-width="2" fill="none"/><path d="M377.3 279.3h-1.03v-2h1.03z"/><path d="M302.53 278.3l14.27-4.64v9.27zM138.3 423.3c0-2.76 2.24-5 5-5h150c2.76 0 5 2.24 5 5v110c0 2.76-2.24 5-5 5h-150c-2.76 0-5-2.24-5-5z" stroke="#000" stroke-width="2" fill="#fff"/><use xlink:href="#o" transform="matrix(1,0,0,1,146.29733163913596,426.2973316391359) translate(50.5 44.8)"/><use xlink:href="#p" transform="matrix(1,0,0,1,146.29733163913596,426.2973316391359) translate(41.55 66.4)"/><path d="M138.3 623.3c0-2.76 2.24-5 5-5h150c2.76 0 5 2.24 5 5v110c0 2.76-2.24 5-5 5h-150c-2.76 0-5-2.24-5-5z" stroke="#000" stroke-width="2" fill="#fff"/><use xlink:href="#o" transform="matrix(1,0,0,1,146.29733163913596,626.297331639136) translate(50.5 44.8)"/><use xlink:href="#q" transform="matrix(1,0,0,1,146.29733163913596,626.297331639136) translate(34.574999999999996 66.4)"/><path d="M138.3 23.3c0-2.76 2.24-5 5-5h150c2.76 0 5 2.24 5 5v110c0 2.76-2.24 5-5 5h-150c-2.76 0-5-2.24-5-5z" stroke="#000" stroke-width="2" fill="#fff"/><use xlink:href="#o" transform="matrix(1,0,0,1,146.29733163913596,26.29733163913596) translate(50.5 44.8)"/><use xlink:href="#r" transform="matrix(1,0,0,1,146.29733163913596,26.29733163913596) translate(1.5749999999999886 66.4)"/><path d="M219.3 216.3h-2v-27.2h2zm0-48.8h-2v-26.38h2z"/><path d="M219.3 217.3h-2v-1.03h2zM229.34 157.97l-1.72 1.02-9.32-15.77-9.32 15.76-1.72-1.03 11.04-18.67z"/><use xlink:href="#s" transform="matrix(1,0,0,1,150.37233163913595,167.49733163913595) translate(0 14.4)"/><path d="M219.3 416.3h-2v-27.2h2zm0-48.8h-2v-26.38h2z"/><path d="M219.3 417.3h-2v-1.03h2zM229.34 357.97l-1.72 1.02-9.32-15.77-9.32 15.76-1.72-1.03 11.04-18.67z"/><use xlink:href="#s" transform="matrix(1,0,0,1,150.37233163913595,367.4973316391359) translate(0 14.4)"/><path d="M219.3 616.3h-2v-27.2h2zm0-48.8h-2v-26.38h2z"/><path d="M219.3 617.3h-2v-1.03h2zM229.34 557.97l-1.72 1.02-9.32-15.77-9.32 15.76-1.72-1.03 11.04-18.67z"/><use xlink:href="#t" transform="matrix(1,0,0,1,156.84733163913597,567.4973316391361) translate(0 14.4)"/><path d="M118.8 99.96H98.3V477.3h38v2h-40V97.96h22.5z"/><path d="M137.3 479.3h-1.03v-2h1.03zM134.06 98.96l-14.26 4.64v-9.27z"/><path d="M137.3 98.96l-18.5 6.02V92.95zm-16.5 3.26l10.03-3.26-10.03-3.25z"/><path d="M118.8 49.3H49.3v628h87v2h-89v-632h71.5z"/><path d="M137.3 679.3h-1.03v-2h1.03zM134.06 48.3l-14.26 4.63v-9.27z"/><path d="M137.3 48.3l-18.5 6v-12zm-16.5 3.26l10.03-3.26-10.03-3.26z"/><path d="M58.3 119.62h25.3v317.36H58.3z" stroke="#000" stroke-opacity="0" stroke-width="2" fill="#fff" fill-opacity="0"/><use xlink:href="#u" transform="matrix(-1.8369701987210297e-16,-1,1,-1.8369701987210297e-16,63.29733163913596,431.978880118964) translate(21.67500000000001 14.4)"/><path d="M18.3 198.3h25.3v317.36H18.3z" stroke="#000" stroke-opacity="0" stroke-width="2" fill="#fff" fill-opacity="0"/><g><use xlink:href="#v" transform="matrix(-1.8369701987210297e-16,-1,1,-1.8369701987210297e-16,23.29733163913596,510.66042859879207) translate(47.575 14.4)"/></g><path d="M340.3 479.3h-22.5v-2h20.5v-172h-38v-2h40z"/><path d="M300.32 305.3h-1.02v-2h1.02z"/><path d="M316.8 482.93l-14.27-4.63 14.27-4.64z" fill="#fff"/><path d="M317.8 484.3l-18.5-6 18.5-6zm-12.03-6l10.03 3.26v-6.52z"/><path d="M340 698.3h501.7v40H340z" stroke="#000" stroke-opacity="0" stroke-width="2" fill="#fff" fill-opacity="0"/><g><use xlink:href="#w" transform="matrix(1,0,0,1,345,703.297331639136) translate(3.0700000000000216 18.6)"/><use xlink:href="#x" transform="matrix(1,0,0,1,345,703.297331639136) translate(39.08000000000002 18.6)"/><use xlink:href="#y" transform="matrix(1,0,0,1,345,703.297331639136) translate(291.08000000000004 18.6)"/><use xlink:href="#z" transform="matrix(1,0,0,1,345,703.297331639136) translate(333.03 18.6)"/><use xlink:href="#A" transform="matrix(1,0,0,1,345,703.297331639136) translate(416.98 18.6)"/></g><defs><path d="M135-143c-3-34-86-38-87 0 15 53 115 12 119 90S17 21 10-45l28-5c4 36 97 45 98 0-10-56-113-15-118-90-4-57 82-63 122-42 12 7 21 19 24 35" id="B"/><path d="M143 0L79-87 56-68V0H24v-261h32v163l83-92h37l-77 82L181 0h-38" id="C"/><path d="M100-194c62-1 85 37 85 99 1 63-27 99-86 99S16-35 15-95c0-66 28-99 85-99zM99-20c44 1 53-31 53-75 0-43-8-75-51-75s-53 32-53 75 10 74 51 75" id="D"/><path d="M33-154v-36h34v36H33zM33 0v-36h34V0H33" id="E"/><g id="a"><use transform="matrix(0.05,0,0,0.05,0,0)" xlink:href="#B"/><use transform="matrix(0.05,0,0,0.05,9,0)" xlink:href="#C"/><use transform="matrix(0.05,0,0,0.05,18,0)" xlink:href="#D"/><use transform="matrix(0.05,0,0,0.05,28,0)" xlink:href="#B"/><use transform="matrix(0.05,0,0,0.05,37,0)" xlink:href="#E"/></g><path d="M212-179c-10-28-35-45-73-45-59 0-87 40-87 99 0 60 29 101 89 101 43 0 62-24 78-52l27 14C228-24 195 4 139 4 59 4 22-46 18-125c-6-104 99-153 187-111 19 9 31 26 39 46" id="F"/><path d="M117-194c89-4 53 116 60 194h-32v-121c0-31-8-49-39-48C34-167 62-67 57 0H25l-1-190h30c1 10-1 24 2 32 11-22 29-35 61-36" id="G"/><path d="M96-169c-40 0-48 33-48 73s9 75 48 75c24 0 41-14 43-38l32 2c-6 37-31 61-74 61-59 0-76-41-82-99-10-93 101-131 147-64 4 7 5 14 7 22l-32 3c-4-21-16-35-41-35" id="H"/><path d="M100-194c63 0 86 42 84 106H49c0 40 14 67 53 68 26 1 43-12 49-29l28 8c-11 28-37 45-77 45C44 4 14-33 15-96c1-61 26-98 85-98zm52 81c6-60-76-77-97-28-3 7-6 17-6 28h103" id="I"/><path d="M115-194c55 1 70 41 70 98S169 2 115 4C84 4 66-9 55-30l1 105H24l-1-265h31l2 30c10-21 28-34 59-34zm-8 174c40 0 45-34 45-75s-6-73-45-74c-42 0-51 32-51 76 0 43 10 73 51 73" id="J"/><path d="M59-47c-2 24 18 29 38 22v24C64 9 27 4 27-40v-127H5v-23h24l9-43h21v43h35v23H59v120" id="K"/><g id="b"><use transform="matrix(0.05,0,0,0.05,0,0)" xlink:href="#F"/><use transform="matrix(0.05,0,0,0.05,12.950000000000001,0)" xlink:href="#D"/><use transform="matrix(0.05,0,0,0.05,22.950000000000003,0)" xlink:href="#G"/><use transform="matrix(0.05,0,0,0.05,32.95,0)" xlink:href="#H"/><use transform="matrix(0.05,0,0,0.05,41.95,0)" xlink:href="#I"/><use transform="matrix(0.05,0,0,0.05,51.95,0)" xlink:href="#J"/><use transform="matrix(0.05,0,0,0.05,61.95,0)" xlink:href="#K"/></g><path fill="#fff" d="M143 4C61 4 22-44 18-125c-5-107 100-154 193-111 17 8 29 25 37 43l-32 9c-13-25-37-40-76-40-61 0-88 39-88 99 0 61 29 100 91 101 35 0 62-11 79-27v-45h-74v-28h105v86C228-13 192 4 143 4" id="L"/><path fill="#fff" d="M185-189c-5-48-123-54-124 2 14 75 158 14 163 119 3 78-121 87-175 55-17-10-28-26-33-46l33-7c5 56 141 63 141-1 0-78-155-14-162-118-5-82 145-84 179-34 5 7 8 16 11 25" id="M"/><path fill="#fff" d="M140-251c81 0 123 46 123 126C263-53 228-8 163 1c7 30 30 48 69 40v23c-55 16-95-15-103-61C56-3 17-48 17-125c0-80 42-126 123-126zm0 227c63 0 89-41 89-101s-29-99-89-99c-61 0-89 39-89 99S79-25 140-24" id="N"/><g id="c"><use transform="matrix(0.05,0,0,0.05,0,0)" xlink:href="#L"/><use transform="matrix(0.05,0,0,0.05,14,0)" xlink:href="#M"/><use transform="matrix(0.05,0,0,0.05,26,0)" xlink:href="#N"/></g><path fill="#fff" d="M212-179c-10-28-35-45-73-45-59 0-87 40-87 99 0 60 29 101 89 101 43 0 62-24 78-52l27 14C228-24 195 4 139 4 59 4 22-46 18-125c-6-104 99-153 187-111 19 9 31 26 39 46" id="O"/><path fill="#fff" d="M24 0v-261h32V0H24" id="P"/><path fill="#fff" d="M141-36C126-15 110 5 73 4 37 3 15-17 15-53c-1-64 63-63 125-63 3-35-9-54-41-54-24 1-41 7-42 31l-33-3c5-37 33-52 76-52 45 0 72 20 72 64v82c-1 20 7 32 28 27v20c-31 9-61-2-59-35zM48-53c0 20 12 33 32 33 41-3 63-29 60-74-43 2-92-5-92 41" id="Q"/><path fill="#fff" d="M135-143c-3-34-86-38-87 0 15 53 115 12 119 90S17 21 10-45l28-5c4 36 97 45 98 0-10-56-113-15-118-90-4-57 82-63 122-42 12 7 21 19 24 35" id="R"/><g id="d"><use transform="matrix(0.05,0,0,0.05,0,0)" xlink:href="#O"/><use transform="matrix(0.05,0,0,0.05,12.950000000000001,0)" xlink:href="#P"/><use transform="matrix(0.05,0,0,0.05,16.900000000000002,0)" xlink:href="#Q"/><use transform="matrix(0.05,0,0,0.05,26.900000000000002,0)" xlink:href="#R"/><use transform="matrix(0.05,0,0,0.05,35.900000000000006,0)" xlink:href="#R"/></g><path d="M30-248c118-7 216 8 213 122C240-48 200 0 122 0H30v-248zM63-27c89 8 146-16 146-99s-60-101-146-95v194" id="S"/><path d="M24-231v-30h32v30H24zM24 0v-190h32V0H24" id="T"/><path d="M141-36C126-15 110 5 73 4 37 3 15-17 15-53c-1-64 63-63 125-63 3-35-9-54-41-54-24 1-41 7-42 31l-33-3c5-37 33-52 76-52 45 0 72 20 72 64v82c-1 20 7 32 28 27v20c-31 9-61-2-59-35zM48-53c0 20 12 33 32 33 41-3 63-29 60-74-43 2-92-5-92 41" id="U"/><path d="M177-190C167-65 218 103 67 71c-23-6-38-20-44-43l32-5c15 47 100 32 89-28v-30C133-14 115 1 83 1 29 1 15-40 15-95c0-56 16-97 71-98 29-1 48 16 59 35 1-10 0-23 2-32h30zM94-22c36 0 50-32 50-73 0-42-14-75-50-75-39 0-46 34-46 75s6 73 46 73" id="V"/><path d="M114-163C36-179 61-72 57 0H25l-1-190h30c1 12-1 29 2 39 6-27 23-49 58-41v29" id="W"/><path d="M210-169c-67 3-38 105-44 169h-31v-121c0-29-5-50-35-48C34-165 62-65 56 0H25l-1-190h30c1 10-1 24 2 32 10-44 99-50 107 0 11-21 27-35 58-36 85-2 47 119 55 194h-31v-121c0-29-5-49-35-48" id="X"/><g id="e"><use transform="matrix(0.05,0,0,0.05,0,0)" xlink:href="#S"/><use transform="matrix(0.05,0,0,0.05,12.950000000000001,0)" xlink:href="#T"/><use transform="matrix(0.05,0,0,0.05,16.900000000000002,0)" xlink:href="#U"/><use transform="matrix(0.05,0,0,0.05,26.900000000000002,0)" xlink:href="#V"/><use transform="matrix(0.05,0,0,0.05,36.900000000000006,0)" xlink:href="#W"/><use transform="matrix(0.05,0,0,0.05,42.85000000000001,0)" xlink:href="#U"/><use transform="matrix(0.05,0,0,0.05,52.85,0)" xlink:href="#X"/><path d="M-.9 1.25h74.6v1.32H-.9z"/></g><path d="M30 0v-248h187v28H63v79h144v27H63v87h162V0H30" id="Y"/><path d="M24 0v-261h32V0H24" id="Z"/><g id="f"><use transform="matrix(0.05,0,0,0.05,0,0)" xlink:href="#Y"/><use transform="matrix(0.05,0,0,0.05,12,0)" xlink:href="#Z"/><use transform="matrix(0.05,0,0,0.05,15.949999999999998,0)" xlink:href="#I"/><use transform="matrix(0.05,0,0,0.05,25.950000000000003,0)" xlink:href="#X"/><use transform="matrix(0.05,0,0,0.05,40.9,0)" xlink:href="#I"/><use transform="matrix(0.05,0,0,0.05,50.9,0)" xlink:href="#G"/><use transform="matrix(0.05,0,0,0.05,60.900000000000006,0)" xlink:href="#K"/><path d="M-.9 1.25h72.7v1.32H-.9z"/></g><path d="M194 0L95-120 63-95V0H30v-248h33v124l119-124h40L117-140 236 0h-42" id="aa"/><path d="M179-190L93 31C79 59 56 82 12 73V49c39 6 53-20 64-50L1-190h34L92-34l54-156h33" id="ab"/><g id="g"><use transform="matrix(0.05,0,0,0.05,0,0)" xlink:href="#aa"/><use transform="matrix(0.05,0,0,0.05,12,0)" xlink:href="#I"/><use transform="matrix(0.05,0,0,0.05,22,0)" xlink:href="#ab"/><path d="M-.9 1.25h32.8v1.32H-.9z"/></g><path d="M206 0h-36l-40-164L89 0H53L-1-190h32L70-26l43-164h34l41 164 42-164h31" id="ac"/><g id="h"><use transform="matrix(0.05,0,0,0.05,0,0)" xlink:href="#D"/><use transform="matrix(0.05,0,0,0.05,10,0)" xlink:href="#ac"/><use transform="matrix(0.05,0,0,0.05,22.950000000000003,0)" xlink:href="#Z"/><use transform="matrix(0.05,0,0,0.05,26.900000000000002,0)" xlink:href="#E"/></g><g id="i"><use transform="matrix(0.05,0,0,0.05,0,0)" xlink:href="#F"/><use transform="matrix(0.05,0,0,0.05,12.950000000000001,0)" xlink:href="#Z"/><use transform="matrix(0.05,0,0,0.05,16.900000000000002,0)" xlink:href="#U"/><use transform="matrix(0.05,0,0,0.05,26.900000000000002,0)" xlink:href="#B"/><use transform="matrix(0.05,0,0,0.05,35.900000000000006,0)" xlink:href="#B"/></g><path d="M85-194c31 0 48 13 60 33l-1-100h32l1 261h-30c-2-10 0-23-3-31C134-8 116 4 85 4 32 4 16-35 15-94c0-66 23-100 70-100zm9 24c-40 0-46 34-46 75 0 40 6 74 45 74 42 0 51-32 51-76 0-42-9-74-50-73" id="ad"/><path d="M101-234c-31-9-42 10-38 44h38v23H63V0H32v-167H5v-23h27c-7-52 17-82 69-68v24" id="ae"/><g id="j"><use transform="matrix(0.05,0,0,0.05,0,0)" xlink:href="#W"/><use transform="matrix(0.05,0,0,0.05,5.95,0)" xlink:href="#ad"/><use transform="matrix(0.05,0,0,0.05,15.949999999999998,0)" xlink:href="#ae"/><use transform="matrix(0.05,0,0,0.05,20.95,0)" xlink:href="#E"/><use transform="matrix(0.05,0,0,0.05,25.950000000000003,0)" xlink:href="#J"/><use transform="matrix(0.05,0,0,0.05,35.95,0)" xlink:href="#W"/><use transform="matrix(0.05,0,0,0.05,41.900000000000006,0)" xlink:href="#D"/><use transform="matrix(0.05,0,0,0.05,51.900000000000006,0)" xlink:href="#J"/><use transform="matrix(0.05,0,0,0.05,61.900000000000006,0)" xlink:href="#I"/><use transform="matrix(0.05,0,0,0.05,71.9,0)" xlink:href="#W"/><use transform="matrix(0.05,0,0,0.05,77.85000000000001,0)" xlink:href="#K"/><use transform="matrix(0.05,0,0,0.05,82.85000000000001,0)" xlink:href="#ab"/></g><path d="M30 0v-248h33v221h125V0H30" id="af"/><g id="k"><use transform="matrix(0.05,0,0,0.05,0,0)" xlink:href="#af"/><use transform="matrix(0.05,0,0,0.05,10,0)" xlink:href="#T"/><use transform="matrix(0.05,0,0,0.05,13.949999999999998,0)" xlink:href="#K"/><use transform="matrix(0.05,0,0,0.05,18.95,0)" xlink:href="#I"/><use transform="matrix(0.05,0,0,0.05,28.950000000000003,0)" xlink:href="#W"/><use transform="matrix(0.05,0,0,0.05,34.9,0)" xlink:href="#U"/><use transform="matrix(0.05,0,0,0.05,44.9,0)" xlink:href="#Z"/></g><path d="M84 4C-5 8 30-112 23-190h32v120c0 31 7 50 39 49 72-2 45-101 50-169h31l1 190h-30c-1-10 1-25-2-33-11 22-28 36-60 37" id="ag"/><path d="M115-194c53 0 69 39 70 98 0 66-23 100-70 100C84 3 66-7 56-30L54 0H23l1-261h32v101c10-23 28-34 59-34zm-8 174c40 0 45-34 45-75 0-40-5-75-45-74-42 0-51 32-51 76 0 43 10 73 51 73" id="ah"/><path d="M140-251c81 0 123 46 123 126C263-46 219 4 140 4 59 4 17-45 17-125s42-126 123-126zm0 227c63 0 89-41 89-101s-29-99-89-99c-61 0-89 39-89 99S79-25 140-24" id="ai"/><g id="l"><use transform="matrix(0.05,0,0,0.05,0,0)" xlink:href="#W"/><use transform="matrix(0.05,0,0,0.05,5.95,0)" xlink:href="#ad"/><use transform="matrix(0.05,0,0,0.05,15.949999999999998,0)" xlink:href="#ae"/><use transform="matrix(0.05,0,0,0.05,20.95,0)" xlink:href="#B"/><use transform="matrix(0.05,0,0,0.05,29.950000000000003,0)" xlink:href="#E"/><use transform="matrix(0.05,0,0,0.05,34.95,0)" xlink:href="#B"/><use transform="matrix(0.05,0,0,0.05,43.95,0)" xlink:href="#ag"/><use transform="matrix(0.05,0,0,0.05,53.95,0)" xlink:href="#ah"/><use transform="matrix(0.05,0,0,0.05,63.95,0)" xlink:href="#F"/><use transform="matrix(0.05,0,0,0.05,76.9,0)" xlink:href="#Z"/><use transform="matrix(0.05,0,0,0.05,80.85000000000001,0)" xlink:href="#U"/><use transform="matrix(0.05,0,0,0.05,90.85000000000001,0)" xlink:href="#B"/><use transform="matrix(0.05,0,0,0.05,99.85000000000001,0)" xlink:href="#B"/><use transform="matrix(0.05,0,0,0.05,108.85000000000001,0)" xlink:href="#ai"/><use transform="matrix(0.05,0,0,0.05,122.85000000000001,0)" xlink:href="#ae"/></g><path fill="#fff" d="M177-190C167-65 218 103 67 71c-23-6-38-20-44-43l32-5c15 47 100 32 89-28v-30C133-14 115 1 83 1 29 1 15-40 15-95c0-56 16-97 71-98 29-1 48 16 59 35 1-10 0-23 2-32h30zM94-22c36 0 50-32 50-73 0-42-14-75-50-75-39 0-46 34-46 75s6 73 46 73" id="aj"/><path fill="#fff" d="M145-31C134-9 116 4 85 4 32 4 16-35 15-94c0-59 17-99 70-100 32-1 48 14 60 33 0-11-1-24 2-32h30l-1 268h-32zM93-21c41 0 51-33 51-76s-8-73-50-73c-40 0-46 35-46 75s5 74 45 74" id="ak"/><path fill="#fff" d="M33-154v-36h34v36H33zM33 0v-36h34V0H33" id="al"/><path fill="#fff" d="M24-231v-30h32v30H24zM24 0v-190h32V0H24" id="am"/><path fill="#fff" d="M59-47c-2 24 18 29 38 22v24C64 9 27 4 27-40v-127H5v-23h24l9-43h21v43h35v23H59v120" id="an"/><path fill="#fff" d="M100-194c63 0 86 42 84 106H49c0 40 14 67 53 68 26 1 43-12 49-29l28 8c-11 28-37 45-77 45C44 4 14-33 15-96c1-61 26-98 85-98zm52 81c6-60-76-77-97-28-3 7-6 17-6 28h103" id="ao"/><g id="m"><use transform="matrix(0.05,0,0,0.05,0,0)" xlink:href="#aj"/><use transform="matrix(0.05,0,0,0.05,10,0)" xlink:href="#R"/><use transform="matrix(0.05,0,0,0.05,19,0)" xlink:href="#ak"/><use transform="matrix(0.05,0,0,0.05,29,0)" xlink:href="#al"/><use transform="matrix(0.05,0,0,0.05,34,0)" xlink:href="#M"/><use transform="matrix(0.05,0,0,0.05,46,0)" xlink:href="#am"/><use transform="matrix(0.05,0,0,0.05,49.95,0)" xlink:href="#an"/><use transform="matrix(0.05,0,0,0.05,54.95,0)" xlink:href="#ao"/></g><path fill="#fff" d="M160-131c35 5 61 23 61 61C221 17 115-2 30 0v-248c76 3 177-17 177 60 0 33-19 50-47 57zm-97-11c50-1 110 9 110-42 0-47-63-36-110-37v79zm0 115c55-2 124 14 124-45 0-56-70-42-124-44v89" id="ap"/><path fill="#fff" d="M100-194c62-1 85 37 85 99 1 63-27 99-86 99S16-35 15-95c0-66 28-99 85-99zM99-20c44 1 53-31 53-75 0-43-8-75-51-75s-53 32-53 75 10 74 51 75" id="aq"/><path fill="#fff" d="M114-163C36-179 61-72 57 0H25l-1-190h30c1 12-1 29 2 39 6-27 23-49 58-41v29" id="ar"/><path fill="#fff" d="M106-169C34-169 62-67 57 0H25v-261h32l-1 103c12-21 28-36 61-36 89 0 53 116 60 194h-32v-121c2-32-8-49-39-48" id="as"/><g id="n"><use transform="matrix(0.05,0,0,0.05,0,0)" xlink:href="#al"/><use transform="matrix(0.05,0,0,0.05,5,0)" xlink:href="#ap"/><use transform="matrix(0.05,0,0,0.05,17,0)" xlink:href="#aq"/><use transform="matrix(0.05,0,0,0.05,27,0)" xlink:href="#ar"/><use transform="matrix(0.05,0,0,0.05,32.95,0)" xlink:href="#ao"/><use transform="matrix(0.05,0,0,0.05,42.95,0)" xlink:href="#as"/><use transform="matrix(0.05,0,0,0.05,52.95,0)" xlink:href="#aq"/><use transform="matrix(0.05,0,0,0.05,62.95,0)" xlink:href="#P"/><use transform="matrix(0.05,0,0,0.05,66.9,0)" xlink:href="#ao"/></g><g id="o"><use transform="matrix(0.05,0,0,0.05,0,0)" xlink:href="#B"/><use transform="matrix(0.05,0,0,0.05,9,0)" xlink:href="#D"/><use transform="matrix(0.05,0,0,0.05,19,0)" xlink:href="#B"/><use transform="matrix(0.05,0,0,0.05,28,0)" xlink:href="#U"/><use transform="matrix(0.05,0,0,0.05,38,0)" xlink:href="#E"/></g><path d="M185-189c-5-48-123-54-124 2 14 75 158 14 163 119 3 78-121 87-175 55-17-10-28-26-33-46l33-7c5 56 141 63 141-1 0-78-155-14-162-118-5-82 145-84 179-34 5 7 8 16 11 25" id="at"/><g id="p"><use transform="matrix(0.05,0,0,0.05,0,0)" xlink:href="#at"/><use transform="matrix(0.05,0,0,0.05,12,0)" xlink:href="#U"/><use transform="matrix(0.05,0,0,0.05,22,0)" xlink:href="#X"/><use transform="matrix(0.05,0,0,0.05,36.95,0)" xlink:href="#J"/><use transform="matrix(0.05,0,0,0.05,46.95,0)" xlink:href="#Z"/><use transform="matrix(0.05,0,0,0.05,50.900000000000006,0)" xlink:href="#I"/></g><g id="q"><use transform="matrix(0.05,0,0,0.05,0,0)" xlink:href="#at"/><use transform="matrix(0.05,0,0,0.05,12,0)" xlink:href="#U"/><use transform="matrix(0.05,0,0,0.05,22,0)" xlink:href="#X"/><use transform="matrix(0.05,0,0,0.05,36.95,0)" xlink:href="#J"/><use transform="matrix(0.05,0,0,0.05,46.95,0)" xlink:href="#Z"/><use transform="matrix(0.05,0,0,0.05,50.900000000000006,0)" xlink:href="#T"/><use transform="matrix(0.05,0,0,0.05,54.85,0)" xlink:href="#G"/><use transform="matrix(0.05,0,0,0.05,64.85000000000001,0)" xlink:href="#V"/></g><path d="M63-220v92h138v28H63V0H30v-248h175v28H63" id="au"/><path d="M33 0v-248h34V0H33" id="av"/><g id="r"><use transform="matrix(0.05,0,0,0.05,0,0)" xlink:href="#au"/><use transform="matrix(0.05,0,0,0.05,10.950000000000001,0)" xlink:href="#I"/><use transform="matrix(0.05,0,0,0.05,20.950000000000003,0)" xlink:href="#U"/><use transform="matrix(0.05,0,0,0.05,30.950000000000003,0)" xlink:href="#K"/><use transform="matrix(0.05,0,0,0.05,35.95,0)" xlink:href="#ag"/><use transform="matrix(0.05,0,0,0.05,45.95,0)" xlink:href="#W"/><use transform="matrix(0.05,0,0,0.05,51.900000000000006,0)" xlink:href="#I"/><use transform="matrix(0.05,0,0,0.05,61.900000000000006,0)" xlink:href="#ai"/><use transform="matrix(0.05,0,0,0.05,75.9,0)" xlink:href="#ae"/><use transform="matrix(0.05,0,0,0.05,80.9,0)" xlink:href="#av"/><use transform="matrix(0.05,0,0,0.05,85.9,0)" xlink:href="#G"/><use transform="matrix(0.05,0,0,0.05,95.9,0)" xlink:href="#K"/><use transform="matrix(0.05,0,0,0.05,100.9,0)" xlink:href="#I"/><use transform="matrix(0.05,0,0,0.05,110.9,0)" xlink:href="#W"/><use transform="matrix(0.05,0,0,0.05,116.85000000000001,0)" xlink:href="#I"/><use transform="matrix(0.05,0,0,0.05,126.85000000000001,0)" xlink:href="#B"/><use transform="matrix(0.05,0,0,0.05,135.85000000000002,0)" xlink:href="#K"/></g><g id="s"><use transform="matrix(0.05,0,0,0.05,0,0)" xlink:href="#B"/><use transform="matrix(0.05,0,0,0.05,9,0)" xlink:href="#D"/><use transform="matrix(0.05,0,0,0.05,19,0)" xlink:href="#B"/><use transform="matrix(0.05,0,0,0.05,28,0)" xlink:href="#U"/><use transform="matrix(0.05,0,0,0.05,38,0)" xlink:href="#E"/><use transform="matrix(0.05,0,0,0.05,43,0)" xlink:href="#T"/><use transform="matrix(0.05,0,0,0.05,46.95,0)" xlink:href="#B"/><use transform="matrix(0.05,0,0,0.05,55.95,0)" xlink:href="#at"/><use transform="matrix(0.05,0,0,0.05,67.95,0)" xlink:href="#U"/><use transform="matrix(0.05,0,0,0.05,77.95,0)" xlink:href="#X"/><use transform="matrix(0.05,0,0,0.05,92.9,0)" xlink:href="#J"/><use transform="matrix(0.05,0,0,0.05,102.9,0)" xlink:href="#Z"/><use transform="matrix(0.05,0,0,0.05,106.85000000000001,0)" xlink:href="#I"/><use transform="matrix(0.05,0,0,0.05,116.85000000000001,0)" xlink:href="#ai"/><use transform="matrix(0.05,0,0,0.05,130.85000000000002,0)" xlink:href="#ae"/></g><path d="M106-169C34-169 62-67 57 0H25v-261h32l-1 103c12-21 28-36 61-36 89 0 53 116 60 194h-32v-121c2-32-8-49-39-48" id="aw"/><path d="M233-177c-1 41-23 64-60 70L243 0h-38l-65-103H63V0H30v-248c88 3 205-21 203 71zM63-129c60-2 137 13 137-47 0-61-80-42-137-45v92" id="ax"/><g id="t"><use transform="matrix(0.05,0,0,0.05,0,0)" xlink:href="#B"/><use transform="matrix(0.05,0,0,0.05,9,0)" xlink:href="#D"/><use transform="matrix(0.05,0,0,0.05,19,0)" xlink:href="#B"/><use transform="matrix(0.05,0,0,0.05,28,0)" xlink:href="#U"/><use transform="matrix(0.05,0,0,0.05,38,0)" xlink:href="#E"/><use transform="matrix(0.05,0,0,0.05,43,0)" xlink:href="#aw"/><use transform="matrix(0.05,0,0,0.05,53,0)" xlink:href="#U"/><use transform="matrix(0.05,0,0,0.05,63,0)" xlink:href="#B"/><use transform="matrix(0.05,0,0,0.05,72,0)" xlink:href="#ax"/><use transform="matrix(0.05,0,0,0.05,84.95,0)" xlink:href="#I"/><use transform="matrix(0.05,0,0,0.05,94.95,0)" xlink:href="#B"/><use transform="matrix(0.05,0,0,0.05,103.95,0)" xlink:href="#ag"/><use transform="matrix(0.05,0,0,0.05,113.95,0)" xlink:href="#Z"/><use transform="matrix(0.05,0,0,0.05,117.9,0)" xlink:href="#K"/></g><path d="M141 0L90-78 38 0H4l68-98-65-92h35l48 74 47-74h35l-64 92 68 98h-35" id="ay"/><path d="M232-93c-1 65-40 97-104 97C67 4 28-28 28-90v-158h33c8 89-33 224 67 224 102 0 64-133 71-224h33v155" id="az"/><g id="u"><use transform="matrix(0.05,0,0,0.05,0,0)" xlink:href="#I"/><use transform="matrix(0.05,0,0,0.05,10,0)" xlink:href="#ay"/><use transform="matrix(0.05,0,0,0.05,19,0)" xlink:href="#K"/><use transform="matrix(0.05,0,0,0.05,24,0)" xlink:href="#E"/><use transform="matrix(0.05,0,0,0.05,29,0)" xlink:href="#aw"/><use transform="matrix(0.05,0,0,0.05,39,0)" xlink:href="#U"/><use transform="matrix(0.05,0,0,0.05,49,0)" xlink:href="#B"/><use transform="matrix(0.05,0,0,0.05,58,0)" xlink:href="#az"/><use transform="matrix(0.05,0,0,0.05,70.95,0)" xlink:href="#Z"/><use transform="matrix(0.05,0,0,0.05,74.9,0)" xlink:href="#K"/><use transform="matrix(0.05,0,0,0.05,79.9,0)" xlink:href="#T"/><use transform="matrix(0.05,0,0,0.05,83.85000000000001,0)" xlink:href="#X"/><use transform="matrix(0.05,0,0,0.05,98.80000000000001,0)" xlink:href="#U"/><use transform="matrix(0.05,0,0,0.05,108.80000000000001,0)" xlink:href="#K"/><use transform="matrix(0.05,0,0,0.05,113.80000000000001,0)" xlink:href="#I"/><use transform="matrix(0.05,0,0,0.05,123.80000000000001,0)" xlink:href="#au"/><use transform="matrix(0.05,0,0,0.05,134.75,0)" xlink:href="#I"/><use transform="matrix(0.05,0,0,0.05,144.75,0)" xlink:href="#U"/><use transform="matrix(0.05,0,0,0.05,154.75,0)" xlink:href="#K"/><use transform="matrix(0.05,0,0,0.05,159.75,0)" xlink:href="#ag"/><use transform="matrix(0.05,0,0,0.05,169.75,0)" xlink:href="#W"/><use transform="matrix(0.05,0,0,0.05,175.7,0)" xlink:href="#I"/><use transform="matrix(0.05,0,0,0.05,185.7,0)" xlink:href="#ai"/><use transform="matrix(0.05,0,0,0.05,199.7,0)" xlink:href="#ae"/><use transform="matrix(0.05,0,0,0.05,204.7,0)" xlink:href="#av"/><use transform="matrix(0.05,0,0,0.05,209.69999999999996,0)" xlink:href="#G"/><use transform="matrix(0.05,0,0,0.05,219.69999999999996,0)" xlink:href="#K"/><use transform="matrix(0.05,0,0,0.05,224.69999999999996,0)" xlink:href="#I"/><use transform="matrix(0.05,0,0,0.05,234.69999999999996,0)" xlink:href="#W"/><use transform="matrix(0.05,0,0,0.05,240.64999999999998,0)" xlink:href="#I"/><use transform="matrix(0.05,0,0,0.05,250.64999999999998,0)" xlink:href="#B"/><use transform="matrix(0.05,0,0,0.05,259.65,0)" xlink:href="#K"/></g><g id="v"><use transform="matrix(0.05,0,0,0.05,0,0)" xlink:href="#B"/><use transform="matrix(0.05,0,0,0.05,9,0)" xlink:href="#D"/><use transform="matrix(0.05,0,0,0.05,19,0)" xlink:href="#B"/><use transform="matrix(0.05,0,0,0.05,28,0)" xlink:href="#U"/><use transform="matrix(0.05,0,0,0.05,38,0)" xlink:href="#E"/><use transform="matrix(0.05,0,0,0.05,43,0)" xlink:href="#aw"/><use transform="matrix(0.05,0,0,0.05,53,0)" xlink:href="#U"/><use transform="matrix(0.05,0,0,0.05,63,0)" xlink:href="#B"/><use transform="matrix(0.05,0,0,0.05,72,0)" xlink:href="#au"/><use transform="matrix(0.05,0,0,0.05,82.95,0)" xlink:href="#I"/><use transform="matrix(0.05,0,0,0.05,92.95,0)" xlink:href="#U"/><use transform="matrix(0.05,0,0,0.05,102.95,0)" xlink:href="#K"/><use transform="matrix(0.05,0,0,0.05,107.95,0)" xlink:href="#ag"/><use transform="matrix(0.05,0,0,0.05,117.95,0)" xlink:href="#W"/><use transform="matrix(0.05,0,0,0.05,123.9,0)" xlink:href="#I"/><use transform="matrix(0.05,0,0,0.05,133.9,0)" xlink:href="#ai"/><use transform="matrix(0.05,0,0,0.05,147.9,0)" xlink:href="#ae"/><use transform="matrix(0.05,0,0,0.05,152.9,0)" xlink:href="#av"/><use transform="matrix(0.05,0,0,0.05,157.9,0)" xlink:href="#G"/><use transform="matrix(0.05,0,0,0.05,167.9,0)" xlink:href="#K"/><use transform="matrix(0.05,0,0,0.05,172.9,0)" xlink:href="#I"/><use transform="matrix(0.05,0,0,0.05,182.9,0)" xlink:href="#W"/><use transform="matrix(0.05,0,0,0.05,188.85,0)" xlink:href="#I"/><use transform="matrix(0.05,0,0,0.05,198.85,0)" xlink:href="#B"/><use transform="matrix(0.05,0,0,0.05,207.85000000000002,0)" xlink:href="#K"/></g><g id="w"><use transform="matrix(0.05,0,0,0.05,0,0)" xlink:href="#I"/><use transform="matrix(0.05,0,0,0.05,10,0)" xlink:href="#ay"/><use transform="matrix(0.05,0,0,0.05,19,0)" xlink:href="#K"/><use transform="matrix(0.05,0,0,0.05,24,0)" xlink:href="#E"/></g><path d="M0 4l72-265h28L28 4H0" id="aA"/><path d="M33 0v-38h34V0H33" id="aB"/><path d="M126-127c33 6 58 20 58 59 0 88-139 92-164 29-3-8-5-16-6-25l32-3c6 27 21 44 54 44 32 0 52-15 52-46 0-38-36-46-79-43v-28c39 1 72-4 72-42 0-27-17-43-46-43-28 0-47 15-49 41l-32-3c6-42 35-63 81-64 48-1 79 21 79 65 0 36-21 52-52 59" id="aC"/><g id="x"><use transform="matrix(0.05,0,0,0.05,0,0)" xlink:href="#aw"/><use transform="matrix(0.05,0,0,0.05,10,0)" xlink:href="#K"/><use transform="matrix(0.05,0,0,0.05,15,0)" xlink:href="#K"/><use transform="matrix(0.05,0,0,0.05,20,0)" xlink:href="#J"/><use transform="matrix(0.05,0,0,0.05,30,0)" xlink:href="#E"/><use transform="matrix(0.05,0,0,0.05,35,0)" xlink:href="#aA"/><use transform="matrix(0.05,0,0,0.05,40,0)" xlink:href="#aA"/><use transform="matrix(0.05,0,0,0.05,45,0)" xlink:href="#ac"/><use transform="matrix(0.05,0,0,0.05,57.95,0)" xlink:href="#ac"/><use transform="matrix(0.05,0,0,0.05,70.9,0)" xlink:href="#ac"/><use transform="matrix(0.05,0,0,0.05,82.85000000000001,0)" xlink:href="#aB"/><use transform="matrix(0.05,0,0,0.05,87.85000000000001,0)" xlink:href="#ac"/><use transform="matrix(0.05,0,0,0.05,100.80000000000001,0)" xlink:href="#aC"/><use transform="matrix(0.05,0,0,0.05,110.80000000000001,0)" xlink:href="#aB"/><use transform="matrix(0.05,0,0,0.05,115.80000000000001,0)" xlink:href="#D"/><use transform="matrix(0.05,0,0,0.05,125.80000000000001,0)" xlink:href="#W"/><use transform="matrix(0.05,0,0,0.05,131.75,0)" xlink:href="#V"/><use transform="matrix(0.05,0,0,0.05,141.75,0)" xlink:href="#aA"/><use transform="matrix(0.05,0,0,0.05,146.75,0)" xlink:href="#G"/><use transform="matrix(0.05,0,0,0.05,156.75,0)" xlink:href="#B"/><use transform="matrix(0.05,0,0,0.05,165.75,0)" xlink:href="#aA"/><use transform="matrix(0.05,0,0,0.05,170.75,0)" xlink:href="#B"/><use transform="matrix(0.05,0,0,0.05,179.75,0)" xlink:href="#B"/><use transform="matrix(0.05,0,0,0.05,188.75,0)" xlink:href="#G"/><use transform="matrix(0.05,0,0,0.05,198.75,0)" xlink:href="#aA"/><use transform="matrix(0.05,0,0,0.05,203.75,0)" xlink:href="#I"/><use transform="matrix(0.05,0,0,0.05,213.75,0)" xlink:href="#ay"/><use transform="matrix(0.05,0,0,0.05,222.75,0)" xlink:href="#K"/><use transform="matrix(0.05,0,0,0.05,227.75,0)" xlink:href="#aA"/></g><path d="M190 0L58-211 59 0H30v-248h39L202-35l-2-213h31V0h-41" id="aD"/><g id="y"><use transform="matrix(0.05,0,0,0.05,0,0)" xlink:href="#at"/><use transform="matrix(0.05,0,0,0.05,12,0)" xlink:href="#at"/><use transform="matrix(0.05,0,0,0.05,24,0)" xlink:href="#aD"/></g><g id="z"><use transform="matrix(0.05,0,0,0.05,0,0)" xlink:href="#Y"/><use transform="matrix(0.05,0,0,0.05,12,0)" xlink:href="#ay"/><use transform="matrix(0.05,0,0,0.05,21,0)" xlink:href="#K"/><use transform="matrix(0.05,0,0,0.05,26,0)" xlink:href="#I"/><use transform="matrix(0.05,0,0,0.05,36,0)" xlink:href="#G"/><use transform="matrix(0.05,0,0,0.05,46,0)" xlink:href="#B"/><use transform="matrix(0.05,0,0,0.05,55,0)" xlink:href="#T"/><use transform="matrix(0.05,0,0,0.05,58.95,0)" xlink:href="#D"/><use transform="matrix(0.05,0,0,0.05,68.95,0)" xlink:href="#G"/></g><g id="A"><use transform="matrix(0.05,0,0,0.05,0,0)" xlink:href="#ai"/><use transform="matrix(0.05,0,0,0.05,14,0)" xlink:href="#G"/><use transform="matrix(0.05,0,0,0.05,24,0)" xlink:href="#K"/><use transform="matrix(0.05,0,0,0.05,29,0)" xlink:href="#D"/><use transform="matrix(0.05,0,0,0.05,39,0)" xlink:href="#Z"/><use transform="matrix(0.05,0,0,0.05,42.95,0)" xlink:href="#D"/><use transform="matrix(0.05,0,0,0.05,52.95,0)" xlink:href="#V"/><use transform="matrix(0.05,0,0,0.05,62.95,0)" xlink:href="#ab"/></g></defs></g></svg>