<svg xmlns="http://www.w3.org/2000/svg" xmlns:xlink="http://www.w3.org/1999/xlink" xmlns:lucid="lucid" width="785.3" height="694.7"><g transform="translate(3.362225405515858 3.362225405515872)" lucid:page-tab-id="uUnbGZlL_1Lm"><path d="M0 0h972.48v687.97H0z" fill="#fff"/><path d="M577.64 571.33h100.5M577.66 571.33h-1.02" stroke="#000" stroke-width="2" fill="none"/><path d="M693.4 571.33l-14.26 4.64v-9.27z" stroke="#000" stroke-width="2" fill="#fff"/><path d="M561.94 361.64c0-2.76 2.24-5 5-5h150c2.76 0 5 2.24 5 5v110c0 2.76-2.24 5-5 5h-150c-2.76 0-5-2.24-5-5z" stroke="#000" stroke-width="2" fill="#b2b2b2"/><use xlink:href="#a" transform="matrix(1,0,0,1,569.941344301534,364.63777459448414) translate(51 44.8)"/><use xlink:href="#b" transform="matrix(1,0,0,1,569.941344301534,364.63777459448414) translate(38.525 66.4)"/><path d="M561.94 221.64c0-2.76 2.24-5 5-5h150c2.76 0 5 2.24 5 5v110c0 2.76-2.24 5-5 5h-150c-2.76 0-5-2.24-5-5z" stroke="#000" stroke-width="2" fill="#666"/><use xlink:href="#c" transform="matrix(1,0,0,1,569.941344301534,224.63777459448414) translate(27.049999999999997 55.6)"/><use xlink:href="#d" transform="matrix(1,0,0,1,569.941344301534,224.63777459448414) translate(72.05 55.6)"/><path d="M561.94 21.64c0-2.76 2.24-5 5-5h190c2.76 0 5 2.24 5 5v50c0 2.76-2.24 5-5 5h-190c-2.76 0-5-2.24-5-5z" stroke="#000" stroke-opacity="0" stroke-width="2" fill="#fff" fill-opacity="0"/><use xlink:href="#e" transform="matrix(1,0,0,1,566.941344301534,21.637774594484128) translate(0 28.6)"/><use xlink:href="#f" transform="matrix(1,0,0,1,566.941344301534,21.637774594484128) translate(72.80000000000001 28.6)"/><use xlink:href="#g" transform="matrix(1,0,0,1,566.941344301534,21.637774594484128) translate(143.70000000000002 28.6)"/><path d="M561.94 78.97c0-2.76 2.24-5 5-5h150c2.76 0 5 2.24 5 5v110c0 2.76-2.24 5-5 5h-150c-2.76 0-5-2.24-5-5z" stroke="#000" stroke-width="2" fill="#fff"/><use xlink:href="#h" transform="matrix(1,0,0,1,569.941344301534,81.97110792781749) translate(56.05 44.8)"/><use xlink:href="#i" transform="matrix(1,0,0,1,569.941344301534,81.97110792781749) translate(49.55 66.4)"/><path d="M576.64 516.33c0-2.76 2.24-5 5-5h110c2.76 0 5 2.24 5 5v30c0 2.77-2.24 5-5 5h-110c-2.76 0-5-2.23-5-5z" stroke="#000" stroke-opacity="0" stroke-width="2" fill="#fff" fill-opacity="0"/><use xlink:href="#j" transform="matrix(1,0,0,1,581.6377745944842,516.3342048874343) translate(0 22.799999999999997)"/><path d="M561.94 631.33h160v40h-160z" stroke="#000" fill="#fff"/><use xlink:href="#k" transform="matrix(1,0,0,1,566.941344301534,636.3342048874343) translate(50.575 18.6)"/><path d="M577.64 511.33h107.18M577.66 511.33h-1.02M667.46 521.52l17.2-10.2-17.2-10.17" stroke="#000" stroke-width="2" fill="none"/><path d="M576.64 576.33c0-2.76 2.24-5 5-5h150c2.76 0 5 2.24 5 5v30c0 2.77-2.24 5-5 5h-150c-2.76 0-5-2.23-5-5z" stroke="#000" stroke-opacity="0" stroke-width="2" fill="#fff" fill-opacity="0"/><use xlink:href="#l" transform="matrix(1,0,0,1,581.6377745944842,576.3342048874343) translate(0 22.799999999999997)"/><path d="M16.64 241.64c0-2.76 2.24-5 5-5h150c2.76 0 5 2.24 5 5v110c0 2.76-2.24 5-5 5h-150c-2.76 0-5-2.24-5-5z" stroke="#000" stroke-width="2" fill="#666"/><use xlink:href="#m" transform="matrix(1,0,0,1,24.637774594484142,244.63777459448414) translate(33.55 55.6)"/><path d="M16.64 41.64c0-2.76 2.24-5 5-5h150c2.76 0 5 2.24 5 5v110c0 2.76-2.24 5-5 5h-150c-2.76 0-5-2.24-5-5z" stroke="#000" stroke-width="2" fill="#fff"/><use xlink:href="#n" transform="matrix(1,0,0,1,24.637774594484142,44.637774594484114) translate(23.549999999999997 55.6)"/><path d="M356.64 241.64c0-2.76 2.24-5 5-5h150c2.76 0 5 2.24 5 5v110c0 2.76-2.24 5-5 5h-150c-2.76 0-5-2.24-5-5z" stroke="#000" stroke-width="2" fill="#fff"/><use xlink:href="#o" transform="matrix(1,0,0,1,364.63777459448414,244.63777459448414) translate(15.049999999999997 55.6)"/><path d="M178.64 296.64h175.18" stroke="#000" stroke-width="2" fill="none"/><path d="M178.66 297.64h-1.02v-2h1.02z"/><path d="M336.46 306.82l17.2-10.18-17.2-10.18" stroke="#000" stroke-width="2" fill="none"/><g><use xlink:href="#p" transform="matrix(1,0,0,1,188.71277459448413,249.43777459448413) translate(60.43000000000001 14.4)"/><use xlink:href="#q" transform="matrix(1,0,0,1,188.71277459448413,249.43777459448413) translate(0.0049999999999954525 36)"/><use xlink:href="#r" transform="matrix(1,0,0,1,188.71277459448413,249.43777459448413) translate(112.905 36)"/></g><path d="M96.64 234.64v-58.5" stroke="#000" stroke-width="2" fill="none"/><path d="M97.64 235.64h-2v-1.03h2z"/><path d="M96.64 160.87l4.63 14.27H92z" stroke="#000" stroke-width="2" fill="#fff"/><defs><path d="M135-143c-3-34-86-38-87 0 15 53 115 12 119 90S17 21 10-45l28-5c4 36 97 45 98 0-10-56-113-15-118-90-4-57 82-63 122-42 12 7 21 19 24 35" id="s"/><path d="M143 0L79-87 56-68V0H24v-261h32v163l83-92h37l-77 82L181 0h-38" id="t"/><path d="M100-194c62-1 85 37 85 99 1 63-27 99-86 99S16-35 15-95c0-66 28-99 85-99zM99-20c44 1 53-31 53-75 0-43-8-75-51-75s-53 32-53 75 10 74 51 75" id="u"/><path d="M33-154v-36h34v36H33zM33 0v-36h34V0H33" id="v"/><g id="a"><use transform="matrix(0.05,0,0,0.05,0,0)" xlink:href="#s"/><use transform="matrix(0.05,0,0,0.05,9,0)" xlink:href="#t"/><use transform="matrix(0.05,0,0,0.05,18,0)" xlink:href="#u"/><use transform="matrix(0.05,0,0,0.05,28,0)" xlink:href="#s"/><use transform="matrix(0.05,0,0,0.05,37,0)" xlink:href="#v"/></g><path d="M212-179c-10-28-35-45-73-45-59 0-87 40-87 99 0 60 29 101 89 101 43 0 62-24 78-52l27 14C228-24 195 4 139 4 59 4 22-46 18-125c-6-104 99-153 187-111 19 9 31 26 39 46" id="w"/><path d="M117-194c89-4 53 116 60 194h-32v-121c0-31-8-49-39-48C34-167 62-67 57 0H25l-1-190h30c1 10-1 24 2 32 11-22 29-35 61-36" id="x"/><path d="M96-169c-40 0-48 33-48 73s9 75 48 75c24 0 41-14 43-38l32 2c-6 37-31 61-74 61-59 0-76-41-82-99-10-93 101-131 147-64 4 7 5 14 7 22l-32 3c-4-21-16-35-41-35" id="y"/><path d="M100-194c63 0 86 42 84 106H49c0 40 14 67 53 68 26 1 43-12 49-29l28 8c-11 28-37 45-77 45C44 4 14-33 15-96c1-61 26-98 85-98zm52 81c6-60-76-77-97-28-3 7-6 17-6 28h103" id="z"/><path d="M115-194c55 1 70 41 70 98S169 2 115 4C84 4 66-9 55-30l1 105H24l-1-265h31l2 30c10-21 28-34 59-34zm-8 174c40 0 45-34 45-75s-6-73-45-74c-42 0-51 32-51 76 0 43 10 73 51 73" id="A"/><path d="M59-47c-2 24 18 29 38 22v24C64 9 27 4 27-40v-127H5v-23h24l9-43h21v43h35v23H59v120" id="B"/><g id="b"><use transform="matrix(0.05,0,0,0.05,0,0)" xlink:href="#w"/><use transform="matrix(0.05,0,0,0.05,12.950000000000001,0)" xlink:href="#u"/><use transform="matrix(0.05,0,0,0.05,22.950000000000003,0)" xlink:href="#x"/><use transform="matrix(0.05,0,0,0.05,32.95,0)" xlink:href="#y"/><use transform="matrix(0.05,0,0,0.05,41.95,0)" xlink:href="#z"/><use transform="matrix(0.05,0,0,0.05,51.95,0)" xlink:href="#A"/><use transform="matrix(0.05,0,0,0.05,61.95,0)" xlink:href="#B"/></g><path fill="#fff" d="M143 4C61 4 22-44 18-125c-5-107 100-154 193-111 17 8 29 25 37 43l-32 9c-13-25-37-40-76-40-61 0-88 39-88 99 0 61 29 100 91 101 35 0 62-11 79-27v-45h-74v-28h105v86C228-13 192 4 143 4" id="C"/><path fill="#fff" d="M185-189c-5-48-123-54-124 2 14 75 158 14 163 119 3 78-121 87-175 55-17-10-28-26-33-46l33-7c5 56 141 63 141-1 0-78-155-14-162-118-5-82 145-84 179-34 5 7 8 16 11 25" id="D"/><path fill="#fff" d="M140-251c81 0 123 46 123 126C263-53 228-8 163 1c7 30 30 48 69 40v23c-55 16-95-15-103-61C56-3 17-48 17-125c0-80 42-126 123-126zm0 227c63 0 89-41 89-101s-29-99-89-99c-61 0-89 39-89 99S79-25 140-24" id="E"/><g id="c"><use transform="matrix(0.05,0,0,0.05,0,0)" xlink:href="#C"/><use transform="matrix(0.05,0,0,0.05,14,0)" xlink:href="#D"/><use transform="matrix(0.05,0,0,0.05,26,0)" xlink:href="#E"/></g><path fill="#fff" d="M212-179c-10-28-35-45-73-45-59 0-87 40-87 99 0 60 29 101 89 101 43 0 62-24 78-52l27 14C228-24 195 4 139 4 59 4 22-46 18-125c-6-104 99-153 187-111 19 9 31 26 39 46" id="F"/><path fill="#fff" d="M24 0v-261h32V0H24" id="G"/><path fill="#fff" d="M141-36C126-15 110 5 73 4 37 3 15-17 15-53c-1-64 63-63 125-63 3-35-9-54-41-54-24 1-41 7-42 31l-33-3c5-37 33-52 76-52 45 0 72 20 72 64v82c-1 20 7 32 28 27v20c-31 9-61-2-59-35zM48-53c0 20 12 33 32 33 41-3 63-29 60-74-43 2-92-5-92 41" id="H"/><path fill="#fff" d="M135-143c-3-34-86-38-87 0 15 53 115 12 119 90S17 21 10-45l28-5c4 36 97 45 98 0-10-56-113-15-118-90-4-57 82-63 122-42 12 7 21 19 24 35" id="I"/><g id="d"><use transform="matrix(0.05,0,0,0.05,0,0)" xlink:href="#F"/><use transform="matrix(0.05,0,0,0.05,12.950000000000001,0)" xlink:href="#G"/><use transform="matrix(0.05,0,0,0.05,16.900000000000002,0)" xlink:href="#H"/><use transform="matrix(0.05,0,0,0.05,26.900000000000002,0)" xlink:href="#I"/><use transform="matrix(0.05,0,0,0.05,35.900000000000006,0)" xlink:href="#I"/></g><path d="M30-248c118-7 216 8 213 122C240-48 200 0 122 0H30v-248zM63-27c89 8 146-16 146-99s-60-101-146-95v194" id="J"/><path d="M24-231v-30h32v30H24zM24 0v-190h32V0H24" id="K"/><path d="M141-36C126-15 110 5 73 4 37 3 15-17 15-53c-1-64 63-63 125-63 3-35-9-54-41-54-24 1-41 7-42 31l-33-3c5-37 33-52 76-52 45 0 72 20 72 64v82c-1 20 7 32 28 27v20c-31 9-61-2-59-35zM48-53c0 20 12 33 32 33 41-3 63-29 60-74-43 2-92-5-92 41" id="L"/><path d="M177-190C167-65 218 103 67 71c-23-6-38-20-44-43l32-5c15 47 100 32 89-28v-30C133-14 115 1 83 1 29 1 15-40 15-95c0-56 16-97 71-98 29-1 48 16 59 35 1-10 0-23 2-32h30zM94-22c36 0 50-32 50-73 0-42-14-75-50-75-39 0-46 34-46 75s6 73 46 73" id="M"/><path d="M114-163C36-179 61-72 57 0H25l-1-190h30c1 12-1 29 2 39 6-27 23-49 58-41v29" id="N"/><path d="M210-169c-67 3-38 105-44 169h-31v-121c0-29-5-50-35-48C34-165 62-65 56 0H25l-1-190h30c1 10-1 24 2 32 10-44 99-50 107 0 11-21 27-35 58-36 85-2 47 119 55 194h-31v-121c0-29-5-49-35-48" id="O"/><g id="e"><use transform="matrix(0.05,0,0,0.05,0,0)" xlink:href="#J"/><use transform="matrix(0.05,0,0,0.05,12.950000000000001,0)" xlink:href="#K"/><use transform="matrix(0.05,0,0,0.05,16.900000000000002,0)" xlink:href="#L"/><use transform="matrix(0.05,0,0,0.05,26.900000000000002,0)" xlink:href="#M"/><use transform="matrix(0.05,0,0,0.05,36.900000000000006,0)" xlink:href="#N"/><use transform="matrix(0.05,0,0,0.05,42.85000000000001,0)" xlink:href="#L"/><use transform="matrix(0.05,0,0,0.05,52.85,0)" xlink:href="#O"/><path d="M-.9 1.25h74.6v1.32H-.9z"/></g><path d="M30 0v-248h187v28H63v79h144v27H63v87h162V0H30" id="P"/><path d="M24 0v-261h32V0H24" id="Q"/><g id="f"><use transform="matrix(0.05,0,0,0.05,0,0)" xlink:href="#P"/><use transform="matrix(0.05,0,0,0.05,12,0)" xlink:href="#Q"/><use transform="matrix(0.05,0,0,0.05,15.949999999999998,0)" xlink:href="#z"/><use transform="matrix(0.05,0,0,0.05,25.950000000000003,0)" xlink:href="#O"/><use transform="matrix(0.05,0,0,0.05,40.9,0)" xlink:href="#z"/><use transform="matrix(0.05,0,0,0.05,50.9,0)" xlink:href="#x"/><use transform="matrix(0.05,0,0,0.05,60.900000000000006,0)" xlink:href="#B"/><path d="M-.9 1.25h72.7v1.32H-.9z"/></g><path d="M194 0L95-120 63-95V0H30v-248h33v124l119-124h40L117-140 236 0h-42" id="R"/><path d="M179-190L93 31C79 59 56 82 12 73V49c39 6 53-20 64-50L1-190h34L92-34l54-156h33" id="S"/><g id="g"><use transform="matrix(0.05,0,0,0.05,0,0)" xlink:href="#R"/><use transform="matrix(0.05,0,0,0.05,12,0)" xlink:href="#z"/><use transform="matrix(0.05,0,0,0.05,22,0)" xlink:href="#S"/><path d="M-.9 1.25h32.8v1.32H-.9z"/></g><path d="M206 0h-36l-40-164L89 0H53L-1-190h32L70-26l43-164h34l41 164 42-164h31" id="T"/><g id="h"><use transform="matrix(0.05,0,0,0.05,0,0)" xlink:href="#u"/><use transform="matrix(0.05,0,0,0.05,10,0)" xlink:href="#T"/><use transform="matrix(0.05,0,0,0.05,22.950000000000003,0)" xlink:href="#Q"/><use transform="matrix(0.05,0,0,0.05,26.900000000000002,0)" xlink:href="#v"/></g><g id="i"><use transform="matrix(0.05,0,0,0.05,0,0)" xlink:href="#w"/><use transform="matrix(0.05,0,0,0.05,12.950000000000001,0)" xlink:href="#Q"/><use transform="matrix(0.05,0,0,0.05,16.900000000000002,0)" xlink:href="#L"/><use transform="matrix(0.05,0,0,0.05,26.900000000000002,0)" xlink:href="#s"/><use transform="matrix(0.05,0,0,0.05,35.900000000000006,0)" xlink:href="#s"/></g><path d="M85-194c31 0 48 13 60 33l-1-100h32l1 261h-30c-2-10 0-23-3-31C134-8 116 4 85 4 32 4 16-35 15-94c0-66 23-100 70-100zm9 24c-40 0-46 34-46 75 0 40 6 74 45 74 42 0 51-32 51-76 0-42-9-74-50-73" id="U"/><path d="M101-234c-31-9-42 10-38 44h38v23H63V0H32v-167H5v-23h27c-7-52 17-82 69-68v24" id="V"/><g id="j"><use transform="matrix(0.05,0,0,0.05,0,0)" xlink:href="#N"/><use transform="matrix(0.05,0,0,0.05,5.95,0)" xlink:href="#U"/><use transform="matrix(0.05,0,0,0.05,15.949999999999998,0)" xlink:href="#V"/><use transform="matrix(0.05,0,0,0.05,20.95,0)" xlink:href="#v"/><use transform="matrix(0.05,0,0,0.05,25.950000000000003,0)" xlink:href="#A"/><use transform="matrix(0.05,0,0,0.05,35.95,0)" xlink:href="#N"/><use transform="matrix(0.05,0,0,0.05,41.900000000000006,0)" xlink:href="#u"/><use transform="matrix(0.05,0,0,0.05,51.900000000000006,0)" xlink:href="#A"/><use transform="matrix(0.05,0,0,0.05,61.900000000000006,0)" xlink:href="#z"/><use transform="matrix(0.05,0,0,0.05,71.9,0)" xlink:href="#N"/><use transform="matrix(0.05,0,0,0.05,77.85000000000001,0)" xlink:href="#B"/><use transform="matrix(0.05,0,0,0.05,82.85000000000001,0)" xlink:href="#S"/></g><path d="M30 0v-248h33v221h125V0H30" id="W"/><g id="k"><use transform="matrix(0.05,0,0,0.05,0,0)" xlink:href="#W"/><use transform="matrix(0.05,0,0,0.05,10,0)" xlink:href="#K"/><use transform="matrix(0.05,0,0,0.05,13.949999999999998,0)" xlink:href="#B"/><use transform="matrix(0.05,0,0,0.05,18.95,0)" xlink:href="#z"/><use transform="matrix(0.05,0,0,0.05,28.950000000000003,0)" xlink:href="#N"/><use transform="matrix(0.05,0,0,0.05,34.9,0)" xlink:href="#L"/><use transform="matrix(0.05,0,0,0.05,44.9,0)" xlink:href="#Q"/></g><path d="M84 4C-5 8 30-112 23-190h32v120c0 31 7 50 39 49 72-2 45-101 50-169h31l1 190h-30c-1-10 1-25-2-33-11 22-28 36-60 37" id="X"/><path d="M115-194c53 0 69 39 70 98 0 66-23 100-70 100C84 3 66-7 56-30L54 0H23l1-261h32v101c10-23 28-34 59-34zm-8 174c40 0 45-34 45-75 0-40-5-75-45-74-42 0-51 32-51 76 0 43 10 73 51 73" id="Y"/><path d="M140-251c81 0 123 46 123 126C263-46 219 4 140 4 59 4 17-45 17-125s42-126 123-126zm0 227c63 0 89-41 89-101s-29-99-89-99c-61 0-89 39-89 99S79-25 140-24" id="Z"/><g id="l"><use transform="matrix(0.05,0,0,0.05,0,0)" xlink:href="#N"/><use transform="matrix(0.05,0,0,0.05,5.95,0)" xlink:href="#U"/><use transform="matrix(0.05,0,0,0.05,15.949999999999998,0)" xlink:href="#V"/><use transform="matrix(0.05,0,0,0.05,20.95,0)" xlink:href="#s"/><use transform="matrix(0.05,0,0,0.05,29.950000000000003,0)" xlink:href="#v"/><use transform="matrix(0.05,0,0,0.05,34.95,0)" xlink:href="#s"/><use transform="matrix(0.05,0,0,0.05,43.95,0)" xlink:href="#X"/><use transform="matrix(0.05,0,0,0.05,53.95,0)" xlink:href="#Y"/><use transform="matrix(0.05,0,0,0.05,63.95,0)" xlink:href="#w"/><use transform="matrix(0.05,0,0,0.05,76.9,0)" xlink:href="#Q"/><use transform="matrix(0.05,0,0,0.05,80.85000000000001,0)" xlink:href="#L"/><use transform="matrix(0.05,0,0,0.05,90.85000000000001,0)" xlink:href="#s"/><use transform="matrix(0.05,0,0,0.05,99.85000000000001,0)" xlink:href="#s"/><use transform="matrix(0.05,0,0,0.05,108.85000000000001,0)" xlink:href="#Z"/><use transform="matrix(0.05,0,0,0.05,122.85000000000001,0)" xlink:href="#V"/></g><path fill="#fff" d="M33-154v-36h34v36H33zM33 0v-36h34V0H33" id="aa"/><path fill="#fff" d="M160-131c35 5 61 23 61 61C221 17 115-2 30 0v-248c76 3 177-17 177 60 0 33-19 50-47 57zm-97-11c50-1 110 9 110-42 0-47-63-36-110-37v79zm0 115c55-2 124 14 124-45 0-56-70-42-124-44v89" id="ab"/><path fill="#fff" d="M100-194c62-1 85 37 85 99 1 63-27 99-86 99S16-35 15-95c0-66 28-99 85-99zM99-20c44 1 53-31 53-75 0-43-8-75-51-75s-53 32-53 75 10 74 51 75" id="ac"/><path fill="#fff" d="M114-163C36-179 61-72 57 0H25l-1-190h30c1 12-1 29 2 39 6-27 23-49 58-41v29" id="ad"/><path fill="#fff" d="M100-194c63 0 86 42 84 106H49c0 40 14 67 53 68 26 1 43-12 49-29l28 8c-11 28-37 45-77 45C44 4 14-33 15-96c1-61 26-98 85-98zm52 81c6-60-76-77-97-28-3 7-6 17-6 28h103" id="ae"/><path fill="#fff" d="M106-169C34-169 62-67 57 0H25v-261h32l-1 103c12-21 28-36 61-36 89 0 53 116 60 194h-32v-121c2-32-8-49-39-48" id="af"/><g id="m"><use transform="matrix(0.05,0,0,0.05,0,0)" xlink:href="#aa"/><use transform="matrix(0.05,0,0,0.05,5,0)" xlink:href="#ab"/><use transform="matrix(0.05,0,0,0.05,17,0)" xlink:href="#ac"/><use transform="matrix(0.05,0,0,0.05,27,0)" xlink:href="#ad"/><use transform="matrix(0.05,0,0,0.05,32.95,0)" xlink:href="#ae"/><use transform="matrix(0.05,0,0,0.05,42.95,0)" xlink:href="#af"/><use transform="matrix(0.05,0,0,0.05,52.95,0)" xlink:href="#ac"/><use transform="matrix(0.05,0,0,0.05,62.95,0)" xlink:href="#G"/><use transform="matrix(0.05,0,0,0.05,66.9,0)" xlink:href="#ae"/></g><path d="M63-220v92h138v28H63V0H30v-248h175v28H63" id="ag"/><g id="n"><use transform="matrix(0.05,0,0,0.05,0,0)" xlink:href="#M"/><use transform="matrix(0.05,0,0,0.05,10,0)" xlink:href="#z"/><use transform="matrix(0.05,0,0,0.05,20,0)" xlink:href="#u"/><use transform="matrix(0.05,0,0,0.05,30,0)" xlink:href="#v"/><use transform="matrix(0.05,0,0,0.05,35,0)" xlink:href="#ag"/><use transform="matrix(0.05,0,0,0.05,45.95,0)" xlink:href="#z"/><use transform="matrix(0.05,0,0,0.05,55.95,0)" xlink:href="#L"/><use transform="matrix(0.05,0,0,0.05,65.95,0)" xlink:href="#B"/><use transform="matrix(0.05,0,0,0.05,70.95,0)" xlink:href="#X"/><use transform="matrix(0.05,0,0,0.05,80.95,0)" xlink:href="#N"/><use transform="matrix(0.05,0,0,0.05,86.9,0)" xlink:href="#z"/></g><path d="M143 4C61 4 22-44 18-125c-5-107 100-154 193-111 17 8 29 25 37 43l-32 9c-13-25-37-40-76-40-61 0-88 39-88 99 0 61 29 100 91 101 35 0 62-11 79-27v-45h-74v-28h105v86C228-13 192 4 143 4" id="ah"/><g id="o"><use transform="matrix(0.05,0,0,0.05,0,0)" xlink:href="#M"/><use transform="matrix(0.05,0,0,0.05,10,0)" xlink:href="#z"/><use transform="matrix(0.05,0,0,0.05,20,0)" xlink:href="#u"/><use transform="matrix(0.05,0,0,0.05,30,0)" xlink:href="#v"/><use transform="matrix(0.05,0,0,0.05,35,0)" xlink:href="#ah"/><use transform="matrix(0.05,0,0,0.05,49,0)" xlink:href="#z"/><use transform="matrix(0.05,0,0,0.05,59,0)" xlink:href="#u"/><use transform="matrix(0.05,0,0,0.05,69,0)" xlink:href="#O"/><use transform="matrix(0.05,0,0,0.05,83.95,0)" xlink:href="#z"/><use transform="matrix(0.05,0,0,0.05,93.95,0)" xlink:href="#B"/><use transform="matrix(0.05,0,0,0.05,98.95,0)" xlink:href="#N"/><use transform="matrix(0.05,0,0,0.05,104.9,0)" xlink:href="#S"/></g><g id="p"><use transform="matrix(0.05,0,0,0.05,0,0)" xlink:href="#M"/><use transform="matrix(0.05,0,0,0.05,10,0)" xlink:href="#z"/><use transform="matrix(0.05,0,0,0.05,20,0)" xlink:href="#u"/><use transform="matrix(0.05,0,0,0.05,30,0)" xlink:href="#v"/></g><path d="M106-169C34-169 62-67 57 0H25v-261h32l-1 103c12-21 28-36 61-36 89 0 53 116 60 194h-32v-121c2-32-8-49-39-48" id="ai"/><g id="q"><use transform="matrix(0.05,0,0,0.05,0,0)" xlink:href="#ai"/><use transform="matrix(0.05,0,0,0.05,10,0)" xlink:href="#L"/><use transform="matrix(0.05,0,0,0.05,20,0)" xlink:href="#s"/><use transform="matrix(0.05,0,0,0.05,29,0)" xlink:href="#ah"/><use transform="matrix(0.05,0,0,0.05,43,0)" xlink:href="#z"/><use transform="matrix(0.05,0,0,0.05,53,0)" xlink:href="#u"/><use transform="matrix(0.05,0,0,0.05,63,0)" xlink:href="#O"/><use transform="matrix(0.05,0,0,0.05,77.95,0)" xlink:href="#z"/><use transform="matrix(0.05,0,0,0.05,87.95,0)" xlink:href="#B"/><use transform="matrix(0.05,0,0,0.05,92.95,0)" xlink:href="#N"/><use transform="matrix(0.05,0,0,0.05,98.9,0)" xlink:href="#S"/></g><path d="M26 75v-336h71v23H56V52h41v23H26" id="aj"/><path d="M101-251c68 0 85 55 85 127S166 4 100 4C33 4 14-52 14-124c0-73 17-127 87-127zm-1 229c47 0 54-49 54-102s-4-102-53-102c-51 0-55 48-55 102 0 53 5 102 54 102" id="ak"/><path d="M33 0v-38h34V0H33" id="al"/><path d="M190 0L58-211 59 0H30v-248h39L202-35l-2-213h31V0h-41" id="am"/><path d="M3 75V52h41v-290H3v-23h71V75H3" id="an"/><g id="r"><use transform="matrix(0.05,0,0,0.05,0,0)" xlink:href="#aj"/><use transform="matrix(0.05,0,0,0.05,5,0)" xlink:href="#ak"/><use transform="matrix(0.05,0,0,0.05,15,0)" xlink:href="#al"/><use transform="matrix(0.05,0,0,0.05,20,0)" xlink:href="#al"/><use transform="matrix(0.05,0,0,0.05,25,0)" xlink:href="#am"/><use transform="matrix(0.05,0,0,0.05,37.95,0)" xlink:href="#an"/></g></defs></g></svg>